<svg xmlns="http://www.w3.org/2000/svg" xmlns:xlink="http://www.w3.org/1999/xlink" width="24" height="24" viewBox="0 0 24 24"><defs><clipPath id="a"><rect width="24" height="24" transform="translate(96.202 265.783)" fill="#396de0"/></clipPath></defs><g transform="translate(-96.202 -265.783)"><g clip-path="url(#a)"><path d="M108.2,269.783a8,8,0,1,0,8,8A8,8,0,0,0,108.2,269.783Zm-.5,3.75a.5.5,0,0,1,1,0v.827a.5.5,0,0,1-1,0Zm2.5,9h-4a.5.5,0,1,1,0-1h1.5v-5H106.9a.5.5,0,0,1,0-1H108.2a.5.5,0,0,1,.5.5v5.5h1.5a.5.5,0,0,1,0,1Z" fill="#396de0"/></g></g></svg>