<svg width="603" height="296" viewBox="0 0 603 296" fill="none" xmlns="http://www.w3.org/2000/svg">
<g clip-path="url(#clip0)">
<path opacity="0.45" d="M540.713 153.937C539.11 154.316 537.468 154.506 535.82 154.505C533.01 154.494 530.229 153.931 527.636 152.845C525.043 151.76 522.69 150.175 520.71 148.18C518.73 146.186 517.163 143.821 516.097 141.22C515.031 138.62 514.488 135.835 514.498 133.024C514.488 130.214 515.031 127.429 516.097 124.829C517.163 122.229 518.731 119.863 520.711 117.869C522.691 115.874 525.044 114.29 527.637 113.205C530.229 112.12 533.01 111.556 535.82 111.546C536.728 111.545 537.635 111.603 538.535 111.719C540.419 108.551 543.093 105.928 546.296 104.105C549.499 102.282 553.12 101.322 556.805 101.319C560.611 101.324 564.346 102.348 567.622 104.285C570.898 106.222 573.594 109.002 575.432 112.335C577.301 111.81 579.234 111.544 581.176 111.546C583.986 111.556 586.767 112.12 589.36 113.205C591.952 114.29 594.305 115.874 596.285 117.869C598.265 119.863 599.834 122.229 600.9 124.829C601.966 127.429 602.508 130.214 602.498 133.024C602.508 135.835 601.965 138.619 600.899 141.219C599.832 143.82 598.264 146.185 596.284 148.179C594.304 150.174 591.951 151.759 589.359 152.844C586.766 153.928 583.984 154.492 581.174 154.502C578.578 154.506 576.004 154.032 573.58 153.102C571.595 155.661 569.052 157.731 566.144 159.155C563.236 160.58 560.041 161.321 556.803 161.321C553.747 161.322 550.728 160.662 547.951 159.387C545.174 158.113 542.705 156.254 540.713 153.937Z" fill="#D7E2F9"/>
<path opacity="0.45" d="M26.215 93.9393C24.6115 94.3176 22.9699 94.5076 21.3224 94.5067C18.5119 94.4964 15.7305 93.9326 13.1378 92.8475C10.5452 91.7624 8.19204 90.1772 6.21207 88.1824C4.23209 86.1877 2.66459 83.8231 1.59879 81.2225C0.532983 78.6218 -0.010503 75.8367 0.000153733 73.0262C-0.0101081 70.2159 0.532806 67.4312 1.59879 64.8309C2.66477 62.2306 4.23311 59.8653 6.21304 57.8709C8.19298 55.8765 10.5464 54.2918 13.1388 53.2068C15.7313 52.1219 18.5121 51.5579 21.3224 51.5477C22.2302 51.5474 23.1369 51.605 24.0373 51.7205C25.9214 48.5534 28.5954 45.9303 31.798 44.1072C35.0006 42.2842 38.6216 41.3243 42.3068 41.3211C46.1126 41.3257 49.8483 42.3496 53.1242 44.2869C56.4 46.2243 59.0962 49.0039 60.9337 52.3367C62.8032 51.8119 64.7361 51.5464 66.6779 51.5477C69.4882 51.5579 72.269 52.1219 74.8615 53.2068C77.4539 54.2918 79.8073 55.8765 81.7873 57.8709C83.7672 59.8653 85.3355 62.2306 86.4015 64.8309C87.4675 67.4312 88.0104 70.2159 88.0002 73.0262C88.0104 75.8366 87.4667 78.6211 86.4005 81.2215C85.3344 83.8219 83.7664 86.187 81.7863 88.1815C79.8061 90.1759 77.4532 91.7607 74.8605 92.8455C72.2678 93.9303 69.4864 94.4938 66.6759 94.5037C64.0801 94.5076 61.506 94.0335 59.0822 93.1043C57.0974 95.6627 54.5535 97.7325 51.6457 99.157C48.7379 100.582 45.5428 101.323 42.3048 101.323C39.2493 101.324 36.2303 100.664 33.4533 99.3895C30.6762 98.115 28.2068 96.2563 26.215 93.9393Z" fill="#D7E2F9"/>
<path opacity="0.45" d="M282.141 72.7822C279.899 73.3058 277.605 73.5697 275.303 73.5684C267.411 73.5795 259.838 70.4556 254.25 64.8838C248.662 59.3121 245.515 51.7489 245.503 43.8574C245.516 35.9661 248.663 28.4028 254.251 22.8311C259.839 17.2594 267.411 14.1356 275.303 14.1465C276.571 14.1459 277.838 14.225 279.097 14.3848C281.753 9.98986 285.501 6.35649 289.975 3.83595C294.449 1.31542 299.498 -0.00649012 304.633 -0.000959278C309.935 -0.00597312 315.143 1.40352 319.72 4.08205C324.296 6.76058 328.076 10.6115 330.668 15.2373C333.282 14.5108 335.983 14.1427 338.696 14.1445C346.589 14.1323 354.162 17.2563 359.752 22.8281C365.342 28.4 368.489 35.9641 368.502 43.8565C368.489 51.7489 365.342 59.3129 359.752 64.8848C354.162 70.4566 346.589 73.5799 338.696 73.5674C335.07 73.572 331.473 72.9141 328.082 71.627C325.291 75.1752 321.729 78.043 317.667 80.0127C313.605 81.9824 309.147 83.0027 304.633 82.9971C300.371 83.0032 296.158 82.0943 292.277 80.332C288.397 78.5698 284.94 75.9953 282.141 72.7822Z" fill="#D7E2F9"/>
<path opacity="0.45" d="M151.65 165.087C150.357 165.39 149.032 165.542 147.703 165.542C143.144 165.543 138.77 163.735 135.545 160.513C132.319 157.291 130.506 152.919 130.503 148.36C130.506 143.801 132.319 139.43 135.545 136.208C138.77 132.986 143.144 131.176 147.703 131.178C148.435 131.178 149.166 131.224 149.893 131.316C151.424 128.777 153.586 126.675 156.169 125.218C158.752 123.76 161.667 122.995 164.633 122.997C167.696 122.995 170.704 123.811 173.346 125.36C175.988 126.91 178.168 129.137 179.661 131.81C181.17 131.39 182.729 131.177 184.296 131.179C188.856 131.176 193.23 132.985 196.457 136.207C199.684 139.429 201.498 143.801 201.501 148.361C201.498 152.921 199.684 157.293 196.457 160.516C193.23 163.738 188.856 165.546 184.296 165.543C182.202 165.546 180.126 165.165 178.169 164.421C176.559 166.472 174.504 168.129 172.159 169.268C169.814 170.408 167.24 170.999 164.633 170.996C162.172 170.999 159.739 170.473 157.499 169.453C155.259 168.434 153.265 166.944 151.65 165.087Z" fill="#D7E2F9"/>
<path d="M234.04 126.326H235.103C236.164 126.326 237.181 126.747 237.931 127.498C238.682 128.248 239.103 129.265 239.103 130.326V293.841H230.04V130.326C230.04 129.265 230.461 128.248 231.212 127.498C231.962 126.747 232.979 126.326 234.04 126.326V126.326Z" fill="#D7E2F9"/>
<path d="M293.524 87.7542L238.815 33.0446C236.472 30.7015 232.673 30.7015 230.329 33.0446L175.62 87.7542C173.277 90.0973 173.277 93.8963 175.62 96.2395L230.329 150.949C232.673 153.292 236.472 153.292 238.815 150.949L293.524 96.2395C295.867 93.8963 295.867 90.0973 293.524 87.7542Z" fill="#B4C8F0"/>
<path d="M287.217 89.8748L236.693 39.3513C235.522 38.1797 233.622 38.1797 232.451 39.3513L181.927 89.8748C180.756 91.0463 180.756 92.9458 181.927 94.1174L232.451 144.641C233.622 145.812 235.522 145.812 236.693 144.641L287.217 94.1174C288.388 92.9458 288.388 91.0463 287.217 89.8748Z" fill="#D7E2F9"/>
<path d="M234.989 114.648C234.943 114.826 234.839 114.985 234.694 115.098C234.548 115.211 234.369 115.272 234.185 115.272C234.001 115.272 233.822 115.211 233.676 115.098C233.531 114.985 233.427 114.826 233.381 114.648L228.401 70.548C228.401 67.821 230.991 65.6099 234.185 65.6099C237.38 65.6099 239.969 67.821 239.969 70.548L234.989 114.648Z" fill="#86A4E2"/>
<path d="M234.185 126.583C236.438 126.583 238.265 124.756 238.265 122.503C238.265 120.25 236.438 118.423 234.185 118.423C231.932 118.423 230.105 120.25 230.105 122.503C230.105 124.756 231.932 126.583 234.185 126.583Z" fill="#86A4E2"/>
<path d="M269.616 178.6H286.421C287.482 178.6 288.499 179.021 289.249 179.772C290 180.522 290.421 181.539 290.421 182.6V293.715H265.616V182.6C265.616 181.539 266.037 180.522 266.788 179.772C267.538 179.021 268.555 178.6 269.616 178.6V178.6Z" fill="#B4C8F0"/>
<path d="M414.097 178.6H430.902C431.963 178.6 432.98 179.021 433.73 179.772C434.481 180.522 434.902 181.539 434.902 182.6V293.715H410.097V182.6C410.097 181.539 410.518 180.522 411.269 179.772C412.019 179.021 413.036 178.6 414.097 178.6V178.6Z" fill="#B4C8F0"/>
<path d="M258.242 199.744V218.181C258.242 220.39 260.033 222.181 262.242 222.181H438.636C440.845 222.181 442.636 220.39 442.636 218.181V199.744C442.636 197.535 440.845 195.744 438.636 195.744H262.242C260.033 195.744 258.242 197.535 258.242 199.744Z" fill="#86A4E2"/>
<path d="M258.242 235.48V253.917C258.242 256.126 260.033 257.917 262.242 257.917H438.636C440.845 257.917 442.636 256.126 442.636 253.917V235.48C442.636 233.271 440.845 231.48 438.636 231.48H262.242C260.033 231.48 258.242 233.271 258.242 235.48Z" fill="#86A4E2"/>
<path d="M438.552 195.744L422.923 222.181H400.195L415.824 195.744H438.552Z" fill="#D7E2F9"/>
<path d="M392.456 195.744L376.827 222.181H354.099L369.728 195.744H392.456Z" fill="#D7E2F9"/>
<path d="M346.361 195.744L330.732 222.181H308.004L323.633 195.744H346.361Z" fill="#D7E2F9"/>
<path d="M300.266 195.744L284.637 222.181H261.909L277.538 195.744H300.266Z" fill="#D7E2F9"/>
<path d="M438.552 231.479L422.923 257.916H400.195L415.824 231.479H438.552Z" fill="#D7E2F9"/>
<path d="M392.456 231.479L376.827 257.916H354.099L369.728 231.479H392.456Z" fill="#D7E2F9"/>
<path d="M346.361 231.479L330.732 257.916H308.004L323.633 231.479H346.361Z" fill="#D7E2F9"/>
<path d="M300.266 231.479L284.637 257.916H261.909L277.538 231.479H300.266Z" fill="#D7E2F9"/>
<path d="M422.499 247.766C424.193 247.766 425.567 246.392 425.567 244.698C425.567 243.004 424.193 241.63 422.499 241.63C420.805 241.63 419.431 243.004 419.431 244.698C419.431 246.392 420.805 247.766 422.499 247.766Z" fill="#86A4E2"/>
<path d="M422.499 212.03C424.193 212.03 425.567 210.656 425.567 208.962C425.567 207.268 424.193 205.894 422.499 205.894C420.805 205.894 419.431 207.268 419.431 208.962C419.431 210.656 420.805 212.03 422.499 212.03Z" fill="#86A4E2"/>
<path d="M278.019 247.766C279.713 247.766 281.087 246.392 281.087 244.698C281.087 243.004 279.713 241.63 278.019 241.63C276.325 241.63 274.951 243.004 274.951 244.698C274.951 246.392 276.325 247.766 278.019 247.766Z" fill="#86A4E2"/>
<path d="M278.019 212.03C279.713 212.03 281.087 210.656 281.087 208.962C281.087 207.268 279.713 205.894 278.019 205.894C276.325 205.894 274.951 207.268 274.951 208.962C274.951 210.656 276.325 212.03 278.019 212.03Z" fill="#86A4E2"/>
<path d="M482 293.715H132" stroke="#86A4E2" stroke-width="3" stroke-linecap="round"/>
</g>
<defs>
<clipPath id="clip0">
<rect width="602.5" height="295.216" fill="white"/>
</clipPath>
</defs>
</svg>
