<svg width="283" height="45" viewBox="0 0 283 45" fill="none" xmlns="http://www.w3.org/2000/svg">
<g clip-path="url(#clip0)">
<path d="M81.48 25.179C81.4548 26.8245 80.7873 28.395 79.6202 29.5552C78.4531 30.7155 76.8786 31.3735 75.233 31.389H75.091C73.4454 31.3735 71.8709 30.7155 70.7038 29.5552C69.5367 28.395 68.8692 26.8245 68.844 25.179V6.673C68.8545 6.63916 68.8566 6.60328 68.8501 6.56845C68.8437 6.53361 68.8289 6.50086 68.807 6.473C68.7853 6.44525 68.7573 6.42306 68.7253 6.40828C68.6933 6.3935 68.6582 6.38655 68.623 6.388H62.788C62.7296 6.388 62.6735 6.41115 62.6321 6.45238C62.5907 6.49361 62.5673 6.54956 62.567 6.608V25.1C62.5779 28.4448 63.9167 31.6483 66.2891 34.006C68.6615 36.3638 71.8732 37.6828 75.218 37.673C78.5628 37.6828 81.7745 36.3638 84.1469 34.006C86.5193 31.6483 87.8581 28.4448 87.869 25.1V6.673C87.8963 6.62891 87.907 6.57658 87.8993 6.5253C87.8916 6.47403 87.866 6.42715 87.827 6.393C87.7868 6.35877 87.7358 6.33997 87.683 6.33997C87.6302 6.33997 87.5792 6.35877 87.539 6.393H81.702C81.6436 6.393 81.5875 6.41615 81.5461 6.45738C81.5047 6.49861 81.4813 6.55456 81.481 6.613L81.48 25.179Z" fill="#3D3E40"/>
<path d="M112.284 25.493L100.218 6.62901C100.199 6.59578 100.171 6.56817 100.138 6.54888C100.104 6.5296 100.066 6.5193 100.028 6.51901H94.082C94.0236 6.51901 93.9675 6.54216 93.9261 6.58339C93.8847 6.62462 93.8613 6.68057 93.861 6.73901V37.472C93.8613 37.5305 93.8847 37.5864 93.9261 37.6276C93.9675 37.6689 94.0236 37.692 94.082 37.692H99.917C99.9754 37.692 100.032 37.6689 100.073 37.6276C100.114 37.5864 100.138 37.5305 100.138 37.472V18.828C100.136 18.7789 100.15 18.7304 100.178 18.6901C100.207 18.6499 100.248 18.6203 100.295 18.6059C100.342 18.5914 100.392 18.5931 100.438 18.6105C100.484 18.6279 100.523 18.6601 100.549 18.702L112.616 37.567C112.635 37.6002 112.663 37.6279 112.696 37.6471C112.73 37.6664 112.768 37.6767 112.806 37.677H118.752C118.81 37.677 118.867 37.6539 118.908 37.6126C118.949 37.5714 118.973 37.5155 118.973 37.457V6.75501C118.973 6.69657 118.949 6.64062 118.908 6.59939C118.867 6.55816 118.81 6.53501 118.752 6.53501H112.917C112.859 6.53501 112.802 6.55816 112.761 6.59939C112.72 6.64062 112.696 6.69657 112.696 6.75501V25.368C112.698 25.4172 112.684 25.4657 112.656 25.5059C112.627 25.5461 112.586 25.5757 112.539 25.5902C112.492 25.6046 112.442 25.603 112.396 25.5856C112.35 25.5682 112.311 25.536 112.285 25.494L112.284 25.493Z" fill="#3D3E40"/>
<path d="M131.301 6.45499H125.287C125.21 6.45499 125.147 6.51767 125.147 6.59499V37.488C125.147 37.5653 125.21 37.628 125.287 37.628H131.301C131.378 37.628 131.441 37.5653 131.441 37.488V6.59499C131.441 6.51767 131.378 6.45499 131.301 6.45499Z" fill="#3D3E40"/>
<path d="M162.606 6.487V37.66H181.266C181.324 37.66 181.381 37.6369 181.422 37.5956C181.463 37.5544 181.487 37.4984 181.487 37.44V31.627C181.487 31.5686 181.463 31.5126 181.422 31.4714C181.381 31.4301 181.324 31.407 181.266 31.407H169.126C169.068 31.407 169.012 31.3839 168.97 31.3426C168.929 31.3014 168.905 31.2454 168.905 31.187V25.427C168.905 25.3686 168.929 25.3126 168.97 25.2714C169.012 25.2301 169.068 25.207 169.126 25.207H178.077C178.135 25.207 178.192 25.1839 178.233 25.1426C178.274 25.1014 178.298 25.0454 178.298 24.987V19.187C178.298 19.1286 178.274 19.0726 178.233 19.0314C178.192 18.9901 178.135 18.967 178.077 18.967H169.126C169.068 18.967 169.012 18.9439 168.97 18.9026C168.929 18.8614 168.905 18.8054 168.905 18.747V12.964C168.905 12.9056 168.929 12.8496 168.97 12.8084C169.012 12.7671 169.068 12.744 169.126 12.744H181.266C181.324 12.744 181.381 12.7209 181.422 12.6796C181.463 12.6384 181.487 12.5824 181.487 12.524V6.707C181.487 6.64856 181.463 6.5926 181.422 6.55137C181.381 6.51015 181.324 6.487 181.266 6.487H162.606Z" fill="#3D3E40"/>
<path d="M198.292 6.487H187.854C187.796 6.487 187.739 6.51015 187.698 6.55138C187.657 6.59261 187.633 6.64856 187.633 6.707V37.44C187.633 37.4984 187.657 37.5544 187.698 37.5956C187.739 37.6369 187.796 37.66 187.854 37.66H198.291C200.188 37.6657 202.067 37.2977 203.821 36.5771C205.576 35.8565 207.171 34.7973 208.516 33.4602C209.861 32.123 210.93 30.534 211.661 28.7838C212.392 27.0337 212.771 25.1567 212.777 23.26V20.887C212.771 18.9903 212.392 17.1133 211.661 15.3632C210.93 13.613 209.861 12.024 208.516 10.6868C207.171 9.34967 205.576 8.29055 203.821 7.56994C202.067 6.84933 200.188 6.48135 198.291 6.487H198.292ZM206.499 23.687C206.496 24.7081 206.292 25.7186 205.898 26.6608C205.504 27.603 204.929 28.4583 204.205 29.178C203.48 29.8977 202.621 30.4677 201.677 30.8553C200.732 31.2429 199.72 31.4406 198.699 31.437H194.145C194.087 31.437 194.03 31.4139 193.989 31.3726C193.948 31.3314 193.924 31.2754 193.924 31.217V12.964C193.924 12.9056 193.948 12.8496 193.989 12.8084C194.03 12.7671 194.087 12.744 194.145 12.744H198.699C200.773 12.743 202.762 13.5656 204.229 15.031C204.953 15.7538 205.526 16.6131 205.915 17.5591C206.304 18.5052 206.502 19.5191 206.496 20.542L206.499 23.687Z" fill="#3D3E40"/>
<path d="M134.711 12.839H143.66C143.718 12.839 143.775 12.8621 143.816 12.9034C143.857 12.9446 143.881 13.0006 143.881 13.059V37.535C143.881 37.5934 143.905 37.6494 143.946 37.6906C143.988 37.7319 144.044 37.755 144.102 37.755H149.937C149.995 37.755 150.052 37.7319 150.093 37.6906C150.134 37.6494 150.158 37.5934 150.158 37.535V13.062C150.158 13.0036 150.182 12.9476 150.223 12.9064C150.265 12.8651 150.321 12.842 150.379 12.842H159.33C159.384 12.8521 159.44 12.8415 159.487 12.8125C159.534 12.7835 159.568 12.738 159.583 12.685V6.802C159.583 6.74356 159.559 6.68761 159.518 6.64638C159.477 6.60515 159.42 6.582 159.362 6.582H134.711C134.653 6.582 134.597 6.60515 134.555 6.64638C134.514 6.68761 134.49 6.74356 134.49 6.802V12.682C134.504 12.729 134.534 12.7699 134.574 12.7984C134.614 12.8268 134.662 12.8411 134.711 12.839Z" fill="#3D3E40"/>
<path d="M254.616 6.534H248.602C248.525 6.534 248.462 6.59668 248.462 6.674V37.567C248.462 37.6443 248.525 37.707 248.602 37.707H254.616C254.693 37.707 254.756 37.6443 254.756 37.567V6.674C254.756 6.59668 254.693 6.534 254.616 6.534Z" fill="#3D3E40"/>
<path d="M232.87 6.487H217.388C217.33 6.487 217.274 6.51015 217.232 6.55137C217.191 6.5926 217.167 6.64856 217.167 6.707V37.427C217.167 37.4854 217.191 37.5414 217.232 37.5826C217.274 37.6239 217.33 37.647 217.388 37.647H232.87C234.112 37.6507 235.343 37.4096 236.492 36.9376C237.641 36.4656 238.686 35.7719 239.567 34.896C240.448 34.0202 241.148 32.9794 241.627 31.8331C242.106 30.6867 242.354 29.4573 242.358 28.215C242.374 25.8924 241.517 23.6486 239.958 21.927C241.517 20.2054 242.374 17.9616 242.358 15.639C242.277 13.1797 241.24 10.8488 239.469 9.14073C237.698 7.4327 235.331 6.48189 232.87 6.49V6.487ZM223.682 12.775H232.697C233.112 12.7492 233.528 12.8073 233.92 12.9457C234.313 13.0841 234.673 13.3 234.98 13.5806C235.287 13.8612 235.535 14.2007 235.708 14.5789C235.881 14.9571 235.976 15.3662 235.988 15.782C235.999 16.1978 235.927 16.6116 235.776 16.999C235.624 17.3863 235.396 17.7391 235.105 18.0365C234.814 18.3339 234.467 18.5697 234.083 18.7299C233.699 18.8901 233.287 18.9714 232.871 18.969H223.604C223.546 18.969 223.49 18.9459 223.448 18.9046C223.407 18.8634 223.383 18.8074 223.383 18.749V12.964C223.372 12.929 223.371 12.892 223.378 12.8562C223.385 12.8204 223.401 12.787 223.425 12.759C223.449 12.7301 223.48 12.7079 223.515 12.6942C223.55 12.6806 223.588 12.676 223.625 12.681L223.682 12.775ZM235.982 28.322C235.979 29.1583 235.645 29.9594 235.051 30.5489C234.458 31.1385 233.655 31.4684 232.819 31.466H223.631C223.573 31.466 223.516 31.4429 223.475 31.4016C223.434 31.3604 223.41 31.3044 223.41 31.246V25.414C223.41 25.3556 223.434 25.2996 223.475 25.2584C223.516 25.2171 223.573 25.194 223.631 25.194H232.866C233.68 25.2242 234.451 25.5685 235.017 26.1546C235.583 26.7407 235.9 27.5232 235.902 28.338L235.982 28.322Z" fill="#3D3E40"/>
<path d="M283 6.707C283 6.64856 282.976 6.5926 282.935 6.55137C282.893 6.51015 282.837 6.487 282.779 6.487H258.172C258.114 6.487 258.057 6.51015 258.016 6.55137C257.975 6.5926 257.951 6.64856 257.951 6.707V12.527C257.965 12.574 257.995 12.6149 258.035 12.6434C258.075 12.6718 258.123 12.6861 258.172 12.684H267.139C267.197 12.684 267.253 12.7071 267.295 12.7484C267.336 12.7896 267.36 12.8456 267.36 12.904V37.44C267.36 37.4984 267.384 37.5544 267.425 37.5956C267.466 37.6369 267.523 37.66 267.581 37.66H273.416C273.474 37.66 273.53 37.6369 273.572 37.5956C273.613 37.5544 273.637 37.4984 273.637 37.44V12.964C273.628 12.9329 273.625 12.9 273.63 12.8678C273.635 12.8357 273.647 12.805 273.665 12.778C273.683 12.7504 273.707 12.727 273.735 12.7098C273.763 12.6925 273.794 12.6816 273.827 12.678H282.778C282.836 12.678 282.892 12.6549 282.934 12.6136C282.975 12.5724 282.999 12.5164 282.999 12.458L283 6.707Z" fill="#3D3E40"/>
<path d="M14.892 10.13L8.566 16.43C7.8071 17.183 7.20476 18.0787 6.79371 19.0656C6.38266 20.0525 6.17104 21.1109 6.17104 22.18C6.17104 23.2491 6.38266 24.3075 6.79371 25.2944C7.20476 26.2813 7.8071 27.177 8.566 27.93L15.966 35.3C15.9866 35.3209 16.0112 35.3375 16.0384 35.3489C16.0655 35.3602 16.0946 35.3661 16.124 35.3661C16.1534 35.3661 16.1825 35.3602 16.2096 35.3489C16.2367 35.3375 16.2613 35.3209 16.282 35.3L33.6 18.067C33.631 18.0356 33.6706 18.0141 33.7139 18.0054C33.7571 17.9966 33.802 18.0009 33.8428 18.0178C33.8835 18.0346 33.9184 18.0632 33.9428 18.1C33.9673 18.1367 33.9802 18.1799 33.98 18.224V24.712C33.9801 25.2976 33.8641 25.8774 33.6387 26.4179C33.4134 26.9584 33.0831 27.4489 32.667 27.861L16.347 44.161C16.3263 44.1819 16.3017 44.1985 16.2746 44.2099C16.2475 44.2212 16.2184 44.2271 16.189 44.2271C16.1596 44.2271 16.1305 44.2212 16.1034 44.2099C16.0763 44.1985 16.0516 44.1819 16.031 44.161L4.281 32.397C2.92459 31.05 1.84808 29.448 1.11347 27.6831C0.378854 25.9183 0.000656128 24.0256 0.000656128 22.114C0.000656128 20.2024 0.378854 18.3097 1.11347 16.5449C1.84808 14.78 2.92459 13.178 4.281 11.831L15.825 0.346999C15.856 0.315597 15.8956 0.294142 15.9389 0.285373C15.9821 0.276605 16.027 0.28092 16.0678 0.297767C16.1085 0.314615 16.1434 0.343231 16.1678 0.379963C16.1923 0.416696 16.2052 0.459878 16.205 0.503999V6.997C16.203 7.57992 16.086 8.1567 15.8607 8.69432C15.6353 9.23194 15.3062 9.71981 14.892 10.13Z" fill="#396DE0"/>
<path d="M35.275 34.096L41.775 27.624C43.2233 26.1551 44.0352 24.1753 44.0352 22.1125C44.0352 20.0497 43.2233 18.0698 41.775 16.601L34.137 8.97899C34.1163 8.95807 34.0917 8.94145 34.0646 8.93012C34.0375 8.91878 34.0084 8.91294 33.979 8.91294C33.9496 8.91294 33.9205 8.91878 33.8934 8.93012C33.8663 8.94145 33.8417 8.95807 33.821 8.97899L16.568 26.159C16.537 26.1904 16.4974 26.2118 16.4541 26.2206C16.4109 26.2294 16.366 26.2251 16.3252 26.2082C16.2844 26.1914 16.2496 26.1628 16.2252 26.126C16.2007 26.0893 16.1878 26.0461 16.188 26.002V19.53C16.1879 18.9444 16.3039 18.3646 16.5293 17.8241C16.7546 17.2835 17.0849 16.7931 17.501 16.381L33.821 0.0659903C33.8417 0.0450677 33.8663 0.028455 33.8934 0.0171163C33.9205 0.00577771 33.9496 -6.10352e-05 33.979 -6.10352e-05C34.0084 -6.10352e-05 34.0375 0.00577771 34.0646 0.0171163C34.0917 0.028455 34.1163 0.0450677 34.137 0.0659903L46.013 11.892C47.3501 13.2225 48.4112 14.8042 49.1352 16.546C49.8592 18.2879 50.2319 20.1556 50.2319 22.042C50.2319 23.9283 49.8592 25.7961 49.1352 27.5379C48.4112 29.2798 47.3501 30.8614 46.013 32.192L34.358 43.796C34.327 43.8274 34.2874 43.8488 34.2441 43.8576C34.2009 43.8664 34.156 43.8621 34.1152 43.8452C34.0744 43.8284 34.0396 43.7998 34.0152 43.763C33.9907 43.7263 33.9778 43.6831 33.978 43.639V37.242C33.9762 36.6573 34.0901 36.078 34.3133 35.5376C34.5364 34.9971 34.8643 34.5061 35.278 34.093L35.275 34.096Z" fill="#396DE0"/>
</g>
<defs>
<clipPath id="clip0">
<rect width="283" height="44.226" fill="white"/>
</clipPath>
</defs>
</svg>
