<svg xmlns="http://www.w3.org/2000/svg" xmlns:xlink="http://www.w3.org/1999/xlink" width="24" height="24" viewBox="0 0 24 24"><defs><clipPath id="a"><rect width="24" height="24" transform="translate(131.698 266.594)" fill="#e64141"/></clipPath></defs><g transform="translate(-131.698 -266.594)"><g clip-path="url(#a)"><path d="M143.7,270.594a8,8,0,1,0,8,8A8,8,0,0,0,143.7,270.594Zm3.182,10.475a.5.5,0,1,1-.707.707L143.7,279.3l-2.475,2.475a.5.5,0,0,1-.707-.707l2.475-2.475-2.475-2.475a.5.5,0,0,1,.707-.707l2.475,2.475,2.475-2.475a.5.5,0,1,1,.707.707l-2.475,2.475Z" fill="#e64141"/></g></g></svg>