<svg xmlns="http://www.w3.org/2000/svg" width="60" height="81" viewBox="0 0 60 81">
    <g fill="none" fill-rule="evenodd" stroke-linecap="round" stroke-linejoin="round">
        <g>
            <g transform="translate(-150 -28) translate(151 29)">
                <g fill="#23232B" fill-rule="nonzero" stroke="#34343D" stroke-width="2">
                    <path d="M51.922 10.525c-4.696-.098-9.13-2.19-12.205-5.758C36.974 1.731 33.082 0 29.001 0c-4.081 0-7.973 1.731-10.717 4.767-3.075 3.568-7.51 5.66-12.208 5.758H4.833c-1.282 0-2.512.512-3.418 1.423C.509 12.858 0 14.094 0 15.383v15.985c-.004 19.968 11.223 38.225 28.998 47.155C46.775 69.593 58.003 51.337 58 31.368V15.383c0-1.289-.509-2.524-1.415-3.435s-2.136-1.423-3.418-1.423h-1.245z"/>
                </g>
                <circle cx="29" cy="31" r="7" stroke="#396DE0" stroke-width="3"/>
                <path stroke="#396DE0" stroke-width="3" d="M43 51c0-1.857-.684-3.638-1.9-4.95C39.881 44.735 38.23 44 36.51 44H21.487C17.904 44 15 47.133 15 50.999"/>
            </g>
        </g>
    </g>
</svg>
