<svg width="98" height="142" viewBox="0 0 98 142" fill="none" xmlns="http://www.w3.org/2000/svg">
<path d="M77.3262 114.904C77.3262 114.904 76.3308 123.643 70.3367 129.648C64.3427 135.654 55.6198 136.651 55.6198 136.651C55.6198 136.651 55.8425 127.138 61.8366 121.132C67.8307 115.127 77.3262 114.904 77.3262 114.904Z" fill="#3C3C47"/>
<path d="M20.9783 125.307C20.9783 125.307 28.7728 122.81 36.6917 125.251C44.6106 127.693 49.655 134.149 49.655 134.149C49.655 134.149 41.5854 137.541 33.6665 135.1C25.7477 132.658 20.9783 125.307 20.9783 125.307Z" fill="#525261"/>
<path d="M26.7354 108.825C26.7354 108.825 37.7596 109.882 45.9136 117.242C54.0676 124.602 56.2637 135.477 56.2637 135.477C56.2637 135.477 44.3567 135.401 36.2027 128.041C28.0487 120.682 26.7354 108.825 26.7354 108.825Z" fill="#727283"/>
<path d="M67.4279 111.522C67.4279 111.522 67.6887 116.968 64.6367 121.302C61.5848 125.636 56.3757 127.216 56.3757 127.216C56.3757 127.216 55.5679 121.383 58.6198 117.049C61.6718 112.715 67.4279 111.522 67.4279 111.522Z" fill="#727283"/>
<path d="M14 136.019H83.6719" stroke="#525261" stroke-width="3" stroke-miterlimit="10" stroke-linecap="round"/>
<mask id="mask0" mask-type="alpha" maskUnits="userSpaceOnUse" x="43" y="0" width="15" height="135">
<path d="M43 7.5C43 3.35787 46.3579 0 50.5 0C54.6421 0 58 3.35786 58 7.5V135H43V7.5Z" fill="#C4C4C4"/>
</mask>
<g mask="url(#mask0)">
<path d="M55 0H43V136H55V0Z" fill="#3C3C47"/>
<path d="M58 0H55V136H58V0Z" fill="#525261"/>
</g>
<path fill-rule="evenodd" clip-rule="evenodd" d="M87.2187 27.585L41.2102 36.1259C40.2485 36.3045 39.3238 35.6733 39.1463 34.7171L36.3216 19.5008C36.1441 18.5446 36.7806 17.6237 37.7423 17.4451L83.7508 8.90415C84.1812 8.82426 84.6255 8.90665 84.9974 9.13328L94.926 15.1587C95.8241 15.7052 96.047 16.9056 95.4045 17.7363L88.3003 26.9255C88.0345 27.2705 87.6491 27.5051 87.2187 27.585Z" fill="#23232B"/>
<path fill-rule="evenodd" clip-rule="evenodd" d="M77.9727 73.8024L36.6913 59.5431C35.7576 59.2206 35.2575 58.2128 35.5751 57.2935L40.6279 42.6653C40.9454 41.7461 41.9609 41.2617 42.8946 41.5843L84.176 55.8436C84.5938 55.9879 84.9434 56.2802 85.158 56.6619L90.9 66.8301C91.4187 67.7512 91.02 68.9052 90.044 69.3081L79.2498 73.7664C78.8454 73.9342 78.3905 73.9467 77.9727 73.8024Z" fill="#23232B"/>
<path fill-rule="evenodd" clip-rule="evenodd" d="M8.99359 46.1709L60.0251 51.4349C60.8683 51.5219 61.6223 50.9177 61.708 50.0863L63.0728 36.8556C63.1586 36.0242 62.5438 35.2788 61.7006 35.1918L10.6691 29.9277C10.2918 29.8888 9.91393 29.9899 9.60874 30.2096L1.45953 36.0532C0.722484 36.583 0.614811 37.6268 1.22833 38.2944L8.01292 45.68C8.26683 45.9574 8.61627 46.132 8.99359 46.1709Z" fill="#3C3C47"/>
<circle cx="51" cy="43" r="2" fill="#23232B"/>
<circle cx="47" cy="54" r="2" fill="#3C3C47"/>
<circle cx="47" cy="24" r="2" fill="#3C3C47"/>
</svg>
