<svg width="24" height="24" viewBox="0 0 24 24" fill="none" xmlns="http://www.w3.org/2000/svg">
<path fill-rule="evenodd" clip-rule="evenodd" d="M17.7764 20.5H6.77637C5.94937 20.5 5.27637 19.827 5.27637 19V17.894C5.27637 17.618 5.50037 17.394 5.77637 17.394C6.05237 17.394 6.27637 17.618 6.27637 17.894V19C6.27637 19.276 6.50037 19.5 6.77637 19.5H17.7764C18.6034 19.5 19.2764 18.827 19.2764 18V6C19.2764 5.173 18.6034 4.5 17.7764 4.5H6.77637C6.50037 4.5 6.27637 4.724 6.27637 5V6C6.27637 6.277 6.05237 6.5 5.77637 6.5C5.50037 6.5 5.27637 6.277 5.27637 6V5C5.27637 4.173 5.94937 3.5 6.77637 3.5H17.7764C19.1544 3.5 20.2764 4.622 20.2764 6V18C20.2764 19.378 19.1544 20.5 17.7764 20.5Z" fill="#979797"/>
<path fill-rule="evenodd" clip-rule="evenodd" d="M6.22314 8.50098H4.22314C3.94714 8.50098 3.72314 8.27698 3.72314 8.00098C3.72314 7.72498 3.94714 7.50098 4.22314 7.50098H6.22314C6.49914 7.50098 6.72314 7.72498 6.72314 8.00098C6.72314 8.27698 6.49914 8.50098 6.22314 8.50098Z" fill="#979797"/>
<path fill-rule="evenodd" clip-rule="evenodd" d="M16.5 8.50098H8.5C8.224 8.50098 8 8.27698 8 8.00098C8 7.72498 8.224 7.50098 8.5 7.50098L16.5 7.50098C16.776 7.50098 17 7.72498 17 8.00098C17 8.27698 16.776 8.50098 16.5 8.50098Z" fill="#979797"/>
<path fill-rule="evenodd" clip-rule="evenodd" d="M6.22314 11.167H4.22314C3.94714 11.167 3.72314 10.943 3.72314 10.667C3.72314 10.391 3.94714 10.167 4.22314 10.167H6.22314C6.49914 10.167 6.72314 10.391 6.72314 10.667C6.72314 10.943 6.49914 11.167 6.22314 11.167Z" fill="#979797"/>
<path fill-rule="evenodd" clip-rule="evenodd" d="M14.5 11.167H8.5C8.224 11.167 8 10.943 8 10.667C8 10.391 8.224 10.167 8.5 10.167L14.5 10.167C14.776 10.167 15 10.391 15 10.667C15 10.943 14.776 11.167 14.5 11.167Z" fill="#979797"/>
<path fill-rule="evenodd" clip-rule="evenodd" d="M6.22314 13.833H4.22314C3.94714 13.833 3.72314 13.609 3.72314 13.333C3.72314 13.057 3.94714 12.833 4.22314 12.833H6.22314C6.49914 12.833 6.72314 13.057 6.72314 13.333C6.72314 13.609 6.49914 13.833 6.22314 13.833Z" fill="#979797"/>
<path fill-rule="evenodd" clip-rule="evenodd" d="M16 13.833H8.5C8.224 13.833 8 13.609 8 13.333C8 13.057 8.224 12.833 8.5 12.833H16C16.276 12.833 16.5 13.057 16.5 13.333C16.5 13.609 16.276 13.833 16 13.833Z" fill="#979797"/>
<path fill-rule="evenodd" clip-rule="evenodd" d="M6.22314 16.499H4.22314C3.94714 16.499 3.72314 16.275 3.72314 15.999C3.72314 15.723 3.94714 15.499 4.22314 15.499H6.22314C6.49914 15.499 6.72314 15.723 6.72314 15.999C6.72314 16.275 6.49914 16.499 6.22314 16.499Z" fill="#979797"/>
<path fill-rule="evenodd" clip-rule="evenodd" d="M12 16.499H8.5C8.224 16.499 8 16.275 8 15.999C8 15.723 8.224 15.499 8.5 15.499H12C12.276 15.499 12.5 15.723 12.5 15.999C12.5 16.275 12.276 16.499 12 16.499Z" fill="#979797"/>
</svg>
