<svg width="24" height="25" viewBox="0 0 24 25" fill="none" xmlns="http://www.w3.org/2000/svg">
<path fill-rule="evenodd" clip-rule="evenodd" d="M8 13.2469H20C20.276 13.2469 20.5 13.0257 20.5 12.7531C20.5 12.4805 20.276 12.2593 20 12.2593H8C7.724 12.2593 7.5 12.4805 7.5 12.7531C7.5 13.0257 7.724 13.2469 8 13.2469Z" fill="#BFBFBF"/>
<path fill-rule="evenodd" clip-rule="evenodd" d="M7.99975 17.1977C8.12775 17.1977 8.25575 17.1493 8.35375 17.0535C8.54875 16.86 8.54875 16.5479 8.35375 16.3543L4.70675 12.7533L8.35375 9.1523C8.54875 8.95872 8.54875 8.64662 8.35375 8.45304C8.15775 8.26045 7.84175 8.26045 7.64575 8.45304L3.64575 12.4037C3.45075 12.5972 3.45075 12.9093 3.64575 13.1029L7.64575 17.0535C7.74375 17.1493 7.87175 17.1977 7.99975 17.1977Z" fill="#BFBFBF"/>
</svg>
