<svg xmlns="http://www.w3.org/2000/svg" width="113" height="37" viewBox="0 0 113 37">
    <g fill="none" fill-rule="evenodd">
        <g fill-rule="nonzero">
            <g>
                <g>
                    <g>
                        <path fill="#A6A6A6" d="M102.16 0H8.845c-.34 0-.676 0-1.015.002-.284.002-.566.007-.853.012-.622.007-1.244.062-1.858.163-.614.104-1.208.3-1.764.58-.554.283-1.06.651-1.501 1.09-.443.438-.812.945-1.093 1.5C.478 3.9.283 4.495.18 5.107.077 5.72.021 6.34.014 6.96c-.009.284-.01.568-.014.852v21.38c.005.288.005.566.014.853.007.621.063 1.24.166 1.852.102.613.298 1.207.58 1.762.281.553.65 1.057 1.093 1.493.439.441.946.81 1.501 1.09.556.282 1.15.478 1.764.584.614.1 1.236.155 1.858.163.287.007.569.01.853.01.34.002.675.002 1.015.002h93.317c.333 0 .672 0 1.005-.002.283 0 .573-.003.855-.01.622-.007 1.242-.062 1.856-.163.615-.106 1.212-.303 1.77-.584.555-.28 1.061-.649 1.5-1.09.441-.437.811-.941 1.096-1.493.28-.555.473-1.149.574-1.762.103-.612.161-1.23.172-1.852.004-.287.004-.565.004-.852.007-.336.007-.67.007-1.012V8.821c0-.339 0-.675-.007-1.01 0-.284 0-.568-.004-.852-.011-.62-.069-1.24-.172-1.852-.1-.612-.294-1.206-.574-1.76-.573-1.113-1.48-2.019-2.596-2.59-.558-.28-1.155-.475-1.77-.58-.614-.102-1.234-.157-1.856-.163-.282-.005-.572-.01-.855-.012C102.833 0 102.494 0 102.161 0z" transform="translate(-57 -250) translate(57.8 250) translate(.2)"/>
                        <path fill="#000" d="M7.833 36.19c-.282 0-.558-.003-.838-.01-.581-.007-1.16-.057-1.734-.15-.535-.092-1.053-.263-1.537-.507-.48-.242-.917-.56-1.296-.94-.384-.377-.704-.813-.946-1.292-.246-.482-.416-1-.504-1.533-.096-.573-.147-1.153-.155-1.734-.005-.195-.013-.845-.013-.845V7.811s.008-.64.013-.827c.008-.58.059-1.16.154-1.732.089-.535.259-1.054.504-1.537.242-.48.56-.916.942-1.294.381-.38.82-.7 1.3-.945.484-.244 1-.413 1.534-.503C5.832.879 6.414.828 6.997.82l.837-.012h95.328l.847.012c.577.007 1.153.057 1.723.15.54.092 1.062.263 1.55.507.963.495 1.746 1.278 2.24 2.239.242.48.41.995.497 1.525.096.577.15 1.16.161 1.746.003.262.003.543.003.823.007.347.007.677.007 1.01V28.18c0 .336 0 .664-.007.995 0 .3 0 .576-.004.86-.01.574-.064 1.147-.158 1.714-.087.537-.256 1.058-.501 1.545-.245.474-.563.906-.942 1.281-.38.383-.817.703-1.298.946-.488.246-1.01.418-1.548.509-.573.093-1.152.144-1.733.15-.272.007-.557.01-.833.01l-1.005.002-94.328-.001z" transform="translate(-57 -250) translate(57.8 250) translate(.2)"/>
                    </g>
                    <g fill="#FFF">
                        <g>
                            <g>
                                <path d="M13.726 10.712c.02-1.57.845-3.019 2.186-3.84-.85-1.21-2.222-1.95-3.702-1.997-1.558-.163-3.068.93-3.862.93-.809 0-2.031-.913-3.347-.886-1.732.055-3.307 1.013-4.15 2.523-1.793 3.097-.455 7.649 1.264 10.153.86 1.226 1.864 2.595 3.179 2.546 1.287-.053 1.767-.818 3.32-.818 1.539 0 1.99.818 3.331.788 1.38-.023 2.25-1.232 3.08-2.47.618-.873 1.093-1.838 1.409-2.86-1.64-.692-2.706-2.294-2.708-4.07zM11.192 3.229c.753-.901 1.124-2.06 1.034-3.229-1.15.12-2.212.669-2.975 1.535-.754.855-1.135 1.974-1.061 3.11 1.165.011 2.272-.51 3.002-1.416z" transform="translate(-57 -250) translate(57.8 250) translate(.2) translate(9.25 8.066)"/>
                            </g>
                        </g>
                        <g>
                            <path d="M7.305 8.573h-4.39L1.86 11.678H0L4.159.192H6.09l4.159 11.486H8.358L7.305 8.573zM3.369 7.141h3.48L5.134 2.102h-.048L3.369 7.141zM19.231 7.491c0 2.603-1.397 4.275-3.504 4.275-1.09.057-2.116-.512-2.643-1.465h-.04v4.148H11.32V3.303h1.67v1.393h.03c.55-.947 1.578-1.515 2.675-1.48 2.131 0 3.536 1.68 3.536 4.275zm-1.772 0c0-1.695-.878-2.81-2.219-2.81-1.317 0-2.203 1.138-2.203 2.81 0 1.688.886 2.818 2.203 2.818 1.34 0 2.22-1.107 2.22-2.818zM28.475 7.491c0 2.603-1.397 4.275-3.505 4.275-1.09.057-2.116-.512-2.642-1.465h-.04v4.148h-1.724V3.303h1.668v1.393h.032c.55-.947 1.577-1.515 2.674-1.48 2.132 0 3.537 1.68 3.537 4.275zm-1.772 0c0-1.695-.879-2.81-2.22-2.81-1.317 0-2.203 1.138-2.203 2.81 0 1.688.886 2.818 2.203 2.818 1.341 0 2.22-1.107 2.22-2.818zM34.584 8.478c.128 1.139 1.237 1.887 2.754 1.887 1.453 0 2.498-.748 2.498-1.775 0-.892-.63-1.426-2.123-1.792L36.22 6.44c-2.115-.51-3.097-1.496-3.097-3.097C33.123 1.361 34.855 0 37.314 0c2.434 0 4.103 1.361 4.159 3.343h-1.74c-.105-1.146-1.055-1.838-2.443-1.838-1.39 0-2.34.7-2.34 1.719 0 .812.608 1.29 2.092 1.656l1.27.31c2.363.558 3.345 1.504 3.345 3.185 0 2.149-1.717 3.495-4.447 3.495-2.555 0-4.28-1.315-4.39-3.392h1.764zM45.377 1.322v1.981h1.597v1.362h-1.597v4.617c0 .717.32 1.051 1.022 1.051.19-.003.379-.016.567-.04v1.353c-.316.06-.637.086-.958.08-1.7 0-2.363-.637-2.363-2.261v-4.8h-1.221V3.303h1.221V1.322h1.732zM47.899 7.491c0-2.635 1.556-4.29 3.983-4.29 2.435 0 3.984 1.655 3.984 4.29 0 2.642-1.54 4.291-3.984 4.291-2.442 0-3.983-1.649-3.983-4.29zm6.21 0c0-1.807-.83-2.874-2.227-2.874-1.397 0-2.227 1.075-2.227 2.874 0 1.815.83 2.874 2.227 2.874 1.397 0 2.228-1.059 2.228-2.874zM57.287 3.303h1.644V4.73h.04c.23-.918 1.073-1.55 2.02-1.513.199 0 .397.02.59.064v1.608c-.25-.077-.511-.112-.774-.104-.506-.02-.997.18-1.342.551-.346.37-.511.873-.454 1.376v4.967h-1.724V3.303zM69.53 9.218c-.232 1.52-1.717 2.564-3.616 2.564-2.443 0-3.96-1.632-3.96-4.251 0-2.627 1.525-4.33 3.887-4.33 2.324 0 3.785 1.591 3.785 4.13v.59h-5.932v.103c-.055.624.16 1.24.593 1.695.432.454 1.04.7 1.667.677.836.078 1.625-.4 1.939-1.178h1.637zm-5.827-2.5H67.9c.031-.56-.173-1.107-.564-1.51-.391-.404-.933-.627-1.496-.615-.567-.003-1.112.22-1.513.619-.402.399-.627.942-.625 1.507z" transform="translate(-57 -250) translate(57.8 250) translate(.2) translate(9.25 8.066) translate(22.685 8.464)"/>
                        </g>
                    </g>
                </g>
                <g fill="#FFF">
                    <path d="M1.964.277c.719-.053 1.423.23 1.918.772.496.542.73 1.286.64 2.026 0 1.799-.939 2.833-2.558 2.833H0V.278h1.964zM.844 5.112H1.87c.514.031 1.014-.178 1.362-.571.348-.393.506-.927.431-1.454.07-.525-.09-1.055-.438-1.445-.347-.39-.844-.598-1.355-.569H.844v4.039zM5.476 3.781c-.07-.761.282-1.498.91-1.902.627-.403 1.422-.403 2.05 0 .627.404.98 1.14.91 1.902.071.763-.281 1.501-.91 1.906-.628.404-1.423.404-2.051 0-.629-.405-.98-1.143-.91-1.906zm3.037 0c0-.92-.4-1.46-1.101-1.46-.704 0-1.1.54-1.1 1.46 0 .929.396 1.463 1.1 1.463.701 0 1.1-.538 1.1-1.463zM14.489 5.908L13.649 5.908 12.801 2.778 12.737 2.778 11.893 5.908 11.061 5.908 9.93 1.659 10.751 1.659 11.486 4.901 11.547 4.901 12.39 1.659 13.167 1.659 14.011 4.901 14.075 4.901 14.806 1.659 15.616 1.659zM16.567 1.659h.78v.675h.06c.21-.497.702-.801 1.224-.757.405-.032.8.129 1.077.436.276.308.403.729.343 1.144v2.75h-.81v-2.54c0-.682-.286-1.022-.885-1.022-.274-.013-.54.099-.728.305-.189.207-.28.49-.251.772v2.486h-.81v-4.25zM21.342 0L22.151 0 22.151 5.908 21.342 5.908zM23.277 3.781c-.07-.761.282-1.498.91-1.902.628-.403 1.422-.403 2.05 0 .628.404.98 1.14.91 1.902.072.763-.28 1.501-.91 1.906-.627.404-1.423.404-2.051 0-.628-.405-.98-1.143-.91-1.906zm3.037 0c0-.92-.4-1.46-1.101-1.46-.704 0-1.1.54-1.1 1.46 0 .929.396 1.463 1.1 1.463.701 0 1.1-.538 1.1-1.463zM28 4.706c0-.765.55-1.206 1.525-1.268l1.112-.067v-.366c0-.45-.287-.703-.84-.703-.452 0-.765.172-.855.473h-.784c.082-.73.745-1.198 1.676-1.198 1.029 0 1.609.53 1.609 1.428v2.903h-.78V5.31H30.6c-.264.436-.735.69-1.232.667-.348.037-.696-.08-.956-.322s-.41-.587-.412-.95zm2.637-.363v-.355l-1.002.066c-.565.04-.821.238-.821.613 0 .382.32.605.76.605.261.027.521-.056.722-.231.2-.175.323-.427.34-.698zM32.507 3.781c0-1.342.666-2.193 1.703-2.193.523-.025 1.014.266 1.258.746h.06V0h.81v5.908h-.775v-.671h-.065c-.262.476-.759.761-1.288.74-1.044 0-1.703-.85-1.703-2.196zm.836 0c0 .902.41 1.444 1.097 1.444.682 0 1.104-.55 1.104-1.44 0-.885-.426-1.443-1.104-1.443-.682 0-1.097.546-1.097 1.44zM39.688 3.781c-.07-.761.283-1.498.91-1.902.628-.403 1.422-.403 2.05 0 .628.404.98 1.14.91 1.902.072.763-.28 1.501-.909 1.906-.628.404-1.423.404-2.052 0-.628-.405-.98-1.143-.909-1.906zm3.037 0c0-.92-.4-1.46-1.1-1.46-.704 0-1.1.54-1.1 1.46 0 .929.396 1.463 1.1 1.463.7 0 1.1-.538 1.1-1.463zM44.645 1.659h.779v.675h.06c.211-.497.703-.801 1.225-.757.404-.032.8.129 1.077.436.276.308.402.729.343 1.144v2.75h-.81v-2.54c0-.682-.286-1.022-.885-1.022-.274-.013-.54.099-.729.305-.188.207-.28.49-.25.772v2.486h-.81v-4.25zM52.704.6v1.078h.89v.706h-.89V4.57c0 .445.177.64.58.64.104 0 .207-.006.31-.019v.698c-.146.027-.294.042-.441.043-.9 0-1.26-.328-1.26-1.147v-2.4h-.65v-.706h.65V.601h.811zM54.7 0h.802v2.342h.064c.22-.502.72-.806 1.25-.762.403-.022.794.142 1.067.448.273.307.4.723.347 1.136v2.744h-.81V3.37c0-.678-.306-1.022-.878-1.022-.282-.024-.56.082-.758.29-.2.207-.3.496-.275.787v2.482h-.81V0zM62.951 4.76c-.227.802-.976 1.32-1.778 1.23-.547.015-1.073-.22-1.438-.642-.365-.423-.532-.99-.457-1.551-.073-.563.094-1.131.457-1.557.363-.426.886-.668 1.435-.663 1.141 0 1.83.807 1.83 2.142v.292h-2.897v.047c-.026.316.078.628.286.86.208.231.501.361.807.358.396.049.781-.155.976-.515h.78zm-2.848-1.369h2.072c.02-.288-.077-.572-.27-.782-.192-.21-.46-.325-.74-.319-.283-.003-.555.112-.755.319-.2.207-.31.49-.307.782z" transform="translate(-57 -250) translate(57.8 250) translate(34.2 8)"/>
                </g>
            </g>
        </g>
    </g>
</svg>
