<svg width="24" height="24" viewBox="0 0 24 24" fill="none" xmlns="http://www.w3.org/2000/svg">
<path fill-rule="evenodd" clip-rule="evenodd" d="M8 12.5H20C20.276 12.5 20.5 12.276 20.5 12C20.5 11.724 20.276 11.5 20 11.5H8C7.724 11.5 7.5 11.724 7.5 12C7.5 12.276 7.724 12.5 8 12.5Z" fill="white"/>
<path fill-rule="evenodd" clip-rule="evenodd" d="M8.00024 16.5002C8.12824 16.5002 8.25624 16.4513 8.35424 16.3542C8.54924 16.1582 8.54924 15.8422 8.35424 15.6462L4.70724 12.0002L8.35424 8.35425C8.54924 8.15825 8.54924 7.84225 8.35424 7.64625C8.15824 7.45125 7.84224 7.45125 7.64624 7.64625L3.64624 11.6462C3.45124 11.8422 3.45124 12.1582 3.64624 12.3542L7.64624 16.3542C7.74424 16.4513 7.87224 16.5002 8.00024 16.5002Z" fill="white"/>
</svg>
