<svg width="8" height="12" viewBox="0 0 8 12" fill="none" xmlns="http://www.w3.org/2000/svg">
<path d="M7.59998 4.88956C7.58542 4.85187 7.56259 4.81793 7.53317 4.79024C7.50375 4.76255 7.46849 4.74181 7.42999 4.72956L5.19 4.12957C5.08021 4.10127 4.98604 4.03075 4.92798 3.93337C4.86992 3.83598 4.85266 3.7196 4.87997 3.60956L5.76999 0.309559C5.78279 0.255071 5.77693 0.197865 5.75336 0.147098C5.72979 0.0963317 5.68987 0.0549425 5.63998 0.02956C5.58866 0.00142151 5.52883 -0.00699792 5.47174 0.00589363C5.41465 0.0187852 5.36424 0.0521064 5.32999 0.0995673L0.559998 6.30956C0.540716 6.34662 0.53064 6.38779 0.53064 6.42957C0.53064 6.47135 0.540716 6.5125 0.559998 6.54956C0.573177 6.58805 0.595528 6.62274 0.625153 6.65062C0.654778 6.67851 0.690764 6.69874 0.72998 6.70957L2.97 7.30956C3.02416 7.32347 3.07497 7.34806 3.11951 7.38187C3.16404 7.41569 3.2014 7.45805 3.22934 7.50649C3.25728 7.55492 3.27527 7.60845 3.28226 7.66393C3.28924 7.71941 3.28506 7.77572 3.26999 7.82956L2.38998 11.1296C2.37718 11.1841 2.38305 11.2413 2.40662 11.292C2.43019 11.3428 2.4701 11.3842 2.51999 11.4096H2.56998C2.61731 11.423 2.66766 11.4216 2.71417 11.4055C2.76068 11.3894 2.80111 11.3594 2.82999 11.3196L7.59998 5.10956C7.61606 5.07512 7.62439 5.03757 7.62439 4.99956C7.62439 4.96155 7.61606 4.924 7.59998 4.88956Z" fill="#F7931A"/>
</svg>
