<svg width="24" height="24" viewBox="0 0 24 24" fill="none" xmlns="http://www.w3.org/2000/svg">
<path d="M12 19C16.42 19 20 15.42 20 11C20 6.58 16.42 3 12 3C7.58 3 4 6.58 4 11C4 15.42 7.58 19 12 19ZM11.1711 6.83462C11.1679 6.3746 11.54 6 12 6C12.4469 6 12.8092 6.36229 12.8092 6.8092L12.8092 6.8908C12.8092 7.33771 12.4469 7.7 12 7.7C11.5446 7.7 11.1745 7.33247 11.1714 6.87706L11.1711 6.83462ZM11.1654 9.46464C11.1654 9.00368 11.539 8.63 12 8.63C12.4469 8.63 12.8092 8.99229 12.8092 9.4392L12.8092 14.6908C12.8092 15.1377 12.4469 15.5 12 15.5C11.539 15.5 11.1654 15.1263 11.1654 14.6654L11.1654 9.46464Z" fill="#BFBFBF"/>
</svg>
