<svg width="24" height="24" viewBox="0 0 24 24" fill="none" xmlns="http://www.w3.org/2000/svg">
<path d="M4 8.6C3.7 8.6 3.5 8.4 3.5 8.1V5C3.5 4.2 4.2 3.5 5 3.5H8.1C8.4 3.5 8.6 3.7 8.6 4C8.6 4.3 8.3 4.5 8.1 4.5H5C4.7 4.5 4.5 4.7 4.5 5V8.1C4.5 8.4 4.3 8.6 4 8.6Z" fill="#396DE0"/>
<path d="M20 8.6C19.7 8.6 19.5 8.4 19.5 8.1V5C19.5 4.7 19.3 4.5 19 4.5H15.9C15.6 4.5 15.4 4.3 15.4 4C15.4 3.7 15.6 3.5 15.9 3.5H19C19.8 3.5 20.5 4.2 20.5 5V8.1C20.5 8.4 20.3 8.6 20 8.6Z" fill="#396DE0"/>
<path d="M12 12.2998C10.1 12.2998 8.5 10.6998 8.5 8.7998C8.5 6.8998 10.1 5.2998 12 5.2998C13.9 5.2998 15.5 6.8998 15.5 8.7998C15.5 10.6998 14 12.2998 12 12.2998ZM12 6.2998C10.6 6.2998 9.5 7.3998 9.5 8.7998C9.5 10.1998 10.6 11.2998 12 11.2998C13.4 11.2998 14.5 10.1998 14.5 8.7998C14.5 7.3998 13.4 6.2998 12 6.2998Z" fill="#808080"/>
<path d="M18 17.8C17.7 17.8 17.5 17.6 17.5 17.3C17.5 15.8 16.3 14.5 14.7 14.5H9.3C7.8 14.5 6.5 15.7 6.5 17.3C6.5 17.6 6.3 17.8 6 17.8C5.7 17.8 5.5 17.6 5.5 17.3C5.5 15.2 7.2 13.5 9.3 13.5H14.7C16.8 13.5 18.5 15.2 18.5 17.3C18.5 17.6 18.3 17.8 18 17.8Z" fill="#808080"/>
<path d="M19 20.5004H15.9C15.6 20.5004 15.4 20.3004 15.4 20.0004C15.4 19.7004 15.6 19.5004 15.9 19.5004H19C19.3 19.5004 19.5 19.3004 19.5 19.0004V15.9004C19.5 15.6004 19.7 15.4004 20 15.4004C20.3 15.4004 20.5 15.6004 20.5 15.9004V19.0004C20.5 19.8004 19.8 20.5004 19 20.5004Z" fill="#396DE0"/>
<path d="M8.1 20.5004H5C4.2 20.5004 3.5 19.8004 3.5 19.0004V15.9004C3.5 15.6004 3.7 15.4004 4 15.4004C4.3 15.4004 4.5 15.6004 4.5 15.9004V19.0004C4.5 19.3004 4.7 19.5004 5 19.5004H8.1C8.4 19.5004 8.6 19.7004 8.6 20.0004C8.6 20.3004 8.3 20.5004 8.1 20.5004Z" fill="#396DE0"/>
</svg>
