<svg width="24" height="24" viewBox="0 0 24 24" fill="none" xmlns="http://www.w3.org/2000/svg">
    <path fill-rule="evenodd" clip-rule="evenodd"
        d="M18.0002 19.5H6.00024C5.17324 19.5 4.50024 18.827 4.50024 18V8.499H19.5002V18C19.5002 18.827 18.8272 19.5 18.0002 19.5ZM5.00024 5.5H7.50024V6C7.50024 6.276 7.72424 6.5 8.00024 6.5C8.27624 6.5 8.50024 6.276 8.50024 6V5.5H11.5002V6C11.5002 6.276 11.7242 6.5 12.0002 6.5C12.2762 6.5 12.5002 6.276 12.5002 6V5.5H15.5272V6C15.5272 6.276 15.7512 6.5 16.0272 6.5C16.3042 6.5 16.5272 6.276 16.5272 6V5.5H19.0002C19.2752 5.5 19.5002 5.724 19.5002 6V7.499H4.50024V6C4.50024 5.724 4.72524 5.5 5.00024 5.5ZM19.0002 4.5H16.5272V4C16.5272 3.723 16.3042 3.5 16.0272 3.5C15.7512 3.5 15.5272 3.723 15.5272 4V4.5H12.5002V4C12.5002 3.723 12.2762 3.5 12.0002 3.5C11.7242 3.5 11.5002 3.723 11.5002 4V4.5H8.50024V4C8.50024 3.723 8.27624 3.5 8.00024 3.5C7.72424 3.5 7.50024 3.723 7.50024 4V4.5H5.00024C4.17324 4.5 3.50024 5.172 3.50024 6V18C3.50024 19.378 4.62124 20.5 6.00024 20.5H18.0002C19.3792 20.5 20.5002 19.378 20.5002 18V6C20.5002 5.172 19.8272 4.5 19.0002 4.5Z"
        fill="#D8D8D8" />
    <path fill-rule="evenodd" clip-rule="evenodd"
        d="M9.02756 11.499H7.02856C6.75256 11.499 6.52856 11.723 6.52856 11.999C6.52856 12.275 6.75256 12.499 7.02856 12.499H9.02756C9.30356 12.499 9.52756 12.275 9.52756 11.999C9.52756 11.723 9.30356 11.499 9.02756 11.499Z"
        fill="#D8D8D8" />
    <path fill-rule="evenodd" clip-rule="evenodd"
        d="M13.0276 11.499H11.0286C10.7526 11.499 10.5286 11.723 10.5286 11.999C10.5286 12.275 10.7526 12.499 11.0286 12.499H13.0276C13.3036 12.499 13.5276 12.275 13.5276 11.999C13.5276 11.723 13.3036 11.499 13.0276 11.499Z"
        fill="#D8D8D8" />
    <path fill-rule="evenodd" clip-rule="evenodd"
        d="M17.0276 11.499H15.0286C14.7526 11.499 14.5286 11.723 14.5286 11.999C14.5286 12.275 14.7526 12.499 15.0286 12.499H17.0276C17.3036 12.499 17.5276 12.275 17.5276 11.999C17.5276 11.723 17.3036 11.499 17.0276 11.499Z"
        fill="#D8D8D8" />
    <path fill-rule="evenodd" clip-rule="evenodd"
        d="M9.02756 15.499H7.02856C6.75256 15.499 6.52856 15.723 6.52856 15.999C6.52856 16.275 6.75256 16.499 7.02856 16.499H9.02756C9.30356 16.499 9.52756 16.275 9.52756 15.999C9.52756 15.723 9.30356 15.499 9.02756 15.499Z"
        fill="#D8D8D8" />
    <path fill-rule="evenodd" clip-rule="evenodd"
        d="M13.0276 15.499H11.0286C10.7526 15.499 10.5286 15.723 10.5286 15.999C10.5286 16.275 10.7526 16.499 11.0286 16.499H13.0276C13.3036 16.499 13.5276 16.275 13.5276 15.999C13.5276 15.723 13.3036 15.499 13.0276 15.499Z"
        fill="#D8D8D8" />
    <path fill-rule="evenodd" clip-rule="evenodd"
        d="M17.0276 15.499H15.0286C14.7526 15.499 14.5286 15.723 14.5286 15.999C14.5286 16.275 14.7526 16.499 15.0286 16.499H17.0276C17.3036 16.499 17.5276 16.275 17.5276 15.999C17.5276 15.723 17.3036 15.499 17.0276 15.499Z"
        fill="#D8D8D8" />
</svg>