<svg width="16" height="16" viewBox="0 0 16 16" fill="none" xmlns="http://www.w3.org/2000/svg">
    <path fill-rule="evenodd" clip-rule="evenodd"
        d="M8.20725 8.50025L11.8532 4.85425C12.0492 4.65825 12.0492 4.34225 11.8532 4.14625C11.6582 3.95125 11.3422 3.95125 11.1462 4.14625L7.50025 7.79325L3.85325 4.14625C3.65825 3.95125 3.34225 3.95125 3.14625 4.14625C2.95125 4.34225 2.95125 4.65825 3.14625 4.85425L6.79325 8.50025L3.14625 12.1462C2.95125 12.3422 2.95125 12.6582 3.14625 12.8542C3.24425 12.9513 3.37225 13.0002 3.50025 13.0002C3.62825 13.0002 3.75625 12.9513 3.85325 12.8542L7.50025 9.20725L11.1462 12.8542C11.2442 12.9513 11.3722 13.0002 11.5002 13.0002C11.6283 13.0002 11.7562 12.9513 11.8532 12.8542C12.0492 12.6582 12.0492 12.3422 11.8532 12.1462L8.20725 8.50025Z"
        fill="#808080" />
</svg>