<svg width="24" height="24" viewBox="0 0 24 24" fill="none" xmlns="http://www.w3.org/2000/svg">
<path fill-rule="evenodd" clip-rule="evenodd" d="M14 10H7C6.44772 10 6 10.4477 6 11V18C6 18.5523 6.44772 19 7 19H14C14.5523 19 15 18.5523 15 18V11C15 10.4477 14.5523 10 14 10ZM7 9C5.89543 9 5 9.89543 5 11V18C5 19.1046 5.89543 20 7 20H14C15.1046 20 16 19.1046 16 18V11C16 9.89543 15.1046 9 14 9H7Z" fill="#BFBFBF"/>
<path fill-rule="evenodd" clip-rule="evenodd" d="M7.5 7.5C7.5 6.11929 8.61929 5 10 5H16C17.933 5 19.5 6.567 19.5 8.5V15C19.5 16.1046 18.6046 17 17.5 17C17.2239 17 17 16.7761 17 16.5C17 16.2239 17.2239 16 17.5 16C18.0523 16 18.5 15.5523 18.5 15V8.5C18.5 7.11929 17.3807 6 16 6H10C9.17157 6 8.5 6.67157 8.5 7.5C8.5 7.77614 8.27614 8 8 8C7.72386 8 7.5 7.77614 7.5 7.5Z" fill="#BFBFBF"/>
</svg>
