<svg xmlns="http://www.w3.org/2000/svg" width="18" height="18" viewBox="0 0 18 18">
    <g fill="none" fill-rule="evenodd">
        <g>
            <g transform="translate(-331 -25) matrix(1 0 0 -1 332 42)">
                <circle cx="8" cy="8" r="8" fill="#222324" stroke="#363636"/>
                <g>
                    <path d="M0 0H16V16H0z"/>
                    <g filter="url(#3ap68pzuva)">
                        <g fill="#808080">
                            <path d="M6.829 4.415c-.128 0-.256-.05-.354-.146L4 1.792 1.525 4.27c-.195.194-.511.194-.707 0-.195-.197-.195-.513 0-.708L3.646.732c.188-.188.52-.188.707 0l2.83 2.829c.195.196.195.511 0 .708-.098.096-.226.146-.354.146" transform="translate(4 4)"/>
                            <path d="M6.829 7.408c-.128 0-.256-.049-.354-.146L4 4.786 1.525 7.262c-.195.195-.511.195-.707 0-.195-.196-.195-.512 0-.708l2.828-2.828c.188-.188.52-.188.707 0l2.83 2.828c.195.196.195.512 0 .708-.098.097-.226.146-.354.146" transform="translate(4 4)"/>
                        </g>
                    </g>
                </g>
            </g>
        </g>
    </g>
</svg>
