<svg width="17" height="17" viewBox="0 0 17 17" fill="none" xmlns="http://www.w3.org/2000/svg">
<path d="M-4.58969e-07 14.48L-1.09278e-07 6.47998C-8.0296e-08 5.81694 0.263397 5.18106 0.732239 4.71222C1.20108 4.24338 1.83696 3.97998 2.5 3.97998L4.5 3.97998C4.63181 3.98254 4.7575 4.03604 4.85072 4.12926C4.94394 4.22248 4.99744 4.34817 5 4.47998C5 4.61259 4.94733 4.73976 4.85356 4.83353C4.75979 4.92729 4.63261 4.97998 4.5 4.97998L2.5 4.97998C2.10218 4.97998 1.72065 5.13801 1.43935 5.41931C1.15804 5.70062 1 6.08216 1 6.47998L1 14.48C1 14.8778 1.15804 15.2593 1.43935 15.5406C1.72065 15.8219 2.10218 15.98 2.5 15.98L14.5 15.98C14.8978 15.98 15.2794 15.8219 15.5607 15.5406C15.842 15.2593 16 14.8778 16 14.48L16 6.47998C15.9974 6.08296 15.8385 5.70295 15.5578 5.42221C15.277 5.14147 14.897 4.9826 14.5 4.97998L12.5 4.97998C12.3674 4.97998 12.2402 4.92729 12.1465 4.83353C12.0527 4.73976 12 4.61259 12 4.47998C12 4.34737 12.0527 4.22019 12.1465 4.12642C12.2402 4.03265 12.3674 3.97998 12.5 3.97998L14.5 3.97998C15.1622 3.98261 15.7966 4.24685 16.2649 4.71512C16.7331 5.18339 16.9974 5.81775 17 6.47998L17 14.48C16.9974 15.1422 16.7331 15.7766 16.2649 16.2448C15.7966 16.7131 15.1622 16.9773 14.5 16.98L2.5 16.98C1.83696 16.98 1.20108 16.7166 0.732238 16.2478C0.263397 15.7789 -4.87951e-07 15.143 -4.58969e-07 14.48Z" fill="white"/>
<path d="M11.8904 7.66977L8.89038 10.6698L8.89038 0.479767C8.89038 0.355115 8.84087 0.235572 8.75273 0.14743C8.66459 0.0592882 8.54503 0.00976545 8.42038 0.00976544C8.29573 0.00976544 8.17619 0.0592881 8.08804 0.14743C7.9999 0.235572 7.95038 0.355115 7.95038 0.479767L7.95038 10.6298L4.95038 7.62976C4.86319 7.54133 4.74457 7.491 4.62039 7.48976C4.5573 7.48961 4.49479 7.5019 4.43645 7.52592C4.37811 7.54995 4.32507 7.58522 4.28038 7.62976C4.19303 7.7194 4.14415 7.83961 4.14415 7.96477C4.14415 8.08992 4.19303 8.21012 4.28038 8.29976L7.38039 11.3998C7.62557 11.637 7.94947 11.7759 8.29039 11.7898C8.31852 11.8031 8.34925 11.81 8.38039 11.81C8.41152 11.81 8.44225 11.8031 8.47038 11.7898C8.8113 11.7759 9.1352 11.637 9.38039 11.3998L12.4804 8.29976C12.5692 8.21091 12.6191 8.09042 12.6191 7.96477C12.6191 7.83912 12.5692 7.71861 12.4804 7.62976C12.3915 7.54091 12.271 7.491 12.1454 7.491C12.0197 7.491 11.8992 7.54091 11.8104 7.62976L11.8904 7.66977Z" fill="white"/>
</svg>
