<svg width="24" height="24" viewBox="0 0 24 24" fill="none" xmlns="http://www.w3.org/2000/svg">
    <path fill-rule="evenodd" clip-rule="evenodd"
        d="M8.24545 17.9199C8.17345 17.9199 8.10045 17.9039 8.03345 17.8729C7.88945 17.8059 7.78645 17.6739 7.75545 17.5189L7.26345 15.0829C7.24245 14.9779 7.25545 14.8689 7.30045 14.7729L11.3274 6.14188C11.5514 5.66288 11.9475 5.29988 12.4434 5.11988C12.9374 4.93988 13.4754 4.96288 13.9534 5.18688C14.9404 5.64788 15.3684 6.82488 14.9084 7.81288L10.8814 16.4429C10.8364 16.5399 10.7614 16.6199 10.6674 16.6709L8.48445 17.8589C8.40945 17.8989 8.32745 17.9199 8.24545 17.9199Z"
        fill="#00A7FF" />
    <path fill-rule="evenodd" clip-rule="evenodd"
        d="M17.676 19.9253H5.5C5.223 19.9253 5 19.7013 5 19.4253C5 19.1493 5.223 18.9253 5.5 18.9253H17.676C17.952 18.9253 18.176 19.1493 18.176 19.4253C18.176 19.7013 17.952 19.9253 17.676 19.9253Z"
        fill="#00A7FF" />
</svg>