<svg width="24" height="24" viewBox="0 0 24 24" fill="none" xmlns="http://www.w3.org/2000/svg">
<path fill-rule="evenodd" clip-rule="evenodd" d="M12.0001 11.7476C11.6831 11.7476 11.3651 11.6486 11.1001 11.4506L4.37414 6.40458C4.15314 6.23958 4.10814 5.92558 4.27414 5.70558C4.43914 5.48358 4.75314 5.43958 4.97414 5.60458L11.7001 10.6496C11.8761 10.7816 12.1241 10.7816 12.3001 10.6496L18.8111 5.76758C19.0311 5.60158 19.3451 5.64458 19.5111 5.86758C19.6771 6.08758 19.6321 6.40158 19.4111 6.56658L12.9001 11.4496C12.6351 11.6486 12.3181 11.7476 12.0001 11.7476Z" fill="#396DE0"/>
<mask id="mask0" mask-type="alpha" maskUnits="userSpaceOnUse" x="3" y="5" width="18" height="13">
<path fill-rule="evenodd" clip-rule="evenodd" d="M3.50012 5H20.5V17.9998H3.50012V5Z" fill="white"/>
</mask>
<g mask="url(#mask0)">
<path fill-rule="evenodd" clip-rule="evenodd" d="M5.50012 6C4.94912 6 4.50012 6.449 4.50012 7V16C4.50012 16.551 4.94912 17 5.50012 17H18.5001C19.0511 17 19.5001 16.551 19.5001 16V7C19.5001 6.449 19.0511 6 18.5001 6H5.50012ZM18.5001 18H5.50012C4.39712 18 3.50012 17.103 3.50012 16V7C3.50012 5.897 4.39712 5 5.50012 5H18.5001C19.6031 5 20.5001 5.897 20.5001 7V16C20.5001 17.103 19.6031 18 18.5001 18Z" fill="#808080"/>
</g>
</svg>
