<svg width="153" height="148" viewBox="0 0 153 148" fill="none" xmlns="http://www.w3.org/2000/svg">
<g clip-path="url(#clip0)">
<path d="M131.86 124.102C131.86 124.102 130.865 132.841 124.871 138.847C118.877 144.852 110.154 145.849 110.154 145.849C110.154 145.849 110.376 136.336 116.371 130.331C122.365 124.325 131.86 124.102 131.86 124.102Z" fill="#3C3C47"/>
<path d="M75.5122 134.505C75.5122 134.505 83.3068 132.008 91.2256 134.45C99.1445 136.891 104.189 143.347 104.189 143.347C104.189 143.347 96.1193 146.739 88.2005 144.298C80.2816 141.856 75.5122 134.505 75.5122 134.505Z" fill="#525261"/>
<path d="M81.2693 118.023C81.2693 118.023 92.2935 119.081 100.448 126.44C108.602 133.8 110.798 144.675 110.798 144.675C110.798 144.675 98.8906 144.599 90.7366 137.24C82.5826 129.88 81.2693 118.023 81.2693 118.023Z" fill="#727283"/>
<path d="M121.962 120.72C121.962 120.72 122.223 126.166 119.171 130.5C116.119 134.834 110.91 136.415 110.91 136.415C110.91 136.415 110.102 130.581 113.154 126.247C116.206 121.914 121.962 120.72 121.962 120.72Z" fill="#727283"/>
<path d="M109.502 80.1982H97.2371V145.217H109.502V80.1982Z" fill="#3C3C47"/>
<path d="M112.916 80.1982H109.502V145.217H112.916V80.1982Z" fill="#525261"/>
<path d="M31.1057 80.1983V39.0872C31.1057 27.576 40.4627 18.0889 52.0958 18.0889H132.01C143.516 18.0889 153 27.4495 153 39.0872V73.241C153 77.1624 149.839 80.3248 145.919 80.3248H31.1057V80.1983Z" fill="#525261"/>
<path d="M72.9594 80.1982H31.2322L23.1396 97.6546C19.4726 106.509 26.933 115.364 37.428 115.491C38.3131 115.491 43.6239 115.491 44.509 115.364C53.1074 114.352 58.7974 107.901 62.9702 99.9316L72.9594 80.1982Z" fill="#525261"/>
<path d="M92.6851 50.5987C96.107 50.5987 98.881 47.8237 98.881 44.4004C98.881 40.9772 96.107 38.2021 92.6851 38.2021C89.2632 38.2021 86.4893 40.9772 86.4893 44.4004C86.4893 47.8237 89.2632 50.5987 92.6851 50.5987Z" fill="#3C3C47"/>
<path d="M87.2478 4.68068L94.2023 44.2738C94.3288 45.1593 93.823 45.9183 92.9379 46.0448C92.0528 46.1713 91.2941 45.6653 91.1676 44.7798L84.2131 5.18666C84.0866 4.30119 84.5924 3.54222 85.4775 3.41572C86.3627 3.28922 87.1213 3.79521 87.2478 4.68068Z" fill="#727283"/>
<path d="M103.433 13.662L86.2362 16.6979L84.2131 5.18683C84.0866 4.30136 84.5924 3.54239 85.4775 3.41589L101.157 0.632984C102.042 0.506488 102.674 1.26546 102.421 2.15093L100.398 7.46375L104.192 11.7646C104.697 12.5236 104.318 13.5355 103.433 13.662Z" fill="#525261"/>
<path d="M68.5339 145.217H138.206" stroke="#525261" stroke-width="3" stroke-miterlimit="10" stroke-linecap="round"/>
<path d="M31.1057 80.1983V39.0872C31.1057 27.576 40.4627 18.0889 52.0958 18.0889C63.6024 18.0889 73.0859 27.4496 73.0859 39.0872V80.1983H31.1057Z" fill="#3C3C47"/>
<path fill-rule="evenodd" clip-rule="evenodd" d="M10.4218 41.0808L50.5155 32.4644C52.6753 32.0003 54.802 33.375 55.2656 35.5349L60.3542 59.2418C60.8178 61.4018 59.4428 63.529 57.2829 63.9932L11.9426 73.7371C9.78275 74.2013 7.65603 72.8266 7.19241 70.6667L2.10386 46.9597C1.64024 44.7998 3.01529 42.6726 5.17512 42.2084L10.4218 41.0808Z" fill="#525261"/>
<path d="M52.4767 34.1548L35.9703 54.5469C33.92 57.0798 30.3937 57.8634 27.4646 56.437L3.79332 44.909" stroke="#3C3C47" stroke-width="2" stroke-linecap="round" stroke-linejoin="round"/>
<path d="M9.48251 71.47L23.5182 55.0038" stroke="#3C3C47" stroke-width="2" stroke-linecap="round"/>
<path d="M58.7975 61.3501L39.5122 51.5686" stroke="#3C3C47" stroke-width="2" stroke-linecap="round"/>
<circle cx="52" cy="33" r="4" fill="#F7931A"/>
</g>
<defs>
<clipPath id="clip0">
<rect width="153" height="148" fill="white"/>
</clipPath>
</defs>
</svg>
