<svg xmlns="http://www.w3.org/2000/svg" xmlns:xlink="http://www.w3.org/1999/xlink" width="16" height="16" viewBox="0 0 16 16">
    <defs>
        <path id="ydhalcyv5b" d="M0 0L8.494 0 8.494 8.166 0 8.166z"/>
    </defs>
    <g fill="none" fill-rule="evenodd">
        <g>
            <g>
                <path d="M0 0H16V16H0z" transform="translate(-12 -9) translate(12 9)"/>
                <g filter="url(#5jzwq5ukfa)" transform="translate(-12 -9) translate(12 9)">
                    <g transform="translate(4 4)">
                        <mask id="10xpcul1bc" fill="#fff">
                            <use xlink:href="#ydhalcyv5b"/>
                        </mask>
                        <path fill="#BFBFBF" d="M4.247 6.182c.144 0 .287.035.418.103l1.517.798-.289-1.69c-.05-.291.045-.59.258-.796l1.227-1.195-1.695-.247c-.293-.042-.546-.226-.678-.491l-.758-1.537-.759 1.536c-.13.266-.384.45-.677.492l-1.696.247 1.227 1.196c.212.206.31.503.26.795l-.29 1.69 1.516-.797c.131-.07.275-.104.42-.104m2.067 1.984c-.143 0-.286-.034-.42-.104L4.2 7.17l-1.602.892c-.306.16-.669.134-.948-.068-.279-.203-.417-.54-.359-.88l.325-1.89L.272 3.977c-.247-.241-.334-.594-.228-.922.107-.33.385-.563.726-.613l1.897-.275L3.44.502C3.592.192 3.901 0 4.246 0h.001c.345 0 .654.193.807.502l.847 1.719 1.821.22c.342.05.62.284.727.613.106.328.02.68-.228.922L6.85 5.313l.353 1.8c.058.34-.079.678-.358.88-.158.115-.343.173-.529.173" mask="url(#10xpcul1bc)"/>
                    </g>
                </g>
            </g>
        </g>
    </g>
</svg>
