<svg xmlns="http://www.w3.org/2000/svg" width="24" height="24" viewBox="0 0 24 24">
    <g fill="none" fill-rule="evenodd">
        <g filter="url(#w752x4zmaa)" transform="translate(-210 -316)">
            <g>
                <path d="M0 0H24V24H0z" transform="translate(210 316)"/>
                <path fill="#E64141" d="M20 17.5c0 .276-.225.5-.5.5h-14c-.275 0-.5-.224-.5-.5v-10c0-.023.01-.042.013-.065.034.069.078.134.144.183l6.442 4.832c.265.199.583.299.901.299.317 0 .635-.1.899-.299l6.443-4.832c.066-.05.111-.115.144-.184.004.022.014.042.014.066v10zM19 7l-6.201 4.65c-.176.133-.422.133-.6 0L5.999 7H19zm.5-1h-14C4.673 6 4 6.673 4 7.5v10c0 .827.673 1.5 1.5 1.5h14c.827 0 1.5-.673 1.5-1.5v-10c0-.827-.673-1.5-1.5-1.5z" transform="translate(210 316)"/>
            </g>
        </g>
    </g>
</svg>
