<svg xmlns="http://www.w3.org/2000/svg" width="24" height="24" viewBox="0 0 24 24">
    <defs>

    </defs>
    <g fill="none" fill-rule="evenodd">
        <g>
            <g  transform="translate(-168 -600) translate(0 592)">
                <g>
                    <path d="M0 0H24V24H0z" transform="translate(168 8)"/>
                    <path fill="#BFBFBF" fill-rule="nonzero" d="M19.48 15.94l-4.65-2.69c-.202-.13-.459-.137-.668-.02-.209.118-.337.34-.332.58v5.37c-.005.24.123.462.332.58.21.117.466.11.668-.02l4.65-2.68c.198-.117.32-.33.32-.56 0-.23-.122-.443-.32-.56z" transform="translate(168 8)"/>
                    <path fill="#BFBFBF" fill-rule="nonzero" d="M15.34 17.5H9.5c-1.46.003-2.86-.576-3.892-1.608S3.998 13.46 4 12c0-.552.448-1 1-1s1 .448 1 1c-.005.93.362 1.823 1.02 2.48.657.658 1.55 1.025 2.48 1.02h5.84c.552 0 1 .448 1 1s-.448 1-1 1zM4.52 8.06l4.65 2.69c.202.13.459.137.668.02.209-.118.337-.34.332-.58V4.82c.005-.24-.123-.462-.332-.58-.21-.117-.466-.11-.668.02L4.52 6.94c-.198.117-.32.33-.32.56 0 .23.122.443.32.56z" transform="translate(168 8)"/>
                    <path fill="#BFBFBF" fill-rule="nonzero" d="M19 13c-.552 0-1-.448-1-1 .005-.93-.362-1.823-1.02-2.48-.657-.658-1.55-1.025-2.48-1.02H8.66c-.552 0-1-.448-1-1s.448-1 1-1h5.84c1.46-.003 2.86.576 3.892 1.608S20.002 10.54 20 12c0 .552-.448 1-1 1z" transform="translate(168 8)"/>
                </g>
            </g>
        </g>
    </g>
</svg>
