<svg width="12" height="16" viewBox="0 0 12 16" fill="none" xmlns="http://www.w3.org/2000/svg">
<path d="M9.86002 2.34705e-05H2.14001C1.85946 -0.00129371 1.58142 0.0528421 1.32184 0.159295C1.06226 0.265747 0.82626 0.422434 0.627411 0.620354C0.428562 0.818274 0.270753 1.05352 0.163086 1.3126C0.0554186 1.57168 -3.09186e-06 1.84947 1.29432e-10 2.13003V13.86C1.29489e-10 14.4276 0.225473 14.9719 0.626801 15.3732C1.02813 15.7746 1.57245 16 2.14001 16H9.86002C10.4276 16 10.9719 15.7746 11.3732 15.3732C11.7746 14.9719 12 14.4276 12 13.86V2.13003C12 1.84947 11.9446 1.57168 11.8369 1.3126C11.7292 1.05352 11.5715 0.818274 11.3726 0.620354C11.1738 0.422434 10.9378 0.265747 10.6782 0.159295C10.4186 0.0528421 10.1406 -0.00129371 9.86002 2.34705e-05ZM2.62003 3.46003H7.48001C7.61262 3.46003 7.73979 3.51272 7.83356 3.60648C7.92733 3.70025 7.98001 3.82742 7.98001 3.96003C7.98001 4.09264 7.92733 4.21982 7.83356 4.31359C7.73979 4.40736 7.61262 4.46003 7.48001 4.46003H2.62003C2.48742 4.46003 2.36022 4.40736 2.26645 4.31359C2.17268 4.21982 2.12003 4.09264 2.12003 3.96003C2.12003 3.82742 2.17268 3.70025 2.26645 3.60648C2.36022 3.51272 2.48742 3.46003 2.62003 3.46003ZM9.21002 12.46H2.62003C2.48742 12.46 2.36022 12.4074 2.26645 12.3136C2.17268 12.2198 2.12003 12.0926 2.12003 11.96C2.12003 11.8274 2.17268 11.7003 2.26645 11.6065C2.36022 11.5127 2.48742 11.46 2.62003 11.46H9.21002C9.34263 11.46 9.4698 11.5127 9.56357 11.6065C9.65734 11.7003 9.71002 11.8274 9.71002 11.96C9.71408 12.0287 9.70421 12.0974 9.68103 12.1621C9.65785 12.2268 9.62181 12.2862 9.5751 12.3366C9.5284 12.3871 9.47198 12.4275 9.40924 12.4556C9.3465 12.4837 9.27875 12.4988 9.21002 12.5V12.46ZM9.21002 8.22003H2.62003C2.48742 8.22003 2.36022 8.16735 2.26645 8.07359C2.17268 7.97982 2.12003 7.85263 2.12003 7.72002C2.12003 7.58742 2.17268 7.46025 2.26645 7.36648C2.36022 7.27271 2.48742 7.22002 2.62003 7.22002H9.21002C9.34183 7.22258 9.46751 7.2761 9.56073 7.36932C9.65395 7.46254 9.70746 7.58822 9.71002 7.72002C9.71556 7.78897 9.70672 7.85833 9.68408 7.92368C9.66144 7.98904 9.62548 8.04899 9.57849 8.09974C9.5315 8.15049 9.4745 8.19094 9.41107 8.21853C9.34765 8.24612 9.27919 8.26025 9.21002 8.26003V8.22003Z" fill="#727283"/>
</svg>
