<svg xmlns="http://www.w3.org/2000/svg" width="24" height="24" viewBox="0 0 24 24">

    <g fill="none" fill-rule="evenodd">
        <g>
            <g filter="url(#6s21shtg3a)" transform="translate(-302 -327) translate(298 323)">
                <g>
                    <path d="M0 0H24V24H0z" transform="translate(4 4)"/>
                    <g fill="#ffffff">
                        <path d="M1 9.5C.724 9.5.5 9.276.5 9V2C.5 1.173 1.173.5 2 .5h7c.276 0 .5.224.5.5s-.224.5-.5.5H2c-.275 0-.5.224-.5.5v7c0 .276-.224.5-.5.5M16 17.5H9c-.276 0-.5-.224-.5-.5s.224-.5.5-.5h7c.275 0 .5-.224.5-.5V9c0-.276.224-.5.5-.5s.5.224.5.5v7c0 .827-.673 1.5-1.5 1.5" transform="translate(4 4) translate(3 3)"/>
                        <path d="M13 13.5c-.128 0-.256-.049-.354-.146l-8-8c-.195-.196-.195-.512 0-.708.196-.195.512-.195.708 0l8 8c.195.196.195.512 0 .708-.098.097-.226.146-.354.146" transform="translate(4 4) translate(3 3)"/>
                    </g>
                </g>
            </g>
        </g>
    </g>
</svg>
