<svg width="24" height="24" viewBox="0 0 24 24" fill="none" xmlns="http://www.w3.org/2000/svg">
<path d="M20.4 12.1996C20.1999 11.9996 16.6 8.09961 12 8.09961C7.39995 8.09961 3.79995 12.0996 3.59995 12.2996C3.39995 12.4996 3.39995 12.7996 3.59995 12.9996C3.79995 13.1996 7.39995 17.1996 12 17.1996C16.6 17.1996 20.1999 13.1996 20.4 12.9996C20.5 12.6996 20.5 12.3996 20.4 12.1996ZM9.39995 9.49961C8.49995 10.1996 7.99995 11.2996 7.99995 12.4996C7.99995 13.6996 8.59995 14.7996 9.39995 15.4996C7.19995 14.6996 5.39995 13.1996 4.69995 12.4996C5.39995 11.8996 7.19995 10.2996 9.39995 9.49961ZM14.6 15.5996C15.5 14.8996 16 13.7996 16 12.5996C16 11.3996 15.4 10.2996 14.6 9.59961C16.8 10.3996 18.6 11.8996 19.3 12.5996C18.6 13.1996 16.8 14.7996 14.6 15.5996Z" fill="#808080"/>
</svg>
