<svg width="84" height="105" viewBox="0 0 84 105" fill="none" xmlns="http://www.w3.org/2000/svg">
<rect width="84" height="105" rx="42" fill="#3C3C47"/>
<path d="M22.2858 19.6778C31.3147 14.0568 41.7133 12.3619 51.5562 14.9028C61.3992 17.4437 70.0154 24.0472 75.7808 33.4873" stroke="#525261" stroke-width="2" stroke-miterlimit="10" stroke-linecap="round"/>
<path d="M8.43107 44.7541C18.1025 21.7635 38.6193 18.7569 50.5338 21.8326C62.4482 24.9082 76.7642 38.8099 78.1133 57.5804" stroke="#525261" stroke-width="2" stroke-miterlimit="10" stroke-linecap="round"/>
<path d="M23.8877 88.3418C23.511 87.6416 15.6087 69.7514 19.1526 55.8629C22.1077 42.225 35.7621 33.4333 47.3012 36.4121C56.5001 38.7867 62.7996 47.8717 63.4752 58.3816C63.6443 61.0436 62.1988 70.3686 64.6065 72.0237" stroke="#525261" stroke-width="2" stroke-miterlimit="10" stroke-linecap="round"/>
<path d="M33.3516 90.4739C33.0346 89.9599 23.7398 72.3976 25.4074 61.9193C27.075 51.4409 35.8682 43.7357 44.7781 46.0357C63.8636 50.9452 51.9662 72.9763 58.7654 77.2555" stroke="#525261" stroke-width="2" stroke-miterlimit="10" stroke-linecap="round"/>
<path d="M13.5051 81.5717C11.0131 74.2333 9.72492 64.6127 11.4642 56.5858C13.5787 46.8274 19.1822 38.3968 26.8275 33.4324C34.2503 28.6158 42.7822 27.4689 50.8207 30.2105C66.1938 35.4264 75.0437 54.2696 70.9619 73.1069L70.8357 73.6895C69.3173 80.6968 63.1353 85.1332 57.079 83.5698C51.0227 82.0064 47.3164 75.0174 48.8347 68.0101L49.1994 66.327C49.75 63.7863 49.4089 61.1862 48.2131 59.0149C47.0981 56.984 45.3709 55.5812 43.3421 55.0575C43.3271 55.0536 43.312 55.0497 43.297 55.0458C40.7087 54.3948 38.6358 55.466 37.3554 56.4683C35.0797 58.2562 33.4812 61.3125 33.0804 64.6267C31.7554 75.6485 41.9095 91.0734 44.9301 91.8532" stroke="#525261" stroke-width="2" stroke-miterlimit="10" stroke-linecap="round"/>
<path d="M41.0444 64.2305C41.0444 64.2305 38.8995 81.0759 52.3705 89.219" stroke="#525261" stroke-width="2" stroke-miterlimit="10" stroke-linecap="round"/>
<circle cx="62.5" cy="28.5" r="1.5" fill="#396DE0"/>
<circle cx="20.5" cy="50.5" r="1.5" fill="#396DE0"/>
<circle cx="44.5" cy="55.5" r="1.5" fill="#396DE0"/>
<circle cx="33.5" cy="14.5" r="1.5" fill="#396DE0"/>
<circle cx="42.5" cy="74.5" r="1.5" fill="#396DE0"/>
<circle cx="63.5" cy="60.5" r="1.5" fill="#396DE0"/>
<circle cx="69.5" cy="77.5" r="1.5" fill="#396DE0"/>
<circle cx="12.5" cy="78.5" r="1.5" fill="#396DE0"/>
<circle cx="15.5" cy="32.5" r="1.5" fill="#396DE0"/>
</svg>
