<svg width="16" height="16" viewBox="0 0 16 16" fill="none" xmlns="http://www.w3.org/2000/svg">
<path d="M11.0999 9.5C11.0999 9 10.8999 8.6 10.6999 8.1C10.4999 7.7 10.2999 7.3 9.9999 6.9C9.8999 6.8 9.7999 6.7 9.6999 6.7L9.5999 6.6C9.5999 6.6 9.5999 6.5 9.4999 6.5L9.3999 6.4C9.3999 6.4 9.3999 6.4 9.2999 6.3C9.1999 6.1 8.9999 5.9 8.8999 5.8C8.7999 5.6 8.6999 5.5 8.5999 5.3C8.4999 5.1 8.4999 4.9 8.3999 4.7C8.3999 4.5 8.2999 4.3 8.2999 4.1C8.2999 3.9 8.2999 3.7 8.2999 3.5C8.2999 3.4 8.2999 3.3 8.2999 3.2C8.2999 3.1 8.2999 3.1 8.1999 3C8.2999 3 8.1999 3 8.0999 3C7.9999 3 7.8999 3.1 7.7999 3.1C7.5999 3.2 7.3999 3.3 7.1999 3.5C6.9999 3.7 6.7999 3.9 6.5999 4.2C6.3999 4.5 6.1999 4.9 6.0999 5.3C5.9999 5.8 5.9999 6.3 6.0999 6.7C6.1999 7.2 6.3999 7.6 6.6999 8.1C6.7999 8.3 6.9999 8.5 7.0999 8.7L7.1999 8.9L7.2999 9C7.2999 9 7.2999 9 7.3999 9.1C7.5999 9.3 7.7999 9.5 7.8999 9.7C7.9999 9.8 8.1999 10 8.2999 10.1C8.3999 10.3 8.4999 10.5 8.5999 10.6C8.6999 10.8 8.6999 11 8.6999 11.2C8.6999 11.4 8.6999 11.6 8.6999 11.8C8.6999 12 8.5999 12.2 8.5999 12.4C8.5999 12.5 8.5999 12.6 8.4999 12.7C8.4999 12.8 8.4999 12.8 8.5999 12.9L8.6999 13C8.7999 13 8.8999 13 8.9999 12.9C9.1999 12.8 9.3999 12.7 9.5999 12.6C9.8999 12.4 10.0999 12.2 10.2999 12C10.4999 11.7 10.6999 11.3 10.8999 10.9C11.0999 10.5 11.0999 10 11.0999 9.5Z" fill="#F7931A"/>
<path d="M6.9999 10.8C6.8999 10.6 6.7999 10.4 6.6999 10.3L6.5999 10.2V10.1C6.2999 9.8 6.2999 9.8 6.1999 9.7C6.1999 9.6 6.0999 9.6 6.0999 9.5C5.9999 9.4 5.9999 9.3 5.9999 9.2C5.9999 9.1 5.9999 9 5.9999 8.9C5.9999 8.8 5.9999 8.7 5.9999 8.7C5.9999 8.6 5.9999 8.6 5.8999 8.5C5.7999 8.5 5.7999 8.5 5.6999 8.5C5.5999 8.5 5.4999 8.6 5.4999 8.6C5.2999 8.7 5.1999 8.8 5.0999 9C5.0999 9.1 4.9999 9.3 4.8999 9.5C4.8999 9.7 4.8999 9.9 4.8999 10.2C4.8999 10.4 4.9999 10.6 5.1999 10.8C5.2999 10.9 5.2999 11 5.3999 11.1L5.4999 11.2C5.5999 11.3 5.5999 11.4 5.6999 11.5C5.7999 11.6 5.7999 11.7 5.8999 11.7C5.9999 11.8 5.9999 11.9 5.9999 11.9C5.9999 12 6.0999 12.1 6.0999 12.2C6.0999 12.3 6.0999 12.4 6.0999 12.5C6.0999 12.6 6.0999 12.6 6.0999 12.7C6.0999 12.8 6.0999 12.8 6.1999 12.9H6.2999H6.3999C6.4999 12.9 6.4999 12.8 6.5999 12.8C6.6999 12.7 6.7999 12.6 6.8999 12.5C6.9999 12.4 7.0999 12.2 7.1999 12C7.2999 11.8 7.2999 11.6 7.2999 11.4C7.1999 11.2 7.0999 11 6.9999 10.8Z" fill="#F7931A"/>
</svg>
