<svg xmlns="http://www.w3.org/2000/svg" width="102" height="80" viewBox="0 0 102 80">
    <g fill="none" fill-rule="evenodd">
        <g>
            <g>
                <path fill="#34343D" stroke="#23232B" stroke-linecap="round" stroke-linejoin="round" stroke-width="2" d="M78 37.499C78 58.209 61.21 75 40.5 75c-7.838 0-15.114-2.405-21.131-6.517-1.379-.942-7.835.157-19.369 3.295 7.123-7.616 10.268-12.038 9.436-13.266C5.373 52.518 3 45.285 3 37.499 3 16.79 19.79 0 40.5 0S78 16.79 78 37.499z" transform="translate(-127 -316) translate(128 317)"/>
                <path fill="#23232B" d="M48.698 57H31.302C27.822 57 25 54.213 25 50.777V36.223C25 32.787 27.822 30 31.302 30h17.396C52.178 30 55 32.787 55 36.223v14.554C55 54.213 52.178 57 48.698 57z" transform="translate(-127 -316) translate(128 317)"/>
                <path stroke="#23232B" stroke-linecap="round" stroke-linejoin="round" stroke-width="4" d="M49 31H31v-4.102C31 21.985 35.028 18 40 18c4.97 0 9 3.985 9 8.898V31z" transform="translate(-127 -316) translate(128 317)"/>
                <path stroke="#34343D" stroke-linecap="round" stroke-linejoin="round" stroke-width="2" d="M40.5 47c-1.926 0-3.5-1.576-3.5-3.499C37 41.576 38.574 40 40.5 40s3.5 1.576 3.5 3.501C44 45.424 42.426 47 40.5 47z" transform="translate(-127 -316) translate(128 317)"/>
                <path fill="#34343D" stroke="#23232B" stroke-linecap="round" stroke-linejoin="round" stroke-width="2" d="M100 57.5C100 68.82 90.822 78 79.5 78S59 68.821 59 57.5 68.178 37 79.5 37 100 46.179 100 57.5z" transform="translate(-127 -316) translate(128 317)"/>
                <path stroke="#396DE0" stroke-linecap="round" stroke-linejoin="round" stroke-width="2" d="M80 62v-1.117c0-1.92.931-3.72 2.5-4.83 1.567-1.109 2.5-2.91 2.5-4.83v-.225C85 48.238 82.76 46 80 46s-5 2.237-5 4.998M80 67L80 68" transform="translate(-127 -316) translate(128 317)"/>
            </g>
        </g>
    </g>
</svg>
