<svg width="360" height="84" viewBox="0 0 360 84" fill="none" xmlns="http://www.w3.org/2000/svg">
    <path fill-rule="evenodd" clip-rule="evenodd"
        d="M143.784 43.9628C143.784 46.0509 142.018 47.7432 139.84 47.7432H139.75C137.572 47.7432 135.806 46.0509 135.806 43.9628V32.689C135.806 32.6142 135.743 32.5537 135.665 32.5537L131.971 32.5551C131.894 32.5551 131.831 32.6156 131.831 32.6899V43.9199C131.831 48.1362 135.397 51.5537 139.795 51.5537C144.193 51.5537 147.759 48.1362 147.759 43.9199V32.689C147.759 32.6142 147.696 32.5537 147.618 32.5537H143.925C143.847 32.5537 143.784 32.6142 143.784 32.689V43.9628Z"
        fill="white" />
    <path fill-rule="evenodd" clip-rule="evenodd"
        d="M163.423 44.115L155.77 32.6161C155.744 32.5771 155.699 32.5537 155.65 32.5537H151.883C151.805 32.5537 151.742 32.6137 151.742 32.6885V51.4189C151.742 51.4932 151.805 51.5537 151.883 51.5537H155.587C155.665 51.5537 155.729 51.4932 155.729 51.4189V40.0563C155.729 39.921 155.913 39.8695 155.989 39.9839L163.642 51.4827C163.668 51.5218 163.713 51.5456 163.762 51.5456H167.529C167.608 51.5456 167.67 51.4851 167.67 51.4099V32.6971C167.67 32.6228 167.608 32.5623 167.529 32.5623H163.825C163.747 32.5623 163.683 32.6228 163.683 32.6971V44.0431C163.683 44.1779 163.499 44.2288 163.423 44.115Z"
        fill="white" />
    <path fill-rule="evenodd" clip-rule="evenodd"
        d="M171.794 51.5537H175.494C175.572 51.5537 175.635 51.4932 175.635 51.4189V32.689C175.635 32.6142 175.572 32.5537 175.494 32.5537H171.794C171.716 32.5537 171.653 32.6142 171.653 32.689V51.4189C171.653 51.4932 171.716 51.5537 171.794 51.5537Z"
        fill="white" />
    <path fill-rule="evenodd" clip-rule="evenodd"
        d="M194.55 32.5547V36.3641V40.1569V43.9672V47.7433V51.5366V51.5537H205.372C205.443 51.5537 205.501 51.4932 205.501 51.4189V47.8786C205.501 47.8038 205.443 47.7433 205.372 47.7433H198.326C198.254 47.7433 198.197 47.6828 198.197 47.6085V44.1025C198.197 44.0277 198.254 43.9672 198.326 43.9672H203.521C203.592 43.9672 203.65 43.9067 203.65 43.8324V40.2921C203.65 40.2173 203.592 40.1569 203.521 40.1569H198.326C198.254 40.1569 198.197 40.0964 198.197 40.0221V36.4989C198.197 36.4246 198.254 36.3641 198.326 36.3641H205.372C205.443 36.3641 205.501 36.3036 205.501 36.2288V32.6885C205.501 32.6142 205.443 32.5537 205.372 32.5537H194.55V32.5547Z"
        fill="white" />
    <path fill-rule="evenodd" clip-rule="evenodd"
        d="M220.442 43.0178C220.442 45.6275 218.23 47.7433 215.501 47.7433H212.613C212.535 47.7433 212.472 47.6828 212.472 47.6085V36.4995C212.472 36.4247 212.535 36.3643 212.613 36.3643H215.501C218.23 36.3643 220.442 38.48 220.442 41.0902V43.0178ZM215.241 32.5537H208.629C208.551 32.5537 208.488 32.6142 208.488 32.689V51.4189C208.488 51.4932 208.551 51.5537 208.629 51.5537H215.241C220.308 51.5537 224.417 47.6246 224.417 42.7777V41.3302C224.417 36.4833 220.308 32.5537 215.241 32.5537Z"
        fill="white" />
    <path fill-rule="evenodd" clip-rule="evenodd"
        d="M176.772 36.3637H182.457C182.536 36.3637 182.599 36.4242 182.599 36.499V51.418C182.599 51.4932 182.662 51.5537 182.74 51.5537H186.449C186.527 51.5537 186.59 51.4932 186.59 51.418V36.499C186.59 36.4242 186.654 36.3637 186.731 36.3637H192.417C192.496 36.3637 192.559 36.3032 192.559 36.2289V32.689C192.559 32.6142 192.496 32.5537 192.417 32.5537H176.772C176.694 32.5537 176.63 32.6142 176.63 32.689V36.2289C176.63 36.3032 176.694 36.3637 176.772 36.3637Z"
        fill="white" />
    <path fill-rule="evenodd" clip-rule="evenodd"
        d="M247.455 51.5537H251.155C251.233 51.5537 251.296 51.4932 251.296 51.4189V32.6885C251.296 32.6142 251.233 32.5537 251.155 32.5537H247.455C247.377 32.5537 247.314 32.6142 247.314 32.6885V51.4189C247.314 51.4932 247.377 51.5537 247.455 51.5537Z"
        fill="white" />
    <path fill-rule="evenodd" clip-rule="evenodd"
        d="M239.343 45.8486C239.343 46.8937 238.457 47.741 237.363 47.741H231.533C231.455 47.741 231.392 47.6805 231.392 47.6062V44.0987C231.392 44.0238 231.455 43.9633 231.533 43.9633H237.363C237.38 43.9633 237.398 43.9609 237.416 43.9609C238.484 43.9886 239.343 44.8207 239.343 45.8486ZM231.533 36.3662H237.254C238.319 36.3662 239.275 37.1249 239.339 38.1419C239.407 39.2227 238.525 40.1177 237.416 40.1463C237.398 40.1463 237.38 40.1434 237.363 40.1434H231.533C231.455 40.1434 231.392 40.0829 231.392 40.0086V36.5011C231.392 36.4267 231.455 36.3662 231.533 36.3662ZM237.363 32.5537H227.545C227.467 32.5537 227.403 32.6142 227.403 32.6886V40.1434V43.9635V51.4188C227.403 51.4932 227.467 51.5537 227.545 51.5537H237.363C240.659 51.5537 243.332 48.9993 243.332 45.8488C243.332 44.3891 242.754 43.0624 241.811 42.0535C242.754 41.0446 243.332 39.7178 243.332 38.2586C243.332 35.1076 240.659 32.5537 237.363 32.5537Z"
        fill="white" />
    <mask id="mask0" mask-type="alpha" maskUnits="userSpaceOnUse" x="252" y="31" width="16" height="21">
        <path fill-rule="evenodd" clip-rule="evenodd" d="M252.589 31.9639H268V51.4209H252.589V31.9639Z" fill="white" />
    </mask>
    <g mask="url(#mask0)">
        <path fill-rule="evenodd" clip-rule="evenodd"
            d="M268 32.1019C268 32.0258 267.939 31.9639 267.863 31.9639H262.225H258.364H252.725C252.65 31.9639 252.589 32.0258 252.589 32.1019V35.7278C252.589 35.8044 252.65 35.8663 252.725 35.8663H258.227C258.302 35.8663 258.364 35.9278 258.364 36.0044V51.2829C258.364 51.359 258.425 51.4209 258.5 51.4209H262.088C262.164 51.4209 262.225 51.359 262.225 51.2829V36.0044C262.225 35.9278 262.287 35.8663 262.362 35.8663H267.863C267.939 35.8663 268 35.8044 268 35.7278V32.1019Z"
            fill="white" />
    </g>
    <mask id="mask1" mask-type="alpha" maskUnits="userSpaceOnUse" x="94" y="28" width="21" height="27">
        <path fill-rule="evenodd" clip-rule="evenodd" d="M94 28H114.534V54.6788H94V28Z" fill="white" />
    </mask>
    <g mask="url(#mask1)">
        <path fill-rule="evenodd" clip-rule="evenodd"
            d="M102.994 33.9898L99.2096 37.7796C97.2819 39.7103 97.2819 42.8401 99.2096 44.7708L103.687 49.2559C103.74 49.3082 103.826 49.3082 103.878 49.2559L114.304 38.8137C114.389 38.7285 114.534 38.7885 114.534 38.9089V42.8496C114.534 43.5654 114.25 44.2516 113.745 44.757L103.878 54.6395C103.826 54.6918 103.74 54.6918 103.687 54.6395L96.5854 47.5261C93.1382 44.0741 93.1382 38.4763 96.5854 35.0243L103.553 28.0399C103.637 27.9547 103.782 28.0151 103.782 28.135V32.082C103.782 32.7977 103.499 33.4839 102.994 33.9898Z"
            fill="#396DE0" />
    </g>
    <path fill-rule="evenodd" clip-rule="evenodd"
        d="M115.677 49.4988L119.668 45.5158C121.546 43.6419 121.546 40.6023 119.668 38.7279L114.974 34.0436C114.921 33.9906 114.834 33.9906 114.78 34.0436L104.189 44.6141C104.103 44.7003 103.955 44.6391 103.955 44.5177V40.5286C103.955 39.804 104.244 39.1099 104.757 38.5973L114.78 28.5938C114.834 28.5403 114.921 28.5403 114.974 28.5938L122.269 35.8746C125.726 39.3252 125.726 44.919 122.269 48.3691L115.111 55.5136C115.025 55.5993 114.878 55.5386 114.878 55.4172L114.876 51.4314C114.875 50.7069 115.164 50.0113 115.677 49.4988Z"
        fill="#396DE0" />
</svg>