<svg width="200" height="481" viewBox="0 0 200 481" fill="none" xmlns="http://www.w3.org/2000/svg">
<mask id="mask0" style="mask-type:alpha" maskUnits="userSpaceOnUse" x="-64" y="0" width="359" height="466">
<path fill-rule="evenodd" clip-rule="evenodd" d="M-64 0L294.378 0V465.62H-64L-64 0Z" fill="white"/>
</mask>
<g mask="url(#mask0)">
<path fill-rule="evenodd" clip-rule="evenodd" d="M92.9657 104.538L26.9229 170.683C-6.72046 204.378 -6.72046 259.002 26.9229 292.697L105.073 370.976C105.994 371.89 107.486 371.89 108.398 370.976L290.364 188.73C291.841 187.244 294.378 188.29 294.378 190.391V259.169C294.378 271.66 289.419 283.636 280.604 292.457L108.398 464.935C107.486 465.849 105.994 465.849 105.073 464.935L-18.8775 340.786C-79.0408 280.538 -79.0408 182.842 -18.8775 122.594L102.726 0.695798C104.194 -0.79087 106.732 0.263917 106.732 2.35688V71.242C106.732 83.7333 101.781 95.7097 92.9657 104.538Z" fill="#396DE0" fill-opacity="0.15"/>
</g>
<path fill-rule="evenodd" clip-rule="evenodd" d="M314.425 374.754L384.004 305.209C416.748 272.489 416.748 219.414 384.004 186.686L302.172 104.894C301.247 103.969 299.732 103.969 298.798 104.894L114.138 289.463C112.632 290.969 110.065 289.901 110.065 287.781V218.127C110.065 205.476 115.089 193.356 124.043 184.406L298.798 9.73735C299.732 8.8037 301.247 8.8037 302.172 9.73735L429.363 136.866C489.634 197.116 489.634 294.787 429.363 355.029L304.562 479.777C303.056 481.274 300.498 480.214 300.489 478.095L300.455 408.5C300.447 395.849 305.479 383.703 314.425 374.754Z" fill="#396DE0" fill-opacity="0.15"/>
</svg>
