<svg xmlns="http://www.w3.org/2000/svg" width="24" height="24" viewBox="0 0 24 24">
    <defs>

    </defs>
    <g fill="none" fill-rule="evenodd">
        <g>
            <g  transform="translate(-240 -600) translate(0 592)">
                <g>
                    <path d="M0 0H24V24H0z" transform="translate(240 8)"/>
                    <path fill="#BFBFBF" fill-rule="nonzero" d="M18 7h-2V6c0-.552-.448-1-1-1H6c-1.105 0-2 .895-2 2v10c0 1.105.895 2 2 2h12c1.105 0 2-.895 2-2V9c0-1.105-.895-2-2-2zM6 6h9v1H6c-.351 0-.696.094-1 .27V7c0-.552.448-1 1-1zm13 9h-2c-.552 0-1-.448-1-1s.448-1 1-1h2v2z" transform="translate(240 8)"/>
                </g>
            </g>
        </g>
    </g>
</svg>
