<svg width="24" height="24" viewBox="0 0 24 24" fill="none" xmlns="http://www.w3.org/2000/svg">
<mask id="mask0" mask-type="alpha" maskUnits="userSpaceOnUse" x="3" y="4" width="18" height="17">
<path fill-rule="evenodd" clip-rule="evenodd" d="M3.50073 4H20.5V20.9999H3.50073V4Z" fill="white"/>
</mask>
<g mask="url(#mask0)">
<path fill-rule="evenodd" clip-rule="evenodd" d="M12.0007 5C7.86473 5 4.50073 8.364 4.50073 12.5C4.50073 16.636 7.86473 20 12.0007 20C16.1357 20 19.5007 16.636 19.5007 12.5C19.5007 8.364 16.1357 5 12.0007 5ZM12.0007 21C7.31373 21 3.50073 17.187 3.50073 12.5C3.50073 7.813 7.31373 4 12.0007 4C16.6877 4 20.5007 7.813 20.5007 12.5C20.5007 17.187 16.6877 21 12.0007 21Z" fill="#808080"/>
</g>
<path fill-rule="evenodd" clip-rule="evenodd" d="M17.4348 12.8467H12.4348C12.1588 12.8467 11.9348 12.6227 11.9348 12.3467C11.9348 12.0707 12.1588 11.8467 12.4348 11.8467H17.4348C17.7108 11.8467 17.9348 12.0707 17.9348 12.3467C17.9348 12.6227 17.7108 12.8467 17.4348 12.8467Z" fill="#396DE0"/>
<path fill-rule="evenodd" clip-rule="evenodd" d="M11.8831 16.3467C9.67706 16.3467 7.88306 14.5527 7.88306 12.3467C7.88306 10.1407 9.67706 8.34668 11.8831 8.34668C13.2551 8.34668 14.5161 9.03768 15.2561 10.1957C15.4041 10.4277 15.3361 10.7367 15.1031 10.8857C14.8721 11.0347 14.5621 10.9667 14.4131 10.7337C13.8581 9.86568 12.9121 9.34668 11.8831 9.34668C10.2291 9.34668 8.88306 10.6927 8.88306 12.3467C8.88306 14.0007 10.2291 15.3467 11.8831 15.3467C12.8381 15.3467 13.7131 14.9077 14.2861 14.1427C14.4511 13.9227 14.7641 13.8757 14.9861 14.0417C15.2071 14.2077 15.2521 14.5207 15.0871 14.7427C14.3231 15.7617 13.1551 16.3467 11.8831 16.3467Z" fill="#396DE0"/>
</svg>
