<svg width="24" height="24" viewBox="0 0 24 24" fill="none" xmlns="http://www.w3.org/2000/svg">
<path fill-rule="evenodd" clip-rule="evenodd" d="M7.98002 18.5C7.15302 18.5 6.48002 17.827 6.48002 17V15.237L10.534 11.922C10.725 11.768 10.996 11.772 11.18 11.933L18.559 18.383C18.381 18.458 18.186 18.5 17.98 18.5H7.98002ZM4.52002 15V7C4.52002 6.173 5.19302 5.5 6.02002 5.5H16.02C16.671 5.5 17.221 5.919 17.428 6.5H7.98002C6.60202 6.5 5.48002 7.622 5.48002 9V16.376C4.91702 16.153 4.52002 15.622 4.52002 15ZM19.48 9V17C19.48 17.254 19.411 17.491 19.298 17.701L11.838 11.18C11.285 10.697 10.47 10.682 9.90102 11.148L6.48002 13.945V9C6.48002 8.173 7.15302 7.5 7.98002 7.5H17.98C18.807 7.5 19.48 8.173 19.48 9ZM18.475 6.55C18.262 5.387 17.245 4.5 16.02 4.5H6.02002C4.64202 4.5 3.52002 5.622 3.52002 7V15C3.52002 16.183 4.36002 17.212 5.51702 17.449C5.52002 17.45 5.52202 17.449 5.52602 17.45C5.73902 18.614 6.75602 19.5 7.98002 19.5H17.98C19.358 19.5 20.48 18.378 20.48 17V9C20.48 7.791 19.617 6.781 18.475 6.55Z" fill="white"/>
<path fill-rule="evenodd" clip-rule="evenodd" d="M16.2177 10.825C15.8527 10.825 15.5547 10.528 15.5547 10.162C15.5547 9.797 15.8527 9.5 16.2177 9.5C16.5827 9.5 16.8807 9.797 16.8807 10.162C16.8807 10.528 16.5827 10.825 16.2177 10.825ZM16.2177 8.5C15.3007 8.5 14.5547 9.246 14.5547 10.162C14.5547 11.079 15.3007 11.825 16.2177 11.825C17.1347 11.825 17.8807 11.079 17.8807 10.162C17.8807 9.246 17.1347 8.5 16.2177 8.5Z" fill="white"/>
</svg>
