<svg xmlns="http://www.w3.org/2000/svg" width="126" height="37" viewBox="0 0 126 37">
    <defs>
        <linearGradient id="lp15cmzq7a" x1="60.485%" x2="27.625%" y1="4.95%" y2="71.926%">
            <stop offset="0%" stop-color="#00A0FF"/>
            <stop offset=".657%" stop-color="#00A1FF"/>
            <stop offset="26.01%" stop-color="#00BEFF"/>
            <stop offset="51.22%" stop-color="#00D2FF"/>
            <stop offset="76.04%" stop-color="#00DFFF"/>
            <stop offset="100%" stop-color="#00E3FF"/>
        </linearGradient>
        <linearGradient id="zfalbcgt0b" x1="107.63%" x2="-130.552%" y1="50%" y2="50%">
            <stop offset="0%" stop-color="#FFE000"/>
            <stop offset="40.87%" stop-color="#FFBD00"/>
            <stop offset="77.54%" stop-color="orange"/>
            <stop offset="100%" stop-color="#FF9C00"/>
        </linearGradient>
        <linearGradient id="4mlt6ltgvc" x1="86.243%" x2="-50.129%" y1="29.912%" y2="140.49%">
            <stop offset="0%" stop-color="#FF3A44"/>
            <stop offset="100%" stop-color="#C31162"/>
        </linearGradient>
        <linearGradient id="uk0o4osedd" x1="-18.811%" x2="42.085%" y1="-15.038%" y2="34.312%">
            <stop offset="0%" stop-color="#32A071"/>
            <stop offset="6.85%" stop-color="#2DA771"/>
            <stop offset="47.62%" stop-color="#15CF74"/>
            <stop offset="80.09%" stop-color="#06E775"/>
            <stop offset="100%" stop-color="#00F076"/>
        </linearGradient>
    </defs>
    <g fill="none" fill-rule="evenodd">
        <g>
            <g>
                <path fill="#000" fill-rule="nonzero" d="M121.132 37H4.468C1.895 37-.2 34.915-.2 32.375V4.625C-.2 2.076 1.895 0 4.468 0h116.664c2.57 0 4.668 2.076 4.668 4.625v27.75c0 2.54-2.098 4.625-4.668 4.625z" transform="translate(-177 -250) translate(177.2 250)"/>
                <path fill="#A6A6A6" d="M121.132.74c2.158 0 3.924 1.747 3.924 3.885v27.75c0 2.138-1.755 3.885-3.924 3.885H4.468c-2.158 0-3.924-1.747-3.924-3.885V4.625C.544 2.487 2.3.74 4.468.74h116.664zm0-.74H4.468C1.895 0-.2 2.085-.2 4.625v27.75C-.2 34.924 1.895 37 4.468 37h116.664c2.57 0 4.668-2.076 4.668-4.625V4.625c0-2.54-2.098-4.625-4.668-4.625z" transform="translate(-177 -250) translate(177.2 250)"/>
                <path fill="#FFF" fill-rule="nonzero" d="M65.612 11c-.834 0-1.538-.245-2.095-.727-.552-.469-.86-1.114-.846-1.774 0-.704.285-1.3.846-1.772C64.072 6.245 64.775 6 65.61 6c.826 0 1.53.245 2.095.727.561.488.847 1.084.847 1.772-.01.706-.295 1.302-.847 1.772-.554.486-1.258.729-2.093.729zm-24.84 0c-.817 0-1.525-.241-2.105-.717-.575-.475-.867-1.074-.867-1.782s.292-1.307.867-1.782c.568-.476 1.276-.717 2.104-.717.405 0 .799.067 1.176.204.37.133.671.315.894.536l.056.056-.624.513-.064-.063c-.352-.351-.823-.523-1.447-.523-.556 0-1.042.166-1.442.494-.402.33-.607.761-.607 1.284 0 .522.205.954.607 1.284.4.328.886.494 1.442.494.594 0 1.093-.166 1.481-.494.23-.193.373-.463.424-.804h-2v-.721h2.857l.012.065c.02.122.041.247.041.363 0 .665-.239 1.203-.713 1.6-.538.47-1.242.71-2.093.71zm33.028-.102h-.88l-2.699-3.62.023.652v2.966h-.88V6.104h1.005l.027.037 2.537 3.409-.023-.65V6.104h.89v4.794zm-14.807 0h-.892V6.825h-1.548v-.72h3.986v.72H58.99v4.073h.002zm-3.167 0h-.89V6.104h.89v4.794zm-5.002 0h-.89V6.825h-1.548v-.72h3.986v.72h-1.548v4.073zm-3.001-.008H44.41V6.104h3.413v.721h-2.52V8.14h2.274v.714h-2.275v1.315h2.52v.721zM64.17 9.777c.398.334.881.502 1.442.502.578 0 1.05-.164 1.442-.502.391-.327.59-.757.59-1.276s-.199-.95-.587-1.277c-.398-.333-.883-.5-1.442-.5-.578 0-1.049.163-1.44.5-.391.328-.589.758-.589 1.277 0 .519.196.95.584 1.276z" transform="translate(-177 -250) translate(177.2 250)"/>
                <path fill="#FFF" d="M62.713 20.436c-2.17 0-3.927 1.68-3.927 3.996 0 2.296 1.77 3.996 3.927 3.996 2.169 0 3.927-1.691 3.927-3.996 0-2.316-1.758-3.996-3.927-3.996zm0 6.409c-1.187 0-2.208-1.003-2.208-2.422 0-1.44 1.023-2.422 2.208-2.422 1.186 0 2.208.981 2.208 2.422.002 1.429-1.022 2.422-2.208 2.422zm-8.568-6.409c-2.17 0-3.928 1.68-3.928 3.996 0 2.296 1.77 3.996 3.928 3.996 2.169 0 3.927-1.691 3.927-3.996 0-2.316-1.76-3.996-3.927-3.996zm0 6.409c-1.187 0-2.208-1.003-2.208-2.422 0-1.44 1.023-2.422 2.208-2.422 1.186 0 2.208.981 2.208 2.422 0 1.429-1.022 2.422-2.208 2.422zm-10.196-5.188v1.69h3.978c-.122.95-.43 1.65-.9 2.13-.583.595-1.483 1.241-3.069 1.241-2.444 0-4.356-2.014-4.356-4.509 0-2.494 1.912-4.509 4.356-4.509 1.32 0 2.282.532 2.996 1.211l1.175-1.199c-.992-.97-2.312-1.712-4.162-1.712-3.353 0-6.167 2.787-6.167 6.2 0 3.422 2.812 6.2 6.167 6.2 1.811 0 3.17-.604 4.244-1.743 1.095-1.117 1.442-2.693 1.442-3.965 0-.396-.03-.752-.092-1.054h-5.614c.002-.003.002.019.002.019zm41.703 1.316c-.329-.897-1.32-2.546-3.354-2.546-2.015 0-3.69 1.618-3.69 3.996 0 2.244 1.657 3.996 3.885 3.996 1.79 0 2.833-1.118 3.262-1.773l-1.329-.91c-.44.668-1.054 1.106-1.923 1.106-.88 0-1.495-.407-1.903-1.21l5.235-2.214-.183-.445zm-5.34 1.335c-.04-1.544 1.176-2.328 2.046-2.328.686 0 1.258.344 1.453.845l-3.498 1.483zM76.06 28.18h1.719V16.44h-1.72v11.74zm-2.823-6.856h-.062c-.388-.47-1.125-.897-2.066-.897-1.953 0-3.753 1.754-3.753 4.007 0 2.244 1.79 3.978 3.753 3.978.93 0 1.678-.429 2.066-.91h.062v.575c0 1.525-.8 2.347-2.087 2.347-1.053 0-1.707-.773-1.974-1.42l-1.494.637c.43 1.054 1.575 2.359 3.466 2.359 2.015 0 3.723-1.211 3.723-4.165v-7.17h-1.625v.659h-.01zm-1.974 5.52c-1.187 0-2.179-1.011-2.179-2.41 0-1.41.992-2.43 2.179-2.43 1.175 0 2.086 1.032 2.086 2.43.012 1.399-.909 2.41-2.086 2.41zM93.7 16.44h-4.11v11.74h1.719v-4.446h2.393c1.903 0 3.774-1.408 3.774-3.642 0-2.235-1.864-3.652-3.776-3.652zm.05 5.655h-2.444v-4.03h2.445c1.287 0 2.015 1.085 2.015 2.015 0 .92-.737 2.015-2.015 2.015zm10.616-1.68c-1.248 0-2.536.565-3.068 1.794l1.524.647c.328-.647.93-.867 1.565-.867.89 0 1.79.544 1.81 1.513v.124c-.307-.178-.981-.45-1.79-.45-1.645 0-3.314.919-3.314 2.64 0 1.577 1.35 2.589 2.853 2.589 1.155 0 1.79-.532 2.188-1.148h.062v.909h1.657v-4.497c0-2.094-1.524-3.254-3.487-3.254zm-.215 6.43c-.563 0-1.35-.281-1.35-1.003 0-.909.982-1.253 1.82-1.253.757 0 1.116.166 1.565.396-.124 1.054-.996 1.85-2.035 1.86zm9.748-6.18l-1.974 5.093h-.062l-2.045-5.092h-1.85l3.068 7.118-1.749 3.956h1.79l4.722-11.074h-1.9zM98.425 28.18h1.719V16.44h-1.72v11.74z" transform="translate(-177 -250) translate(177.2 250)"/>
                <g>
                    <path fill="url(#lp15cmzq7a)" d="M.415.363C.152.654 0 1.1 0 1.681v20.634c0 .581.152 1.026.424 1.305l.07.063 11.272-11.56v-.26L.486.302l-.07.062z" transform="translate(-177 -250) translate(177.2 250) translate(9.8 6)"/>
                    <path fill="url(#zfalbcgt0b)" d="M15.517 15.987l-3.76-3.856v-.27l3.76-3.855.081.05 4.447 2.593c1.273.735 1.273 1.95 0 2.695l-4.447 2.592-.081.051z" transform="translate(-177 -250) translate(177.2 250) translate(9.8 6)"/>
                    <path fill="url(#4mlt6ltgvc)" d="M15.598 15.936l-3.84-3.94L.414 23.63c.415.456 1.112.507 1.89.062l13.293-7.756" transform="translate(-177 -250) translate(177.2 250) translate(9.8 6)"/>
                    <path fill="url(#uk0o4osedd)" d="M15.598 8.057L2.305.312C1.527-.144.828-.08.415.375l11.342 11.621 3.841-3.94z" transform="translate(-177 -250) translate(177.2 250) translate(9.8 6)"/>
                </g>
                <path fill="#000" fill-rule="nonzero" d="M25.704 22l-13.912 7.558c-.777.427-1.47.397-1.918.009l-.074.07.074.062c.447.387 1.14.419 1.918-.009L25.8 22.082 25.704 22z" opacity=".2" transform="translate(-177 -250) translate(177.2 250)"/>
                <path fill="#000" fill-rule="nonzero" d="M29.943 19.231L25.8 21.915l.075.085 4.058-2.632c.581-.378.867-.874.867-1.368-.035.454-.331.884-.857 1.231z" opacity=".12" transform="translate(-177 -250) translate(177.2 250)"/>
                <path fill="#FFF" d="M12.106 6.451l17.743 10.337c.577.332.901.768.951 1.212 0-.486-.313-.975-.95-1.347L12.105 6.316C10.833 5.57 9.8 6.193 9.8 7.685v.135c0-1.494 1.033-2.106 2.306-1.369z" opacity=".25" transform="translate(-177 -250) translate(177.2 250)"/>
            </g>
        </g>
    </g>
</svg>
