<svg xmlns="http://www.w3.org/2000/svg" width="16" height="16" viewBox="0 0 16 16">
    <g fill="none" fill-rule="evenodd">
        <g>
            <g>
                <path d="M0 0H16V16H0z" transform="translate(-12 -156) translate(12 156)"/>
                <g fill="#06BA61">
                    <path d="M.878.172l4.95 4.95c.196.194.196.51 0 .707-.196.195-.512.195-.707 0L.171.878C-.024.682-.024.366.171.17c.195-.195.512-.195.708 0z" transform="translate(-12 -156) translate(12 156) translate(5 5)"/>
                    <path d="M5.475 1.975c.276 0 .5.224.5.5v3c0 .276-.224.5-.5.5s-.5-.224-.5-.5v-3c0-.276.224-.5.5-.5" transform="translate(-12 -156) translate(12 156) translate(5 5)"/>
                    <path d="M1.975 5.475c0-.276.224-.5.5-.5h3c.276 0 .5.224.5.5s-.224.5-.5.5h-3c-.276 0-.5-.224-.5-.5" transform="translate(-12 -156) translate(12 156) translate(5 5)"/>
                </g>
            </g>
        </g>
    </g>
</svg>
