<svg xmlns="http://www.w3.org/2000/svg" width="24" height="24" viewBox="0 0 24 24">
    <g fill="none" fill-rule="evenodd">
        <g>
            <g  transform="translate(-24 -547) translate(12 447)">
                <g>
                    <path d="M0 0H24V24H0z" transform="translate(12 100)"/>
                    <g fill="#808080">
                        <path d="M9.81 9.874c-.129 0-.257-.049-.355-.146l-1.788-1.79c-.094-.093-.147-.22-.147-.353V4.837c0-.276.224-.5.5-.5.277 0 .5.224.5.5v2.541l1.643 1.642c.195.196.195.512 0 .708-.098.097-.226.146-.354.146" transform="translate(12 100) translate(4 4)"/>
                        <path d="M8.02 14.859c-1.869 0-3.738-.711-5.16-2.134C1.51 11.377.751 9.585.722 7.679c-.005-.277.216-.504.492-.508.31-.017.503.216.508.492.025 1.645.68 3.19 1.843 4.355 2.456 2.456 6.452 2.456 8.908 0 2.455-2.456 2.455-6.452 0-8.908-2.456-2.456-6.452-2.456-8.908 0-.195.196-.51.196-.707 0-.195-.195-.195-.511 0-.707 2.846-2.845 7.476-2.845 10.322 0 2.845 2.846 2.845 7.476 0 10.322-1.423 1.423-3.292 2.134-5.16 2.134" transform="translate(12 100) translate(4 4)"/>
                        <path d="M5.161 4.707H1.762c-.276 0-.5-.224-.5-.5V.808c0-.277.224-.5.5-.5s.5.223.5.5v2.9h2.9c.275 0 .5.223.5.5 0 .275-.225.5-.5.5" transform="translate(12 100) translate(4 4)"/>
                    </g>
                </g>
            </g>
        </g>
    </g>
</svg>
