<svg xmlns="http://www.w3.org/2000/svg" width="24" height="24" viewBox="0 0 24 24">
    <defs>

    </defs>
    <g fill="none" fill-rule="evenodd">
        <g>
            <g  transform="translate(-24 -600) translate(0 592)">
                <g>
                    <path d="M0 0H24V24H0z" transform="translate(24 8)"/>
                    <path fill="#BFBFBF" fill-rule="nonzero" d="M8.74 8.17l-2 2c-.489.488-.763 1.15-.763 1.84 0 .69.274 1.352.763 1.84L9.1 16.2c.03.03.08.03.11 0l5.49-5.5c.021-.023.055-.029.082-.015.028.014.043.045.038.075v2.07c0 .376-.151.737-.42 1L9.21 19c-.03.03-.08.03-.11 0l-3.74-3.71c-1.808-1.82-1.808-4.76 0-6.58L9 5c.013-.021.035-.034.06-.034.025 0 .047.013.06.034v2.16c.012.374-.124.737-.38 1.01z" transform="translate(24 8)"/>
                    <path fill="#BFBFBF" fill-rule="nonzero" d="M15.24 15.83l2.07-2.07c.971-.972.971-2.548 0-3.52L14.87 7.8c-.013-.013-.031-.021-.05-.021-.019 0-.037.008-.05.021l-5.49 5.5c-.022.018-.053.023-.08.013-.027-.01-.046-.034-.05-.063v-2.08c0-.376.151-.737.42-1L14.77 5c.013-.013.031-.021.05-.021.019 0 .037.008.05.021l3.78 3.78c.863.861 1.349 2.03 1.349 3.25 0 1.22-.486 2.389-1.349 3.25L14.94 19c-.02.02-.05.027-.077.016-.026-.011-.043-.037-.043-.066v-2.11c0-.38.15-.743.42-1.01z" transform="translate(24 8)"/>
                </g>
            </g>
        </g>
    </g>
</svg>
