<svg width="24" height="24" viewBox="0 0 24 24" fill="none" xmlns="http://www.w3.org/2000/svg">
<path fill-rule="evenodd" clip-rule="evenodd" d="M6.00024 6.5C5.17324 6.5 4.50024 7.173 4.50024 8V16C4.50024 16.827 5.17324 17.5 6.00024 17.5H18.0002C18.8272 17.5 19.5002 16.827 19.5002 16V8C19.5002 7.173 18.8272 6.5 18.0002 6.5H6.00024ZM18.0002 18.5H6.00024C4.62224 18.5 3.50024 17.378 3.50024 16V8C3.50024 6.622 4.62224 5.5 6.00024 5.5H18.0002C19.3782 5.5 20.5002 6.622 20.5002 8V16C20.5002 17.378 19.3782 18.5 18.0002 18.5Z" fill="#808080"/>
<path fill-rule="evenodd" clip-rule="evenodd" d="M16.0002 9.47559H8.00024C7.72424 9.47559 7.50024 9.25159 7.50024 8.97559C7.50024 8.69959 7.72424 8.47559 8.00024 8.47559H16.0002C16.2762 8.47559 16.5002 8.69959 16.5002 8.97559C16.5002 9.25159 16.2762 9.47559 16.0002 9.47559Z" fill="#396DE0"/>
<path fill-rule="evenodd" clip-rule="evenodd" d="M16.0002 12.5H8.00024C7.72424 12.5 7.50024 12.276 7.50024 12C7.50024 11.724 7.72424 11.5 8.00024 11.5H16.0002C16.2762 11.5 16.5002 11.724 16.5002 12C16.5002 12.276 16.2762 12.5 16.0002 12.5Z" fill="#396DE0"/>
<path fill-rule="evenodd" clip-rule="evenodd" d="M16.0002 15.5244H8.00024C7.72424 15.5244 7.50024 15.3004 7.50024 15.0244C7.50024 14.7484 7.72424 14.5244 8.00024 14.5244H16.0002C16.2762 14.5244 16.5002 14.7484 16.5002 15.0244C16.5002 15.3004 16.2762 15.5244 16.0002 15.5244Z" fill="#396DE0"/>
</svg>
