<svg xmlns="http://www.w3.org/2000/svg" width="24" height="24" viewBox="0 0 24 24">
    <g fill="none" fill-rule="evenodd">
        <g>
            <g  transform="translate(-24 -501) translate(12 447)">
                <g>
                    <path d="M0 0H24V24H0z" transform="translate(12 54)"/>
                    <g fill="#808080">
                        <path d="M14.598 17.666h-2.776c-.276 0-.5-.224-.5-.5s.224-.5.5-.5h2.776c.827 0 1.5-.673 1.5-1.5v-12c0-.827-.673-1.5-1.5-1.5h-12c-.827 0-1.5.673-1.5 1.5v12c0 .827.673 1.5 1.5 1.5h2.923c.277 0 .5.224.5.5s-.223.5-.5.5H2.598c-1.378 0-2.5-1.122-2.5-2.5v-12c0-1.378 1.122-2.5 2.5-2.5h12c1.378 0 2.5 1.122 2.5 2.5v12c0 1.378-1.122 2.5-2.5 2.5" transform="translate(12 54) translate(3 3)"/>
                        <path d="M12.598 5.666h-8c-.276 0-.5-.224-.5-.5s.224-.5.5-.5h8c.276 0 .5.224.5.5s-.224.5-.5.5M12.598 9.666h-8c-.276 0-.5-.224-.5-.5s.224-.5.5-.5h8c.276 0 .5.224.5.5s-.224.5-.5.5M8.63 17.666c-.125 0-.248-.047-.341-.135l-1.592-1.49c-.202-.188-.212-.505-.024-.707.189-.201.505-.212.708-.023l1.126 1.055 2.079-3.7c.135-.24.44-.325.68-.19.242.136.327.44.192.682L9.067 17.41c-.075.134-.208.226-.36.249-.025.004-.051.006-.076.006" transform="translate(12 54) translate(3 3)"/>
                    </g>
                </g>
            </g>
        </g>
    </g>
</svg>
