<svg width="24" height="24" viewBox="0 0 24 24" fill="none" xmlns="http://www.w3.org/2000/svg">
<path fill-rule="evenodd" clip-rule="evenodd" d="M18 18.416C18 19.246 17.325 19.92 16.496 19.92H8.504C7.675 19.92 7 19.246 7 18.416V12.424C7 11.595 7.675 10.92 8.504 10.92H16.496C17.325 10.92 18 11.595 18 12.424V18.416ZM12.5 5C14.43 5 16 6.57 16 8.5V9.92H9V8.5C9 6.57 10.57 5 12.5 5ZM17 9.971V8.5C17 6.019 14.981 4 12.5 4C10.019 4 8 6.019 8 8.5V9.971C6.86 10.205 6 11.216 6 12.424V18.416C6 19.797 7.123 20.92 8.504 20.92H16.496C17.877 20.92 19 19.797 19 18.416V12.424C19 11.216 18.14 10.205 17 9.971Z" fill="#808080"/>
<path fill-rule="evenodd" clip-rule="evenodd" d="M12.5 17C13.3284 17 14 16.3284 14 15.5C14 14.6716 13.3284 14 12.5 14C11.6716 14 11 14.6716 11 15.5C11 16.3284 11.6716 17 12.5 17ZM12.5 18C13.8807 18 15 16.8807 15 15.5C15 14.1193 13.8807 13 12.5 13C11.1193 13 10 14.1193 10 15.5C10 16.8807 11.1193 18 12.5 18Z" fill="#396DE0"/>
</svg>
