<svg width="71" height="71" viewBox="0 0 71 71" fill="none" xmlns="http://www.w3.org/2000/svg">
<circle cx="35.5" cy="35.5" r="35.5" fill="#16161A"/>
<mask id="mask0" mask-type="alpha" maskUnits="userSpaceOnUse" x="0" y="0" width="71" height="71">
<circle cx="35.5" cy="35.5" r="35.5" fill="#C4C4C4"/>
</mask>
<g mask="url(#mask0)">
<path d="M62.2855 66.6029C62.2855 73.0329 9.70068 73.3008 9.70068 66.6029C9.70068 55.4844 13.8071 47.6191 35.9931 47.6191C56.4871 47.6191 62.2855 55.4844 62.2855 66.6029Z" fill="#3C3C47"/>
<path d="M42.3998 48.6723C42.4379 52.3657 28.4076 52.2317 28.4267 48.6723C28.4457 45.3807 29.3962 41.8213 29.3962 41.8213H41.4303C41.4113 41.8213 42.3618 45.3999 42.3998 48.6723Z" fill="#525261"/>
<path d="M47.875 37.5536C50.5556 36.9029 51.354 32.2144 48.8446 32.7311C48.4834 35.8504 47.875 37.5536 47.875 37.5536Z" fill="#525261"/>
<path d="M22.8186 37.5536C20.138 36.9029 19.3395 32.2144 21.849 32.7311C22.2102 35.8504 22.8186 37.5536 22.8186 37.5536Z" fill="#525261"/>
<path d="M49.1297 31.2577C49.1297 39.2187 42.3998 48.213 35.3467 48.213C28.4266 48.213 21.5636 39.2187 21.5636 31.2577C21.5636 23.2968 27.7232 16.8477 35.3467 16.8477C42.9701 16.8477 49.1297 23.3159 49.1297 31.2577Z" fill="#727283"/>
<path opacity="0.33" d="M21.6206 31.9649C21.6206 39.2178 28.3505 48.2121 35.4037 48.2121C38.7306 48.2121 42.0576 45.8774 44.586 43.0834C42.4188 44.8823 39.6622 47.217 37.1527 47.217C30.0996 47.217 22.8183 40.6722 22.8183 31.6205C22.8183 28.8265 24.2251 23.8126 25.2707 21.4971C23.0084 24.2528 21.6206 27.9271 21.6206 31.9649Z" fill="#3C3C47"/>
<path d="M23.0084 35.6787H23.0464C22.8182 23.7565 25.4228 23.546 27.6851 20.2161C31.0311 24.4454 38.6735 25.23 44.0917 22.9527C46.0689 25.8232 48.7114 26.8184 47.7608 36.0615C47.7608 36.0806 47.8179 36.1189 47.8939 36.1189C48.5403 36.2337 49.1296 35.7361 49.1487 35.0664C49.1677 34.5114 49.1677 33.9564 49.1677 33.3632C49.814 28.579 52.4376 19.1253 49.4528 18.0728C50.2893 16.1017 50.3274 13.6713 49.1106 10.82C43.8826 15.6424 27.2478 3.73931 26.1262 14.5899C23.7498 14.1498 20.9171 18.4556 21.5825 32.1576C21.5635 32.7891 21.5825 33.5737 21.6205 34.32C21.6205 35.0664 22.2479 35.6787 23.0084 35.6787Z" fill="#3C3C47"/>
</g>
</svg>
