<svg width="109" height="82" viewBox="0 0 109 82" fill="none" xmlns="http://www.w3.org/2000/svg">
<path d="M56.7712 44.8092L46.1805 78.2738C45.413 80.7336 42.8037 82.1173 40.3479 81.2973L3.25487 69.5104C0.79906 68.7417 -0.582335 66.1281 0.236269 63.6682L13.3339 22.2603C14.1014 19.8004 16.7107 18.4167 19.1665 19.2367L41.8316 26.4626" fill="#23232B"/>
<path d="M17.8874 37.6343L8.57568 67.8192" stroke="#3C3C47" stroke-width="2" stroke-miterlimit="10" stroke-linecap="round" stroke-linejoin="round"/>
<path d="M26.2271 61.4131L22.748 72.3288" stroke="#3C3C47" stroke-width="2" stroke-miterlimit="10" stroke-linecap="round" stroke-linejoin="round"/>
<path d="M36.2552 29.6909L28.6831 53.6235" stroke="#3C3C47" stroke-width="2" stroke-miterlimit="10" stroke-linecap="round" stroke-linejoin="round"/>
<path d="M41.4223 60.6958L36.4082 76.6338" stroke="#3C3C47" stroke-width="2" stroke-miterlimit="10" stroke-linecap="round" stroke-linejoin="round"/>
<path d="M44.6455 58.7998L40.5013 57.4673C39.5292 57.1599 38.9665 56.0837 39.2734 55.11C39.5804 54.1363 40.6548 53.5725 41.6269 53.88L45.7711 55.2125C46.7432 55.5199 47.306 56.5961 46.999 57.5698C46.6409 58.5948 45.6176 59.1073 44.6455 58.7998Z" fill="#3C3C47"/>
<path d="M29.2456 59.9267L25.1014 58.5943C24.1293 58.2868 23.5666 57.2106 23.8735 56.2369C24.1805 55.2632 25.2549 54.6995 26.227 55.007L30.3712 56.3394C31.3433 56.6469 31.9061 57.7231 31.5991 58.6968C31.241 59.6705 30.2177 60.2342 29.2456 59.9267Z" fill="#3C3C47"/>
<path d="M20.5479 30.1008L21.9806 25.8472" stroke="#3C3C47" stroke-width="2" stroke-miterlimit="10" stroke-linecap="round" stroke-linejoin="round"/>
<path d="M18.0923 31.9971L20.1388 35.9431" stroke="#3C3C47" stroke-width="2" stroke-miterlimit="10" stroke-linecap="round" stroke-linejoin="round"/>
<path d="M17.1201 34.9694L21.0597 32.9707" stroke="#3C3C47" stroke-width="2" stroke-miterlimit="10" stroke-linecap="round" stroke-linejoin="round"/>
<path d="M44.2363 52.24L46.8455 43.7842" stroke="#3C3C47" stroke-width="2" stroke-miterlimit="10" stroke-linecap="round" stroke-linejoin="round"/>
<path d="M96.6837 19.364L98.3721 19.0566C100.47 18.6978 102.465 20.0815 102.823 22.1827C103.181 24.2838 101.8 26.2825 99.7023 26.6412L93 27.8199" stroke="#3C3C47" stroke-width="3" stroke-miterlimit="10" stroke-linecap="round" stroke-linejoin="round"/>
<path d="M60.0885 56.423L67.2513 61.6502C68.3768 62.4702 69.1954 63.5464 69.7071 64.8276L73.442 74.2571L73.8001 75.2308C74.1582 76.2045 77.7908 75.6408 81.8838 74.0009C85.9768 72.361 88.9954 70.2598 88.6373 69.3374L88.2792 68.3636L84.5954 58.9341C84.0838 57.6529 83.9815 56.2692 84.2373 54.9368L86.028 45.3535C86.0792 44.9948 85.8234 44.6361 85.4652 44.6361L78.7629 44.2773C78.5582 44.2773 78.3536 44.3798 78.2513 44.5336L74.8234 49.0946C74.6699 49.2996 74.4652 49.3508 74.2094 49.3508L69.6559 48.5821C69.4513 48.5309 69.2466 48.6334 69.0931 48.7871L65.8187 52.5282C65.6652 52.6819 65.4606 52.7844 65.2559 52.7332L61.9815 52.3744C61.7257 52.3232 61.4699 52.4769 61.3675 52.7332L59.9861 55.7055C59.7815 55.9618 59.8327 56.2692 60.0885 56.423Z" fill="#3C3C47"/>
<path d="M99.1255 15.0664L88.0231 41.9201C87.8696 42.3301 87.4092 42.535 86.9999 42.3813L80.2976 40.2802C80.0417 40.2289 79.7859 40.2289 79.5813 40.3827L74.9766 43.355C74.772 43.4575 74.5673 43.5088 74.3627 43.4575L69.5534 42.4326C69.2976 42.3813 69.0417 42.4326 68.8371 42.6375L65.5115 45.6099C65.358 45.7636 65.1022 45.8149 64.8464 45.8149L61.7766 45.4562C61.4697 45.4049 61.1627 45.5587 61.0092 45.8149L60.0371 47.3523C59.7301 47.8135 59.1162 47.8648 58.758 47.4548L38.4976 24.9059" fill="#3C3C47"/>
<path d="M66.9443 44.3801L65.0513 42.3814L65.4606 40.3315" stroke="#23232B" stroke-miterlimit="10" stroke-linejoin="round"/>
<path d="M72.9301 43.2012L72.6743 41.6638L74.2604 39.8188" stroke="#23232B" stroke-miterlimit="10" stroke-linejoin="round"/>
<path d="M61.0605 45.8659L59.7815 45.251L58.707 45.6097" stroke="#23232B" stroke-miterlimit="10" stroke-linejoin="round"/>
<path d="M83.3164 41.2026L83.5722 39.8701L84.9024 39.3064L85.6699 37.6665" stroke="#23232B" stroke-miterlimit="10" stroke-linejoin="round"/>
<path d="M78.7119 44.2773L79.6328 45.9173L78.8142 47.4547" stroke="#23232B" stroke-miterlimit="10" stroke-linejoin="round"/>
<path d="M71.1908 48.8384L70.8838 50.0683L71.8047 51.5545" stroke="#23232B" stroke-miterlimit="10" stroke-linejoin="round"/>
<path d="M63.2092 52.4771L62.5952 54.0657L65.2045 55.2444L64.6929 56.9356" stroke="#23232B" stroke-miterlimit="10" stroke-linejoin="round"/>
<path d="M54.7676 52.9383L58.8094 51.4009L56.6094 54.4757L54.7676 52.9383Z" fill="#3C3C47"/>
<path d="M87.8701 45.8151L89.712 43.9189L89.5585 47.455L87.8701 45.8151Z" fill="#3C3C47"/>
<path d="M93.8561 41.459L94.2654 43.5601L90.1724 41.869L93.8561 41.459Z" fill="#3C3C47"/>
<path d="M55.0742 48.6851L58.144 50.0175" stroke="#3C3C47" stroke-miterlimit="10" stroke-linecap="round" stroke-linejoin="round"/>
<path d="M91.042 44.2261L91.8094 45.3023" stroke="#3C3C47" stroke-miterlimit="10" stroke-linecap="round" stroke-linejoin="round"/>
<path d="M91.1951 25.6748L88.9951 30.5433" stroke="#3C3C47" stroke-miterlimit="10" stroke-linecap="round" stroke-linejoin="round"/>
<path d="M101.991 39.5626C101.837 39.4089 101.786 39.1526 101.939 38.9989L106.953 31.8755C107.107 31.6705 107.363 31.6192 107.567 31.773L108.591 32.6442C108.795 32.7979 108.795 33.1054 108.642 33.2592L102.604 39.5114C102.4 39.6651 102.144 39.7163 101.991 39.5626Z" fill="#3C3C47"/>
<path d="M100.66 42.0735C101.141 42.0735 101.53 41.6834 101.53 41.2023C101.53 40.7211 101.141 40.3311 100.66 40.3311C100.18 40.3311 99.7905 40.7211 99.7905 41.2023C99.7905 41.6834 100.18 42.0735 100.66 42.0735Z" fill="#3C3C47"/>
<path d="M36.298 9.73672C36.0933 9.78796 35.8887 9.63422 35.8375 9.42923L33.484 1.07589C33.4329 0.819657 33.5864 0.614667 33.791 0.56342L35.0701 0.307182C35.3259 0.255935 35.5305 0.409677 35.5817 0.665915L36.605 9.32674C36.6561 9.48048 36.5026 9.68547 36.298 9.73672Z" fill="#3C3C47"/>
<path d="M36.7584 12.7092C37.2388 12.7092 37.6282 12.3192 37.6282 11.838C37.6282 11.3568 37.2388 10.9668 36.7584 10.9668C36.2781 10.9668 35.8887 11.3568 35.8887 11.838C35.8887 12.3192 36.2781 12.7092 36.7584 12.7092Z" fill="#3C3C47"/>
<path d="M70.0353 26.3869C86.9104 23.4813 100.028 17.8473 99.3337 13.8028C98.6396 9.75838 84.397 8.83508 67.5219 11.7406C50.6468 14.6461 37.5294 20.2801 38.2235 24.3246C38.9176 28.3691 53.1602 29.2924 70.0353 26.3869Z" fill="#23232B"/>
</svg>
