<svg width="44" height="56" viewBox="0 0 44 56" fill="none" xmlns="http://www.w3.org/2000/svg">
<path fill-rule="evenodd" clip-rule="evenodd" d="M36.0378 6.44922H39.6005C41.555 6.44922 43.1397 8.03334 43.1397 9.98848V27.5773V34.1887V52.4607C43.1397 54.4153 41.555 56 39.6005 56H4.20731C2.25217 56 0.66748 54.4153 0.66748 52.4607V9.98848C0.66748 8.03334 2.25217 6.44922 4.20731 6.44922H7.76886" fill="#23232B"/>
<path fill-rule="evenodd" clip-rule="evenodd" d="M7.76988 9.71826H6.95009C5.97252 9.71826 5.18018 10.5106 5.18018 11.4882V50.3383C5.18018 51.3153 5.97252 52.1076 6.95009 52.1076H29.8847C30.7216 52.1076 31.5225 51.7652 32.0999 51.1592L37.7824 45.2029C38.3255 44.6335 38.6285 43.8766 38.6285 43.09V29.6658V22.9092V11.4882C38.6285 10.5106 37.8361 9.71826 36.8586 9.71826H36.0388" fill="#3C3C47"/>
<circle cx="21.5" cy="36.5" r="1.5" fill="#23232B"/>
<path d="M20.0562 24.4989C20.0255 23.6803 20.6808 23 21.5 23C22.3192 23 22.9745 23.6803 22.9438 24.4989L22.6672 31.8758C22.6436 32.5034 22.128 33 21.5 33C20.872 33 20.3564 32.5034 20.3328 31.8758L20.0562 24.4989Z" fill="#23232B"/>
<path fill-rule="evenodd" clip-rule="evenodd" d="M27.864 3.61358C26.7384 3.61358 25.6459 3.03504 25.1497 2.02431C24.562 0.825503 23.3295 0 21.9037 0C20.4785 0 19.2454 0.825503 18.6577 2.02431C18.1621 3.03504 17.069 3.61358 15.9434 3.61358H10.7377C9.09811 3.61358 7.76953 4.94216 7.76953 6.58116V9.23546C7.76953 10.1221 8.48813 10.8413 9.37537 10.8413H34.4326C35.3193 10.8413 36.0379 10.1221 36.0379 9.23546V6.58116C36.0379 4.94216 34.7093 3.61358 33.0703 3.61358H27.864Z" fill="#23232B"/>
<path fill-rule="evenodd" clip-rule="evenodd" d="M23.832 5.46147C23.832 6.52651 22.9688 7.38974 21.9038 7.38974C20.8393 7.38974 19.9761 6.52651 19.9761 5.46147C19.9761 4.39701 20.8393 3.5332 21.9038 3.5332C22.9688 3.5332 23.832 4.39701 23.832 5.46147Z" fill="#3C3C47"/>
<path fill-rule="evenodd" clip-rule="evenodd" d="M29.9253 51.8115L29.9287 45.0359C29.9293 43.8811 30.8663 42.9447 32.0216 42.9453H38.1472" fill="#23232B"/>
</svg>
