<svg width="24" height="24" viewBox="0 0 24 24" fill="none" xmlns="http://www.w3.org/2000/svg">
<path d="M17.0001 16.2998H7.00011C6.40011 16.2998 5.90011 15.6998 6.00011 14.9998L6.70011 10.2998C6.70011 6.9998 9.10011 4.2998 12.0001 4.2998C14.9001 4.2998 17.3001 6.9998 17.3001 10.2998L18.0001 14.9998C18.1001 15.6998 17.6001 16.2998 17.0001 16.2998Z" fill="#BFBFBF"/>
<path d="M11.9001 19.6996C12.8001 19.6996 13.6001 19.0996 13.9001 18.3996C14.1001 17.9996 13.8001 17.5996 13.3001 17.5996H10.4001C10.0001 17.5996 9.70014 17.9996 9.80014 18.3996C10.2001 19.0996 11.0001 19.6996 11.9001 19.6996Z" fill="#BFBFBF"/>
</svg>
