<svg width="85" height="80" viewBox="0 0 85 80" fill="none" xmlns="http://www.w3.org/2000/svg">
<path fill-rule="evenodd" clip-rule="evenodd" d="M78 37.4986C78 58.2099 61.2105 75 40.5 75C32.6621 75 25.3857 72.5952 19.3685 68.4832C17.3012 67.0705 0 71.778 0 71.778C0 71.778 10.6844 60.3545 9.43567 58.512C5.37318 52.5177 3 45.2853 3 37.4986C3 16.7901 19.7895 0 40.5 0C61.2105 0 78 16.7901 78 37.4986Z" fill="#3C3C47"/>
<path fill-rule="evenodd" clip-rule="evenodd" d="M48.6985 57H31.3015C27.8215 57 25 54.2135 25 50.7767V36.2233C25 32.7865 27.8215 30 31.3015 30H48.6985C52.1785 30 55 32.7865 55 36.2233V50.7767C55 54.2135 52.1785 57 48.6985 57Z" fill="#525261"/>
<path fill-rule="evenodd" clip-rule="evenodd" d="M49 31H31V26.8984C31 21.9851 35.0285 18 40 18C44.9701 18 49 21.9851 49 26.8984V31Z" stroke="#525261" stroke-width="4" stroke-linecap="round" stroke-linejoin="round"/>
<path fill-rule="evenodd" clip-rule="evenodd" d="M40.5 47C38.5744 47 37 45.4237 37 43.5012C37 41.5763 38.5744 40 40.5 40C42.4256 40 44 41.5763 44 43.5012C44 45.4237 42.4256 47 40.5 47Z" stroke="#3C3C47" stroke-width="2" stroke-linecap="round" stroke-linejoin="round"/>
<path fill-rule="evenodd" clip-rule="evenodd" d="M82.2757 48.8253C80.1599 48.8253 78.2269 47.7941 76.8035 46.185C75.6161 44.8428 73.9042 44 72 44C70.0951 44 68.3839 44.8428 67.1958 46.185C65.7731 47.7941 63.8394 48.8253 61.7243 48.8253H61.1665C59.9701 48.8253 59 49.8229 59 51.0524V58.3822C59 67.5366 64.0324 75.9055 72 80C79.967 75.9055 85 67.5366 85 58.3822V51.0524C85 49.8229 84.0299 48.8253 82.8329 48.8253H82.2757Z" fill="#525261"/>
<path d="M67 62.2535L69.7788 65.6748C70.1448 66.1247 70.7412 66.105 71.0863 65.6328L78 56" stroke="#06BA61" stroke-width="2" stroke-linecap="round" stroke-linejoin="round"/>
</svg>
