<svg width="24" height="24" viewBox="0 0 24 24" fill="none" xmlns="http://www.w3.org/2000/svg">
<path fill-rule="evenodd" clip-rule="evenodd" d="M8.98849 4.5C8.16749 4.5 7.50049 5.167 7.50049 5.988V18.012C7.50049 18.833 8.16749 19.5 8.98849 19.5H15.0125C15.8325 19.5 16.5005 18.833 16.5005 18.012V5.988C16.5005 5.167 15.8325 4.5 15.0125 4.5H8.98849ZM15.0125 20.5H8.98849C7.61649 20.5 6.50049 19.384 6.50049 18.012V5.988C6.50049 4.616 7.61649 3.5 8.98849 3.5H15.0125C16.3845 3.5 17.5005 4.616 17.5005 5.988V18.012C17.5005 19.384 16.3845 20.5 15.0125 20.5Z" fill="#808080"/>
<path fill-rule="evenodd" clip-rule="evenodd" d="M13.3527 17.5H10.3527C10.0767 17.5 9.85266 17.276 9.85266 17C9.85266 16.724 10.0767 16.5 10.3527 16.5H13.3527C13.6287 16.5 13.8527 16.724 13.8527 17C13.8527 17.276 13.6287 17.5 13.3527 17.5Z" fill="#396DE0"/>
</svg>
