<svg width="24" height="24" viewBox="0 0 24 24" fill="none" xmlns="http://www.w3.org/2000/svg">
<path fill-rule="evenodd" clip-rule="evenodd" d="M4 8.5C3.724 8.5 3.5 8.276 3.5 8V5C3.5 4.173 4.173 3.5 5 3.5H8C8.276 3.5 8.5 3.724 8.5 4C8.5 4.276 8.276 4.5 8 4.5H5C4.724 4.5 4.5 4.724 4.5 5V8C4.5 8.276 4.276 8.5 4 8.5Z" fill="#979797"/>
<path fill-rule="evenodd" clip-rule="evenodd" d="M8 20.5H5C4.173 20.5 3.5 19.827 3.5 19V16C3.5 15.724 3.724 15.5 4 15.5C4.276 15.5 4.5 15.724 4.5 16V19C4.5 19.276 4.724 19.5 5 19.5H8C8.276 19.5 8.5 19.724 8.5 20C8.5 20.276 8.276 20.5 8 20.5Z" fill="#979797"/>
<path fill-rule="evenodd" clip-rule="evenodd" d="M19 20.5H16C15.724 20.5 15.5 20.276 15.5 20C15.5 19.724 15.724 19.5 16 19.5H19C19.276 19.5 19.5 19.276 19.5 19V16C19.5 15.724 19.724 15.5 20 15.5C20.276 15.5 20.5 15.724 20.5 16V19C20.5 19.827 19.827 20.5 19 20.5Z" fill="#979797"/>
<path fill-rule="evenodd" clip-rule="evenodd" d="M20 8.5C19.724 8.5 19.5 8.276 19.5 8V5C19.5 4.724 19.276 4.5 19 4.5H16C15.724 4.5 15.5 4.276 15.5 4C15.5 3.724 15.724 3.5 16 3.5H19C19.827 3.5 20.5 4.173 20.5 5V8C20.5 8.276 20.276 8.5 20 8.5Z" fill="#979797"/>
<path fill-rule="evenodd" clip-rule="evenodd" d="M16 10.535C15.724 10.535 15.5 10.311 15.5 10.035V9C15.5 8.724 15.276 8.5 15 8.5H9C8.724 8.5 8.5 8.724 8.5 9V10.035C8.5 10.311 8.276 10.535 8 10.535C7.724 10.535 7.5 10.311 7.5 10.035V9C7.5 8.173 8.173 7.5 9 7.5H15C15.827 7.5 16.5 8.173 16.5 9V10.035C16.5 10.311 16.276 10.535 16 10.535Z" fill="#979797"/>
<path fill-rule="evenodd" clip-rule="evenodd" d="M15 16.4998H9C8.173 16.4998 7.5 15.8268 7.5 14.9998V13.9648C7.5 13.6888 7.724 13.4648 8 13.4648C8.276 13.4648 8.5 13.6888 8.5 13.9648V14.9998C8.5 15.2758 8.724 15.4998 9 15.4998H15C15.276 15.4998 15.5 15.2758 15.5 14.9998V13.9648C15.5 13.6888 15.724 13.4648 16 13.4648C16.276 13.4648 16.5 13.6888 16.5 13.9648V14.9998C16.5 15.8268 15.827 16.4998 15 16.4998Z" fill="#979797"/>
<path fill-rule="evenodd" clip-rule="evenodd" d="M20 12.5H4C3.724 12.5 3.5 12.276 3.5 12C3.5 11.724 3.724 11.5 4 11.5H20C20.276 11.5 20.5 11.724 20.5 12C20.5 12.276 20.276 12.5 20 12.5Z" fill="#979797"/>
</svg>
