<svg xmlns="http://www.w3.org/2000/svg" width="24" height="24" viewBox="0 0 24 24">
    <g fill="none" fill-rule="evenodd">
        <g>
            <g filter="url(#exhqhx29aa)" transform="translate(-24 -227) translate(12 215)">
                <g>
                    <g fill="#000">
                        <path d="M2.052 3.645c-.271 0-.49.22-.49.49v3.258c0 3.82 2.077 7.263 5.438 9.045 3.361-1.782 5.438-5.226 5.438-9.045V4.135c0-.27-.22-.49-.49-.49h-.254c-1.067 0-2.086-.475-2.87-1.337-.935-1.028-2.718-1.026-3.648 0-.784.862-1.804 1.337-2.869 1.337h-.255zM7 17.5c-.076 0-.153-.017-.223-.052C2.944 15.53.562 11.678.562 7.393V4.135c0-.822.669-1.49 1.49-1.49h.255c.78 0 1.537-.358 2.129-1.01C5.091.914 6.026.5 7 .5s1.908.414 2.565 1.135c.591.652 1.347 1.01 2.129 1.01h.254c.822 0 1.49.668 1.49 1.49v3.258c0 4.285-2.381 8.138-6.214 10.055-.07.035-.148.052-.224.052z" transform="translate(12 12) translate(5 3)"/>
                        <path d="M9.475 5.144L7 7.62 4.525 5.144c-.195-.195-.511-.195-.707 0-.195.196-.195.512 0 .707l2.475 2.475-2.475 2.475c-.195.196-.195.511 0 .707.196.196.512.196.707 0L7 9.033l2.475 2.475c.195.196.512.196.707 0 .195-.196.195-.51 0-.707L7.707 8.326l2.475-2.475c.195-.195.195-.51 0-.707-.195-.195-.512-.195-.707 0" transform="translate(12 12) translate(5 3)"/>
                    </g>
                    <path d="M0 0H24V24H0z" transform="translate(12 12)"/>
                </g>
            </g>
        </g>
    </g>
</svg>
