<svg xmlns="http://www.w3.org/2000/svg" width="67" height="47" viewBox="0 0 67 47">
    <g fill="none" fill-rule="evenodd" stroke-linecap="round" stroke-linejoin="round">
        <g stroke="#34343D" stroke-width="2">
            <g transform="translate(-147 -258) translate(148 259)">
                <path fill="#16161A" d="M46.894 38H3.313C1.483 38 0 36.52 0 34.696V3.304C0 2.428.349 1.588.97.968 1.591.348 2.434 0 3.313 0h46.374C51.517 0 53 1.48 53 3.304v11.96L46.894 38z"/>
                <path d="M32 9.5L44 9.5M32 18L40 18"/>
                <circle cx="17" cy="14" r="6"/>
                <path d="M30 30h0c0-1.592-.586-3.118-1.63-4.244C27.328 24.631 25.913 24 24.438 24H11.56C8.49 24 6 26.686 6 29.999h0"/>
                <g fill="#23232B" fill-rule="nonzero">
                    <path d="M18.648 3.737c-1.687-.034-3.28-.777-4.383-2.044C13.279.615 11.882 0 10.415 0 8.95 0 7.553.615 6.568 1.693 5.462 2.96 3.869 3.703 2.182 3.737h-.446c-.46 0-.902.182-1.228.505C.183 4.566 0 5.005 0 5.462v5.677c-.001 7.09 4.03 13.573 10.415 16.745 6.384-3.171 10.417-9.654 10.416-16.745V5.462c0-.457-.183-.896-.508-1.22-.326-.323-.767-.505-1.228-.505h-.447z" transform="translate(44 17)"/>
                </g>
            </g>
        </g>
    </g>
</svg>
