<svg width="16" height="16" viewBox="0 0 16 16" fill="none" xmlns="http://www.w3.org/2000/svg">
    <path fill-rule="evenodd" clip-rule="evenodd"
        d="M7.5 9C6.121 9 5 7.879 5 6.5C5 5.121 6.121 4 7.5 4C8.879 4 10 5.121 10 6.5C10 7.879 8.879 9 7.5 9ZM12.835 11.162L10.29 8.59C10.73 8.005 11 7.287 11 6.5C11 4.57 9.43 3 7.5 3C5.57 3 4 4.57 4 6.5C4 8.43 5.57 10 7.5 10C8.283 10 8.999 9.732 9.583 9.297L12.124 11.865C12.222 11.964 12.351 12.014 12.479 12.014C12.606 12.014 12.733 11.966 12.831 11.869C13.027 11.675 13.029 11.358 12.835 11.162Z"
        fill="#979797" />
</svg>