<svg width="24" height="24" viewBox="0 0 24 24" fill="none" xmlns="http://www.w3.org/2000/svg">
<path d="M12.8999 9.7C12.5999 9.6 12.2999 9.5 11.9999 9.5C11.6999 9.5 11.2999 9.6 10.9999 9.7C10.3999 10 9.89988 10.4 9.69988 11.1C9.19988 12.4 9.79988 13.8 11.0999 14.4C11.6999 14.7 12.3999 14.6 12.9999 14.4C13.5999 14.1 14.0999 13.7 14.2999 13C14.5999 12.4 14.4999 11.7 14.2999 11.1C13.9999 10.4 13.5999 9.9 12.8999 9.7Z" fill="#BFBFBF"/>
<path d="M19.9998 14.1998L18.9998 12.8998V11.0998L19.9998 9.79982C20.0998 9.69982 20.0998 9.49982 20.0998 9.29982L19.5998 8.19982C19.4998 7.99982 19.3998 7.89982 19.1998 7.89982L17.5998 7.69982L16.2998 6.39982L16.0998 4.79982C16.0998 4.59982 15.9998 4.49982 15.7998 4.39982L14.6998 3.89982C14.4998 3.79982 14.3998 3.89982 14.1998 3.99982L12.8998 4.99982H11.0998L9.79982 3.99982C9.59982 3.89982 9.39982 3.89982 9.29982 3.89982L8.09982 4.39982C7.99982 4.49982 7.89982 4.59982 7.79982 4.79982L7.59982 6.39982L6.39982 7.69982L4.69982 7.89982C4.49982 7.89982 4.39982 7.99982 4.29982 8.19982L3.89982 9.39982C3.79982 9.49982 3.89982 9.69982 3.99982 9.79982L4.99982 11.0998V12.8998L3.99982 14.1998C3.89982 14.2998 3.89982 14.4998 3.89982 14.6998L4.39982 15.7998C4.49982 15.9998 4.59982 16.0998 4.79982 16.0998L6.39982 16.2998L7.69982 17.5998L7.89982 19.1998C7.89982 19.3998 7.99982 19.4998 8.19982 19.5998L9.29982 20.0998C9.39982 20.0998 9.39982 20.0998 9.49982 20.0998C9.59982 20.0998 9.69982 20.0998 9.79982 19.9998L11.0998 18.9998H12.8998L14.1998 19.9998C14.2998 20.0998 14.4998 20.0998 14.6998 20.0998L15.7998 19.5998C15.9998 19.4998 16.0998 19.3998 16.0998 19.1998L16.2998 17.5998L17.5998 16.2998L19.1998 16.0998C19.3998 16.0998 19.4998 15.9998 19.5998 15.7998L20.0998 14.6998C20.1998 14.4998 20.0998 14.2998 19.9998 14.1998ZM15.1998 13.2998C14.7998 14.1998 14.1998 14.7998 13.2998 15.1998C12.8998 15.3998 12.3998 15.4998 11.8998 15.4998C11.4998 15.4998 10.9998 15.3998 10.5998 15.1998C8.79982 14.4998 7.99982 12.3998 8.69982 10.5998C9.09982 9.69982 9.69982 9.09982 10.5998 8.69982C11.4998 8.29982 12.3998 8.29982 13.2998 8.69982C14.1998 9.09982 14.7998 9.69982 15.1998 10.5998C15.5998 11.4998 15.5998 12.4998 15.1998 13.2998Z" fill="#BFBFBF"/>
</svg>
