<svg xmlns="http://www.w3.org/2000/svg" width="74" height="99" viewBox="0 0 74 99">
    <g fill="none" fill-rule="evenodd">
        <g>
            <g>
                <path fill="#23232B" stroke="#34343D" stroke-linecap="round" stroke-linejoin="round" stroke-width="2" d="M64.524 13.245c-5.845-.048-11.162-2.875-15.057-7.243C46.217 2.357 41.51.046 36.245 0c-5.263-.044-10.01 2.188-13.32 5.776-3.968 4.3-9.333 7.036-15.178 6.986l-1.54-.012c-3.306-.03-6.01 2.633-6.038 5.947l-.167 19.75C-.208 63.113 13.505 85.781 35.422 97c22.105-10.844 36.2-33.274 36.409-57.941L72 19.31c.026-3.313-2.63-6.024-5.934-6.051l-1.542-.014z" transform="translate(-143 -226) translate(144 227)"/>
                <g stroke-linecap="round" stroke-linejoin="round" stroke-width="2">
                    <g transform="translate(-143 -226) translate(144 227) translate(47 68)">
                        <circle cx="11.5" cy="11.5" r="11.5" fill="#23232B" stroke="#34343D"/>
                        <path stroke="#06BA61" d="M6 12.629l2.779 3.079c.175.194.414.3.662.292.247-.008.48-.128.646-.332L17 7"/>
                    </g>
                </g>
                <g>
                    <path fill="#396DE0" d="M38.743 10.972l2.467.021c.98.007 1.782-.76 1.79-1.714.008-.954-.78-1.735-1.761-1.742l-22.904-.19C17.545 3.197 13.827.037 9.327 0 4.218-.043.044 3.953 0 8.923-.042 13.895 4.062 17.957 9.17 18c4.497.036 8.27-3.061 9.136-7.197l14.259.118" transform="translate(-143 -226) translate(144 227) translate(15 36)"/>
                    <path fill="#23232B" d="M13.975 9.04c-.024 2.632-2.208 4.748-4.879 4.725-2.67-.022-4.817-2.173-4.796-4.806.024-2.631 2.207-4.746 4.879-4.724 2.67.023 4.819 2.174 4.796 4.806z" transform="translate(-143 -226) translate(144 227) translate(15 36)"/>
                    <path fill="#396DE0" d="M38.7 11.69L38.679 14c-.004.458-.407.828-.9.823-.492-.003-.89-.379-.885-.837.004-.336-.287-.611-.65-.615l-.473-.003c-.363-.003-.658.267-.66.605-.005.458-.408.827-.902.823-.492-.005-.888-.38-.884-.838l.023-2.31" transform="translate(-143 -226) translate(144 227) translate(15 36)"/>
                </g>
            </g>
        </g>
    </g>
</svg>
