<svg width="78" height="105" viewBox="0 0 78 105" fill="none" xmlns="http://www.w3.org/2000/svg">
<path fill-rule="evenodd" clip-rule="evenodd" d="M69.9009 14.3374C63.5693 14.2851 57.8086 11.2256 53.5894 6.49718C50.0681 2.55183 44.968 0.049312 39.2652 0.000719348C33.5643 -0.0478733 28.4214 2.36867 24.8347 6.25235C20.5371 10.9079 14.7242 13.8683 8.39255 13.8141L6.72426 13.801C3.14322 13.7692 0.213449 16.6512 0.183591 20.2395L0.00257984 41.6184C-0.225084 68.3182 14.6309 92.8556 38.3732 105C62.3209 93.2611 77.5911 68.9817 77.8169 42.28L77.9998 20.903C78.0278 17.3165 75.1503 14.3823 71.5711 14.3524L69.9009 14.3374Z" fill="#3C3C47"/>
<path fill-rule="evenodd" clip-rule="evenodd" d="M58.3473 51.1907L61.0436 51.2145C62.1142 51.2219 62.9909 50.3695 62.9999 49.3102C63.009 48.2495 62.1473 47.3821 61.0751 47.3747L36.0408 47.1634C35.1761 42.5515 31.113 39.042 26.1943 39.0004C20.6108 38.9528 16.0485 43.3921 16.0004 48.9145C15.9537 54.4383 20.4394 58.952 26.0228 58.9997C30.9386 59.0398 35.0633 55.5987 36.0092 51.0032L51.594 51.1341" fill="#396DE0"/>
<path fill-rule="evenodd" clip-rule="evenodd" d="M31.2748 49.0455C31.2482 51.9694 28.8615 54.3207 25.9421 54.2941C23.0228 54.2706 20.6767 51.8802 20.7001 48.9548C20.7267 46.0309 23.1118 43.6812 26.0327 43.7063C28.9521 43.7313 31.2997 46.1217 31.2748 49.0455Z" fill="#3C3C47"/>
<path fill-rule="evenodd" clip-rule="evenodd" d="M58.3 51.9883L58.2766 54.5561C58.2727 55.0652 57.8324 55.4757 57.2944 55.4708C56.7551 55.4671 56.3213 55.0492 56.3265 54.54C56.3304 54.1665 56.0126 53.8608 55.6166 53.8571L55.0981 53.8534C54.7021 53.8497 54.3791 54.1505 54.3765 54.5253C54.3712 55.0344 53.9309 55.4449 53.3916 55.44C52.8536 55.435 52.4212 55.0184 52.4251 54.5092L52.4498 51.9414" fill="#396DE0"/>
</svg>
