<svg width="100" height="80" viewBox="0 0 100 80" fill="none" xmlns="http://www.w3.org/2000/svg">
<path fill-rule="evenodd" clip-rule="evenodd" d="M83 24H10.5389C4.71834 24 0 28.6805 0 34.4544V80L9.94073 72.9096C12.1324 71.3463 14.7659 70.5061 17.4649 70.5061H72.4611C78.2817 70.5061 83 65.8255 83 60.0517V44.0021V24Z" fill="#525261"/>
<path fill-rule="evenodd" clip-rule="evenodd" d="M17 6H89.4611C95.2817 6 100 10.6805 100 16.4544V62L90.0593 54.9096C87.8676 53.3463 85.2341 52.5061 82.5351 52.5061H27.5389C21.7183 52.5061 17 47.8255 17 42.0517V26.0021V6Z" fill="#3C3C47"/>
<path fill-rule="evenodd" clip-rule="evenodd" d="M45.1742 28.1741H42.9942L44.5351 26.6313C44.8588 26.3092 44.8588 25.7872 44.5351 25.4635C44.213 25.1414 43.6912 25.1414 43.3675 25.4635L41.8266 27.0063V24.8259C41.8266 24.3684 41.4566 24 41.0008 24C40.5434 24 40.1751 24.3684 40.1751 24.8259V27.0063L38.6325 25.4635C38.3105 25.1414 37.787 25.1414 37.4649 25.4635C37.1429 25.7872 37.1429 26.3092 37.4649 26.6313L39.0074 28.1741H36.8258C36.3699 28.1741 36 28.5441 36 29C36 29.4559 36.3699 29.8259 36.8258 29.8259H39.0074L37.4649 31.3687C37.1429 31.6908 37.1429 32.2128 37.4649 32.5365C37.6268 32.6967 37.8382 32.7777 38.0495 32.7777C38.2593 32.7777 38.4707 32.6967 38.6325 32.5365L40.1751 30.9937V33.1741C40.1751 33.6316 40.5434 34 41.0008 34C41.4566 34 41.8266 33.6316 41.8266 33.1741V30.9937L43.3675 32.5365C43.5293 32.6967 43.7407 32.7777 43.9521 32.7777C44.1635 32.7777 44.3749 32.6967 44.5351 32.5365C44.8588 32.2128 44.8588 31.6908 44.5351 31.3687L42.9942 29.8259H45.1742C45.6301 29.8259 46 29.4559 46 29C46 28.5441 45.6301 28.1741 45.1742 28.1741Z" fill="#396DE0"/>
<path fill-rule="evenodd" clip-rule="evenodd" d="M57.1742 28.1741H54.9942L56.5351 26.6313C56.8588 26.3092 56.8588 25.7872 56.5351 25.4635C56.213 25.1414 55.6912 25.1414 55.3675 25.4635L53.8266 27.0063V24.8259C53.8266 24.3684 53.4566 24 53.0008 24C52.5434 24 52.1751 24.3684 52.1751 24.8259V27.0063L50.6325 25.4635C50.3105 25.1414 49.787 25.1414 49.4649 25.4635C49.1429 25.7872 49.1429 26.3092 49.4649 26.6313L51.0074 28.1741H48.8258C48.3699 28.1741 48 28.5441 48 29C48 29.4559 48.3699 29.8259 48.8258 29.8259H51.0074L49.4649 31.3687C49.1429 31.6908 49.1429 32.2128 49.4649 32.5365C49.6268 32.6967 49.8382 32.7777 50.0495 32.7777C50.2593 32.7777 50.4707 32.6967 50.6325 32.5365L52.1751 30.9937V33.1741C52.1751 33.6316 52.5434 34 53.0008 34C53.4566 34 53.8266 33.6316 53.8266 33.1741V30.9937L55.3675 32.5365C55.5293 32.6967 55.7407 32.7777 55.9521 32.7777C56.1635 32.7777 56.3749 32.6967 56.5351 32.5365C56.8588 32.2128 56.8588 31.6908 56.5351 31.3687L54.9942 29.8259H57.1742C57.6301 29.8259 58 29.4559 58 29C58 28.5441 57.6301 28.1741 57.1742 28.1741Z" fill="#396DE0"/>
<path fill-rule="evenodd" clip-rule="evenodd" d="M68.1742 28.1741H65.9942L67.5351 26.6313C67.8588 26.3092 67.8588 25.7872 67.5351 25.4635C67.213 25.1414 66.6912 25.1414 66.3675 25.4635L64.8266 27.0063V24.8259C64.8266 24.3684 64.4566 24 64.0008 24C63.5434 24 63.1751 24.3684 63.1751 24.8259V27.0063L61.6325 25.4635C61.3105 25.1414 60.787 25.1414 60.4649 25.4635C60.1429 25.7872 60.1429 26.3092 60.4649 26.6313L62.0074 28.1741H59.8258C59.3699 28.1741 59 28.5441 59 29C59 29.4559 59.3699 29.8259 59.8258 29.8259H62.0074L60.4649 31.3687C60.1429 31.6908 60.1429 32.2128 60.4649 32.5365C60.6268 32.6967 60.8382 32.7777 61.0495 32.7777C61.2593 32.7777 61.4707 32.6967 61.6325 32.5365L63.1751 30.9937V33.1741C63.1751 33.6316 63.5434 34 64.0008 34C64.4566 34 64.8266 33.6316 64.8266 33.1741V30.9937L66.3675 32.5365C66.5293 32.6967 66.7407 32.7777 66.9521 32.7777C67.1635 32.7777 67.3749 32.6967 67.5351 32.5365C67.8588 32.2128 67.8588 31.6908 67.5351 31.3687L65.9942 29.8259H68.1742C68.6301 29.8259 69 29.4559 69 29C69 28.5441 68.6301 28.1741 68.1742 28.1741Z" fill="#396DE0"/>
<path fill-rule="evenodd" clip-rule="evenodd" d="M80.1742 28.1741H77.9942L79.5351 26.6313C79.8588 26.3092 79.8588 25.7872 79.5351 25.4635C79.213 25.1414 78.6912 25.1414 78.3675 25.4635L76.8266 27.0063V24.8259C76.8266 24.3684 76.4566 24 76.0008 24C75.5434 24 75.1751 24.3684 75.1751 24.8259V27.0063L73.6325 25.4635C73.3105 25.1414 72.787 25.1414 72.4649 25.4635C72.1429 25.7872 72.1429 26.3092 72.4649 26.6313L74.0074 28.1741H71.8258C71.3699 28.1741 71 28.5441 71 29C71 29.4559 71.3699 29.8259 71.8258 29.8259H74.0074L72.4649 31.3687C72.1429 31.6908 72.1429 32.2128 72.4649 32.5365C72.6268 32.6967 72.8382 32.7777 73.0495 32.7777C73.2593 32.7777 73.4707 32.6967 73.6325 32.5365L75.1751 30.9937V33.1741C75.1751 33.6316 75.5434 34 76.0008 34C76.4566 34 76.8266 33.6316 76.8266 33.1741V30.9937L78.3675 32.5365C78.5293 32.6967 78.7407 32.7777 78.9521 32.7777C79.1635 32.7777 79.3749 32.6967 79.5351 32.5365C79.8588 32.2128 79.8588 31.6908 79.5351 31.3687L77.9942 29.8259H80.1742C80.6301 29.8259 81 29.4559 81 29C81 28.5441 80.6301 28.1741 80.1742 28.1741Z" fill="#396DE0"/>
<path fill-rule="evenodd" clip-rule="evenodd" d="M33 11C33 17.0752 28.0756 22 22.0008 22C15.9244 22 11 17.0752 11 11C11 4.9248 15.9244 0 22.0008 0C28.0756 0 33 4.9248 33 11Z" fill="#F49806"/>
<path fill-rule="evenodd" clip-rule="evenodd" d="M22.1235 17C21.6397 17 21.247 16.6278 21.247 16.1692V7.66203L20.453 8.32167C20.0901 8.62242 19.5344 8.59085 19.2171 8.24358C18.8981 7.89798 18.9349 7.37458 19.2995 7.07218L21.5468 5.20625C21.8045 4.99025 22.1761 4.9404 22.4846 5.07332C22.7984 5.20791 23 5.50533 23 5.831V16.1692C23 16.6278 22.6073 17 22.1235 17Z" fill="black"/>
</svg>
