<svg width="24" height="24" viewBox="0 0 24 24" fill="none" xmlns="http://www.w3.org/2000/svg">
<path d="M19.4802 15.9398L14.8302 13.2498C14.6282 13.1207 14.3716 13.1132 14.1625 13.2303C13.9533 13.3474 13.8256 13.5702 13.8302 13.8098V19.1798C13.8256 19.4195 13.9533 19.6422 14.1625 19.7593C14.3716 19.8764 14.6282 19.8689 14.8302 19.7398L19.4802 17.0598C19.6785 16.943 19.8002 16.73 19.8002 16.4998C19.8002 16.2697 19.6785 16.0567 19.4802 15.9398Z" fill="#396DE0"/>
<path d="M15.34 17.5H9.50001C8.0405 17.5027 6.64001 16.9241 5.60798 15.892C4.57596 14.86 3.99735 13.4595 4.00001 12C4.00001 11.4477 4.44772 11 5.00001 11C5.55229 11 6.00001 11.4477 6.00001 12C5.99465 12.9299 6.36168 13.8232 7.01922 14.4808C7.67676 15.1383 8.57012 15.5054 9.50001 15.5H15.34C15.8923 15.5 16.34 15.9477 16.34 16.5C16.34 17.0523 15.8923 17.5 15.34 17.5Z" fill="#396DE0"/>
<path d="M4.5202 8.06007L9.1702 10.7501C9.37215 10.8792 9.62877 10.8867 9.8379 10.7695C10.047 10.6524 10.1748 10.4297 10.1702 10.1901V4.82007C10.1748 4.58041 10.047 4.3577 9.8379 4.24059C9.62877 4.12347 9.37215 4.13096 9.1702 4.26007L4.5202 6.94007C4.32191 7.05692 4.2002 7.26991 4.2002 7.50007C4.2002 7.73022 4.32191 7.94322 4.5202 8.06007Z" fill="#396DE0"/>
<path d="M19.0002 13C18.4479 13 18.0002 12.5523 18.0002 12C18.0055 11.0701 17.6385 10.1768 16.9809 9.51922C16.3234 8.86168 15.43 8.49465 14.5002 8.50001H8.66016C8.10787 8.50001 7.66016 8.05229 7.66016 7.50001C7.66016 6.94772 8.10787 6.50001 8.66016 6.50001H14.5002C15.9597 6.49735 17.3602 7.07596 18.3922 8.10798C19.4242 9.14001 20.0028 10.5405 20.0002 12C20.0002 12.5523 19.5524 13 19.0002 13Z" fill="#396DE0"/>
</svg>
