<svg width="24" height="24" viewBox="0 0 24 24" fill="none" xmlns="http://www.w3.org/2000/svg">
    <path fill-rule="evenodd" clip-rule="evenodd"
        d="M19.5294 8H4.47059C4.21082 8 4 7.776 4 7.5C4 7.224 4.21082 7 4.47059 7H19.5294C19.7892 7 20 7.224 20 7.5C20 7.776 19.7892 8 19.5294 8Z"
        fill="#808080" />
    <path fill-rule="evenodd" clip-rule="evenodd"
        d="M19.5294 13H4.47059C4.21082 13 4 12.776 4 12.5C4 12.224 4.21082 12 4.47059 12H19.5294C19.7892 12 20 12.224 20 12.5C20 12.776 19.7892 13 19.5294 13Z"
        fill="#808080" />
    <path fill-rule="evenodd" clip-rule="evenodd"
        d="M19.5294 18H4.47059C4.21082 18 4 17.776 4 17.5C4 17.224 4.21082 17 4.47059 17H19.5294C19.7892 17 20 17.224 20 17.5C20 17.776 19.7892 18 19.5294 18Z"
        fill="#808080" />
</svg>