<svg width="24" height="24" viewBox="0 0 24 24" fill="none" xmlns="http://www.w3.org/2000/svg">
    <path fill-rule="evenodd" clip-rule="evenodd"
        d="M6.42308 8.99951L16.5769 8.99951C16.8105 8.99951 17 8.77551 17 8.49951C17 8.22351 16.8105 7.99951 16.5769 7.99951L6.42308 7.99951C6.18954 7.99951 6 8.22351 6 8.49951C6 8.77551 6.18954 8.99951 6.42308 8.99951Z"
        fill="#808080" />
    <path fill-rule="evenodd" clip-rule="evenodd"
        d="M6.99999 15.4998C6.99999 15.6278 7.04899 15.7558 7.14599 15.8538C7.34199 16.0487 7.65799 16.0487 7.85399 15.8538L11.5 12.2067L15.146 15.8538C15.342 16.0487 15.658 16.0487 15.854 15.8538C16.049 15.6578 16.049 15.3417 15.854 15.1457L11.854 11.1458C11.658 10.9507 11.342 10.9507 11.146 11.1458L7.14599 15.1457C7.04899 15.2437 6.99999 15.3717 6.99999 15.4998Z"
        fill="#808080" />
</svg>