<svg width="24" height="24" viewBox="0 0 24 24" fill="none" xmlns="http://www.w3.org/2000/svg">
<path d="M11.0504 16.1499H13.4204C13.8457 16.1499 14.1904 15.8052 14.1904 15.3799L14.1904 6.0599C14.1904 5.63464 13.8457 5.2899 13.4204 5.2899H11.0504C10.6252 5.2899 10.2804 5.63464 10.2804 6.0599L10.2804 15.3799C10.2804 15.8052 10.6252 16.1499 11.0504 16.1499Z" fill="#BFBFBF"/>
<path d="M5.02994 18.6401H7.39993C7.82519 18.6401 8.16992 18.2954 8.16992 17.8701V14.7501C8.16992 14.3249 7.82519 13.9801 7.39993 13.9801H5.02994C4.60468 13.9801 4.25992 14.3249 4.25992 14.7501V17.8701C4.25992 18.2954 4.60468 18.6401 5.02994 18.6401Z" fill="#BFBFBF"/>
<path d="M16.6002 17.2998H18.9702C19.3955 17.2998 19.7402 16.9551 19.7402 16.5298V11.4198C19.7402 10.9945 19.3955 10.6498 18.9702 10.6498H16.6002C16.175 10.6498 15.8302 10.9945 15.8302 11.4198V16.5298C15.8302 16.9551 16.175 17.2998 16.6002 17.2998Z" fill="#BFBFBF"/>
<path d="M17.8996 7.47998H17.5996C17.3235 7.47998 17.0996 7.70384 17.0996 7.97998V19.98C17.0996 20.2561 17.3235 20.48 17.5996 20.48H17.8996C18.1758 20.48 18.3996 20.2561 18.3996 19.98V7.97998C18.3996 7.70384 18.1758 7.47998 17.8996 7.47998Z" fill="#BFBFBF"/>
<path d="M12.3801 3.52002H12.0801C11.8039 3.52002 11.5801 3.74388 11.5801 4.02002V19.98C11.5801 20.2562 11.8039 20.48 12.0801 20.48H12.3801C12.6562 20.48 12.8801 20.2562 12.8801 19.98V4.02002C12.8801 3.74388 12.6562 3.52002 12.3801 3.52002Z" fill="#BFBFBF"/>
<path d="M6.37031 10.46H6.07031C5.79417 10.46 5.57031 10.6838 5.57031 10.96V19.98C5.57031 20.2561 5.79417 20.48 6.07031 20.48H6.37031C6.64645 20.48 6.87031 20.2561 6.87031 19.98V10.96C6.87031 10.6838 6.64645 10.46 6.37031 10.46Z" fill="#BFBFBF"/>
</svg>
