<svg xmlns="http://www.w3.org/2000/svg" width="24" height="24" viewBox="0 0 24 24">

    <g fill="none" fill-rule="evenodd">
        <g>
            <g  transform="translate(-34 -327) translate(30 323)">
                <g>
                    <path d="M0 0H24V24H0z" transform="translate(4 4)"/>
                    <g fill="#ffffff">
                        <g>
                            <path d="M11.63 4.55c-.276 0-.5.224-.5.5v11c0 .276-.225.5-.5.5h-8c-.274 0-.5-.224-.5-.5v-11c0-.276-.223-.5-.5-.5-.275 0-.5.224-.5.5v11c0 .827.674 1.5 1.5 1.5h8c.827 0 1.5-.673 1.5-1.5v-11c0-.276-.224-.5-.5-.5M4.13 2.05c0-.276.226-.5.5-.5h4c.275 0 .5.224.5.5v.5h-5v-.5zm8.561.5h-2.56v-.5c0-.827-.674-1.5-1.5-1.5h-4c-.828 0-1.5.673-1.5 1.5v.5H.69c-.276 0-.5.224-.5.5s.223.5.5.5h12c.276 0 .5-.224.5-.5s-.224-.5-.5-.5z" transform="translate(4 4) translate(5 3) translate(0 .949)"/>
                            <path d="M8.797 15.242v-9c0-.276-.224-.5-.5-.5s-.5.224-.5.5v9c0 .276.224.5.5.5s.5-.224.5-.5M5.464 15.242v-9c0-.276-.224-.5-.5-.5s-.5.224-.5.5v9c0 .276.224.5.5.5s.5-.224.5-.5" transform="translate(4 4) translate(5 3) translate(0 .949)"/>
                        </g>
                    </g>
                </g>
            </g>
        </g>
    </g>
</svg>
