<svg width="24" height="24" viewBox="0 0 24 24" fill="none" xmlns="http://www.w3.org/2000/svg">
<path fill-rule="evenodd" clip-rule="evenodd" d="M14.245 17.5C14.245 17.776 14.021 18 13.745 18C13.469 18 13.245 17.776 13.245 17.5V10.5C13.245 10.224 13.469 10 13.745 10C14.021 10 14.245 10.224 14.245 10.5V17.5ZM10.755 17.5C10.755 17.776 10.531 18 10.255 18C9.978 18 9.755 17.776 9.755 17.5V10.5C9.755 10.224 9.978 10 10.255 10C10.531 10 10.755 10.224 10.755 10.5V17.5ZM17 7H15V6.245C15 5.557 14.443 5 13.755 5H10.245C9.558 5 9 5.557 9 6.245V7H7C6.448 7 6 7.447 6 8C6 8.552 6.448 9 7 9V18C7 19.104 7.895 20 9 20H15C16.104 20 17 19.104 17 18V9C17.552 9 18 8.552 18 8C18 7.447 17.552 7 17 7Z" fill="#808080"/>
</svg>
