<svg width="124" height="227" viewBox="0 0 124 227" fill="none" xmlns="http://www.w3.org/2000/svg">
<rect width="123.039" height="226.034" rx="8" fill="#3C3C47"/>
<rect x="5.45044" y="11" width="112.237" height="209" rx="1" fill="#525261"/>
<path d="M51.7803 5.00014H70.8572" stroke="#525261" stroke-linecap="round" stroke-linejoin="round"/>
<path d="M43.9248 213H79.5359" stroke="#3C3C47" stroke-linecap="round" stroke-linejoin="round"/>
<rect x="19" y="105" width="86" height="16" rx="4" stroke="#3C3C47" stroke-linecap="round" stroke-linejoin="round"/>
<path d="M45.7529 111.64C46.5049 111.64 47.0957 111.827 47.5254 112.201C47.9583 112.572 48.1748 113.082 48.1748 113.729C48.1748 114.468 47.9388 115.048 47.4668 115.468C46.998 115.888 46.3503 116.098 45.5234 116.098C44.7194 116.098 44.1058 115.969 43.6826 115.712V114.931C43.9105 115.077 44.1937 115.193 44.5322 115.277C44.8708 115.359 45.2044 115.399 45.5332 115.399C46.1061 115.399 46.5505 115.264 46.8662 114.994C47.1852 114.724 47.3447 114.333 47.3447 113.822C47.3447 112.826 46.7344 112.328 45.5137 112.328C45.2044 112.328 44.791 112.375 44.2734 112.47L43.8535 112.201L44.1221 108.861H47.6719V109.608H44.8154L44.6348 111.752C45.0091 111.677 45.3818 111.64 45.7529 111.64ZM51.4756 111.64C52.2275 111.64 52.8184 111.827 53.248 112.201C53.681 112.572 53.8975 113.082 53.8975 113.729C53.8975 114.468 53.6615 115.048 53.1895 115.468C52.7207 115.888 52.0729 116.098 51.2461 116.098C50.4421 116.098 49.8285 115.969 49.4053 115.712V114.931C49.6331 115.077 49.9163 115.193 50.2549 115.277C50.5934 115.359 50.9271 115.399 51.2559 115.399C51.8288 115.399 52.2731 115.264 52.5889 114.994C52.9079 114.724 53.0674 114.333 53.0674 113.822C53.0674 112.826 52.457 112.328 51.2363 112.328C50.9271 112.328 50.5137 112.375 49.9961 112.47L49.5762 112.201L49.8447 108.861H53.3945V109.608H50.5381L50.3574 111.752C50.7318 111.677 51.1045 111.64 51.4756 111.64ZM57.3301 108.759C57.9811 108.759 58.4971 108.91 58.8779 109.213C59.2588 109.516 59.4492 109.934 59.4492 110.468C59.4492 110.819 59.3402 111.14 59.1221 111.43C58.904 111.719 58.5557 111.983 58.0771 112.221C58.6566 112.497 59.0684 112.789 59.3125 113.095C59.5566 113.397 59.6787 113.749 59.6787 114.149C59.6787 114.742 59.472 115.215 59.0586 115.57C58.6452 115.922 58.0788 116.098 57.3594 116.098C56.5977 116.098 56.0117 115.932 55.6016 115.6C55.1914 115.264 54.9863 114.791 54.9863 114.179C54.9863 113.362 55.4844 112.725 56.4805 112.27C56.0312 112.016 55.709 111.742 55.5137 111.449C55.3184 111.153 55.2207 110.823 55.2207 110.458C55.2207 109.94 55.4111 109.529 55.792 109.223C56.1761 108.913 56.6888 108.759 57.3301 108.759ZM55.7871 114.198C55.7871 114.589 55.9222 114.893 56.1924 115.111C56.4658 115.329 56.8483 115.438 57.3398 115.438C57.8249 115.438 58.2025 115.325 58.4727 115.097C58.7428 114.869 58.8779 114.556 58.8779 114.159C58.8779 113.843 58.751 113.563 58.4971 113.319C58.2432 113.072 57.8005 112.833 57.1689 112.602C56.6839 112.81 56.3324 113.041 56.1143 113.295C55.8962 113.546 55.7871 113.847 55.7871 114.198ZM57.3203 109.418C56.9134 109.418 56.5944 109.516 56.3633 109.711C56.1322 109.906 56.0166 110.167 56.0166 110.492C56.0166 110.792 56.1126 111.049 56.3047 111.264C56.4967 111.479 56.8516 111.693 57.3691 111.908C57.8346 111.713 58.1634 111.503 58.3555 111.278C58.5508 111.054 58.6484 110.792 58.6484 110.492C58.6484 110.163 58.5296 109.903 58.292 109.711C58.0576 109.516 57.7337 109.418 57.3203 109.418ZM66.29 116H65.499V110.912C65.499 110.489 65.512 110.089 65.5381 109.711C65.4697 109.779 65.3932 109.851 65.3086 109.926C65.224 110.001 64.8366 110.318 64.1465 110.878L63.7168 110.321L65.6064 108.861H66.29V116ZM73.7021 111.908C73.7021 114.701 72.6214 116.098 70.46 116.098C70.0824 116.098 69.7829 116.065 69.5615 116V115.302C69.8219 115.386 70.1182 115.429 70.4502 115.429C71.2314 115.429 71.8206 115.188 72.2178 114.706C72.6182 114.221 72.8363 113.479 72.8721 112.479H72.8135C72.6344 112.75 72.3968 112.956 72.1006 113.1C71.8044 113.24 71.4707 113.31 71.0996 113.31C70.4681 113.31 69.9668 113.121 69.5957 112.743C69.2246 112.366 69.0391 111.838 69.0391 111.161C69.0391 110.419 69.2458 109.833 69.6592 109.403C70.0758 108.974 70.6227 108.759 71.2998 108.759C71.7848 108.759 72.208 108.884 72.5693 109.135C72.9339 109.382 73.2139 109.745 73.4092 110.224C73.6045 110.699 73.7021 111.26 73.7021 111.908ZM71.2998 109.452C70.8343 109.452 70.4746 109.602 70.2207 109.901C69.9668 110.201 69.8398 110.618 69.8398 111.151C69.8398 111.62 69.957 111.99 70.1914 112.26C70.4258 112.527 70.7822 112.66 71.2607 112.66C71.557 112.66 71.8288 112.6 72.0762 112.479C72.3268 112.359 72.5238 112.195 72.667 111.986C72.8102 111.778 72.8818 111.56 72.8818 111.332C72.8818 110.99 72.8151 110.674 72.6816 110.385C72.5482 110.095 72.361 109.867 72.1201 109.701C71.8825 109.535 71.609 109.452 71.2998 109.452ZM79.4248 111.908C79.4248 114.701 78.3441 116.098 76.1826 116.098C75.805 116.098 75.5055 116.065 75.2842 116V115.302C75.5446 115.386 75.8408 115.429 76.1729 115.429C76.9541 115.429 77.5433 115.188 77.9404 114.706C78.3408 114.221 78.5589 113.479 78.5947 112.479H78.5361C78.3571 112.75 78.1195 112.956 77.8232 113.1C77.527 113.24 77.1934 113.31 76.8223 113.31C76.1908 113.31 75.6895 113.121 75.3184 112.743C74.9473 112.366 74.7617 111.838 74.7617 111.161C74.7617 110.419 74.9684 109.833 75.3818 109.403C75.7985 108.974 76.3454 108.759 77.0225 108.759C77.5075 108.759 77.9307 108.884 78.292 109.135C78.6566 109.382 78.9365 109.745 79.1318 110.224C79.3271 110.699 79.4248 111.26 79.4248 111.908ZM77.0225 109.452C76.557 109.452 76.1973 109.602 75.9434 109.901C75.6895 110.201 75.5625 110.618 75.5625 111.151C75.5625 111.62 75.6797 111.99 75.9141 112.26C76.1484 112.527 76.5049 112.66 76.9834 112.66C77.2796 112.66 77.5514 112.6 77.7988 112.479C78.0495 112.359 78.2464 112.195 78.3896 111.986C78.5329 111.778 78.6045 111.56 78.6045 111.332C78.6045 110.99 78.5378 110.674 78.4043 110.385C78.2708 110.095 78.0837 109.867 77.8428 109.701C77.6051 109.535 77.3317 109.452 77.0225 109.452Z" fill="#396DE0"/>
<path d="M48.6309 95.4307V97.7402C48.6309 98.1471 48.508 98.467 48.2622 98.6997C48.0164 98.9325 47.6787 99.0488 47.249 99.0488C46.8193 99.0488 46.4865 98.9316 46.2505 98.6973C46.0161 98.4629 45.8989 98.1406 45.8989 97.7305V95.4307H46.314V97.7598C46.314 98.0576 46.3953 98.2863 46.5581 98.4458C46.7209 98.6053 46.9601 98.6851 47.2759 98.6851C47.577 98.6851 47.8089 98.6053 47.9717 98.4458C48.1344 98.2847 48.2158 98.0544 48.2158 97.7549V95.4307H48.6309ZM51.3481 99V97.269C51.3481 97.0509 51.2985 96.8882 51.1992 96.7808C51.0999 96.6733 50.9445 96.6196 50.7329 96.6196C50.453 96.6196 50.2479 96.6953 50.1177 96.8467C49.9875 96.998 49.9224 97.2479 49.9224 97.5962V99H49.5171V96.3242H49.8467L49.9126 96.6904H49.9321C50.0151 96.5586 50.1315 96.4569 50.2812 96.3853C50.431 96.312 50.5978 96.2754 50.7817 96.2754C51.104 96.2754 51.3465 96.3535 51.5093 96.5098C51.672 96.6644 51.7534 96.9126 51.7534 97.2544V99H51.3481ZM52.9937 99H52.5884V96.3242H52.9937V99ZM52.5542 95.5991C52.5542 95.5063 52.577 95.4388 52.6226 95.3965C52.6681 95.3525 52.7251 95.3306 52.7935 95.3306C52.8586 95.3306 52.9147 95.3525 52.9619 95.3965C53.0091 95.4404 53.0327 95.508 53.0327 95.5991C53.0327 95.6903 53.0091 95.7586 52.9619 95.8042C52.9147 95.8481 52.8586 95.8701 52.7935 95.8701C52.7251 95.8701 52.6681 95.8481 52.6226 95.8042C52.577 95.7586 52.5542 95.6903 52.5542 95.5991ZM54.7173 98.7144C54.7889 98.7144 54.8581 98.7095 54.9248 98.6997C54.9915 98.6883 55.0444 98.6769 55.0835 98.6655V98.9756C55.0396 98.9967 54.9744 99.0138 54.8882 99.0269C54.8035 99.0415 54.7271 99.0488 54.6587 99.0488C54.1411 99.0488 53.8823 98.7762 53.8823 98.231V96.6392H53.499V96.4438L53.8823 96.2754L54.0532 95.7041H54.2876V96.3242H55.064V96.6392H54.2876V98.2139C54.2876 98.375 54.3258 98.4987 54.4023 98.585C54.4788 98.6712 54.5838 98.7144 54.7173 98.7144ZM56.751 99.0488C56.3555 99.0488 56.043 98.9284 55.8135 98.6875C55.5856 98.4466 55.4717 98.1121 55.4717 97.6841C55.4717 97.2528 55.5775 96.9102 55.7891 96.6562C56.0023 96.4023 56.2879 96.2754 56.646 96.2754C56.9813 96.2754 57.2466 96.3861 57.4419 96.6074C57.6372 96.8271 57.7349 97.1177 57.7349 97.479V97.7354H55.8916C55.8997 98.0495 55.9787 98.2879 56.1284 98.4507C56.2798 98.6134 56.4922 98.6948 56.7656 98.6948C57.0537 98.6948 57.3385 98.6346 57.6201 98.5142V98.8755C57.4769 98.9373 57.341 98.9813 57.2124 99.0073C57.0854 99.035 56.9316 99.0488 56.751 99.0488ZM56.6411 96.6147C56.4263 96.6147 56.2546 96.6847 56.126 96.8247C55.999 96.9647 55.9242 97.1584 55.9014 97.4058H57.3003C57.3003 97.1502 57.2433 96.9549 57.1294 96.8198C57.0155 96.6831 56.8527 96.6147 56.6411 96.6147ZM60.2495 98.6411H60.2275C60.0404 98.9129 59.7604 99.0488 59.3877 99.0488C59.0378 99.0488 58.7651 98.9292 58.5698 98.6899C58.3761 98.4507 58.2793 98.1105 58.2793 97.6694C58.2793 97.2284 58.377 96.8857 58.5723 96.6416C58.7676 96.3975 59.0394 96.2754 59.3877 96.2754C59.7507 96.2754 60.029 96.4072 60.2227 96.6709H60.2544L60.2373 96.478L60.2275 96.29V95.2012H60.6328V99H60.3032L60.2495 98.6411ZM59.439 98.7095C59.7157 98.7095 59.9159 98.6346 60.0396 98.4849C60.1649 98.3335 60.2275 98.0902 60.2275 97.7549V97.6694C60.2275 97.2902 60.1641 97.02 60.0371 96.8589C59.9118 96.6961 59.7108 96.6147 59.4341 96.6147C59.1965 96.6147 59.0142 96.7075 58.8872 96.8931C58.7619 97.077 58.6992 97.3374 58.6992 97.6743C58.6992 98.0161 58.7619 98.2741 58.8872 98.4482C59.0125 98.6224 59.1965 98.7095 59.439 98.7095ZM62.7397 96.2803C63.0913 96.2803 63.3639 96.4007 63.5576 96.6416C63.7529 96.8809 63.8506 97.2202 63.8506 97.6597C63.8506 98.0991 63.7521 98.4409 63.5552 98.6851C63.3599 98.9276 63.0881 99.0488 62.7397 99.0488C62.5656 99.0488 62.4061 99.0171 62.2612 98.9536C62.118 98.8885 61.9976 98.7892 61.8999 98.6558H61.8706L61.7852 99H61.4946V95.2012H61.8999V96.124C61.8999 96.3307 61.8934 96.5163 61.8804 96.6807H61.8999C62.0887 96.4137 62.3687 96.2803 62.7397 96.2803ZM62.6812 96.6196C62.4045 96.6196 62.2051 96.6994 62.083 96.8589C61.9609 97.0168 61.8999 97.2837 61.8999 97.6597C61.8999 98.0356 61.9626 98.305 62.0879 98.4678C62.2132 98.6289 62.4142 98.7095 62.6909 98.7095C62.9399 98.7095 63.1255 98.6191 63.2476 98.4385C63.3696 98.2562 63.4307 97.995 63.4307 97.6548C63.4307 97.3065 63.3696 97.0469 63.2476 96.876C63.1255 96.7051 62.9367 96.6196 62.6812 96.6196ZM64.9663 99H64.561V96.3242H64.9663V99ZM64.5269 95.5991C64.5269 95.5063 64.5496 95.4388 64.5952 95.3965C64.6408 95.3525 64.6978 95.3306 64.7661 95.3306C64.8312 95.3306 64.8874 95.3525 64.9346 95.3965C64.9818 95.4404 65.0054 95.508 65.0054 95.5991C65.0054 95.6903 64.9818 95.7586 64.9346 95.8042C64.8874 95.8481 64.8312 95.8701 64.7661 95.8701C64.6978 95.8701 64.6408 95.8481 64.5952 95.8042C64.5496 95.7586 64.5269 95.6903 64.5269 95.5991ZM66.6899 98.7144C66.7616 98.7144 66.8307 98.7095 66.8975 98.6997C66.9642 98.6883 67.0171 98.6769 67.0562 98.6655V98.9756C67.0122 98.9967 66.9471 99.0138 66.8608 99.0269C66.7762 99.0415 66.6997 99.0488 66.6313 99.0488C66.1138 99.0488 65.855 98.7762 65.855 98.231V96.6392H65.4717V96.4438L65.855 96.2754L66.0259 95.7041H66.2603V96.3242H67.0366V96.6392H66.2603V98.2139C66.2603 98.375 66.2985 98.4987 66.375 98.585C66.4515 98.6712 66.5565 98.7144 66.6899 98.7144ZM67.5347 98.7412C67.5347 98.6322 67.5591 98.55 67.6079 98.4946C67.6584 98.4377 67.73 98.4092 67.8228 98.4092C67.9172 98.4092 67.9904 98.4377 68.0425 98.4946C68.0962 98.55 68.123 98.6322 68.123 98.7412C68.123 98.847 68.0962 98.9284 68.0425 98.9854C67.9888 99.0423 67.9155 99.0708 67.8228 99.0708C67.7397 99.0708 67.6706 99.0456 67.6152 98.9951C67.5615 98.943 67.5347 98.8584 67.5347 98.7412ZM69.9956 99.0488C69.6082 99.0488 69.3079 98.93 69.0947 98.6924C68.8831 98.4531 68.7773 98.1154 68.7773 97.6792C68.7773 97.2316 68.8848 96.8857 69.0996 96.6416C69.3161 96.3975 69.6237 96.2754 70.0225 96.2754C70.151 96.2754 70.2796 96.2892 70.4082 96.3169C70.5368 96.3446 70.6377 96.3771 70.7109 96.4146L70.5864 96.7588C70.4969 96.723 70.3993 96.6937 70.2935 96.6709C70.1877 96.6465 70.0941 96.6343 70.0127 96.6343C69.4691 96.6343 69.1973 96.981 69.1973 97.6743C69.1973 98.0031 69.2632 98.2554 69.395 98.4312C69.5285 98.6069 69.7254 98.6948 69.9858 98.6948C70.2088 98.6948 70.4375 98.6468 70.6719 98.5508V98.9097C70.4928 99.0024 70.2674 99.0488 69.9956 99.0488ZM73.6187 97.6597C73.6187 98.0959 73.5088 98.4368 73.2891 98.6826C73.0693 98.9268 72.7658 99.0488 72.3784 99.0488C72.1392 99.0488 71.9268 98.9927 71.7412 98.8804C71.5557 98.7681 71.4124 98.6069 71.3115 98.397C71.2106 98.187 71.1602 97.9412 71.1602 97.6597C71.1602 97.2235 71.2692 96.8841 71.4873 96.6416C71.7054 96.3975 72.0081 96.2754 72.3955 96.2754C72.7699 96.2754 73.0669 96.3999 73.2866 96.6489C73.508 96.8979 73.6187 97.2349 73.6187 97.6597ZM71.5801 97.6597C71.5801 98.0015 71.6484 98.2619 71.7852 98.4409C71.9219 98.62 72.1229 98.7095 72.3882 98.7095C72.6535 98.7095 72.8545 98.6208 72.9912 98.4434C73.1296 98.2643 73.1987 98.0031 73.1987 97.6597C73.1987 97.3195 73.1296 97.0615 72.9912 96.8857C72.8545 96.7083 72.6519 96.6196 72.3833 96.6196C72.118 96.6196 71.9178 96.7067 71.7827 96.8809C71.6476 97.055 71.5801 97.3146 71.5801 97.6597ZM77.7422 99V97.2593C77.7422 97.0461 77.6966 96.8866 77.6055 96.7808C77.5143 96.6733 77.3727 96.6196 77.1807 96.6196C76.9284 96.6196 76.742 96.6921 76.6216 96.8369C76.5011 96.9818 76.4409 97.2048 76.4409 97.5059V99H76.0356V97.2593C76.0356 97.0461 75.9901 96.8866 75.8989 96.7808C75.8078 96.6733 75.6654 96.6196 75.4717 96.6196C75.2178 96.6196 75.0314 96.6961 74.9126 96.8491C74.7954 97.0005 74.7368 97.2495 74.7368 97.5962V99H74.3315V96.3242H74.6611L74.7271 96.6904H74.7466C74.8231 96.5602 74.9305 96.4585 75.0688 96.3853C75.2088 96.312 75.3651 96.2754 75.5376 96.2754C75.9559 96.2754 76.2293 96.4268 76.3579 96.7295H76.3774C76.4572 96.5895 76.5728 96.4788 76.7241 96.3975C76.8755 96.3161 77.048 96.2754 77.2417 96.2754C77.5444 96.2754 77.7707 96.3535 77.9204 96.5098C78.0718 96.6644 78.1475 96.9126 78.1475 97.2544V99H77.7422Z" fill="#979797"/>
<path d="M40.5625 128.709C40.8327 128.709 41.0296 128.637 41.1533 128.492C41.277 128.347 41.3429 128.103 41.3511 127.76V127.669C41.3511 127.295 41.2876 127.026 41.1606 126.861C41.0337 126.697 40.8327 126.615 40.5576 126.615C40.32 126.615 40.1377 126.708 40.0107 126.893C39.8854 127.077 39.8228 127.337 39.8228 127.674C39.8228 128.011 39.8846 128.268 40.0083 128.446C40.1336 128.622 40.3184 128.709 40.5625 128.709ZM40.5015 129.049C40.1564 129.049 39.887 128.928 39.6934 128.685C39.4997 128.443 39.4028 128.104 39.4028 127.669C39.4028 127.232 39.5005 126.89 39.6958 126.644C39.8911 126.398 40.1629 126.275 40.5112 126.275C40.8774 126.275 41.159 126.414 41.356 126.69H41.3779L41.4365 126.324H41.7563V130.201H41.3511V129.056C41.3511 128.893 41.36 128.755 41.3779 128.641H41.3462C41.159 128.913 40.8774 129.049 40.5015 129.049ZM44.8032 129L44.3125 127.43C44.2816 127.334 44.2238 127.116 44.1392 126.776H44.1196C44.0545 127.061 43.9976 127.28 43.9487 127.435L43.4434 129H42.9746L42.2446 126.324H42.6694C42.842 126.996 42.973 127.508 43.0625 127.86C43.1536 128.211 43.2057 128.448 43.2188 128.57H43.2383C43.2562 128.478 43.2847 128.358 43.3237 128.211C43.3644 128.063 43.3994 127.946 43.4287 127.86L43.9194 126.324H44.3589L44.8374 127.86C44.9285 128.14 44.9904 128.375 45.0229 128.565H45.0425C45.049 128.507 45.0661 128.417 45.0938 128.294C45.123 128.172 45.2931 127.516 45.604 126.324H46.0239L45.2842 129H44.8032ZM47.6401 129.049C47.2446 129.049 46.9321 128.928 46.7026 128.688C46.4748 128.447 46.3608 128.112 46.3608 127.684C46.3608 127.253 46.4666 126.91 46.6782 126.656C46.8914 126.402 47.1771 126.275 47.5352 126.275C47.8704 126.275 48.1357 126.386 48.3311 126.607C48.5264 126.827 48.624 127.118 48.624 127.479V127.735H46.7808C46.7889 128.049 46.8678 128.288 47.0176 128.451C47.1689 128.613 47.3813 128.695 47.6548 128.695C47.9429 128.695 48.2277 128.635 48.5093 128.514V128.875C48.366 128.937 48.2301 128.981 48.1016 129.007C47.9746 129.035 47.8208 129.049 47.6401 129.049ZM47.5303 126.615C47.3154 126.615 47.1437 126.685 47.0151 126.825C46.8882 126.965 46.8133 127.158 46.7905 127.406H48.1895C48.1895 127.15 48.1325 126.955 48.0186 126.82C47.9046 126.683 47.7419 126.615 47.5303 126.615ZM50.5381 126.275C50.6569 126.275 50.7635 126.285 50.8579 126.305L50.8018 126.681C50.6911 126.656 50.5934 126.644 50.5088 126.644C50.2923 126.644 50.1068 126.732 49.9521 126.908C49.7992 127.083 49.7227 127.302 49.7227 127.564V129H49.3174V126.324H49.6519L49.6982 126.82H49.7178C49.8171 126.646 49.9367 126.511 50.0767 126.417C50.2166 126.323 50.3704 126.275 50.5381 126.275ZM52.2227 128.714C52.2943 128.714 52.3634 128.709 52.4302 128.7C52.4969 128.688 52.5498 128.677 52.5889 128.666V128.976C52.5449 128.997 52.4798 129.014 52.3936 129.027C52.3089 129.042 52.2324 129.049 52.1641 129.049C51.6465 129.049 51.3877 128.776 51.3877 128.231V126.639H51.0044V126.444L51.3877 126.275L51.5586 125.704H51.793V126.324H52.5693V126.639H51.793V128.214C51.793 128.375 51.8312 128.499 51.9077 128.585C51.9842 128.671 52.0892 128.714 52.2227 128.714ZM52.7012 126.324H53.1357L53.7217 127.85C53.8503 128.198 53.93 128.45 53.9609 128.604H53.9805C54.0016 128.521 54.0456 128.38 54.1123 128.18C54.1807 127.978 54.402 127.359 54.7764 126.324H55.2109L54.061 129.371C53.9471 129.672 53.8136 129.885 53.6606 130.011C53.5093 130.138 53.3229 130.201 53.1016 130.201C52.9779 130.201 52.8558 130.187 52.7354 130.16V129.835C52.8249 129.854 52.925 129.864 53.0356 129.864C53.314 129.864 53.5125 129.708 53.6313 129.396L53.7803 129.015L52.7012 126.324ZM59.415 127.22C59.415 127.451 59.3792 127.663 59.3076 127.855C59.236 128.047 59.1351 128.196 59.0049 128.302C58.8747 128.408 58.7249 128.46 58.5557 128.46C58.4157 128.46 58.2977 128.418 58.2017 128.333C58.1056 128.249 58.0487 128.141 58.0308 128.009H58.0112C57.9461 128.15 57.8525 128.261 57.7305 128.341C57.61 128.421 57.4668 128.46 57.3008 128.46C57.0566 128.46 56.8654 128.377 56.7271 128.211C56.5903 128.044 56.522 127.817 56.522 127.53C56.522 127.198 56.618 126.929 56.8101 126.722C57.0021 126.514 57.2544 126.41 57.5669 126.41C57.6776 126.41 57.8029 126.42 57.9429 126.441C58.0828 126.461 58.209 126.489 58.3213 126.524L58.2603 127.672V127.726C58.2603 128.015 58.3685 128.16 58.585 128.16C58.7331 128.16 58.8535 128.073 58.9463 127.899C59.0391 127.723 59.0854 127.495 59.0854 127.215C59.0854 126.921 59.0252 126.663 58.9048 126.441C58.7843 126.22 58.6126 126.05 58.3896 125.931C58.1683 125.811 57.9136 125.75 57.6255 125.75C57.2625 125.75 56.9468 125.826 56.6782 125.978C56.4097 126.127 56.2046 126.342 56.063 126.622C55.9214 126.9 55.8506 127.223 55.8506 127.589C55.8506 128.085 55.9816 128.467 56.2437 128.734C56.5057 129.001 56.8833 129.134 57.3765 129.134C57.7183 129.134 58.0731 129.064 58.4409 128.924V129.249C58.1284 129.386 57.7736 129.454 57.3765 129.454C56.7856 129.454 56.3267 129.292 55.9995 128.968C55.674 128.643 55.5112 128.189 55.5112 127.606C55.5112 127.183 55.5983 126.806 55.7725 126.476C55.9466 126.145 56.1948 125.89 56.5171 125.709C56.8394 125.527 57.2088 125.436 57.6255 125.436C57.9754 125.436 58.2863 125.51 58.5581 125.658C58.8315 125.804 59.0423 126.013 59.1904 126.285C59.3402 126.555 59.415 126.867 59.415 127.22ZM56.8906 127.54C56.8906 127.953 57.0493 128.16 57.3667 128.16C57.7036 128.16 57.8867 127.905 57.916 127.396L57.9502 126.759C57.833 126.726 57.7052 126.71 57.5669 126.71C57.3553 126.71 57.1893 126.783 57.0688 126.93C56.95 127.076 56.8906 127.28 56.8906 127.54ZM61.2729 129.049C60.8774 129.049 60.5649 128.928 60.3354 128.688C60.1076 128.447 59.9937 128.112 59.9937 127.684C59.9937 127.253 60.0994 126.91 60.311 126.656C60.5243 126.402 60.8099 126.275 61.168 126.275C61.5033 126.275 61.7686 126.386 61.9639 126.607C62.1592 126.827 62.2568 127.118 62.2568 127.479V127.735H60.4136C60.4217 128.049 60.5007 128.288 60.6504 128.451C60.8018 128.613 61.0142 128.695 61.2876 128.695C61.5757 128.695 61.8605 128.635 62.1421 128.514V128.875C61.9989 128.937 61.863 128.981 61.7344 129.007C61.6074 129.035 61.4536 129.049 61.2729 129.049ZM61.1631 126.615C60.9482 126.615 60.7765 126.685 60.6479 126.825C60.521 126.965 60.4461 127.158 60.4233 127.406H61.8223C61.8223 127.15 61.7653 126.955 61.6514 126.82C61.5374 126.683 61.3747 126.615 61.1631 126.615ZM66.3608 129V127.259C66.3608 127.046 66.3153 126.887 66.2241 126.781C66.133 126.673 65.9914 126.62 65.7993 126.62C65.547 126.62 65.3607 126.692 65.2402 126.837C65.1198 126.982 65.0596 127.205 65.0596 127.506V129H64.6543V127.259C64.6543 127.046 64.6087 126.887 64.5176 126.781C64.4264 126.673 64.284 126.62 64.0903 126.62C63.8364 126.62 63.6501 126.696 63.5312 126.849C63.4141 127 63.3555 127.25 63.3555 127.596V129H62.9502V126.324H63.2798L63.3457 126.69H63.3652C63.4417 126.56 63.5492 126.458 63.6875 126.385C63.8275 126.312 63.9837 126.275 64.1562 126.275C64.5745 126.275 64.848 126.427 64.9766 126.729H64.9961C65.0758 126.59 65.1914 126.479 65.3428 126.397C65.4941 126.316 65.6667 126.275 65.8604 126.275C66.1631 126.275 66.3893 126.354 66.5391 126.51C66.6904 126.664 66.7661 126.913 66.7661 127.254V129H66.3608ZM69.249 129L69.1685 128.619H69.1489C69.0155 128.787 68.882 128.901 68.7485 128.961C68.6167 129.02 68.4515 129.049 68.2529 129.049C67.9876 129.049 67.7793 128.98 67.6279 128.844C67.4782 128.707 67.4033 128.513 67.4033 128.26C67.4033 127.72 67.8354 127.437 68.6997 127.411L69.1538 127.396V127.23C69.1538 127.02 69.1082 126.865 69.0171 126.766C68.9276 126.665 68.7835 126.615 68.585 126.615C68.362 126.615 68.1097 126.683 67.8281 126.82L67.7036 126.51C67.8354 126.438 67.9795 126.382 68.1357 126.341C68.2936 126.301 68.4515 126.28 68.6094 126.28C68.9284 126.28 69.1644 126.351 69.3174 126.493C69.472 126.634 69.5493 126.861 69.5493 127.174V129H69.249ZM68.3335 128.714C68.5858 128.714 68.7835 128.645 68.9268 128.507C69.0716 128.368 69.144 128.175 69.144 127.926V127.684L68.7388 127.701C68.4165 127.713 68.1838 127.763 68.0405 127.853C67.8989 127.94 67.8281 128.078 67.8281 128.265C67.8281 128.412 67.8721 128.523 67.96 128.6C68.0495 128.676 68.174 128.714 68.3335 128.714ZM70.792 129H70.3867V126.324H70.792V129ZM70.3525 125.599C70.3525 125.506 70.3753 125.439 70.4209 125.396C70.4665 125.353 70.5234 125.331 70.5918 125.331C70.6569 125.331 70.7131 125.353 70.7603 125.396C70.8075 125.44 70.8311 125.508 70.8311 125.599C70.8311 125.69 70.8075 125.759 70.7603 125.804C70.7131 125.848 70.6569 125.87 70.5918 125.87C70.5234 125.87 70.4665 125.848 70.4209 125.804C70.3753 125.759 70.3525 125.69 70.3525 125.599ZM72.0566 129H71.6514V125.201H72.0566V129ZM72.8574 128.741C72.8574 128.632 72.8818 128.55 72.9307 128.495C72.9811 128.438 73.0527 128.409 73.1455 128.409C73.2399 128.409 73.3132 128.438 73.3652 128.495C73.4189 128.55 73.4458 128.632 73.4458 128.741C73.4458 128.847 73.4189 128.928 73.3652 128.985C73.3115 129.042 73.2383 129.071 73.1455 129.071C73.0625 129.071 72.9933 129.046 72.938 128.995C72.8843 128.943 72.8574 128.858 72.8574 128.741ZM75.3184 129.049C74.931 129.049 74.6307 128.93 74.4175 128.692C74.2059 128.453 74.1001 128.115 74.1001 127.679C74.1001 127.232 74.2075 126.886 74.4224 126.642C74.6388 126.397 74.9465 126.275 75.3452 126.275C75.4738 126.275 75.6024 126.289 75.731 126.317C75.8595 126.345 75.9604 126.377 76.0337 126.415L75.9092 126.759C75.8197 126.723 75.722 126.694 75.6162 126.671C75.5104 126.646 75.4168 126.634 75.3354 126.634C74.7918 126.634 74.52 126.981 74.52 127.674C74.52 128.003 74.5859 128.255 74.7178 128.431C74.8512 128.607 75.0482 128.695 75.3086 128.695C75.5316 128.695 75.7603 128.647 75.9946 128.551V128.91C75.8156 129.002 75.5902 129.049 75.3184 129.049ZM78.9414 127.66C78.9414 128.096 78.8315 128.437 78.6118 128.683C78.3921 128.927 78.0885 129.049 77.7012 129.049C77.4619 129.049 77.2495 128.993 77.064 128.88C76.8784 128.768 76.7352 128.607 76.6343 128.397C76.5334 128.187 76.4829 127.941 76.4829 127.66C76.4829 127.223 76.592 126.884 76.8101 126.642C77.0282 126.397 77.3309 126.275 77.7183 126.275C78.0926 126.275 78.3896 126.4 78.6094 126.649C78.8307 126.898 78.9414 127.235 78.9414 127.66ZM76.9028 127.66C76.9028 128.001 76.9712 128.262 77.1079 128.441C77.2446 128.62 77.4456 128.709 77.7109 128.709C77.9762 128.709 78.1772 128.621 78.314 128.443C78.4523 128.264 78.5215 128.003 78.5215 127.66C78.5215 127.319 78.4523 127.062 78.314 126.886C78.1772 126.708 77.9746 126.62 77.7061 126.62C77.4408 126.62 77.2406 126.707 77.1055 126.881C76.9704 127.055 76.9028 127.315 76.9028 127.66ZM83.0649 129V127.259C83.0649 127.046 83.0194 126.887 82.9282 126.781C82.8371 126.673 82.6955 126.62 82.5034 126.62C82.2511 126.62 82.0648 126.692 81.9443 126.837C81.8239 126.982 81.7637 127.205 81.7637 127.506V129H81.3584V127.259C81.3584 127.046 81.3128 126.887 81.2217 126.781C81.1305 126.673 80.9881 126.62 80.7944 126.62C80.5405 126.62 80.3542 126.696 80.2354 126.849C80.1182 127 80.0596 127.25 80.0596 127.596V129H79.6543V126.324H79.9839L80.0498 126.69H80.0693C80.1458 126.56 80.2533 126.458 80.3916 126.385C80.5316 126.312 80.6878 126.275 80.8604 126.275C81.2786 126.275 81.5521 126.427 81.6807 126.729H81.7002C81.7799 126.59 81.8955 126.479 82.0469 126.397C82.1982 126.316 82.3708 126.275 82.5645 126.275C82.8672 126.275 83.0934 126.354 83.2432 126.51C83.3945 126.664 83.4702 126.913 83.4702 127.254V129H83.0649Z" fill="#979797"/>
<path d="M108.5 20V25" stroke="#808080" stroke-linecap="round"/>
<path d="M106 22.5H111" stroke="#808080" stroke-linecap="round"/>
</svg>
