<svg width="124" height="227" viewBox="0 0 124 227" fill="none" xmlns="http://www.w3.org/2000/svg">
<rect width="123.039" height="226.034" rx="8" fill="#3C3C47"/>
<rect x="5.45044" y="11" width="112.237" height="209" rx="1" fill="#525261"/>
<path d="M51.7803 5.00014H70.8572" stroke="#525261" stroke-linecap="round" stroke-linejoin="round"/>
<path d="M43.9248 213H79.5359" stroke="#3C3C47" stroke-linecap="round" stroke-linejoin="round"/>
<rect x="28" y="174" width="68" height="16" rx="4" stroke="#3C3C47" stroke-linecap="round" stroke-linejoin="round"/>
<path d="M45.5254 184L44.2832 180.423H44.2598C44.293 180.954 44.3096 181.452 44.3096 181.917V184H43.6738V179.717H44.6611L45.8506 183.124H45.8682L47.0928 179.717H48.083V184H47.4092V181.882C47.4092 181.669 47.4141 181.392 47.4238 181.05C47.4355 180.708 47.4453 180.501 47.4531 180.429H47.4297L46.1436 184H45.5254ZM51.165 184L51.0273 183.549H51.0039C50.8477 183.746 50.6904 183.881 50.5322 183.953C50.374 184.023 50.1709 184.059 49.9229 184.059C49.6045 184.059 49.3555 183.973 49.1758 183.801C48.998 183.629 48.9092 183.386 48.9092 183.071C48.9092 182.737 49.0332 182.485 49.2812 182.315C49.5293 182.146 49.9072 182.053 50.415 182.037L50.9746 182.02V181.847C50.9746 181.64 50.9258 181.485 50.8281 181.384C50.7324 181.28 50.583 181.229 50.3799 181.229C50.2139 181.229 50.0547 181.253 49.9023 181.302C49.75 181.351 49.6035 181.408 49.4629 181.475L49.2402 180.982C49.416 180.891 49.6084 180.821 49.8174 180.774C50.0264 180.726 50.2236 180.701 50.4092 180.701C50.8213 180.701 51.1318 180.791 51.3408 180.971C51.5518 181.15 51.6572 181.433 51.6572 181.817V184H51.165ZM50.1396 183.531C50.3896 183.531 50.5898 183.462 50.7402 183.323C50.8926 183.183 50.9688 182.986 50.9688 182.734V182.453L50.5527 182.471C50.2285 182.482 49.9922 182.537 49.8438 182.635C49.6973 182.73 49.624 182.878 49.624 183.077C49.624 183.222 49.667 183.334 49.7529 183.414C49.8389 183.492 49.9678 183.531 50.1396 183.531ZM55.4688 184H54.7773V182.008C54.7773 181.758 54.7266 181.571 54.625 181.448C54.5254 181.325 54.3662 181.264 54.1475 181.264C53.8564 181.264 53.6436 181.35 53.5088 181.521C53.374 181.693 53.3066 181.981 53.3066 182.386V184H52.6182V180.76H53.1572L53.2539 181.185H53.2891C53.3867 181.03 53.5254 180.911 53.7051 180.827C53.8848 180.743 54.084 180.701 54.3027 180.701C55.0801 180.701 55.4688 181.097 55.4688 181.888V184ZM58.7119 184L58.6152 183.575H58.5801C58.4844 183.726 58.3477 183.844 58.1699 183.93C57.9941 184.016 57.793 184.059 57.5664 184.059C57.1738 184.059 56.8809 183.961 56.6875 183.766C56.4941 183.57 56.3975 183.274 56.3975 182.878V180.76H57.0918V182.758C57.0918 183.006 57.1426 183.192 57.2441 183.317C57.3457 183.44 57.5049 183.502 57.7217 183.502C58.0107 183.502 58.2227 183.416 58.3574 183.244C58.4941 183.07 58.5625 182.78 58.5625 182.374V180.76H59.2539V184H58.7119ZM62.2627 184L62.125 183.549H62.1016C61.9453 183.746 61.7881 183.881 61.6299 183.953C61.4717 184.023 61.2686 184.059 61.0205 184.059C60.7021 184.059 60.4531 183.973 60.2734 183.801C60.0957 183.629 60.0068 183.386 60.0068 183.071C60.0068 182.737 60.1309 182.485 60.3789 182.315C60.627 182.146 61.0049 182.053 61.5127 182.037L62.0723 182.02V181.847C62.0723 181.64 62.0234 181.485 61.9258 181.384C61.8301 181.28 61.6807 181.229 61.4775 181.229C61.3115 181.229 61.1523 181.253 61 181.302C60.8477 181.351 60.7012 181.408 60.5605 181.475L60.3379 180.982C60.5137 180.891 60.7061 180.821 60.915 180.774C61.124 180.726 61.3213 180.701 61.5068 180.701C61.9189 180.701 62.2295 180.791 62.4385 180.971C62.6494 181.15 62.7549 181.433 62.7549 181.817V184H62.2627ZM61.2373 183.531C61.4873 183.531 61.6875 183.462 61.8379 183.323C61.9902 183.183 62.0664 182.986 62.0664 182.734V182.453L61.6504 182.471C61.3262 182.482 61.0898 182.537 60.9414 182.635C60.7949 182.73 60.7217 182.878 60.7217 183.077C60.7217 183.222 60.7646 183.334 60.8506 183.414C60.9365 183.492 61.0654 183.531 61.2373 183.531ZM64.4043 184H63.7158V179.441H64.4043V184ZM68.3652 184.059C67.8613 184.059 67.4668 183.912 67.1816 183.619C66.8984 183.324 66.7568 182.919 66.7568 182.403C66.7568 181.874 66.8887 181.458 67.1523 181.155C67.416 180.853 67.7783 180.701 68.2393 180.701C68.667 180.701 69.0049 180.831 69.2529 181.091C69.501 181.351 69.625 181.708 69.625 182.163V182.535H67.4658C67.4756 182.85 67.5605 183.092 67.7207 183.262C67.8809 183.43 68.1064 183.514 68.3975 183.514C68.5889 183.514 68.7666 183.496 68.9307 183.461C69.0967 183.424 69.2744 183.363 69.4639 183.279V183.839C69.2959 183.919 69.126 183.976 68.9541 184.009C68.7822 184.042 68.5859 184.059 68.3652 184.059ZM68.2393 181.223C68.0205 181.223 67.8447 181.292 67.7119 181.431C67.5811 181.569 67.5029 181.771 67.4775 182.037H68.9482C68.9443 181.77 68.8799 181.567 68.7549 181.431C68.6299 181.292 68.458 181.223 68.2393 181.223ZM73.2578 184H72.5664V182.008C72.5664 181.758 72.5156 181.571 72.4141 181.448C72.3145 181.325 72.1553 181.264 71.9365 181.264C71.6455 181.264 71.4326 181.35 71.2979 181.521C71.1631 181.693 71.0957 181.981 71.0957 182.386V184H70.4072V180.76H70.9463L71.043 181.185H71.0781C71.1758 181.03 71.3145 180.911 71.4941 180.827C71.6738 180.743 71.873 180.701 72.0918 180.701C72.8691 180.701 73.2578 181.097 73.2578 181.888V184ZM75.4229 183.502C75.5908 183.502 75.7588 183.476 75.9268 183.423V183.941C75.8506 183.975 75.752 184.002 75.6309 184.023C75.5117 184.047 75.3877 184.059 75.2588 184.059C74.6064 184.059 74.2803 183.715 74.2803 183.027V181.281H73.8379V180.977L74.3125 180.725L74.5469 180.039H74.9717V180.76H75.8945V181.281H74.9717V183.016C74.9717 183.182 75.0127 183.305 75.0947 183.385C75.1787 183.463 75.2881 183.502 75.4229 183.502ZM78.2207 180.701C78.3594 180.701 78.4736 180.711 78.5635 180.73L78.4961 181.372C78.3984 181.349 78.2969 181.337 78.1914 181.337C77.916 181.337 77.6924 181.427 77.5205 181.606C77.3506 181.786 77.2656 182.02 77.2656 182.307V184H76.5771V180.76H77.1162L77.207 181.331H77.2422C77.3496 181.138 77.4893 180.984 77.6611 180.871C77.835 180.758 78.0215 180.701 78.2207 180.701ZM78.6748 180.76H79.4248L80.084 182.597C80.1836 182.858 80.25 183.104 80.2832 183.335H80.3066C80.3242 183.228 80.3564 183.098 80.4033 182.945C80.4502 182.791 80.6982 182.062 81.1475 180.76H81.8916L80.5059 184.431C80.2539 185.104 79.834 185.441 79.2461 185.441C79.0938 185.441 78.9453 185.425 78.8008 185.392V184.847C78.9043 184.87 79.0225 184.882 79.1553 184.882C79.4873 184.882 79.7207 184.689 79.8555 184.305L79.9756 184L78.6748 180.76Z" fill="#D8D8D8"/>
<g opacity="0.6">
<circle cx="62" cy="108" r="28" fill="#616161"/>
<path d="M62.1167 125.818C52.2339 125.818 44.2249 117.842 44.2249 108C44.2249 98.1583 52.2339 90.1824 62.1167 90.1824C67.0558 90.1824 71.5282 92.177 74.7681 95.4011L81.9977 88.2015C76.9091 83.1339 69.8788 80 62.1167 80C46.5879 80 34 92.5357 34 108C34 123.464 46.5879 136 62.1167 136C69.8811 136 76.9091 132.866 82 127.801L74.7703 120.601C71.5282 123.823 67.0558 125.818 62.1167 125.818Z" fill="#9E9E9E"/>
<path d="M80 107.868H70.9992C70.9992 102.973 66.9695 99 61.9985 99C57.0274 99 53 102.97 53 107.868C53 110.253 53.9573 112.415 55.514 114.012L55.5072 114.019L66.6504 124.998L66.6527 125C74.3383 122.979 80 116.076 80 107.868Z" fill="#424242"/>
<path d="M90 108H79.9885C79.9885 116.222 74.4759 123.136 67 125.161L74.731 133C83.7819 128.427 90 118.95 90 108Z" fill="#616161"/>
<path d="M62 135.681C46.5898 135.681 34.0902 123.302 34.0023 108C34.0023 108.054 34 108.105 34 108.159C34 123.536 46.5357 136 62 136C77.4643 136 90 123.536 90 108.159C90 108.105 89.9977 108.054 89.9977 108C89.9098 123.302 77.4079 135.681 62 135.681Z" fill="#212121" fill-opacity="0.1"/>
<path d="M67 125.744L67.2442 126C74.6024 123.823 80 116.738 80 108.328V108C80 116.501 74.4825 123.651 67 125.744Z" fill="white" fill-opacity="0.05"/>
<path d="M84.4503 105.016H61.5589C60.1544 105.016 59.0159 106.128 59.0159 107.5C59.0159 108.872 60.1544 109.985 61.5589 109.985H84.4481C85.8526 109.985 86.9911 108.872 86.9911 107.5C86.9933 106.128 85.8548 105.016 84.4503 105.016Z" fill="#9E9E9E"/>
<path opacity="0.5" d="M84.4503 105.016H61.5589C60.1544 105.016 59.0159 106.128 59.0159 107.5C59.0159 108.872 60.1544 109.985 61.5589 109.985H84.4481C85.8526 109.985 86.9911 108.872 86.9911 107.5C86.9933 106.128 85.8548 105.016 84.4503 105.016Z" fill="#BDBDBD"/>
<circle cx="39.0902" cy="108.001" r="1.90878" fill="#BDBDBD"/>
<circle cx="62.0001" cy="85.0904" r="1.90878" fill="#BDBDBD"/>
<circle cx="62.0001" cy="130.908" r="1.90878" fill="#BDBDBD"/>
<circle cx="45.7733" cy="91.8004" r="1.90878" fill="#BDBDBD"/>
<circle cx="45.7733" cy="124.227" r="1.90878" fill="#BDBDBD"/>
<circle cx="78.2269" cy="124.227" r="1.90878" fill="#757575"/>
<path d="M62.0001 105.773H84.9078C86.2593 105.773 87.3648 106.829 87.4438 108.16C87.4461 108.106 87.4528 108.054 87.4528 108C87.4528 106.594 86.3134 105.455 84.9078 105.455H62.0001C60.5945 105.455 59.4551 106.594 59.4551 108C59.4551 108.054 59.4573 108.106 59.4641 108.16C59.5431 106.829 60.6464 105.773 62.0001 105.773Z" fill="white" fill-opacity="0.2"/>
<path d="M87.4438 108.158C87.3603 109.487 86.257 110.545 84.9078 110.545H62.0001C60.6486 110.545 59.5431 109.489 59.4641 108.158C59.4573 108.212 59.4551 108.264 59.4551 108.316C59.4551 109.722 60.5945 110.861 62.0001 110.861H84.9078C86.3134 110.861 87.4528 109.722 87.4528 108.316C87.4528 108.264 87.4506 108.212 87.4438 108.158Z" fill="#212121" fill-opacity="0.2"/>
<path d="M61.9999 90.5006C66.9186 90.5006 71.3724 92.4951 74.5988 95.7193L81.9542 88.3594C81.9 88.3053 81.8481 88.2511 81.7962 88.1992L74.5988 95.3989C71.3724 92.1747 66.9186 90.1802 61.9999 90.1802C52.1582 90.1802 44.1824 98.156 44.1824 107.998C44.1824 108.052 44.1846 108.104 44.1846 108.158C44.2704 98.3907 52.2123 90.5006 61.9999 90.5006Z" fill="#212121" fill-opacity="0.1"/>
<circle cx="62" cy="108" r="28" fill="url(#paint0_radial)"/>
</g>
<defs>
<radialGradient id="paint0_radial" cx="0" cy="0" r="1" gradientUnits="userSpaceOnUse" gradientTransform="translate(42.2112 88.1474) scale(55.9033)">
<stop stop-color="white" stop-opacity="0.1"/>
<stop offset="1" stop-color="white" stop-opacity="0.01"/>
</radialGradient>
</defs>
</svg>
