<svg xmlns="http://www.w3.org/2000/svg" width="103" height="103" viewBox="0 0 103 103">
    <defs>
        <radialGradient id="wm0tr62ara" cx="14.663%" cy="14.549%" r="99.827%" fx="14.663%" fy="14.549%">
            <stop offset="0%" stop-color="#FFF" stop-opacity=".1"/>
            <stop offset="100%" stop-color="#FFF" stop-opacity="0"/>
        </radialGradient>
    </defs>
    <g fill="none" fill-rule="evenodd" opacity=".6">
        <g fill-rule="nonzero">
            <g transform="translate(-129 -65) translate(129 65)">
                <circle cx="51.5" cy="51.5" r="51.5" fill="#616161"/>
                <path fill="#9E9E9E" d="M51.547 84.272c-18.118 0-32.801-14.67-32.801-32.772 0-18.102 14.683-32.772 32.801-32.772 9.055 0 17.255 3.669 23.194 9.6l13.255-13.243C78.666 5.765 65.778 0 51.547 0 23.077 0 0 23.057 0 51.5S23.078 103 51.547 103c14.235 0 27.12-5.764 36.453-15.08L74.746 74.676c-5.944 5.926-14.144 9.595-23.199 9.595z"/>
                <path fill="#424242" d="M84 51.372H67.665C67.665 42.334 60.352 35 51.331 35 42.309 35 35 42.33 35 51.372c0 4.403 1.737 8.395 4.562 11.343l-.012.012 20.223 20.269.004.004C73.725 79.269 84 66.525 84 51.372z"/>
                <path fill="#616161" d="M103 52H84.283c0 15.128-10.306 27.85-24.283 31.576L74.454 98C91.374 89.586 103 72.148 103 52z"/>
                <path fill="#212121" fill-opacity=".1" d="M51.5 102.408C23.156 102.408.166 79.418.004 51c0 .1-.004.196-.004.296C0 79.852 23.057 103 51.5 103S103 79.852 103 51.296c0-.1-.004-.196-.004-.296-.162 28.419-23.156 51.408-51.496 51.408z"/>
                <path fill="#FFF" fill-opacity=".05" d="M60 83.545l.45.455C74.036 80.13 84 67.535 84 52.583V52c0 15.113-10.186 27.824-24 31.545z"/>
                <g>
                    <path fill="#9E9E9E" d="M47.265.028H4.752C2.144.028.029 2.03.029 4.5c0 2.47 2.115 4.472 4.723 4.472h42.509c2.608 0 4.722-2.002 4.722-4.472.004-2.47-2.11-4.472-4.718-4.472z" transform="translate(47 47)"/>
                    <path fill="#BDBDBD" d="M47.265.028H4.752C2.144.028.029 2.03.029 4.5c0 2.47 2.115 4.472 4.723 4.472h42.509c2.608 0 4.722-2.002 4.722-4.472.004-2.47-2.11-4.472-4.718-4.472z" opacity=".5" transform="translate(47 47)"/>
                </g>
                <g>
                    <g fill="#BDBDBD" transform="translate(5.851 5.851)">
                        <circle cx="3.511" cy="45.649" r="3.511"/>
                        <circle cx="45.649" cy="3.511" r="3.511"/>
                        <circle cx="45.649" cy="87.782" r="3.511"/>
                        <circle cx="15.803" cy="15.853" r="3.511"/>
                        <circle cx="15.803" cy="75.495" r="3.511"/>
                    </g>
                    <circle cx="81.346" cy="81.346" r="3.511" fill="#757575"/>
                    <path fill="#FFF" fill-opacity=".2" d="M51.5 47.404h42.134c2.486 0 4.519 1.942 4.664 4.39.004-.099.017-.194.017-.294 0-2.585-2.096-4.681-4.681-4.681H51.5c-2.585 0-4.681 2.096-4.681 4.681 0 .1.004.195.017.295.145-2.449 2.174-4.39 4.664-4.39z"/>
                    <path fill="#212121" fill-opacity=".2" d="M98.298 51.79c-.153 2.445-2.183 4.391-4.664 4.391H51.5c-2.486 0-4.52-1.942-4.664-4.39-.013.1-.017.195-.017.29 0 2.585 2.096 4.681 4.681 4.681h42.134c2.585 0 4.68-2.096 4.68-4.681 0-.095-.003-.19-.016-.29z"/>
                    <path fill="#212121" fill-opacity=".1" d="M51.5 19.314c9.047 0 17.239 3.668 23.173 9.598l13.529-13.537-.291-.294-13.238 13.242c-5.934-5.93-14.126-9.599-23.173-9.599-18.102 0-32.772 14.67-32.772 32.772 0 .1.005.195.005.294.157-17.964 14.765-32.476 32.767-32.476z"/>
                    <circle cx="51.5" cy="51.5" r="51.5" fill="url(#wm0tr62ara)"/>
                </g>
            </g>
        </g>
    </g>
</svg>
