<svg xmlns="http://www.w3.org/2000/svg" width="80" height="84" viewBox="0 0 80 84">
    <defs>
        <radialGradient id="6gi7dr3tba" cx="14.663%" cy="14.549%" r="99.827%" fx="14.663%" fy="14.549%">
            <stop offset="0%" stop-color="#FFF" stop-opacity=".1"/>
            <stop offset="100%" stop-color="#FFF" stop-opacity="0"/>
        </radialGradient>
    </defs>
    <g fill="none" fill-rule="evenodd">
        <g>
            <g>
                <g fill-rule="nonzero" opacity=".499" transform="translate(-140 -229) translate(140 229)">
                    <circle cx="40" cy="40" r="40" fill="#616161"/>
                    <path fill="#9E9E9E" d="M40.253 65.454C26.104 65.454 14.638 54.06 14.638 40s11.466-25.454 25.615-25.454c7.07 0 13.473 2.85 18.112 7.456l10.35-10.286C61.43 4.477 51.365 0 40.253 0 18.02 0 0 17.908 0 40s18.021 40 40.253 40c11.115 0 21.177-4.477 28.465-11.713l-10.35-10.285c-4.642 4.602-11.045 7.452-18.115 7.452z"/>
                    <path fill="#424242" d="M66.667 40.286H53.674c0-6.952-5.817-12.594-12.992-12.594-7.176 0-12.99 5.639-12.99 12.594 0 3.387 1.382 6.458 3.63 8.725l-.01.01 16.085 15.591.003.003c11.094-2.87 19.267-12.673 19.267-24.329z"/>
                    <path fill="#616161" d="M80 40H65.714c0 11.805-7.867 21.734-18.535 24.641l11.032 11.256C71.127 69.331 80 55.723 80 40z"/>
                    <path fill="#212121" fill-opacity=".1" d="M40 79.545C17.985 79.545.129 61.86.003 40c0 .077-.003.15-.003.228C0 62.194 17.908 80 40 80s40-17.806 40-39.772c0-.077-.003-.151-.003-.228C79.87 61.86 62.01 79.545 40 79.545z"/>
                    <path fill="#FFF" fill-opacity=".05" d="M47.18 65.277l.346.364c10.45-3.101 18.115-13.193 18.115-25.174V40c0 12.11-7.835 22.295-18.462 25.277z"/>
                    <g>
                        <path fill="#9E9E9E" d="M36.357.022H3.655C1.65.022.023 1.62.023 3.59c0 1.97 1.626 3.567 3.632 3.567h32.7c2.006 0 3.632-1.597 3.632-3.567.003-1.97-1.623-3.568-3.63-3.568z" transform="translate(35.897 35.897)"/>
                        <path fill="#BDBDBD" d="M36.357.022H3.655C1.65.022.023 1.62.023 3.59c0 1.97 1.626 3.567 3.632 3.567h32.7c2.006 0 3.632-1.597 3.632-3.567.003-1.97-1.623-3.568-3.63-3.568z" opacity=".5" transform="translate(35.897 35.897)"/>
                    </g>
                    <g>
                        <g fill="#BDBDBD" transform="translate(4.545 4.545)">
                            <circle cx="2.727" cy="35.455" r="2.727"/>
                            <circle cx="35.455" cy="2.727" r="2.727"/>
                            <circle cx="35.455" cy="68.18" r="2.727"/>
                            <circle cx="12.274" cy="12.313" r="2.727"/>
                            <circle cx="12.274" cy="58.637" r="2.727"/>
                        </g>
                        <circle cx="63.181" cy="63.181" r="2.727" fill="#757575"/>
                        <path fill="#FFF" fill-opacity=".2" d="M40 36.819h32.725c1.93 0 3.51 1.508 3.623 3.41.003-.078.013-.152.013-.229 0-2.008-1.628-3.636-3.636-3.636H40c-2.008 0-3.636 1.628-3.636 3.636 0 .077.003.151.013.229.113-1.902 1.69-3.41 3.623-3.41z"/>
                        <path fill="#212121" fill-opacity=".2" d="M76.348 40.226c-.12 1.898-1.695 3.41-3.623 3.41H40c-1.93 0-3.51-1.509-3.623-3.41-.01.077-.013.151-.013.225 0 2.008 1.628 3.636 3.636 3.636h32.725c2.008 0 3.636-1.628 3.636-3.636 0-.074-.003-.148-.013-.225z"/>
                        <path fill="#212121" fill-opacity=".1" d="M40 15c7.027 0 13.39 2.85 17.998 7.456l10.508-10.514c-.077-.077-.151-.155-.226-.229L57.998 21.998C53.39 17.392 47.027 14.543 40 14.543c-14.06 0-25.454 11.394-25.454 25.454 0 .077.004.151.004.229C14.672 26.272 26.018 15 40 15z"/>
                        <circle cx="40" cy="40" r="40" fill="url(#6gi7dr3tba)"/>
                    </g>
                </g>
                <g>
                    <path fill="#06BA61" d="M18.8 3.753c-1.71 0-3.27-.802-4.42-2.054C13.42.655 12.038 0 10.5 0 8.961 0 7.58.655 6.62 1.7 5.47 2.95 3.909 3.752 2.2 3.752h-.45C.784 3.753 0 4.529 0 5.485v5.701C0 18.306 4.065 24.816 10.5 28 16.935 24.815 21 18.306 21 11.186v-5.7c0-.957-.784-1.733-1.75-1.733h-.45z" transform="translate(-140 -229) translate(140 229) translate(59 56)"/>
                    <path stroke="#000" stroke-linecap="round" stroke-linejoin="round" stroke-width="2" d="M6 15.003l2.526 2.737c.333.36.875.344 1.189-.034L16 10" transform="translate(-140 -229) translate(140 229) translate(59 56)"/>
                </g>
            </g>
        </g>
    </g>
</svg>
