<svg width="124" height="227" viewBox="0 0 124 227" fill="none" xmlns="http://www.w3.org/2000/svg">
<rect width="123.039" height="226.034" rx="8" fill="#3C3C47"/>
<rect x="5.45056" y="11" width="112.237" height="209" rx="1" fill="#525261"/>
<path d="M51.7803 5.00014H70.8572" stroke="#525261" stroke-linecap="round" stroke-linejoin="round"/>
<path d="M43.9248 213H79.5359" stroke="#3C3C47" stroke-linecap="round" stroke-linejoin="round"/>
<g opacity="0.6">
<circle cx="62" cy="108" r="28" fill="#616161"/>
<path d="M62.1167 125.818C52.2339 125.818 44.2249 117.842 44.2249 108C44.2249 98.1583 52.2339 90.1824 62.1167 90.1824C67.0558 90.1824 71.5282 92.177 74.7681 95.4011L81.9977 88.2015C76.9091 83.1339 69.8788 80 62.1167 80C46.5879 80 34 92.5357 34 108C34 123.464 46.5879 136 62.1167 136C69.8811 136 76.9091 132.866 82 127.801L74.7703 120.601C71.5282 123.823 67.0558 125.818 62.1167 125.818Z" fill="#9E9E9E"/>
<path d="M80 107.868H70.9992C70.9992 102.973 66.9695 99 61.9985 99C57.0274 99 53 102.97 53 107.868C53 110.253 53.9573 112.415 55.514 114.012L55.5072 114.019L66.6504 124.998L66.6527 125C74.3383 122.979 80 116.076 80 107.868Z" fill="#424242"/>
<path d="M90 108H79.9885C79.9885 116.222 74.4759 123.136 67 125.161L74.731 133C83.7819 128.427 90 118.95 90 108Z" fill="#616161"/>
<path d="M62 135.681C46.5898 135.681 34.0902 123.302 34.0023 108C34.0023 108.054 34 108.105 34 108.159C34 123.536 46.5357 136 62 136C77.4643 136 90 123.536 90 108.159C90 108.105 89.9977 108.054 89.9977 108C89.9098 123.302 77.4079 135.681 62 135.681Z" fill="#212121" fill-opacity="0.1"/>
<path d="M67 125.744L67.2442 126C74.6024 123.823 80 116.738 80 108.328V108C80 116.501 74.4825 123.651 67 125.744Z" fill="white" fill-opacity="0.05"/>
<path d="M84.4502 105.016H61.5587C60.1542 105.016 59.0157 106.128 59.0157 107.5C59.0157 108.872 60.1542 109.985 61.5587 109.985H84.448C85.8525 109.985 86.9909 108.872 86.9909 107.5C86.9932 106.128 85.8547 105.016 84.4502 105.016Z" fill="#9E9E9E"/>
<path opacity="0.5" d="M84.4502 105.016H61.5587C60.1542 105.016 59.0157 106.128 59.0157 107.5C59.0157 108.872 60.1542 109.985 61.5587 109.985H84.448C85.8525 109.985 86.9909 108.872 86.9909 107.5C86.9932 106.128 85.8547 105.016 84.4502 105.016Z" fill="#BDBDBD"/>
<circle cx="39.0901" cy="108.001" r="1.90878" fill="#BDBDBD"/>
<circle cx="62" cy="85.0904" r="1.90878" fill="#BDBDBD"/>
<circle cx="62" cy="130.908" r="1.90878" fill="#BDBDBD"/>
<circle cx="45.773" cy="91.8004" r="1.90878" fill="#BDBDBD"/>
<circle cx="45.773" cy="124.227" r="1.90878" fill="#BDBDBD"/>
<circle cx="78.2269" cy="124.227" r="1.90878" fill="#757575"/>
<path d="M62 105.773H84.9077C86.2591 105.773 87.3647 106.829 87.4437 108.16C87.4459 108.106 87.4527 108.054 87.4527 108C87.4527 106.594 86.3133 105.455 84.9077 105.455H62C60.5944 105.455 59.455 106.594 59.455 108C59.455 108.054 59.4572 108.106 59.464 108.16C59.5429 106.829 60.6463 105.773 62 105.773Z" fill="white" fill-opacity="0.2"/>
<path d="M87.4437 108.158C87.3602 109.487 86.2569 110.545 84.9077 110.545H62C60.6485 110.545 59.5429 109.489 59.464 108.158C59.4572 108.212 59.455 108.264 59.455 108.316C59.455 109.722 60.5944 110.861 62 110.861H84.9077C86.3133 110.861 87.4527 109.722 87.4527 108.316C87.4527 108.264 87.4504 108.212 87.4437 108.158Z" fill="#212121" fill-opacity="0.2"/>
<path d="M61.9999 90.5006C66.9186 90.5006 71.3724 92.4951 74.5988 95.7193L81.9542 88.3594C81.9 88.3053 81.8481 88.2511 81.7962 88.1992L74.5988 95.3989C71.3724 92.1747 66.9186 90.1802 61.9999 90.1802C52.1582 90.1802 44.1824 98.156 44.1824 107.998C44.1824 108.052 44.1846 108.104 44.1846 108.158C44.2704 98.3907 52.2123 90.5006 61.9999 90.5006Z" fill="#212121" fill-opacity="0.1"/>
<circle cx="62" cy="108" r="28" fill="url(#paint0_radial)"/>
</g>
<defs>
<radialGradient id="paint0_radial" cx="0" cy="0" r="1" gradientUnits="userSpaceOnUse" gradientTransform="translate(42.2112 88.1474) scale(55.9033)">
<stop stop-color="white" stop-opacity="0.1"/>
<stop offset="1" stop-color="white" stop-opacity="0.01"/>
</radialGradient>
</defs>
</svg>
