<svg width="124" height="227" viewBox="0 0 124 227" fill="none" xmlns="http://www.w3.org/2000/svg">
<rect width="123.039" height="226.034" rx="8" fill="#3C3C47"/>
<rect x="5.45044" y="11" width="112.237" height="209" rx="1" fill="#525261"/>
<path d="M51.7803 5.00014H70.8572" stroke="#525261" stroke-linecap="round" stroke-linejoin="round"/>
<path d="M43.9248 213H79.5359" stroke="#3C3C47" stroke-linecap="round" stroke-linejoin="round"/>
<rect x="19" y="117" width="86" height="16" rx="4" stroke="#363636" stroke-linecap="round" stroke-linejoin="round"/>
<path d="M29.5811 127H29.1064V123.947C29.1064 123.693 29.1143 123.453 29.1299 123.227C29.0889 123.268 29.043 123.311 28.9922 123.355C28.9414 123.4 28.709 123.591 28.2949 123.927L28.0371 123.593L29.1709 122.717H29.5811V127ZM31.2627 125.169C31.2627 124.327 31.4258 123.698 31.752 123.282C32.0801 122.864 32.5645 122.655 33.2051 122.655C33.4258 122.655 33.5996 122.674 33.7266 122.711V123.13C33.5762 123.081 33.4043 123.057 33.2109 123.057C32.752 123.057 32.4014 123.2 32.1592 123.487C31.917 123.772 31.7842 124.222 31.7607 124.835H31.7959C32.0107 124.499 32.3506 124.331 32.8154 124.331C33.2002 124.331 33.5029 124.447 33.7236 124.68C33.9463 124.912 34.0576 125.228 34.0576 125.626C34.0576 126.071 33.9355 126.422 33.6914 126.678C33.4492 126.932 33.1211 127.059 32.707 127.059C32.2637 127.059 31.9121 126.893 31.6523 126.561C31.3926 126.227 31.2627 125.763 31.2627 125.169ZM32.7012 126.646C32.9785 126.646 33.1934 126.559 33.3457 126.385C33.5 126.209 33.5771 125.956 33.5771 125.626C33.5771 125.343 33.5059 125.12 33.3633 124.958C33.2207 124.796 33.0078 124.715 32.7246 124.715C32.5488 124.715 32.3877 124.751 32.2412 124.823C32.0947 124.896 31.9775 124.995 31.8896 125.122C31.8037 125.249 31.7607 125.381 31.7607 125.518C31.7607 125.719 31.7998 125.906 31.8779 126.08C31.9561 126.254 32.0664 126.392 32.209 126.493C32.3535 126.595 32.5176 126.646 32.7012 126.646ZM34.5996 125.614V125.169H36.0381V125.614H34.5996ZM38.9883 126.569H38.9619C38.7373 126.896 38.4014 127.059 37.9541 127.059C37.5342 127.059 37.207 126.915 36.9727 126.628C36.7402 126.341 36.624 125.933 36.624 125.403C36.624 124.874 36.7412 124.463 36.9756 124.17C37.21 123.877 37.5361 123.73 37.9541 123.73C38.3896 123.73 38.7236 123.889 38.9561 124.205H38.9941L38.9736 123.974L38.9619 123.748V122.441H39.4482V127H39.0527L38.9883 126.569ZM38.0156 126.651C38.3477 126.651 38.5879 126.562 38.7363 126.382C38.8867 126.2 38.9619 125.908 38.9619 125.506V125.403C38.9619 124.948 38.8857 124.624 38.7334 124.431C38.583 124.235 38.3418 124.138 38.0098 124.138C37.7246 124.138 37.5059 124.249 37.3535 124.472C37.2031 124.692 37.1279 125.005 37.1279 125.409C37.1279 125.819 37.2031 126.129 37.3535 126.338C37.5039 126.547 37.7246 126.651 38.0156 126.651ZM40.9688 127H40.4824V123.789H40.9688V127ZM40.4414 122.919C40.4414 122.808 40.4688 122.727 40.5234 122.676C40.5781 122.623 40.6465 122.597 40.7285 122.597C40.8066 122.597 40.874 122.623 40.9307 122.676C40.9873 122.729 41.0156 122.81 41.0156 122.919C41.0156 123.028 40.9873 123.11 40.9307 123.165C40.874 123.218 40.8066 123.244 40.7285 123.244C40.6465 123.244 40.5781 123.218 40.5234 123.165C40.4688 123.11 40.4414 123.028 40.4414 122.919ZM44.6279 123.789V124.097L44.0332 124.167C44.0879 124.235 44.1367 124.325 44.1797 124.437C44.2227 124.546 44.2441 124.67 44.2441 124.809C44.2441 125.123 44.1367 125.374 43.9219 125.562C43.707 125.749 43.4121 125.843 43.0371 125.843C42.9414 125.843 42.8516 125.835 42.7676 125.819C42.5605 125.929 42.457 126.066 42.457 126.232C42.457 126.32 42.4932 126.386 42.5654 126.429C42.6377 126.47 42.7617 126.49 42.9375 126.49H43.5059C43.8535 126.49 44.1201 126.563 44.3057 126.71C44.4932 126.856 44.5869 127.069 44.5869 127.349C44.5869 127.704 44.4443 127.975 44.1592 128.16C43.874 128.348 43.458 128.441 42.9111 128.441C42.4912 128.441 42.167 128.363 41.9385 128.207C41.7119 128.051 41.5986 127.83 41.5986 127.545C41.5986 127.35 41.6611 127.181 41.7861 127.038C41.9111 126.896 42.0869 126.799 42.3135 126.748C42.2314 126.711 42.1621 126.653 42.1055 126.575C42.0508 126.497 42.0234 126.406 42.0234 126.303C42.0234 126.186 42.0547 126.083 42.1172 125.995C42.1797 125.907 42.2783 125.822 42.4131 125.74C42.2471 125.672 42.1113 125.556 42.0059 125.392C41.9023 125.228 41.8506 125.04 41.8506 124.829C41.8506 124.478 41.9561 124.207 42.167 124.018C42.3779 123.826 42.6768 123.73 43.0635 123.73C43.2314 123.73 43.3828 123.75 43.5176 123.789H44.6279ZM42.0674 127.539C42.0674 127.713 42.1406 127.845 42.2871 127.935C42.4336 128.024 42.6436 128.069 42.917 128.069C43.3252 128.069 43.627 128.008 43.8223 127.885C44.0195 127.764 44.1182 127.599 44.1182 127.39C44.1182 127.216 44.0645 127.095 43.957 127.026C43.8496 126.96 43.6475 126.927 43.3506 126.927H42.7676C42.5469 126.927 42.375 126.979 42.252 127.085C42.1289 127.19 42.0674 127.342 42.0674 127.539ZM42.3311 124.817C42.3311 125.042 42.3945 125.212 42.5215 125.327C42.6484 125.442 42.8252 125.5 43.0518 125.5C43.5264 125.5 43.7637 125.27 43.7637 124.809C43.7637 124.326 43.5234 124.085 43.043 124.085C42.8145 124.085 42.6387 124.146 42.5156 124.27C42.3926 124.393 42.3311 124.575 42.3311 124.817ZM45.7734 127H45.2871V123.789H45.7734V127ZM45.2461 122.919C45.2461 122.808 45.2734 122.727 45.3281 122.676C45.3828 122.623 45.4512 122.597 45.5332 122.597C45.6113 122.597 45.6787 122.623 45.7354 122.676C45.792 122.729 45.8203 122.81 45.8203 122.919C45.8203 123.028 45.792 123.11 45.7354 123.165C45.6787 123.218 45.6113 123.244 45.5332 123.244C45.4512 123.244 45.3828 123.218 45.3281 123.165C45.2734 123.11 45.2461 123.028 45.2461 122.919ZM47.8418 126.657C47.9277 126.657 48.0107 126.651 48.0908 126.64C48.1709 126.626 48.2344 126.612 48.2812 126.599V126.971C48.2285 126.996 48.1504 127.017 48.0469 127.032C47.9453 127.05 47.8535 127.059 47.7715 127.059C47.1504 127.059 46.8398 126.731 46.8398 126.077V124.167H46.3799V123.933L46.8398 123.73L47.0449 123.045H47.3262V123.789H48.2578V124.167H47.3262V126.057C47.3262 126.25 47.3721 126.398 47.4639 126.502C47.5557 126.605 47.6816 126.657 47.8418 126.657ZM50.9648 125.356C51.0488 125.237 51.1768 125.081 51.3486 124.888L52.3857 123.789H52.9629L51.6621 125.157L53.0537 127H52.4648L51.3311 125.482L50.9648 125.799V127H50.4844V122.441H50.9648V124.858C50.9648 124.966 50.957 125.132 50.9414 125.356H50.9648ZM54.9932 127.059C54.5186 127.059 54.1436 126.914 53.8682 126.625C53.5947 126.336 53.458 125.935 53.458 125.421C53.458 124.903 53.585 124.492 53.8389 124.188C54.0947 123.883 54.4375 123.73 54.8672 123.73C55.2695 123.73 55.5879 123.863 55.8223 124.129C56.0566 124.393 56.1738 124.741 56.1738 125.175V125.482H53.9619C53.9717 125.859 54.0664 126.146 54.2461 126.341C54.4277 126.536 54.6826 126.634 55.0107 126.634C55.3564 126.634 55.6982 126.562 56.0361 126.417V126.851C55.8643 126.925 55.7012 126.978 55.5469 127.009C55.3945 127.042 55.21 127.059 54.9932 127.059ZM54.8613 124.138C54.6035 124.138 54.3975 124.222 54.2432 124.39C54.0908 124.558 54.001 124.79 53.9736 125.087H55.6523C55.6523 124.78 55.584 124.546 55.4473 124.384C55.3105 124.22 55.1152 124.138 54.8613 124.138ZM56.4961 123.789H57.0176L57.7207 125.62C57.875 126.038 57.9707 126.34 58.0078 126.525H58.0312C58.0566 126.426 58.1094 126.256 58.1895 126.016C58.2715 125.773 58.5371 125.031 58.9863 123.789H59.5078L58.1279 127.445C57.9912 127.807 57.8311 128.062 57.6475 128.213C57.4658 128.365 57.2422 128.441 56.9766 128.441C56.8281 128.441 56.6816 128.425 56.5371 128.392V128.002C56.6445 128.025 56.7646 128.037 56.8975 128.037C57.2314 128.037 57.4697 127.85 57.6123 127.475L57.791 127.018L56.4961 123.789Z" fill="#BFBFBF"/>
<rect x="19" y="89" width="86" height="16" rx="4" stroke="#363636" stroke-linecap="round" stroke-linejoin="round"/>
<path d="M30.4639 99L29.9307 97.6377H28.2139L27.6865 99H27.1826L28.876 94.6992H29.2949L30.9795 99H30.4639ZM29.7754 97.1895L29.2773 95.8623C29.2129 95.6943 29.1465 95.4883 29.0781 95.2441C29.0352 95.4316 28.9736 95.6377 28.8936 95.8623L28.3896 97.1895H29.7754ZM32.7783 99.0586C32.3135 99.0586 31.9531 98.916 31.6973 98.6309C31.4434 98.3438 31.3164 97.9385 31.3164 97.415C31.3164 96.8779 31.4453 96.4629 31.7031 96.1699C31.9629 95.877 32.332 95.7305 32.8105 95.7305C32.9648 95.7305 33.1191 95.7471 33.2734 95.7803C33.4277 95.8135 33.5488 95.8525 33.6367 95.8975L33.4873 96.3105C33.3799 96.2676 33.2627 96.2324 33.1357 96.2051C33.0088 96.1758 32.8965 96.1611 32.7988 96.1611C32.1465 96.1611 31.8203 96.5771 31.8203 97.4092C31.8203 97.8037 31.8994 98.1064 32.0576 98.3174C32.2178 98.5283 32.4541 98.6338 32.7666 98.6338C33.0342 98.6338 33.3086 98.5762 33.5898 98.4609V98.8916C33.375 99.0029 33.1045 99.0586 32.7783 99.0586ZM35.6377 99.0586C35.1729 99.0586 34.8125 98.916 34.5566 98.6309C34.3027 98.3438 34.1758 97.9385 34.1758 97.415C34.1758 96.8779 34.3047 96.4629 34.5625 96.1699C34.8223 95.877 35.1914 95.7305 35.6699 95.7305C35.8242 95.7305 35.9785 95.7471 36.1328 95.7803C36.2871 95.8135 36.4082 95.8525 36.4961 95.8975L36.3467 96.3105C36.2393 96.2676 36.1221 96.2324 35.9951 96.2051C35.8682 96.1758 35.7559 96.1611 35.6582 96.1611C35.0059 96.1611 34.6797 96.5771 34.6797 97.4092C34.6797 97.8037 34.7588 98.1064 34.917 98.3174C35.0771 98.5283 35.3135 98.6338 35.626 98.6338C35.8936 98.6338 36.168 98.5762 36.4492 98.4609V98.8916C36.2344 99.0029 35.9639 99.0586 35.6377 99.0586ZM39.9854 97.3916C39.9854 97.915 39.8535 98.3242 39.5898 98.6191C39.3262 98.9121 38.9619 99.0586 38.4971 99.0586C38.21 99.0586 37.9551 98.9912 37.7324 98.8564C37.5098 98.7217 37.3379 98.5283 37.2168 98.2764C37.0957 98.0244 37.0352 97.7295 37.0352 97.3916C37.0352 96.8682 37.166 96.4609 37.4277 96.1699C37.6895 95.877 38.0527 95.7305 38.5176 95.7305C38.9668 95.7305 39.3232 95.8799 39.5869 96.1787C39.8525 96.4775 39.9854 96.8818 39.9854 97.3916ZM37.5391 97.3916C37.5391 97.8018 37.6211 98.1143 37.7852 98.3291C37.9492 98.5439 38.1904 98.6514 38.5088 98.6514C38.8271 98.6514 39.0684 98.5449 39.2324 98.332C39.3984 98.1172 39.4814 97.8037 39.4814 97.3916C39.4814 96.9834 39.3984 96.6738 39.2324 96.4629C39.0684 96.25 38.8252 96.1436 38.5029 96.1436C38.1846 96.1436 37.9443 96.248 37.7822 96.457C37.6201 96.666 37.5391 96.9775 37.5391 97.3916ZM41.2979 95.7891V97.8721C41.2979 98.1338 41.3574 98.3291 41.4766 98.458C41.5957 98.5869 41.7822 98.6514 42.0361 98.6514C42.3721 98.6514 42.6172 98.5596 42.7715 98.376C42.9277 98.1924 43.0059 97.8926 43.0059 97.4766V95.7891H43.4922V99H43.0908L43.0205 98.5693H42.9941C42.8945 98.7275 42.7559 98.8486 42.5781 98.9326C42.4023 99.0166 42.2012 99.0586 41.9746 99.0586C41.584 99.0586 41.291 98.9658 41.0957 98.7803C40.9023 98.5947 40.8057 98.2979 40.8057 97.8896V95.7891H41.2979ZM46.7236 99V96.9229C46.7236 96.6611 46.6641 96.4658 46.5449 96.3369C46.4258 96.208 46.2393 96.1436 45.9854 96.1436C45.6494 96.1436 45.4033 96.2344 45.2471 96.416C45.0908 96.5977 45.0127 96.8975 45.0127 97.3154V99H44.5264V95.7891H44.9219L45.001 96.2285H45.0244C45.124 96.0703 45.2637 95.9482 45.4434 95.8623C45.623 95.7744 45.8232 95.7305 46.0439 95.7305C46.4307 95.7305 46.7217 95.8242 46.917 96.0117C47.1123 96.1973 47.21 96.4951 47.21 96.9053V99H46.7236ZM49.249 98.6572C49.335 98.6572 49.418 98.6514 49.498 98.6396C49.5781 98.626 49.6416 98.6123 49.6885 98.5986V98.9707C49.6357 98.9961 49.5576 99.0166 49.4541 99.0322C49.3525 99.0498 49.2607 99.0586 49.1787 99.0586C48.5576 99.0586 48.2471 98.7314 48.2471 98.0771V96.167H47.7871V95.9326L48.2471 95.7305L48.4521 95.0449H48.7334V95.7891H49.665V96.167H48.7334V98.0566C48.7334 98.25 48.7793 98.3984 48.8711 98.502C48.9629 98.6055 49.0889 98.6572 49.249 98.6572Z" fill="#BFBFBF"/>
<path d="M106 23.0284L107.889 24.8563L111 20" stroke="#808080" stroke-linecap="round" stroke-linejoin="round"/>
</svg>
