<svg width="48" height="48" viewBox="0 0 48 48" fill="none" xmlns="http://www.w3.org/2000/svg">
<circle cx="24" cy="24" r="24" fill="#3C3C47"/>
<path fill-rule="evenodd" clip-rule="evenodd" d="M22.675 18.3165L17.388 28.2765C17.139 28.7455 17.154 29.2975 17.428 29.7525C17.701 30.2075 18.182 30.4795 18.713 30.4795H29.287C29.819 30.4795 30.299 30.2075 30.572 29.7525C30.847 29.2975 30.862 28.7455 30.612 28.2765L25.325 18.3165C25.061 17.8175 24.565 17.5195 24 17.5195C23.436 17.5195 22.94 17.8175 22.675 18.3165ZM29.287 31.4795H18.713C17.827 31.4795 17.027 31.0265 16.571 30.2675C16.114 29.5095 16.09 28.5895 16.505 27.8075L21.792 17.8475C22.234 17.0165 23.059 16.5195 24 16.5195C24.942 16.5195 25.767 17.0165 26.208 17.8475L31.495 27.8075C31.91 28.5895 31.886 29.5095 31.43 30.2675C30.974 31.0265 30.173 31.4795 29.287 31.4795Z" fill="#F7931A"/>
<path fill-rule="evenodd" clip-rule="evenodd" d="M24.0002 27.5312C23.7242 27.5312 23.5002 27.3073 23.5002 27.0312V21.0312C23.5002 20.7553 23.7242 20.5312 24.0002 20.5312C24.2762 20.5312 24.5002 20.7553 24.5002 21.0312V27.0312C24.5002 27.3073 24.2762 27.5312 24.0002 27.5312Z" fill="#F7931A"/>
<path fill-rule="evenodd" clip-rule="evenodd" d="M24.0002 29.7949C23.7242 29.7949 23.5002 29.5709 23.5002 29.2949V28.9629C23.5002 28.6869 23.7242 28.4629 24.0002 28.4629C24.2762 28.4629 24.5002 28.6869 24.5002 28.9629V29.2949C24.5002 29.5709 24.2762 29.7949 24.0002 29.7949Z" fill="#F7931A"/>
</svg>
