<svg xmlns="http://www.w3.org/2000/svg" width="24" height="24" viewBox="0 0 24 24">
    <defs>

    </defs>
    <g fill="none" fill-rule="evenodd">
        <g>
            <g>
                <path d="M0 0H24V24H0z" transform="translate(-12 -567) translate(12 567)"/>
                <g filter="url(#7cigzq4kha)" transform="translate(-12 -567) translate(12 567)">
                    <g fill="#F49806">
                        <path d="M6.675 2.317l-5.287 9.96c-.249.469-.234 1.02.04 1.476.273.455.754.727 1.285.727h10.574c.532 0 1.012-.272 1.285-.727.275-.455.29-1.007.04-1.476l-5.287-9.96c-.264-.5-.76-.797-1.325-.797-.564 0-1.06.298-1.325.797m6.612 13.163H2.713c-.886 0-1.686-.453-2.142-1.212-.457-.758-.481-1.678-.066-2.46l5.287-9.96C6.234 1.017 7.059.52 8 .52c.942 0 1.767.497 2.208 1.328l5.287 9.96c.415.782.391 1.702-.065 2.46-.456.759-1.257 1.212-2.143 1.212" transform="translate(4 4)"/>
                        <path d="M8 11.531c-.276 0-.5-.224-.5-.5v-6c0-.276.224-.5.5-.5s.5.224.5.5v6c0 .276-.224.5-.5.5M8 13.795c-.276 0-.5-.224-.5-.5v-.332c0-.276.224-.5.5-.5s.5.224.5.5v.332c0 .276-.224.5-.5.5" transform="translate(4 4)"/>
                    </g>
                </g>
            </g>
        </g>
    </g>
</svg>
