<svg width="360" height="447" viewBox="0 0 360 447" fill="none" xmlns="http://www.w3.org/2000/svg">
<g opacity="0.501697">
<path fill-rule="evenodd" clip-rule="evenodd" d="M161.634 -31.6643L75.5347 54.5991C31.6744 98.5432 31.6744 169.783 75.5347 213.727L177.418 315.815C178.618 317.007 180.564 317.007 181.753 315.815L418.979 78.1363C420.903 76.1974 424.212 77.5622 424.212 80.3026V170C424.212 186.29 417.747 201.91 406.254 213.413L181.753 438.354C180.564 439.546 178.618 439.546 177.418 438.354L15.8254 276.442C-62.6085 197.87 -62.6085 70.4566 15.8254 -8.11624L174.358 -167.093C176.272 -169.031 179.58 -167.656 179.58 -164.926V-75.0884C179.58 -58.7976 173.126 -43.1783 161.634 -31.6643Z" fill="#2C2C33"/>
<path fill-rule="evenodd" clip-rule="evenodd" d="M451.259 308.993L542.388 218.288C585.274 175.613 585.274 106.388 542.388 63.7016L435.211 -42.9764C433.999 -44.1832 432.015 -44.1832 430.792 -42.9764L188.939 197.751C186.966 199.715 183.604 198.322 183.604 195.557V104.71C183.604 88.2099 190.184 72.4013 201.911 60.7286L430.792 -167.087C432.015 -168.304 433.999 -168.304 435.211 -167.087L601.796 -1.27719C680.735 77.3051 680.735 204.696 601.796 283.267L438.342 445.972C436.369 447.925 433.018 446.542 433.007 443.778L432.963 353.007C432.952 336.507 439.543 320.666 451.259 308.993Z" fill="#2C2C33"/>
</g>
</svg>
