<svg xmlns="http://www.w3.org/2000/svg" xmlns:xlink="http://www.w3.org/1999/xlink" width="24" height="24" viewBox="0 0 24 24">
  <defs>
    <clipPath id="clip-path">
      <rect id="Rectangle_4136" data-name="Rectangle 4136" width="24" height="24" transform="translate(928.018 540.378)" fill="#ff9c28"/>
    </clipPath>
  </defs>
  <g id="Group_7938" data-name="Group 7938" transform="translate(-928.018 -540.378)">
    <g id="Group_7777" data-name="Group 7777" clip-path="url(#clip-path)">
      <g id="Group_7776" data-name="Group 7776">
        <g id="Group_7773" data-name="Group 7773">
          <path id="Path_7280" data-name="Path 7280" d="M945.3,559.858H934.731a2.5,2.5,0,0,1-2.208-3.672l5.287-9.96h0a2.5,2.5,0,0,1,4.416,0l5.287,9.96a2.5,2.5,0,0,1-2.208,3.672ZM938.693,546.7l-5.287,9.96a1.5,1.5,0,0,0,1.325,2.2H945.3a1.5,1.5,0,0,0,1.325-2.2l-5.287-9.96a1.5,1.5,0,0,0-2.65,0Z" fill="#ff9c28"/>
        </g>
        <g id="Group_7774" data-name="Group 7774">
          <path id="Path_7281" data-name="Path 7281" d="M940.018,555.91a.5.5,0,0,1-.5-.5v-6a.5.5,0,0,1,1,0v6A.5.5,0,0,1,940.018,555.91Z" fill="#ff9c28"/>
        </g>
        <g id="Group_7775" data-name="Group 7775">
          <path id="Path_7282" data-name="Path 7282" d="M940.018,558.173a.5.5,0,0,1-.5-.5v-.332a.5.5,0,0,1,1,0v.332A.5.5,0,0,1,940.018,558.173Z" fill="#ff9c28"/>
        </g>
      </g>
    </g>
  </g>
</svg>
