<svg xmlns="http://www.w3.org/2000/svg" xmlns:xlink="http://www.w3.org/1999/xlink" width="24" height="24" viewBox="0 0 24 24">
  <defs>
    <clipPath id="clip-path">
      <rect id="Rectangle_4144" data-name="Rectangle 4144" width="24" height="24" fill="#818181"/>
    </clipPath>
  </defs>
  <g id="Group_7790" data-name="Group 7790" clip-path="url(#clip-path)">
    <path id="Path_7287" data-name="Path 7287" d="M942.231,476.977h-4v-.683a1.5,1.5,0,0,0-1.5-1.5h-3a1.5,1.5,0,0,0-1.5,1.5v.683h-4a1.5,1.5,0,0,0-1.5,1.5V482.7a1.48,1.48,0,0,0,.5,1.092v4.689a1.5,1.5,0,0,0,1.5,1.5h13a1.5,1.5,0,0,0,1.5-1.5v-4.689a1.48,1.48,0,0,0,.5-1.092v-4.219A1.5,1.5,0,0,0,942.231,476.977Zm-9-.683a.5.5,0,0,1,.5-.5h3a.5.5,0,0,1,.5.5v.683h-4Zm-5.5,2.183a.5.5,0,0,1,.5-.5h14a.5.5,0,0,1,.5.5V482.7a.5.5,0,0,1-.379.486l-6.726,1.681a1.653,1.653,0,0,1-.791,0l-6.725-1.681a.5.5,0,0,1-.379-.486Zm14,10.5h-13a.5.5,0,0,1-.5-.5v-4.235l6.362,1.59a2.615,2.615,0,0,0,1.276,0l6.362-1.59v4.235A.5.5,0,0,1,941.731,488.977Z" transform="translate(-923.231 -470.386)" fill="#818181"/>
  </g>
</svg>
