<svg xmlns="http://www.w3.org/2000/svg" width="17" height="17" viewBox="0 0 17 17">
  <g id="Group_7832" data-name="Group 7832" transform="translate(-1190.577 -507.837)">
    <path id="Path_7292" data-name="Path 7292" d="M1206.077,508.837H1203.6v-.5a.5.5,0,0,0-1,0v.5h-3.027v-.5a.5.5,0,0,0-1,0v.5h-3v-.5a.5.5,0,0,0-1,0v.5h-2.5a1.5,1.5,0,0,0-1.5,1.5v12a2.5,2.5,0,0,0,2.5,2.5h12a2.5,2.5,0,0,0,2.5-2.5v-12A1.5,1.5,0,0,0,1206.077,508.837Zm-14,1h2.5v.5a.5.5,0,0,0,1,0v-.5h3v.5a.5.5,0,0,0,1,0v-.5h3.027v.5a.5.5,0,0,0,1,0v-.5h2.473a.5.5,0,0,1,.5.5v1.5h-15v-1.5A.5.5,0,0,1,1192.077,509.837Zm13,14h-12a1.5,1.5,0,0,1-1.5-1.5v-9.5h15v9.5A1.5,1.5,0,0,1,1205.077,523.837Z" fill="#818181"/>
    <path id="Path_7293" data-name="Path 7293" d="M1196.1,515.836h-2a.5.5,0,0,0,0,1h2a.5.5,0,0,0,0-1Z" fill="#818181"/>
    <path id="Path_7294" data-name="Path 7294" d="M1200.1,515.836h-2a.5.5,0,0,0,0,1h2a.5.5,0,0,0,0-1Z" fill="#818181"/>
    <path id="Path_7295" data-name="Path 7295" d="M1204.1,515.836h-2a.5.5,0,0,0,0,1h2a.5.5,0,0,0,0-1Z" fill="#818181"/>
    <path id="Path_7296" data-name="Path 7296" d="M1196.1,519.837h-2a.5.5,0,0,0,0,1h2a.5.5,0,0,0,0-1Z" fill="#818181"/>
    <path id="Path_7297" data-name="Path 7297" d="M1200.1,519.837h-2a.5.5,0,0,0,0,1h2a.5.5,0,0,0,0-1Z" fill="#818181"/>
    <path id="Path_7298" data-name="Path 7298" d="M1204.1,519.837h-2a.5.5,0,0,0,0,1h2a.5.5,0,0,0,0-1Z" fill="#818181"/>
  </g>
</svg>
