<svg id="Group_8479" data-name="Group 8479" xmlns="http://www.w3.org/2000/svg" width="236.483" height="10" viewBox="0 0 236.483 10">
  <path id="Path_7488" data-name="Path 7488" d="M4.76-8.21a1.2,1.2,0,0,0-.99.425,1.81,1.81,0,0,0-.347,1.177A1.886,1.886,0,0,0,3.75-5.393a1.222,1.222,0,0,0,1,.4,3.47,3.47,0,0,0,1.085-.22v.605a4.462,4.462,0,0,1-.506.166,2.456,2.456,0,0,1-.619.068,1.964,1.964,0,0,1-1.532-.588,2.355,2.355,0,0,1-.535-1.643A2.263,2.263,0,0,1,3.21-8.229a2.031,2.031,0,0,1,1.55-.6,2.873,2.873,0,0,1,1.265.293l-.3.576A2.428,2.428,0,0,0,4.76-8.21ZM.684-6.608A3.492,3.492,0,0,1,1.2-8.439,3.681,3.681,0,0,1,2.611-9.787a3.968,3.968,0,0,1,1.938-.493,3.979,3.979,0,0,1,1.928.488A3.683,3.683,0,0,1,7.9-8.449a3.483,3.483,0,0,1,.519,1.841,3.5,3.5,0,0,1-.5,1.807,3.7,3.7,0,0,1-1.4,1.353,3.937,3.937,0,0,1-1.969.508,3.942,3.942,0,0,1-1.964-.505,3.7,3.7,0,0,1-1.4-1.35A3.49,3.49,0,0,1,.684-6.608Zm.54,0a2.985,2.985,0,0,0,.447,1.58A3.191,3.191,0,0,0,2.891-3.872a3.406,3.406,0,0,0,1.658.422,3.368,3.368,0,0,0,1.66-.425,3.27,3.27,0,0,0,1.216-1.15,2.949,2.949,0,0,0,.45-1.584,2.957,2.957,0,0,0-.447-1.577A3.268,3.268,0,0,0,6.217-9.34a3.358,3.358,0,0,0-1.668-.427,3.368,3.368,0,0,0-1.66.425,3.27,3.27,0,0,0-1.216,1.15A2.949,2.949,0,0,0,1.223-6.608ZM16.789-3.039h-4.94v-.7l1.979-1.89a14.123,14.123,0,0,0,1.193-1.24,3.126,3.126,0,0,0,.432-.723,1.978,1.978,0,0,0,.144-.757,1.168,1.168,0,0,0-.365-.906,1.443,1.443,0,0,0-1.013-.334,2.667,2.667,0,0,0-.887.146,3.579,3.579,0,0,0-.933.532l-.452-.552a3.572,3.572,0,0,1,2.262-.82,2.471,2.471,0,0,1,1.66.515,1.73,1.73,0,0,1,.6,1.384,2.574,2.574,0,0,1-.4,1.343,8.646,8.646,0,0,1-1.5,1.68L12.924-3.83v.039h3.866Zm5.9-3.579a5,5,0,0,1-.614,2.764,2.108,2.108,0,0,1-1.879.913,2.088,2.088,0,0,1-1.845-.935,4.9,4.9,0,0,1-.632-2.742,5,5,0,0,1,.612-2.769,2.1,2.1,0,0,1,1.866-.9,2.1,2.1,0,0,1,1.858.942A4.882,4.882,0,0,1,22.685-6.618Zm-4.107,0a5,5,0,0,0,.386,2.268,1.3,1.3,0,0,0,1.229.71,1.3,1.3,0,0,0,1.236-.72,5.034,5.034,0,0,0,.383-2.258,5,5,0,0,0-.383-2.253,1.3,1.3,0,0,0-1.236-.715,1.3,1.3,0,0,0-1.229.706A4.963,4.963,0,0,0,18.578-6.618Zm8.143,3.579h-.833V-8.127s.014-.824.041-1.2q-.108.1-.242.215t-1.223.952l-.452-.557L26-10.178h.72Zm7.634-4.092q0,4.189-3.413,4.189a3.65,3.65,0,0,1-.946-.1v-.7a3.171,3.171,0,0,0,.936.127,2.335,2.335,0,0,0,1.863-.725,3.539,3.539,0,0,0,.686-2.224h-.062a1.806,1.806,0,0,1-.751.618,2.521,2.521,0,0,1-1.054.212A2.182,2.182,0,0,1,30.032-6.3a2.1,2.1,0,0,1-.586-1.582A2.353,2.353,0,0,1,30.1-9.636a2.354,2.354,0,0,1,1.725-.645,2.4,2.4,0,0,1,1.339.374,2.382,2.382,0,0,1,.882,1.089A4.238,4.238,0,0,1,34.355-7.131ZM31.826-9.587a1.443,1.443,0,0,0-1.136.449,1.812,1.812,0,0,0-.4,1.25,1.572,1.572,0,0,0,.37,1.106,1.456,1.456,0,0,0,1.126.4,2.038,2.038,0,0,0,.861-.181,1.537,1.537,0,0,0,.619-.493,1.1,1.1,0,0,0,.226-.654,2.142,2.142,0,0,0-.211-.947,1.673,1.673,0,0,0-.589-.684A1.538,1.538,0,0,0,31.826-9.587Zm12.209-.591v4.619a2.45,2.45,0,0,1-.776,1.919,3.074,3.074,0,0,1-2.133.7,2.936,2.936,0,0,1-2.1-.7,2.535,2.535,0,0,1-.743-1.934v-4.6h.874V-5.52a1.783,1.783,0,0,0,.514,1.372,2.143,2.143,0,0,0,1.511.479,2.064,2.064,0,0,0,1.465-.481,1.8,1.8,0,0,0,.514-1.379v-4.648Zm7.7,7.139h-1L46.626-9.03h-.041q.082,1.055.082,1.934v4.058H45.86v-7.139h.987l4.1,5.967h.041q-.01-.132-.046-.847t-.026-1.023v-4.1h.817Zm1.9,0v-7.139h.874v7.139Zm5.084,0h-.874v-6.4h-2.38v-.737H61.1v.737h-2.38Zm7.536,0H62.063v-7.139h4.189v.737H62.937v2.3h3.115v.732H62.937v2.627h3.316Zm7.5-3.638a3.5,3.5,0,0,1-1.01,2.7,4.128,4.128,0,0,1-2.907.935H67.754v-7.139h2.3a3.8,3.8,0,0,1,2.724.923A3.385,3.385,0,0,1,73.753-6.677Zm-.925.029a2.786,2.786,0,0,0-.738-2.1A3.052,3.052,0,0,0,69.9-9.46h-1.27v5.7h1.064a3.344,3.344,0,0,0,2.349-.73A2.806,2.806,0,0,0,72.828-6.647Zm2.437-3.53h2.123a4.181,4.181,0,0,1,2.164.425A1.475,1.475,0,0,1,80.22-8.41a1.5,1.5,0,0,1-.373,1.047,1.826,1.826,0,0,1-1.087.535v.049q1.712.278,1.712,1.709a1.8,1.8,0,0,1-.681,1.494,3.006,3.006,0,0,1-1.9.537H75.265Zm.874,3.057h1.439A2.443,2.443,0,0,0,78.909-7.4a1.042,1.042,0,0,0,.406-.93.928.928,0,0,0-.452-.867,2.953,2.953,0,0,0-1.439-.266H76.138Zm0,.7v2.671h1.568a2.322,2.322,0,0,0,1.37-.334,1.208,1.208,0,0,0,.46-1.047,1.089,1.089,0,0,0-.47-.977,2.62,2.62,0,0,0-1.432-.312Zm5.783,3.379v-7.139H82.8v7.139Zm5.084,0h-.874v-6.4h-2.38v-.737h5.634v.737h-2.38Zm10.107,0H92.923v-7.139h4.189v.737H93.8v2.3h3.115v.732H93.8v2.627h3.316Zm6.5,0h-.992l-2.02-3.14-2.056,3.14h-.925l2.5-3.73-2.329-3.408h.966l1.866,2.827,1.881-2.827h.93L101.107-6.8Zm3.917-6.5a2.52,2.52,0,0,0-1.956.784,3.058,3.058,0,0,0-.717,2.146,3.116,3.116,0,0,0,.691,2.166,2.522,2.522,0,0,0,1.971.764,7.059,7.059,0,0,0,1.794-.269v.728a5.791,5.791,0,0,1-1.928.278,3.351,3.351,0,0,1-2.563-.957,3.813,3.813,0,0,1-.9-2.72,4.113,4.113,0,0,1,.434-1.934,3.029,3.029,0,0,1,1.254-1.279,3.956,3.956,0,0,1,1.93-.449,4.866,4.866,0,0,1,2.066.41l-.37.713A4.157,4.157,0,0,0,107.533-9.538Zm8.965,6.5h-.874V-6.4h-3.958v3.359h-.874v-7.139h.874v3.037h3.958v-3.037h.874Zm6.621,0-.936-2.271h-3.012l-.925,2.271h-.884l2.971-7.168h.735l2.956,7.168Zm-1.208-3.018-.874-2.212q-.17-.42-.35-1.03a8.9,8.9,0,0,1-.324,1.03l-.884,2.212Zm8.852,3.018h-1L125.659-9.03h-.041q.082,1.055.082,1.934v4.058h-.807v-7.139h.987l4.1,5.967h.041q-.01-.132-.046-.847t-.026-1.023v-4.1h.817Zm5.208-3.74h2.555v3.472a8.578,8.578,0,0,1-1.213.273,9.715,9.715,0,0,1-1.429.093,3.564,3.564,0,0,1-2.658-.964,3.684,3.684,0,0,1-.951-2.7,3.917,3.917,0,0,1,.47-1.951A3.107,3.107,0,0,1,134.1-9.838a4.58,4.58,0,0,1,2.072-.442,5.921,5.921,0,0,1,2.241.42l-.339.732a5.231,5.231,0,0,0-1.959-.41,2.886,2.886,0,0,0-2.144.776,2.922,2.922,0,0,0-.771,2.153,2.982,2.982,0,0,0,.743,2.192,2.948,2.948,0,0,0,2.182.747,6.81,6.81,0,0,0,1.527-.171v-2.2h-1.681Zm8.384,3.74h-4.189v-7.139h4.189v.737H141.04v2.3h3.115v.732H141.04v2.627h3.316Zm1.249-.518a.7.7,0,0,1,.157-.5.584.584,0,0,1,.45-.168.626.626,0,0,1,.465.168.675.675,0,0,1,.167.5.664.664,0,0,1-.17.488.623.623,0,0,1-.463.171.628.628,0,0,1-.434-.154A.648.648,0,0,1,145.6-3.557Zm10.184.518-.936-2.271H151.84l-.925,2.271h-.884L153-10.207h.735l2.956,7.168ZM154.58-6.057l-.874-2.212q-.17-.42-.35-1.03a8.909,8.909,0,0,1-.324,1.03l-.884,2.212Zm3.707,3.018h-.853v-7.6h.853Zm2.5,0h-.853v-7.6h.853Zm6.786-5.449a3.51,3.51,0,0,1,.673.059l-.118.752a3.053,3.053,0,0,0-.617-.073,1.534,1.534,0,0,0-1.169.527,1.865,1.865,0,0,0-.486,1.313v2.871H165V-8.391h.7l.1.991h.041a2.4,2.4,0,0,1,.756-.806A1.765,1.765,0,0,1,167.571-8.488Zm2.416,5.449h-.853V-8.391h.853Zm-.925-6.8a.522.522,0,0,1,.144-.408.518.518,0,0,1,.36-.129.518.518,0,0,1,.355.132.514.514,0,0,1,.149.405.521.521,0,0,1-.149.408.512.512,0,0,1-.355.134.507.507,0,0,1-.36-.134A.532.532,0,0,1,169.062-9.841Zm7.181,1.45v.513l-1.044.117a1.68,1.68,0,0,1,.257.447,1.628,1.628,0,0,1,.113.623A1.547,1.547,0,0,1,175-5.437a2.361,2.361,0,0,1-1.552.469,2.718,2.718,0,0,1-.473-.039q-.545.273-.545.688a.347.347,0,0,0,.19.325,1.454,1.454,0,0,0,.653.1h1a2.32,2.32,0,0,1,1.406.366,1.246,1.246,0,0,1,.491,1.064,1.5,1.5,0,0,1-.751,1.355,4.189,4.189,0,0,1-2.19.466,3.116,3.116,0,0,1-1.7-.391,1.244,1.244,0,0,1-.6-1.1,1.2,1.2,0,0,1,.329-.845,1.7,1.7,0,0,1,.925-.483.883.883,0,0,1-.362-.288.736.736,0,0,1-.146-.454.832.832,0,0,1,.164-.513,1.706,1.706,0,0,1,.519-.425,1.5,1.5,0,0,1-.712-.581,1.644,1.644,0,0,1-.275-.937,1.688,1.688,0,0,1,.555-1.355,2.345,2.345,0,0,1,1.573-.476,3,3,0,0,1,.8.1Zm-4.493,6.25a.719.719,0,0,0,.386.659,2.221,2.221,0,0,0,1.105.225,3.22,3.22,0,0,0,1.591-.305.928.928,0,0,0,.517-.828.643.643,0,0,0-.283-.6A2.3,2.3,0,0,0,174-3.161h-1.023a1.4,1.4,0,0,0-.9.264A.92.92,0,0,0,171.751-2.141Zm.463-4.536a1.061,1.061,0,0,0,.334.85,1.38,1.38,0,0,0,.93.288q1.249,0,1.249-1.152,0-1.206-1.265-1.206a1.292,1.292,0,0,0-.925.308A1.2,1.2,0,0,0,172.214-6.677Zm8.878,3.638V-6.5a1.351,1.351,0,0,0-.314-.977A1.318,1.318,0,0,0,179.8-7.8a1.655,1.655,0,0,0-1.3.459,2.24,2.24,0,0,0-.409,1.5v2.8h-.853v-7.6h.853v2.3a4.765,4.765,0,0,1-.041.688h.051a1.713,1.713,0,0,1,.717-.608,2.434,2.434,0,0,1,1.062-.222,2.249,2.249,0,0,1,1.55.466,1.9,1.9,0,0,1,.517,1.482v3.491Zm4.262-.571a2.932,2.932,0,0,0,.437-.032,2.96,2.96,0,0,0,.334-.066v.62a1.625,1.625,0,0,1-.409.1,3.227,3.227,0,0,1-.486.042A1.445,1.445,0,0,1,183.6-4.577V-7.761h-.807v-.391l.807-.337.36-1.143h.493v1.24h1.635v.63h-1.635v3.149a1.048,1.048,0,0,0,.242.742A.863.863,0,0,0,185.353-3.61ZM190.72-4.5a1.318,1.318,0,0,1-.586,1.152,2.865,2.865,0,0,1-1.645.405,3.736,3.736,0,0,1-1.748-.337V-4.03a4.37,4.37,0,0,0,.871.308,3.819,3.819,0,0,0,.9.112,2.124,2.124,0,0,0,1.028-.2.664.664,0,0,0,.36-.618.66.66,0,0,0-.285-.535A4.582,4.582,0,0,0,188.5-5.49a6.187,6.187,0,0,1-1.118-.486,1.49,1.49,0,0,1-.493-.471,1.18,1.18,0,0,1-.162-.63,1.184,1.184,0,0,1,.56-1.033,2.716,2.716,0,0,1,1.537-.378,4.7,4.7,0,0,1,1.779.352l-.3.659a4.265,4.265,0,0,0-1.537-.332,1.846,1.846,0,0,0-.915.181.555.555,0,0,0-.308.5.585.585,0,0,0,.116.366,1.131,1.131,0,0,0,.373.288,8.569,8.569,0,0,0,.987.4,3.745,3.745,0,0,1,1.355.7A1.2,1.2,0,0,1,190.72-4.5Zm6.364-3.989a3.51,3.51,0,0,1,.673.059l-.118.752a3.053,3.053,0,0,0-.617-.073,1.534,1.534,0,0,0-1.169.527,1.865,1.865,0,0,0-.486,1.313v2.871h-.853V-8.391h.7l.1.991h.041a2.4,2.4,0,0,1,.756-.806A1.765,1.765,0,0,1,197.084-8.488Zm3.732,5.547a2.663,2.663,0,0,1-1.971-.723,2.713,2.713,0,0,1-.722-2.007,3,3,0,0,1,.671-2.056,2.28,2.28,0,0,1,1.8-.762,2.18,2.18,0,0,1,1.676.662,2.457,2.457,0,0,1,.617,1.746v.513h-3.881a2.056,2.056,0,0,0,.5,1.431,1.783,1.783,0,0,0,1.339.488,4.743,4.743,0,0,0,1.8-.361v.723a4.686,4.686,0,0,1-.856.266A5.057,5.057,0,0,1,200.817-2.941Zm-.231-4.868a1.431,1.431,0,0,0-1.082.42,1.883,1.883,0,0,0-.475,1.162h2.945a1.721,1.721,0,0,0-.36-1.174A1.3,1.3,0,0,0,200.585-7.81ZM207.813-4.5a1.318,1.318,0,0,1-.586,1.152,2.865,2.865,0,0,1-1.645.405,3.736,3.736,0,0,1-1.748-.337V-4.03a4.369,4.369,0,0,0,.871.308,3.82,3.82,0,0,0,.9.112,2.124,2.124,0,0,0,1.028-.2.664.664,0,0,0,.36-.618.66.66,0,0,0-.285-.535,4.581,4.581,0,0,0-1.113-.525,6.187,6.187,0,0,1-1.118-.486,1.49,1.49,0,0,1-.493-.471,1.18,1.18,0,0,1-.162-.63,1.184,1.184,0,0,1,.56-1.033,2.716,2.716,0,0,1,1.537-.378,4.7,4.7,0,0,1,1.779.352l-.3.659a4.265,4.265,0,0,0-1.537-.332,1.846,1.846,0,0,0-.915.181.555.555,0,0,0-.308.5.585.585,0,0,0,.116.366,1.131,1.131,0,0,0,.373.288,8.568,8.568,0,0,0,.987.4,3.744,3.744,0,0,1,1.355.7A1.2,1.2,0,0,1,207.813-4.5Zm3.6,1.558a2.663,2.663,0,0,1-1.971-.723,2.713,2.713,0,0,1-.722-2.007,3,3,0,0,1,.671-2.056,2.28,2.28,0,0,1,1.8-.762,2.18,2.18,0,0,1,1.676.662,2.457,2.457,0,0,1,.617,1.746v.513h-3.881a2.056,2.056,0,0,0,.5,1.431,1.783,1.783,0,0,0,1.339.488,4.743,4.743,0,0,0,1.8-.361v.723a4.686,4.686,0,0,1-.856.266A5.057,5.057,0,0,1,211.417-2.941Zm-.231-4.868a1.431,1.431,0,0,0-1.082.42,1.883,1.883,0,0,0-.475,1.162h2.945a1.721,1.721,0,0,0-.36-1.174A1.3,1.3,0,0,0,211.185-7.81Zm6.164-.679a3.51,3.51,0,0,1,.673.059l-.118.752a3.053,3.053,0,0,0-.617-.073,1.534,1.534,0,0,0-1.169.527,1.865,1.865,0,0,0-.486,1.313v2.871h-.853V-8.391h.7l.1.991h.041a2.4,2.4,0,0,1,.756-.806A1.765,1.765,0,0,1,217.349-8.488Zm2.8,5.449-2.138-5.352h.915l1.213,3.174a14.478,14.478,0,0,1,.483,1.445h.041a10.523,10.523,0,0,1,.357-1.072q.3-.813,1.349-3.547h.915l-2.138,5.352Zm6.256.1a2.663,2.663,0,0,1-1.971-.723,2.713,2.713,0,0,1-.722-2.007,3,3,0,0,1,.671-2.056,2.28,2.28,0,0,1,1.8-.762,2.18,2.18,0,0,1,1.676.662,2.457,2.457,0,0,1,.617,1.746v.513h-3.881a2.056,2.056,0,0,0,.5,1.431,1.783,1.783,0,0,0,1.339.488,4.743,4.743,0,0,0,1.8-.361v.723a4.686,4.686,0,0,1-.856.266A5.057,5.057,0,0,1,226.4-2.941Zm-.231-4.868a1.431,1.431,0,0,0-1.082.42,1.883,1.883,0,0,0-.475,1.162h2.945A1.721,1.721,0,0,0,227.2-7.4,1.3,1.3,0,0,0,226.171-7.81ZM233.6-3.757h-.046a2.042,2.042,0,0,1-1.768.815,2.141,2.141,0,0,1-1.719-.718A3.049,3.049,0,0,1,229.45-5.7a3.1,3.1,0,0,1,.617-2.056,2.123,2.123,0,0,1,1.717-.732,2.09,2.09,0,0,1,1.758.791h.067l-.036-.386-.021-.376v-2.178h.853v7.6h-.694Zm-1.707.137a1.6,1.6,0,0,0,1.267-.452,2.2,2.2,0,0,0,.393-1.458V-5.7a2.581,2.581,0,0,0-.4-1.624,1.552,1.552,0,0,0-1.272-.486,1.328,1.328,0,0,0-1.149.554,2.649,2.649,0,0,0-.4,1.565,2.54,2.54,0,0,0,.4,1.548A1.367,1.367,0,0,0,231.892-3.62Zm4.036.063a.7.7,0,0,1,.157-.5.584.584,0,0,1,.45-.168.626.626,0,0,1,.465.168.675.675,0,0,1,.167.5.664.664,0,0,1-.17.488.623.623,0,0,1-.463.171.628.628,0,0,1-.434-.154A.648.648,0,0,1,235.928-3.557Z" transform="translate(-0.684 10.637)" fill="#818181"/>
</svg>
