<svg class="MuiSvgIcon-root" focusable="false" viewBox="0 0 24 24" aria-hidden="true" role="presentation"><defs><clipPath id="clip-path"><rect id="Rectangle_4444" data-name="Rectangle 4444" width="24" height="24" transform="translate(-3.5 -3.5)"></rect></clipPath></defs><g id="Layer_2" data-name="Layer 2" transform="translate(3.5 3.5)"><g id="Layer_2-2" data-name="Layer 2"><g id="Group_8560" data-name="Group 8560"><path id="Path_7623" data-name="Path 7623" d="M13.31,20.5A9.79,9.79,0,0,1,3.5,10.65a9.91,9.91,0,0,1,2.93-7,.5.5,0,0,1,.85.42,10.62,10.62,0,0,0,2.14,8.5c2.2,2.58,5.87,4,10.6,4.16a.5.5,0,0,1,.34.85,9.91,9.91,0,0,1-7,2.93ZM6.16,5.5A8.9,8.9,0,0,0,4.5,10.65a8.75,8.75,0,0,0,2.58,6.27,8.88,8.88,0,0,0,11.67.73c-4.43-.35-7.91-1.87-10.1-4.44a11.08,11.08,0,0,1-2.49-7.7Z" transform="translate(-3.5 -3.5)"></path></g></g></g></svg>