<svg xmlns="http://www.w3.org/2000/svg" xmlns:xlink="http://www.w3.org/1999/xlink" width="24" height="24" viewBox="0 0 24 24">
  <defs>
    <clipPath id="clip-path">
      <rect id="Rectangle_4067" data-name="Rectangle 4067" width="24" height="24" transform="translate(1256.673 510.131)" fill="#818181"/>
    </clipPath>
  </defs>
  <g id="Group_7652" data-name="Group 7652" transform="translate(-1256.673 -510.131)">
    <g id="Group_7651" data-name="Group 7651" clip-path="url(#clip-path)">
      <g id="Group_7650" data-name="Group 7650">
        <path id="Path_7222" data-name="Path 7222" d="M1273.613,517.631a.5.5,0,0,0-.5.5v11a.5.5,0,0,1-.5.5h-8a.5.5,0,0,1-.5-.5v-11a.5.5,0,0,0-1,0v11a1.5,1.5,0,0,0,1.5,1.5h8a1.5,1.5,0,0,0,1.5-1.5v-11A.5.5,0,0,0,1273.613,517.631Z" fill="#818181"/>
        <path id="Path_7223" data-name="Path 7223" d="M1274.673,515.631h-2.56v-.5a1.5,1.5,0,0,0-1.5-1.5h-4a1.5,1.5,0,0,0-1.5,1.5v.5h-2.44a.5.5,0,0,0,0,1h12a.5.5,0,0,0,0-1Zm-8.56-.5a.5.5,0,0,1,.5-.5h4a.5.5,0,0,1,.5.5v.5h-5Z" fill="#818181"/>
        <path id="Path_7224" data-name="Path 7224" d="M1270.78,528.323v-9a.5.5,0,0,0-1,0v9a.5.5,0,0,0,1,0Z" fill="#818181"/>
        <path id="Path_7225" data-name="Path 7225" d="M1267.447,528.323v-9a.5.5,0,0,0-1,0v9a.5.5,0,0,0,1,0Z" fill="#818181"/>
      </g>
    </g>
  </g>
</svg>
