<svg xmlns="http://www.w3.org/2000/svg" width="368.436" height="162" viewBox="0 0 368.436 162">
  <g id="Group_7904" data-name="Group 7904" transform="translate(-1124.949 -388.188)">
    <line id="Line_320" data-name="Line 320" x1="367.436" transform="translate(1125.449 549.688)" fill="none" stroke="#818181" stroke-linecap="round" stroke-linejoin="round" stroke-width="1"/>
    <path id="Rectangle_4201" data-name="Rectangle 4201" d="M4.772,0H215.257a4.772,4.772,0,0,1,4.772,4.772V148.419a0,0,0,0,1,0,0H0a0,0,0,0,1,0,0V4.772A4.772,4.772,0,0,1,4.772,0Z" transform="translate(1193.191 388.688)" fill="none" stroke="#818181" stroke-linecap="round" stroke-linejoin="round" stroke-width="1"/>
    <rect id="Rectangle_4202" data-name="Rectangle 4202" width="201.161" height="130.82" transform="translate(1202.944 396.341)" stroke-width="1" stroke="#818181" stroke-linecap="round" stroke-linejoin="round" fill="none"/>
    <path id="Rectangle_4203" data-name="Rectangle 4203" d="M0,0H261.113a0,0,0,0,1,0,0V6.4a6.18,6.18,0,0,1-6.18,6.18H6.18A6.18,6.18,0,0,1,0,6.4V0A0,0,0,0,1,0,0Z" transform="translate(1173.291 537.107)" fill="none" stroke="#818181" stroke-linecap="round" stroke-linejoin="round" stroke-width="1"/>
    <path id="Rectangle_4204" data-name="Rectangle 4204" d="M0,0H36.4a0,0,0,0,1,0,0V2.724a2.63,2.63,0,0,1-2.63,2.63H2.63A2.63,2.63,0,0,1,0,2.724V0A0,0,0,0,1,0,0Z" transform="translate(1284.973 537.107)" fill="none" stroke="#818181" stroke-linecap="round" stroke-linejoin="round" stroke-width="1"/>
    <g id="Group_7897" data-name="Group 7897" transform="translate(1146.407 476.607)">
      <path id="Path_7324" data-name="Path 7324" d="M1177.285,547.118h-27.323a4.109,4.109,0,0,1-4.109-4.109V504.265a4.108,4.108,0,0,1,4.109-4.109h43.317" transform="translate(-1145.853 -474.192)" fill="none" stroke="#818181" stroke-linecap="round" stroke-linejoin="round" stroke-width="1"/>
      <path id="Rectangle_4205" data-name="Rectangle 4205" d="M17.3,0h.94a17.3,17.3,0,0,1,17.3,17.3v8.664a0,0,0,0,1,0,0H0a0,0,0,0,1,0,0V17.3A17.3,17.3,0,0,1,17.3,0Z" transform="translate(7.998)" fill="none" stroke="#818181" stroke-linecap="round" stroke-linejoin="round" stroke-width="1"/>
      <rect id="Rectangle_4206" data-name="Rectangle 4206" width="7.715" height="7.715" rx="3.755" transform="translate(21.91 45.587)" stroke-width="1" stroke="#818181" stroke-linecap="round" stroke-linejoin="round" fill="none"/>
    </g>
    <g id="Group_7903" data-name="Group 7903" transform="translate(1256.968 445.83)">
      <g id="Group_7899" data-name="Group 7899" transform="translate(61.164)">
        <circle id="Ellipse_241" data-name="Ellipse 241" cx="15.956" cy="15.956" r="15.956" stroke-width="1" stroke="#396de0" stroke-linecap="round" stroke-linejoin="round" fill="none"/>
        <g id="Group_7898" data-name="Group 7898" transform="translate(12.52 8.5)">
          <path id="Path_7325" data-name="Path 7325" d="M1325.879,456.24" transform="translate(-1325.879 -452.767)" fill="none" stroke="#396de0" stroke-linecap="round" stroke-linejoin="round" stroke-width="1"/>
          <path id="Path_7326" data-name="Path 7326" d="M1326.324,460.283v5.63h3.6a2.815,2.815,0,0,0,2.814-2.815h0a2.815,2.815,0,0,0-2.814-2.814Z" transform="translate(-1325.867 -452.657)" fill="none" stroke="#396de0" stroke-linecap="round" stroke-linejoin="round" stroke-width="1"/>
          <path id="Path_7327" data-name="Path 7327" d="M1326.324,454.8v5.63h3.6a2.815,2.815,0,0,0,2.814-2.815h0a2.815,2.815,0,0,0-2.814-2.814Z" transform="translate(-1325.867 -452.806)" fill="none" stroke="#396de0" stroke-linecap="round" stroke-linejoin="round" stroke-width="1"/>
          <line id="Line_321" data-name="Line 321" y1="1.826" transform="translate(3.345 13.255)" fill="none" stroke="#396de0" stroke-linecap="round" stroke-linejoin="round" stroke-width="1"/>
          <line id="Line_322" data-name="Line 322" y1="1.894" transform="translate(3.345)" fill="none" stroke="#396de0" stroke-linecap="round" stroke-linejoin="round" stroke-width="1"/>
        </g>
      </g>
      <g id="Group_7901" data-name="Group 7901">
        <circle id="Ellipse_242" data-name="Ellipse 242" cx="15.956" cy="15.956" r="15.956" stroke-width="1" stroke="#f49806" stroke-linecap="round" stroke-linejoin="round" fill="none"/>
        <g id="Group_7900" data-name="Group 7900" transform="translate(12.461 8.345)">
          <path id="Path_7328" data-name="Path 7328" d="M1266.275,463.363v.273a2.7,2.7,0,0,0,2.7,2.7h1.325a2.96,2.96,0,0,0,2.96-2.96v-.339a2.961,2.961,0,0,0-2.96-2.961h-1.068a2.96,2.96,0,0,1-2.96-2.96h0a2.961,2.961,0,0,1,2.96-2.96h1.325a2.7,2.7,0,0,1,2.7,2.7h0" transform="translate(-1266.275 -452.668)" fill="none" stroke="#f49806" stroke-linecap="round" stroke-linejoin="round" stroke-width="1"/>
          <line id="Line_323" data-name="Line 323" y2="1.49" transform="translate(3.494)" fill="none" stroke="#f49806" stroke-linecap="round" stroke-linejoin="round" stroke-width="1"/>
          <line id="Line_324" data-name="Line 324" y2="1.55" transform="translate(3.494 13.672)" fill="none" stroke="#f49806" stroke-linecap="round" stroke-linejoin="round" stroke-width="1"/>
        </g>
      </g>
      <g id="Group_7902" data-name="Group 7902" transform="translate(35.959 12.395)">
        <line id="Line_325" data-name="Line 325" x2="21.157" transform="translate(0 3.531)" fill="none" stroke="#818181" stroke-linecap="round" stroke-linejoin="round" stroke-width="1"/>
        <path id="Path_7329" data-name="Path 7329" d="M1306.312,456.651l3.531,3.531-3.531,3.531" transform="translate(-1288.686 -456.651)" fill="none" stroke="#818181" stroke-linecap="round" stroke-linejoin="round" stroke-width="1"/>
      </g>
    </g>
    <g id="Group_7905" data-name="Group 7905" transform="translate(1432.636 443.757)">
      <path id="Path_7330" data-name="Path 7330" d="M1471.135,546.87h-20.424a4.553,4.553,0,0,1-4.517-3.994l-3.444-27.87h36.369l-3.468,27.873A4.552,4.552,0,0,1,1471.135,546.87Z" transform="translate(-1437.457 -440.94)" fill="none" stroke="#818181" stroke-linecap="round" stroke-linejoin="round" stroke-width="1"/>
      <rect id="Rectangle_4207" data-name="Rectangle 4207" width="45.519" height="4.552" rx="1.271" transform="translate(0.718 69.516)" stroke-width="1" stroke="#818181" stroke-linecap="round" stroke-linejoin="round" fill="none"/>
      <line id="Line_326" data-name="Line 326" x2="1.771" y2="16.595" transform="translate(13.541 79.54)" fill="none" stroke="#818181" stroke-linecap="round" stroke-linejoin="round" stroke-width="1"/>
      <path id="Path_7331" data-name="Path 7331" d="M1480.073,473.475a28.2,28.2,0,0,0,1.2-10.314,39.8,39.8,0,0,1,.29-8.061c.711-6.157-.724-11.126-3.862-12.052s-7.014,2.445-9.757,7.966a20.316,20.316,0,0,1-3.833,5.3,25.937,25.937,0,0,0-5.846,10.731,32.051,32.051,0,0,0-1,4.6,34.03,34.03,0,0,1-2.806,9.515,32.269,32.269,0,0,0-1.651,4.4c-2.489,8.443-.268,13.293,2.763,17.431,1.325,1.81,2.942.983,5.063,1.269,1.153.155,2.533,1.9,3.916,1.681,4.252-.678,7.581-5.506,10.071-13.949a32.62,32.62,0,0,0,.925-4.072,42.587,42.587,0,0,1,3.1-10.521A32.619,32.619,0,0,0,1480.073,473.475Z" transform="translate(-1437.214 -442.898)" fill="none" stroke="#818181" stroke-linecap="round" stroke-linejoin="round" stroke-width="1"/>
      <path id="Path_7332" data-name="Path 7332" d="M1461.331,511.913s-5.777-25.542,10.057-52.442" transform="translate(-1436.981 -442.448)" fill="none" stroke="#818181" stroke-linecap="round" stroke-linejoin="round" stroke-width="1"/>
      <path id="Path_7333" data-name="Path 7333" d="M1453.975,500.729c-4.873,0-8.03-5.118-10.191-12.448a28.24,28.24,0,0,1-.8-3.534,37.005,37.005,0,0,0-2.694-9.134,28.339,28.339,0,0,1-1.243-3.405,24.483,24.483,0,0,1-1.039-8.954,34.488,34.488,0,0,0-.252-7c-.616-5.345.63-9.659,3.353-10.463s6.089,2.122,8.471,6.916a17.633,17.633,0,0,0,3.326,4.6c1.631,1.64,4.6,6.7,5.743,9.661" transform="translate(-1437.597 -442.823)" fill="none" stroke="#818181" stroke-linecap="round" stroke-linejoin="round" stroke-width="1"/>
      <path id="Path_7334" data-name="Path 7334" d="M1453.743,482.616c-1.842-6.2-4.156-13.88-7.618-17.842" transform="translate(-1437.366 -442.304)" fill="none" stroke="#818181" stroke-linecap="round" stroke-linejoin="round" stroke-width="1"/>
      <path id="Path_7335" data-name="Path 7335" d="M1458.515,510.726s-.122-.112-1.261-8.2" transform="translate(-1437.064 -441.279)" fill="none" stroke="#818181" stroke-linecap="round" stroke-linejoin="round" stroke-width="1"/>
    </g>
  </g>
</svg>
