<svg xmlns="http://www.w3.org/2000/svg" xmlns:xlink="http://www.w3.org/1999/xlink" width="386.648" height="415.017" viewBox="0 0 386.648 415.017">
  <defs>
    <linearGradient id="linear-gradient" x1="0.047" y1="0.289" x2="0.953" y2="0.711" gradientUnits="objectBoundingBox">
      <stop offset="0" stop-color="#fff" stop-opacity="0.2"/>
      <stop offset="1" stop-color="#fff" stop-opacity="0"/>
    </linearGradient>
  </defs>
  <g id="Group_7597" data-name="Group 7597" transform="translate(-1506.115 -564.818)">
    <line id="Line_207" data-name="Line 207" x1="348.5" transform="translate(1513.031 979.335)" fill="none" stroke="#818181" stroke-linecap="round" stroke-linejoin="round" stroke-width="1"/>
    <g id="Group_7595" data-name="Group 7595" transform="translate(526.627 -37.856)">
      <g id="Group_7590" data-name="Group 7590" transform="translate(1067.904 678.191)">
        <rect id="Rectangle_4056" data-name="Rectangle 4056" width="185" height="339" rx="8" fill="none" stroke="#818181" stroke-linecap="round" stroke-linejoin="round" stroke-width="1"/>
        <rect id="Rectangle_4057" data-name="Rectangle 4057" width="169.014" height="325.506" rx="8" transform="translate(8.451 6.262)" stroke-width="1" stroke="#818181" stroke-linecap="round" stroke-linejoin="round" fill="none"/>
        <line id="Line_268" data-name="Line 268" x2="53.626" transform="translate(66.146 318.842)" fill="none" stroke="#818181" stroke-linecap="round" stroke-linejoin="round" stroke-width="1"/>
      </g>
      <g id="Group_7591" data-name="Group 7591" transform="translate(1118.027 852.919)">
        <path id="Path_7182" data-name="Path 7182" d="M1168.326,767.375a24.517,24.517,0,0,1-18.032-8.468,21.386,21.386,0,0,0-31.659,0,24.515,24.515,0,0,1-18.031,8.468h-1.836a7.138,7.138,0,0,0-7.139,7.139v23.5a77.49,77.49,0,0,0,42.837,69.311,77.493,77.493,0,0,0,42.837-69.311v-23.5a7.14,7.14,0,0,0-7.141-7.139Z" transform="translate(-1091.629 -751.902)" fill="none" stroke="#06ba61" stroke-linecap="round" stroke-linejoin="round" stroke-width="1"/>
        <path id="Path_7183" data-name="Path 7183" d="M1104.348,790.567l11.005,11.005a3.567,3.567,0,0,0,5.178-.137l27.378-30.982" transform="translate(-1077.477 -731.262)" fill="none" stroke="#06ba61" stroke-linecap="round" stroke-linejoin="round" stroke-width="1"/>
      </g>
    </g>
    <g id="Group_7603" data-name="Group 7603" transform="translate(732.532 -37.778)">
      <path id="Path_7190" data-name="Path 7190" d="M1083.974,642.9l-2.05-1.84a.634.634,0,0,0-.477-.161l-2.745.228a.635.635,0,0,1-.525-1.057l1.84-2.05a.633.633,0,0,0,.16-.476l-.228-2.746a.635.635,0,0,1,1.057-.525l2.05,1.84a.637.637,0,0,0,.476.161l2.746-.228a.635.635,0,0,1,.525,1.057l-1.84,2.051a.633.633,0,0,0-.16.476l.228,2.746A.635.635,0,0,1,1083.974,642.9Z" transform="translate(-106.348 14)" fill="none" stroke="#396de0" stroke-linecap="round" stroke-linejoin="round" stroke-width="1"/>
      <path id="Path_7193" data-name="Path 7193" d="M1083.974,642.9l-2.05-1.84a.634.634,0,0,0-.477-.161l-2.745.228a.635.635,0,0,1-.525-1.057l1.84-2.05a.633.633,0,0,0,.16-.476l-.228-2.746a.635.635,0,0,1,1.057-.525l2.05,1.84a.637.637,0,0,0,.476.161l2.746-.228a.635.635,0,0,1,.525,1.057l-1.84,2.051a.633.633,0,0,0-.16.476l.228,2.746A.635.635,0,0,1,1083.974,642.9Z" transform="translate(-245.348 12)" fill="none" stroke="#396de0" stroke-linecap="round" stroke-linejoin="round" stroke-width="1"/>
      <path id="Path_7197" data-name="Path 7197" d="M1084.16,643.178l-2.114-1.9a.653.653,0,0,0-.491-.166l-2.831.235a.654.654,0,0,1-.541-1.09l1.9-2.114a.652.652,0,0,0,.165-.491l-.235-2.831a.655.655,0,0,1,1.09-.541l2.114,1.9a.657.657,0,0,0,.491.166l2.831-.235a.655.655,0,0,1,.541,1.089l-1.9,2.115a.653.653,0,0,0-.165.491l.235,2.831A.655.655,0,0,1,1084.16,643.178Z" transform="translate(-190.348 -31)" fill="none" stroke="#396de0" stroke-linecap="round" stroke-linejoin="round" stroke-width="1"/>
      <path id="Path_7195" data-name="Path 7195" d="M1083.974,642.9l-2.05-1.84a.634.634,0,0,0-.477-.161l-2.745.228a.635.635,0,0,1-.525-1.057l1.84-2.05a.633.633,0,0,0,.16-.476l-.228-2.746a.635.635,0,0,1,1.057-.525l2.05,1.84a.637.637,0,0,0,.476.161l2.746-.228a.635.635,0,0,1,.525,1.057l-1.84,2.051a.633.633,0,0,0-.16.476l.228,2.746A.635.635,0,0,1,1083.974,642.9Z" transform="translate(-413.845 1057.475) rotate(-45)" fill="none" stroke="#396de0" stroke-linecap="round" stroke-linejoin="round" stroke-width="1"/>
      <path id="Path_7191" data-name="Path 7191" d="M1126.09,643.857l-.129-2.39a.552.552,0,0,0-.195-.392l-1.826-1.546a.552.552,0,0,1,.327-.972l2.389-.129a.552.552,0,0,0,.391-.194l1.547-1.826a.551.551,0,0,1,.971.327l.129,2.39a.553.553,0,0,0,.194.391l1.826,1.547a.551.551,0,0,1-.325.971l-2.39.13a.548.548,0,0,0-.391.193l-1.546,1.827A.552.552,0,0,1,1126.09,643.857Z" transform="translate(-32.047 20.095)" fill="none" stroke="#396de0" stroke-linecap="round" stroke-linejoin="round" stroke-width="1"/>
      <path id="Path_7198" data-name="Path 7198" d="M1125.188,640.915l-.079-1.47a.34.34,0,0,0-.12-.241l-1.123-.951a.339.339,0,0,1,.2-.6l1.47-.079a.339.339,0,0,0,.24-.12l.951-1.123a.339.339,0,0,1,.6.2l.079,1.47a.34.34,0,0,0,.12.24l1.123.951a.339.339,0,0,1-.2.6l-1.47.08a.337.337,0,0,0-.241.119l-.951,1.124A.339.339,0,0,1,1125.188,640.915Z" transform="translate(-89.047 2.095)" fill="none" stroke="#396de0" stroke-linecap="round" stroke-linejoin="round" stroke-width="1"/>
      <path id="Path_7194" data-name="Path 7194" d="M1125.188,640.915l-.079-1.47a.34.34,0,0,0-.12-.241l-1.123-.951a.339.339,0,0,1,.2-.6l1.47-.079a.339.339,0,0,0,.24-.12l.951-1.123a.339.339,0,0,1,.6.2l.079,1.47a.34.34,0,0,0,.12.24l1.123.951a.339.339,0,0,1-.2.6l-1.47.08a.337.337,0,0,0-.241.119l-.951,1.124A.339.339,0,0,1,1125.188,640.915Z" transform="translate(30.953 58.095)" fill="none" stroke="#396de0" stroke-linecap="round" stroke-linejoin="round" stroke-width="1"/>
      <path id="Path_7192" data-name="Path 7192" d="M1053.8,662.8l-.079-1.469a.341.341,0,0,0-.12-.241l-1.124-.951a.339.339,0,0,1,.2-.6l1.47-.079a.34.34,0,0,0,.241-.12l.951-1.123a.339.339,0,0,1,.6.2l.079,1.469a.341.341,0,0,0,.12.241l1.123.951a.339.339,0,0,1-.2.6l-1.47.079a.34.34,0,0,0-.24.12l-.951,1.123A.339.339,0,0,1,1053.8,662.8Z" transform="translate(-76.296 -48.332)" fill="none" stroke="#396de0" stroke-linecap="round" stroke-linejoin="round" stroke-width="1"/>
      <circle id="Ellipse_220" data-name="Ellipse 220" cx="1.713" cy="1.713" r="1.713" transform="translate(911.082 653.067)" stroke-width="1" stroke="#396de0" stroke-linecap="round" stroke-linejoin="round" fill="none"/>
      <circle id="Ellipse_222" data-name="Ellipse 222" cx="2.713" cy="2.713" r="2.713" transform="translate(774.082 643.067)" stroke-width="1" stroke="#396de0" stroke-linecap="round" stroke-linejoin="round" fill="none"/>
      <circle id="Ellipse_221" data-name="Ellipse 221" cx="2.776" cy="2.776" r="2.776" transform="translate(1067.346 693.619)" stroke-width="1" stroke="#396de0" stroke-linecap="round" stroke-linejoin="round" fill="none"/>
      <circle id="Ellipse_223" data-name="Ellipse 223" cx="2.776" cy="2.776" r="2.776" transform="translate(1070.346 609.619)" stroke-width="1" stroke="#396de0" stroke-linecap="round" stroke-linejoin="round" fill="none"/>
    </g>
    <g id="Rectangle_4058" data-name="Rectangle 4058" transform="translate(1654.031 703.335)" fill="transparent" stroke="#396de0" stroke-width="1">
      <rect width="67" height="67" rx="16" stroke="none"/>
      <rect x="0.5" y="0.5" width="66" height="66" rx="15.5" fill="none"/>
    </g>
    <g id="iconfinder_logo_brand_brands_logos_Google_Authenticator_2993690" transform="translate(1670.661 719.826)">
      <path id="Path_3721" data-name="Path 3721" d="M26.553,17.223a9.351,9.351,0,1,1-2.928-6.775l5.984-5.165a17.2,17.2,0,1,0,4.839,11.94Z" transform="translate(0 0)" fill="#999"/>
      <circle id="XMLID_1331_" cx="17.223" cy="17.223" r="17.223" transform="translate(0)" fill="gray"/>
      <path id="Path_3722" data-name="Path 3722" d="M27.27,17.223a10.066,10.066,0,1,1-3.1-7.247l5.437-4.693a17.2,17.2,0,1,0,4.839,11.94Z" transform="translate(0 0)" fill="#999"/>
      <circle id="Ellipse_187" data-name="Ellipse 187" cx="1.435" cy="1.435" r="1.435" transform="translate(15.788 2.153)" fill="#b3b3b3"/>
      <circle id="Ellipse_188" data-name="Ellipse 188" cx="1.435" cy="1.435" r="1.435" transform="translate(15.788 29.423)" fill="#b3b3b3"/>
      <circle id="Ellipse_189" data-name="Ellipse 189" cx="1.435" cy="1.435" r="1.435" transform="translate(2.153 15.788)" fill="#b3b3b3"/>
      <circle id="Ellipse_190" data-name="Ellipse 190" cx="1.435" cy="1.435" r="1.435" transform="translate(5.552 26.865) rotate(-45)" fill="#b3b3b3"/>
      <circle id="Ellipse_191" data-name="Ellipse 191" cx="1.435" cy="1.435" r="1.435" transform="translate(24.835 26.865) rotate(-45)" fill="#b3b3b3"/>
      <circle id="Ellipse_192" data-name="Ellipse 192" cx="1.435" cy="1.435" r="1.435" transform="translate(5.552 7.582) rotate(-45)" fill="#b3b3b3"/>
      <circle id="XMLID_1329_" cx="8.612" cy="8.612" r="8.612" transform="translate(8.612 8.612)" fill="gray"/>
      <circle id="XMLID_1330_" cx="10.047" cy="10.047" r="10.047" transform="translate(7.176 7.176)" fill="gray"/>
      <path id="Path_3723" data-name="Path 3723" d="M25.094,12.3c0-.061-.008-.119-.009-.179A10.044,10.044,0,0,1,5,12.125c0,.06,0,.119,0,.179a10.047,10.047,0,1,0,20.094,0Z" transform="translate(2.176 5.278)" fill="#fff" opacity="0.2"/>
      <path id="Path_3724" data-name="Path 3724" d="M23.674,15.176H19.279a5.73,5.73,0,1,0-9.6,2.624L15.5,23.624A10.039,10.039,0,0,0,23.674,15.176Z" transform="translate(3.482 3.482)" fill="#4d4d4d"/>
      <path id="Path_3725" data-name="Path 3725" d="M26.788,13.871H12.435a1.435,1.435,0,0,1,0-2.871H26.788a1.435,1.435,0,0,1,0,2.871Z" transform="translate(4.788 4.788)" fill="#b3b3b3"/>
      <path id="Path_3726" data-name="Path 3726" d="M12.352,11.359h14.5a1.5,1.5,0,0,1,1.342.85A1.453,1.453,0,0,0,26.779,11H12.427a1.391,1.391,0,0,0-1.407,1.149A1.429,1.429,0,0,1,12.352,11.359Z" transform="translate(4.797 4.788)" fill="#fff" opacity="0.2"/>
      <path id="Path_3727" data-name="Path 3727" d="M27.254,12a1.435,1.435,0,0,1-1.435,1.435H21.4a10.039,10.039,0,0,1-8.172,8.448l5.648,5.664A17.233,17.233,0,0,0,28.689,12Z" transform="translate(5.757 5.223)" fill="#666" opacity="0.5"/>
      <path id="Path_3728" data-name="Path 3728" d="M15.047,5A10.047,10.047,0,0,0,5,15.047c0,.061,0,.1,0,.159A10.033,10.033,0,0,1,15.047,5.359,11.73,11.73,0,0,1,21.995,7.8,10.067,10.067,0,0,0,15.047,5Z" transform="translate(2.176 2.176)" opacity="0.1"/>
      <circle id="XMLID_4_" cx="17.223" cy="17.223" r="17.223" transform="translate(0)" fill="url(#linear-gradient)"/>
    </g>
  </g>
</svg>
