<svg xmlns="http://www.w3.org/2000/svg" width="386.648" height="415.017" viewBox="0 0 386.648 415.017">
  <g id="Group_7818" data-name="Group 7818" transform="translate(0.5 0.517)">
    <line id="Line_207" data-name="Line 207" x1="348.5" transform="translate(6.416 414)" fill="none" stroke="#818181" stroke-linecap="round" stroke-linejoin="round" stroke-width="1"/>
    <g id="Group_7595" data-name="Group 7595" transform="translate(87.916 75)">
      <g id="Group_7590" data-name="Group 7590">
        <rect id="Rectangle_4056" data-name="Rectangle 4056" width="185" height="339" rx="8" fill="none" stroke="#818181" stroke-linecap="round" stroke-linejoin="round" stroke-width="1"/>
        <rect id="Rectangle_4057" data-name="Rectangle 4057" width="169.014" height="325.506" rx="8" transform="translate(8.451 6.262)" stroke-width="1" stroke="#818181" stroke-linecap="round" stroke-linejoin="round" fill="none"/>
        <line id="Line_268" data-name="Line 268" x2="53.626" transform="translate(66.146 318.842)" fill="none" stroke="#818181" stroke-linecap="round" stroke-linejoin="round" stroke-width="1"/>
      </g>
      <g id="Group_7591" data-name="Group 7591" transform="translate(50.123 155.727)">
        <path id="Path_7182" data-name="Path 7182" d="M1168.326,767.375a24.517,24.517,0,0,1-18.032-8.468,21.386,21.386,0,0,0-31.659,0,24.515,24.515,0,0,1-18.031,8.468h-1.836a7.138,7.138,0,0,0-7.139,7.139v23.5a77.49,77.49,0,0,0,42.837,69.311,77.493,77.493,0,0,0,42.837-69.311v-23.5a7.14,7.14,0,0,0-7.141-7.139Z" transform="translate(-1091.629 -751.902)" fill="none" stroke="#06ba61" stroke-linecap="round" stroke-linejoin="round" stroke-width="1"/>
        <path id="Path_7183" data-name="Path 7183" d="M1104.348,790.567l11.005,11.005a3.567,3.567,0,0,0,5.178-.137l27.378-30.982" transform="translate(-1077.477 -731.262)" fill="none" stroke="#06ba61" stroke-linecap="round" stroke-linejoin="round" stroke-width="1"/>
      </g>
      <g id="Group_7594" data-name="Group 7594" transform="translate(45.314 65.346)">
        <g id="Group_7592" data-name="Group 7592" transform="translate(7.561 11.914)">
          <path id="Path_7184" data-name="Path 7184" d="M1107.387,714.761h62.034a3.852,3.852,0,0,1,3.854,3.854v39.9a3.853,3.853,0,0,1-3.854,3.853h-72.636a3.853,3.853,0,0,1-3.853-3.853V726.028" transform="translate(-1092.932 -714.761)" fill="none" stroke="#06ba61" stroke-linecap="round" stroke-linejoin="round" stroke-width="1"/>
          <path id="Path_7185" data-name="Path 7185" d="M1165.2,716.537l-35.436,19.327a5.956,5.956,0,0,1-5.808-.061l-25.705-14.725" transform="translate(-1087.018 -712.785)" fill="none" stroke="#06ba61" stroke-linecap="round" stroke-linejoin="round" stroke-width="1"/>
          <line id="Line_269" data-name="Line 269" y1="18.719" x2="29.048" transform="translate(3.651 25.268)" fill="none" stroke="#06ba61" stroke-linecap="round" stroke-linejoin="round" stroke-width="1"/>
          <line id="Line_270" data-name="Line 270" x1="29.048" y1="18.719" transform="translate(48.24 25.268)" fill="none" stroke="#06ba61" stroke-linecap="round" stroke-linejoin="round" stroke-width="1"/>
        </g>
        <g id="Group_7593" data-name="Group 7593">
          <circle id="Ellipse_217" data-name="Ellipse 217" cx="9.62" cy="9.62" r="9.62" stroke-width="1" stroke="#ff9c28" stroke-linecap="round" stroke-linejoin="round" fill="none"/>
          <path id="Path_7186" data-name="Path 7186" d="M1094.931,720.321v-8.706l-1.794,1.571" transform="translate(-1085.143 -706.347)" fill="none" stroke="#ff9c28" stroke-linecap="round" stroke-linejoin="round" stroke-width="1"/>
          <line id="Line_271" data-name="Line 271" x2="4.013" transform="translate(7.782 13.973)" fill="none" stroke="#ff9c28" stroke-linecap="round" stroke-linejoin="round" stroke-width="1"/>
        </g>
      </g>
    </g>
    <g id="Group_7603" data-name="Group 7603">
      <path id="Path_7190" data-name="Path 7190" d="M1083.974,642.9l-2.05-1.84a.634.634,0,0,0-.477-.161l-2.745.228a.635.635,0,0,1-.525-1.057l1.84-2.05a.633.633,0,0,0,.16-.476l-.228-2.746a.635.635,0,0,1,1.057-.525l2.05,1.84a.637.637,0,0,0,.476.161l2.746-.228a.635.635,0,0,1,.525,1.057l-1.84,2.051a.633.633,0,0,0-.16.476l.228,2.746A.635.635,0,0,1,1083.974,642.9Z" transform="translate(-880.43 -589.113)" fill="none" stroke="#396de0" stroke-linecap="round" stroke-linejoin="round" stroke-width="1"/>
      <path id="Path_7193" data-name="Path 7193" d="M1083.974,642.9l-2.05-1.84a.634.634,0,0,0-.477-.161l-2.745.228a.635.635,0,0,1-.525-1.057l1.84-2.05a.633.633,0,0,0,.16-.476l-.228-2.746a.635.635,0,0,1,1.057-.525l2.05,1.84a.637.637,0,0,0,.476.161l2.746-.228a.635.635,0,0,1,.525,1.057l-1.84,2.051a.633.633,0,0,0-.16.476l.228,2.746A.635.635,0,0,1,1083.974,642.9Z" transform="translate(-1019.43 -591.113)" fill="none" stroke="#396de0" stroke-linecap="round" stroke-linejoin="round" stroke-width="1"/>
      <path id="Path_7197" data-name="Path 7197" d="M1084.16,643.178l-2.114-1.9a.653.653,0,0,0-.491-.166l-2.831.235a.654.654,0,0,1-.541-1.09l1.9-2.114a.652.652,0,0,0,.165-.491l-.235-2.831a.655.655,0,0,1,1.09-.541l2.114,1.9a.657.657,0,0,0,.491.166l2.831-.235a.655.655,0,0,1,.541,1.089l-1.9,2.115a.653.653,0,0,0-.165.491l.235,2.831A.655.655,0,0,1,1084.16,643.178Z" transform="translate(-964.43 -634.113)" fill="none" stroke="#396de0" stroke-linecap="round" stroke-linejoin="round" stroke-width="1"/>
      <path id="Path_7195" data-name="Path 7195" d="M5.961,8.791,3.911,6.95a.634.634,0,0,0-.477-.161L.689,7.017A.635.635,0,0,1,.164,5.961L2,3.911a.633.633,0,0,0,.16-.476L1.937.689A.635.635,0,0,1,2.993.164L5.043,2a.637.637,0,0,0,.476.161l2.746-.228A.635.635,0,0,1,8.79,2.993L6.95,5.044a.633.633,0,0,0-.16.476l.228,2.746A.635.635,0,0,1,5.961,8.791Z" transform="translate(22.728 140.478) rotate(-45)" fill="none" stroke="#396de0" stroke-linecap="round" stroke-linejoin="round" stroke-width="1"/>
      <path id="Path_7191" data-name="Path 7191" d="M1126.09,643.857l-.129-2.39a.552.552,0,0,0-.195-.392l-1.826-1.546a.552.552,0,0,1,.327-.972l2.389-.129a.552.552,0,0,0,.391-.194l1.547-1.826a.551.551,0,0,1,.971.327l.129,2.39a.553.553,0,0,0,.194.391l1.826,1.547a.551.551,0,0,1-.325.971l-2.39.13a.548.548,0,0,0-.391.193l-1.546,1.827A.552.552,0,0,1,1126.09,643.857Z" transform="translate(-806.129 -583.018)" fill="none" stroke="#396de0" stroke-linecap="round" stroke-linejoin="round" stroke-width="1"/>
      <path id="Path_7198" data-name="Path 7198" d="M1125.188,640.915l-.079-1.47a.34.34,0,0,0-.12-.241l-1.123-.951a.339.339,0,0,1,.2-.6l1.47-.079a.339.339,0,0,0,.24-.12l.951-1.123a.339.339,0,0,1,.6.2l.079,1.47a.34.34,0,0,0,.12.24l1.123.951a.339.339,0,0,1-.2.6l-1.47.08a.337.337,0,0,0-.241.119l-.951,1.124A.339.339,0,0,1,1125.188,640.915Z" transform="translate(-863.129 -601.018)" fill="none" stroke="#396de0" stroke-linecap="round" stroke-linejoin="round" stroke-width="1"/>
      <path id="Path_7194" data-name="Path 7194" d="M1125.188,640.915l-.079-1.47a.34.34,0,0,0-.12-.241l-1.123-.951a.339.339,0,0,1,.2-.6l1.47-.079a.339.339,0,0,0,.24-.12l.951-1.123a.339.339,0,0,1,.6.2l.079,1.47a.34.34,0,0,0,.12.24l1.123.951a.339.339,0,0,1-.2.6l-1.47.08a.337.337,0,0,0-.241.119l-.951,1.124A.339.339,0,0,1,1125.188,640.915Z" transform="translate(-743.129 -545.018)" fill="none" stroke="#396de0" stroke-linecap="round" stroke-linejoin="round" stroke-width="1"/>
      <path id="Path_7192" data-name="Path 7192" d="M1053.8,662.8l-.079-1.469a.341.341,0,0,0-.12-.241l-1.124-.951a.339.339,0,0,1,.2-.6l1.47-.079a.34.34,0,0,0,.241-.12l.951-1.123a.339.339,0,0,1,.6.2l.079,1.469a.341.341,0,0,0,.12.241l1.123.951a.339.339,0,0,1-.2.6l-1.47.079a.34.34,0,0,0-.24.12l-.951,1.123A.339.339,0,0,1,1053.8,662.8Z" transform="translate(-850.378 -651.445)" fill="none" stroke="#396de0" stroke-linecap="round" stroke-linejoin="round" stroke-width="1"/>
      <circle id="Ellipse_220" data-name="Ellipse 220" cx="1.713" cy="1.713" r="1.713" transform="translate(137 49.954)" stroke-width="1" stroke="#396de0" stroke-linecap="round" stroke-linejoin="round" fill="none"/>
      <circle id="Ellipse_222" data-name="Ellipse 222" cx="2.713" cy="2.713" r="2.713" transform="translate(0 39.954)" stroke-width="1" stroke="#396de0" stroke-linecap="round" stroke-linejoin="round" fill="none"/>
      <circle id="Ellipse_221" data-name="Ellipse 221" cx="2.776" cy="2.776" r="2.776" transform="translate(293.264 90.506)" stroke-width="1" stroke="#396de0" stroke-linecap="round" stroke-linejoin="round" fill="none"/>
      <circle id="Ellipse_223" data-name="Ellipse 223" cx="2.776" cy="2.776" r="2.776" transform="translate(296.264 6.506)" stroke-width="1" stroke="#396de0" stroke-linecap="round" stroke-linejoin="round" fill="none"/>
    </g>
  </g>
</svg>
