<svg xmlns="http://www.w3.org/2000/svg" width="135.389" height="103.909" viewBox="0 0 135.389 103.909">
  <g id="Group_8067" data-name="Group 8067" transform="translate(-866.745 -600.598)">
    <g id="Group_8066" data-name="Group 8066">
      <path id="Path_7484" data-name="Path 7484" d="M887.2,608.1l.045,88.908a7,7,0,0,0,7,7l80.28-.006a7,7,0,0,0,7-6.988l.163-88.9a7,7,0,0,0-7-7.013H894.2A7,7,0,0,0,887.2,608.1Z" fill="none" stroke="#818181" stroke-linecap="round" stroke-linejoin="round" stroke-width="1"/>
      <line id="Line_385" data-name="Line 385" y2="62.01" transform="translate(905.321 635.598)" fill="none" stroke="#818181" stroke-linecap="round" stroke-linejoin="round" stroke-width="1"/>
      <line id="Line_386" data-name="Line 386" x2="0.011" y2="22.288" transform="translate(934.364 675.304)" fill="none" stroke="#818181" stroke-linecap="round" stroke-linejoin="round" stroke-width="1"/>
      <line id="Line_387" data-name="Line 387" x2="0.025" y2="49.035" transform="translate(934.33 610.304)" fill="none" stroke="#818181" stroke-linecap="round" stroke-linejoin="round" stroke-width="1"/>
      <line id="Line_388" data-name="Line 388" x2="0.018" y2="35.786" transform="translate(962.324 661.792)" fill="none" stroke="#818181" stroke-linecap="round" stroke-linejoin="round" stroke-width="1"/>
      <rect id="Rectangle_4290" data-name="Rectangle 4290" width="15.821" height="7.272" rx="3.636" transform="translate(954.944 652.241)" stroke-width="1" stroke="#396de0" stroke-linecap="round" stroke-linejoin="round" fill="none"/>
      <rect id="Rectangle_4291" data-name="Rectangle 4291" width="15.821" height="7.272" rx="3.636" transform="translate(926.916 663.42)" stroke-width="1" stroke="#396de0" stroke-linecap="round" stroke-linejoin="round" fill="none"/>
      <line id="Line_389" data-name="Line 389" x1="0.005" y1="10.09" transform="translate(905.276 610.319)" fill="none" stroke="#818181" stroke-linecap="round" stroke-linejoin="round" stroke-width="1"/>
      <line id="Line_390" data-name="Line 390" x2="9.239" y2="9.23" transform="translate(900.888 622.937)" fill="none" stroke="#e64141" stroke-linecap="round" stroke-linejoin="round" stroke-width="1"/>
      <line id="Line_391" data-name="Line 391" y1="9.24" x2="9.23" transform="translate(900.893 622.932)" fill="none" stroke="#e64141" stroke-linecap="round" stroke-linejoin="round" stroke-width="1"/>
      <line id="Line_392" data-name="Line 392" y1="38.891" x2="0.427" transform="translate(962.318 610.598)" fill="none" stroke="#818181" stroke-linecap="round" stroke-linejoin="round" stroke-width="1"/>
    </g>
    <line id="Line_393" data-name="Line 393" x1="134.389" transform="translate(867.245 704)" fill="none" stroke="#818181" stroke-linecap="round" stroke-linejoin="round" stroke-width="1"/>
  </g>
</svg>
