<svg xmlns="http://www.w3.org/2000/svg" xmlns:xlink="http://www.w3.org/1999/xlink" width="24" height="24" viewBox="0 0 24 24">
  <defs>
    <clipPath id="EmptyStar">
      <rect id="Rectangle_4060" data-name="Rectangle 4060" width="24" height="24" transform="translate(1066.803 538.886)" fill="#818181"/>
    </clipPath>
  </defs>
  <g id="Group_7637" data-name="Group 7637" transform="translate(-1066.803 -538.886)" clip-path="url(#EmptyStar)">
    <g id="Group_7636" data-name="Group 7636">
      <path id="Path_7213" data-name="Path 7213" d="M1074.358,559.226a1.5,1.5,0,0,1-1.478-1.756l.671-3.912a.5.5,0,0,0-.143-.443l-2.842-2.771a1.5,1.5,0,0,1,.831-2.558l3.927-.571a.5.5,0,0,0,.377-.273l1.757-3.56a1.5,1.5,0,0,1,2.691,0h0l1.757,3.559a.5.5,0,0,0,.376.274l3.929.571a1.5,1.5,0,0,1,.83,2.558l-2.842,2.771a.5.5,0,0,0-.143.443l.671,3.912a1.5,1.5,0,0,1-2.177,1.581l-3.514-1.847a.5.5,0,0,0-.465,0l-3.514,1.847A1.493,1.493,0,0,1,1074.358,559.226Zm4.445-15.68a.491.491,0,0,0-.448.278l-1.757,3.559a1.5,1.5,0,0,1-1.129.821l-3.928.571a.5.5,0,0,0-.278.853l2.843,2.771a1.5,1.5,0,0,1,.431,1.328l-.671,3.912a.5.5,0,0,0,.726.528l3.514-1.848a1.5,1.5,0,0,1,1.4,0l3.514,1.848a.5.5,0,0,0,.725-.528l-.67-3.912a1.5,1.5,0,0,1,.431-1.328l2.843-2.771a.5.5,0,0,0-.277-.853l-3.929-.571a1.5,1.5,0,0,1-1.129-.821l-1.757-3.559A.491.491,0,0,0,1078.8,543.546Z" fill="#818181"/>
    </g>
  </g>
</svg>
