<svg xmlns="http://www.w3.org/2000/svg" xmlns:xlink="http://www.w3.org/1999/xlink" width="16" height="16" viewBox="0 0 16 16">
  <defs>
    <clipPath id="clip-path">
      <rect id="Rectangle_4162" data-name="Rectangle 4162" width="16" height="16" transform="translate(1228.386 582.331)" fill="#e64141"/>
    </clipPath>
  </defs>
  <g id="Group_7824" data-name="Group 7824" transform="translate(-1228.386 -582.331)">
    <g id="Group_7823" data-name="Group 7823" clip-path="url(#clip-path)">
      <g id="Group_7822" data-name="Group 7822">
        <g id="Group_7819" data-name="Group 7819">
          <path id="Path_7289" data-name="Path 7289" d="M1236.386,594.842a4.51,4.51,0,1,1,4.51-4.511A4.516,4.516,0,0,1,1236.386,594.842Zm0-8.021a3.51,3.51,0,1,0,3.51,3.51A3.514,3.514,0,0,0,1236.386,586.821Z" fill="#e64141"/>
        </g>
        <g id="Group_7820" data-name="Group 7820">
          <path id="Path_7290" data-name="Path 7290" d="M1236.376,591.346a.5.5,0,0,1-.5-.5v-2.907a.5.5,0,0,1,1,0v2.907A.5.5,0,0,1,1236.376,591.346Z" fill="#e64141"/>
        </g>
        <g id="Group_7821" data-name="Group 7821">
          <path id="Path_7291" data-name="Path 7291" d="M1236.376,593.052a.5.5,0,0,1-.5-.5v-.183a.5.5,0,0,1,1,0v.183A.5.5,0,0,1,1236.376,593.052Z" fill="#e64141"/>
        </g>
      </g>
    </g>
  </g>
</svg>
