<svg xmlns="http://www.w3.org/2000/svg" xmlns:xlink="http://www.w3.org/1999/xlink" width="24" height="24" viewBox="0 0 24 24">
  <defs>
    <clipPath id="clip-path">
      <rect id="Rectangle_4297" data-name="Rectangle 4297" width="24" height="24" transform="translate(238.344 228.275)" fill="#3d3e40"/>
    </clipPath>
  </defs>
  <g id="Group_8087" data-name="Group 8087" transform="translate(-238.344 -228.275)">
    <g id="Group_8086" data-name="Group 8086" clip-path="url(#clip-path)">
      <g id="Group_8085" data-name="Group 8085">
        <g id="Group_8084" data-name="Group 8084">
          <path id="Path_7489" data-name="Path 7489" d="M256.333,248.775h-8a2.5,2.5,0,0,1-2.5-2.5v-2a.5.5,0,0,1,1,0v2a1.5,1.5,0,0,0,1.5,1.5h8a1.5,1.5,0,0,0,1.5-1.5v-12a1.5,1.5,0,0,0-1.5-1.5h-8a1.5,1.5,0,0,0-1.5,1.5v2a.5.5,0,0,1-1,0v-2a2.5,2.5,0,0,1,2.5-2.5h8a2.5,2.5,0,0,1,2.5,2.5v12A2.5,2.5,0,0,1,256.333,248.775Z" fill="#3d3e40"/>
        </g>
        <path id="Path_7490" data-name="Path 7490" d="M249.522,236.878l2.962,2.961H242.326a.471.471,0,1,0,0,.942h10.158l-2.962,2.961a.471.471,0,1,0,.666.665l3.1-3.1a1.393,1.393,0,0,0,.4-.9.237.237,0,0,0,0-.186,1.389,1.389,0,0,0-.4-.9l-3.1-3.1a.471.471,0,1,0-.666.666Z" fill="#3d3e40"/>
      </g>
    </g>
  </g>
</svg>
