<svg xmlns="http://www.w3.org/2000/svg" width="92.295" height="79.837" viewBox="0 0 92.295 79.837">
  <g id="Group_7692" data-name="Group 7692" transform="translate(-1246.638 -872.018)">
    <rect id="Rectangle_4096" data-name="Rectangle 4096" width="86.747" height="62.349" rx="4" transform="translate(1251.687 889.006)" stroke-width="1" stroke="#818181" stroke-linecap="round" stroke-linejoin="round" fill="none"/>
    <path id="Path_7237" data-name="Path 7237" d="M1251.686,921.973l-4.5-33.986a5.421,5.421,0,0,1,4.711-6.049l75.322-9.373a5.42,5.42,0,0,1,6.049,4.711l1.382,11.108" fill="none" stroke="#818181" stroke-linecap="round" stroke-linejoin="round" stroke-width="1"/>
    <line id="Line_284" data-name="Line 284" x2="26.135" transform="translate(1303.846 902.922)" fill="none" stroke="#818181" stroke-linecap="round" stroke-linejoin="round" stroke-width="1"/>
    <line id="Line_285" data-name="Line 285" x2="17.973" transform="translate(1303.846 914.05)" fill="none" stroke="#818181" stroke-linecap="round" stroke-linejoin="round" stroke-width="1"/>
    <line id="Line_286" data-name="Line 286" x2="9.877" transform="translate(1303.846 925.178)" fill="none" stroke="#818181" stroke-linecap="round" stroke-linejoin="round" stroke-width="1"/>
    <line id="Line_287" data-name="Line 287" x2="26.135" transform="translate(1303.846 936.306)" fill="none" stroke="#818181" stroke-linecap="round" stroke-linejoin="round" stroke-width="1"/>
    <circle id="Ellipse_225" data-name="Ellipse 225" cx="10.039" cy="10.039" r="10.039" transform="translate(1267.04 902.922)" stroke-width="1" stroke="#396de0" stroke-linecap="round" stroke-linejoin="round" fill="none"/>
    <path id="Path_7238" data-name="Path 7238" d="M1293.91,922.793h0a9.061,9.061,0,0,0-9.061-9.06h-20.985a9.061,9.061,0,0,0-9.061,9.06h0" transform="translate(2.723 14.647)" fill="none" stroke="#396de0" stroke-linecap="round" stroke-linejoin="round" stroke-width="1"/>
  </g>
</svg>
