<svg class="MuiSvgIcon-root" focusable="false" viewBox="0 0 24 24" aria-hidden="true" role="presentation">
<defs>
<clipPath id="clip-path">
<rect id="Rectangle_4003" data-name="Rectangle 4003" width="24" height="24" transform="translate(1358.757 538.906)">
</rect></clipPath></defs><g id="Group_7457" data-name="Group 7457" transform="translate(-1358.757 -538.906)">
<g id="Group_7456" data-name="Group 7456"><g id="Group_7447" data-name="Group 7447">
<path id="Path_7071" data-name="Path 7071" d="M1370.737,555.406a4.5,4.5,0,1,1,4.5-4.5A4.5,4.5,0,0,1,1370.737,555.406Zm0-8a3.5,3.5,0,1,0,3.5,3.5A3.505,3.505,0,0,0,1370.737,547.406Z"></path></g><g id="Group_7448" data-name="Group 7448"><path id="Path_7072" data-name="Path 7072" d="M1370.737,545.425a.5.5,0,0,1-.5-.5v-2a.5.5,0,0,1,1,0v2A.5.5,0,0,1,1370.737,545.425Z"></path></g><g id="Group_7449" data-name="Group 7449"><path id="Path_7073" data-name="Path 7073" d="M1370.737,559.388a.5.5,0,0,1-.5-.5v-2a.5.5,0,0,1,1,0v2A.5.5,0,0,1,1370.737,559.388Z"></path></g><g id="Group_7450" data-name="Group 7450"><path id="Path_7074" data-name="Path 7074" d="M1364.775,551.406h-2a.5.5,0,0,1,0-1h2a.5.5,0,0,1,0,1Z"></path></g><g id="Group_7451" data-name="Group 7451"><path id="Path_7075" data-name="Path 7075" d="M1378.737,551.406h-2a.5.5,0,0,1,0-1h2a.5.5,0,0,1,0,1Z"></path></g><g id="Group_7452" data-name="Group 7452"><path id="Path_7076" data-name="Path 7076" d="M1374.991,547.163a.5.5,0,0,1-.353-.853l1.414-1.414a.5.5,0,0,1,.707.707l-1.414,1.414A.5.5,0,0,1,1374.991,547.163Z"></path></g><g id="Group_7453" data-name="Group 7453"><path id="Path_7077" data-name="Path 7077" d="M1365.119,557.036a.5.5,0,0,1-.353-.853l1.414-1.414a.5.5,0,0,1,.707.707l-1.414,1.414A.5.5,0,0,1,1365.119,557.036Z"></path></g><g id="Group_7454" data-name="Group 7454"><path id="Path_7078" data-name="Path 7078" d="M1366.546,547.177a.5.5,0,0,1-.354-.147l-1.414-1.414a.5.5,0,0,1,.707-.707l1.414,1.414a.5.5,0,0,1-.353.854Z"></path></g><g id="Group_7455" data-name="Group 7455"><path id="Path_7079" data-name="Path 7079" d="M1376.419,557.05a.5.5,0,0,1-.354-.147l-1.414-1.414a.5.5,0,0,1,.707-.707l1.414,1.414a.5.5,0,0,1-.353.854Z"></path></g></g></g></svg>