<svg xmlns="http://www.w3.org/2000/svg" xmlns:xlink="http://www.w3.org/1999/xlink" viewBox="0 0 16.96 16.96"><defs><style>.cls-1{fill:none;}.cls-2{clip-path:url(#clip-pathLight);}</style><clipPath id="clip-pathLight" transform="translate(-3.52 -3.52)"><rect class="cls-1" width="24" height="24"/></clipPath></defs><title>Light</title><g id="Layer_2" data-name="Layer 2"><g id="Layer_2-2" data-name="Layer 2"><g class="cls-2"><path d="M12,16.5a4.5,4.5,0,1,1,4.5-4.5A4.5,4.5,0,0,1,12,16.5Zm0-8a3.5,3.5,0,1,0,3.5,3.5A3.5,3.5,0,0,0,12,8.5Z" transform="translate(-3.52 -3.52)"/><path d="M12,6.52a.5.5,0,0,1-.5-.5V4a.5.5,0,0,1,1,0V6A.5.5,0,0,1,12,6.52Z" transform="translate(-3.52 -3.52)"/><path d="M12,20.48a.5.5,0,0,1-.5-.5V18a.5.5,0,0,1,1,0v2A.5.5,0,0,1,12,20.48Z" transform="translate(-3.52 -3.52)"/><path d="M6,12.5H4a.5.5,0,0,1,0-1H6a.5.5,0,1,1,0,1Z" transform="translate(-3.52 -3.52)"/><path d="M20,12.5H18a.5.5,0,0,1,0-1h2a.5.5,0,0,1,0,1Z" transform="translate(-3.52 -3.52)"/><path d="M16.23,8.26a.5.5,0,0,1-.35-.85L17.3,6A.5.5,0,0,1,18,6.7L16.59,8.11A.5.5,0,0,1,16.23,8.26Z" transform="translate(-3.52 -3.52)"/><path d="M6.36,18.13A.5.5,0,0,1,6,17.28l1.41-1.41a.5.5,0,0,1,.71.71L6.72,18A.5.5,0,0,1,6.36,18.13Z" transform="translate(-3.52 -3.52)"/><path d="M7.79,8.27a.5.5,0,0,1-.35-.15L6,6.71A.5.5,0,0,1,6.73,6L8.14,7.42a.5.5,0,0,1-.35.85Z" transform="translate(-3.52 -3.52)"/><path d="M17.66,18.14a.5.5,0,0,1-.35-.15l-1.41-1.41a.5.5,0,0,1,.71-.71L18,17.29a.5.5,0,0,1-.35.85Z" transform="translate(-3.52 -3.52)"/></g></g></g></svg>