<?xml version="1.0" encoding="utf-8"?>
<!-- Generator: Adobe Illustrator 24.1.1, SVG Export Plug-In . SVG Version: 6.00 Build 0)  -->
<svg version="1.1" id="Layer_1" xmlns="http://www.w3.org/2000/svg" xmlns:xlink="http://www.w3.org/1999/xlink" x="0px" y="0px"
	 viewBox="0 0 17 17" style="enable-background:new 0 0 17 17;" xml:space="preserve">
<style type="text/css">
	.st0{clip-path:url(#SVGDARK);}
	.st1{fill:#F2F2F2;}
</style>
<g id="Layer_2_1_">
	<g id="Layer_2-2">
		<g>
			<defs>
				<rect id="SVGDARK2" x="-3.5" y="-3.5" width="24" height="24"/>
			</defs>
			<clipPath id="SVGDARK">
				<use xlink:href="#SVGDARK2"  style="overflow:visible;"/>
			</clipPath>
			<g class="st0">
				<path class="st1" d="M9.8,17C4.4,17,0,12.6,0,7.2c0,0,0-0.1,0-0.1c0-2.6,1.1-5.1,2.9-7C3.1,0,3.4,0,3.6,0.1
					c0.1,0.1,0.2,0.3,0.1,0.4C3.2,3.6,4,6.7,5.9,9.1c2.2,2.6,5.9,4,10.6,4.2c0.3,0,0.5,0.2,0.5,0.5c0,0.1-0.1,0.2-0.1,0.3
					C15,15.9,12.5,17,9.8,17L9.8,17z M2.7,2C1.6,3.5,1,5.3,1,7.2c0,2.4,0.9,4.6,2.6,6.3c3.2,3.1,8.1,3.4,11.7,0.7
					c-4.4-0.4-7.9-1.9-10.1-4.4C3.4,7.5,2.5,4.8,2.7,2L2.7,2z"/>
			</g>
		</g>
	</g>
</g>
</svg>
