<svg xmlns="http://www.w3.org/2000/svg" xmlns:xlink="http://www.w3.org/1999/xlink" viewBox="0 0 17 17"><defs><style>.cls-1{fill:none;}.cls-2{clip-path:url(#clip-path);}</style><clipPath id="clip-path" transform="translate(-3.5 -3.5)"><rect class="cls-1" width="24" height="24"/></clipPath></defs><title>Night</title><g id="Layer_2" data-name="Layer 2"><g id="Layer_2-2" data-name="Layer 2"><g class="cls-2"><path d="M13.31,20.5A9.79,9.79,0,0,1,3.5,10.65a9.91,9.91,0,0,1,2.93-7,.5.5,0,0,1,.85.42,10.62,10.62,0,0,0,2.14,8.5c2.2,2.58,5.87,4,10.6,4.16a.5.5,0,0,1,.34.85,9.91,9.91,0,0,1-7,2.93Zm-7.15-15A8.9,8.9,0,0,0,4.5,10.65a8.75,8.75,0,0,0,2.58,6.27,8.88,8.88,0,0,0,11.67.73c-4.43-.35-7.91-1.87-10.1-4.44A11.08,11.08,0,0,1,6.16,5.51Z" transform="translate(-3.5 -3.5)"/></g></g></g></svg>