<!-- Generator: Adobe Illustrator 24.1.1, SVG Export Plug-In . SVG Version: 6.00 Build 0)  -->
<svg version="1.1" id="Layer_1" xmlns="http://www.w3.org/2000/svg" xmlns:xlink="http://www.w3.org/1999/xlink" x="0px" y="0px"
	 viewBox="0 0 17 17" style="enable-background:new 0 0 17 17;" xml:space="preserve">
<style type="text/css">
	.st0{clip-path:url(#SVGID_2_1);}
	.st1{fill:#F2F2F2;}
</style>
<g id="Layer_2_1_1">
	<g id="Layer_2-2">
		<g>
			<defs>
				<rect id="SVGID_1_1" x="-3.5" y="-3.5" width="24" height="24"/>
			</defs>
			<clipPath id="SVGID_2_1">
				<use xlink:href="#SVGID_1_1"  style="overflow:visible;"/>
			</clipPath>
			<g clip-path="url(#SVGID_2_1)">
				<path fill="#F2F2F2" d="M8.5,13C6,13,4,11,4,8.5S6,4,8.5,4S13,6,13,8.5S11,13,8.5,13L8.5,13z M8.5,5C6.5,5,5,6.5,5,8.5
					S6.5,12,8.5,12S12,10.4,12,8.5S10.4,5,8.5,5z"/>
				<path  fill="#F2F2F2" d="M8.5,3C8.2,3,8,2.8,8,2.5v-2C8,0.2,8.2,0,8.5,0S9,0.2,9,0.5v2C9,2.8,8.8,3,8.5,3C8.5,3,8.5,3,8.5,3z"/>
				<path  fill="#F2F2F2" d="M8.5,17C8.2,17,8,16.7,8,16.5v-2C8,14.2,8.2,14,8.5,14S9,14.2,9,14.5v2C9,16.7,8.7,17,8.5,17z"/>
				<path  fill="#F2F2F2" d="M2.5,9h-2C0.2,9,0,8.8,0,8.5S0.2,8,0.5,8h2C2.8,8,3,8.2,3,8.5S2.8,9,2.5,9z"/>
				<path  fill="#F2F2F2" d="M16.5,9h-2C14.2,9,14,8.8,14,8.5S14.2,8,14.5,8h2C16.8,8,17,8.2,17,8.5S16.8,9,16.5,9z"/>
				<path  fill="#F2F2F2" d="M12.7,4.7c-0.3,0-0.5-0.2-0.5-0.5c0-0.1,0.1-0.3,0.1-0.3l1.4-1.4c0.2-0.2,0.5-0.1,0.7,0.1
					c0.1,0.2,0.1,0.4,0,0.6l-1.4,1.4C13,4.7,12.8,4.7,12.7,4.7z"/>
				<path  fill="#F2F2F2" d="M2.8,14.6c-0.3,0-0.5-0.2-0.5-0.5c0-0.1,0.1-0.3,0.1-0.4l1.4-1.4c0.2-0.2,0.5-0.2,0.7,0
					c0.2,0.2,0.2,0.5,0,0.7l-1.4,1.4C3.1,14.6,3,14.6,2.8,14.6z"/>
				<path  fill="#F2F2F2" d="M4.3,4.8C4.1,4.7,4,4.7,3.9,4.6L2.5,3.2C2.3,3,2.3,2.7,2.5,2.5c0.2-0.2,0.5-0.2,0.7,0l1.4,1.4
					c0.2,0.2,0.2,0.5,0,0.7C4.5,4.7,4.4,4.7,4.3,4.8z"/>
				<path  fill="#F2F2F2" d="M14.1,14.6c-0.1,0-0.3-0.1-0.4-0.1l-1.4-1.4c-0.2-0.2-0.2-0.5,0-0.7c0.2-0.2,0.5-0.2,0.7,0l1.4,1.4
					c0.2,0.2,0.2,0.5,0,0.7C14.4,14.6,14.3,14.6,14.1,14.6L14.1,14.6z"/>
			</g>
		</g>
	</g>
</g>
</svg>
