<svg xmlns="http://www.w3.org/2000/svg" width="146.788" height="151.617" viewBox="0 0 146.788 151.617">
  <g id="Group_8065" data-name="Group 8065" transform="translate(-361.001 -251.022)">
    <g id="Group_8062" data-name="Group 8062" transform="translate(413.656 317.107)">
      <path id="Path_7477" data-name="Path 7477" d="M419.8,301.982a20.739,20.739,0,1,1-20.739,20.739" transform="translate(-399.057 -297.492)" fill="none" stroke="#396de0" stroke-linecap="round" stroke-linejoin="round" stroke-width="1"/>
      <path id="Path_7478" data-name="Path 7478" d="M415.81,308.426l-4.839-4.839,4.839-4.839" transform="translate(-394.425 -298.749)" fill="none" stroke="#396de0" stroke-linecap="round" stroke-linejoin="round" stroke-width="1"/>
      <path id="Path_7479" data-name="Path 7479" d="M413.991,309.708v12.439l8.738,8.738" transform="translate(-393.252 -294.489)" fill="none" stroke="#396de0" stroke-linecap="round" stroke-linejoin="round" stroke-width="1"/>
    </g>
    <g id="Group_8064" data-name="Group 8064" transform="translate(382.808 268.005)">
      <path id="Path_7480" data-name="Path 7480" d="M462.766,273.3h8.655a8.6,8.6,0,0,1,8.6,8.6V385.075a8.6,8.6,0,0,1-8.6,8.6H385.442a8.6,8.6,0,0,1-8.6-8.6V281.9a8.6,8.6,0,0,1,8.6-8.6h8.653" transform="translate(-376.844 -259.538)" fill="none" stroke="#818181" stroke-linecap="round" stroke-linejoin="round" stroke-width="1"/>
      <path id="Path_7481" data-name="Path 7481" d="M438.081,272.169a7.271,7.271,0,0,1-6.594-3.861,8.781,8.781,0,0,0-15.77,0,7.271,7.271,0,0,1-6.594,3.861H396.476a7.209,7.209,0,0,0-7.209,7.209v6.448a3.9,3.9,0,0,0,3.9,3.9h60.868a3.9,3.9,0,0,0,3.9-3.9v-6.448a7.209,7.209,0,0,0-7.209-7.209Z" transform="translate(-372.015 -263.391)" fill="none" stroke="#818181" stroke-linecap="round" stroke-linejoin="round" stroke-width="1"/>
      <circle id="Ellipse_267" data-name="Ellipse 267" cx="4.684" cy="4.684" r="4.684" transform="translate(46.903 6.682)" stroke-width="1" stroke="#818181" stroke-linecap="round" stroke-linejoin="round" fill="none"/>
      <g id="Group_8063" data-name="Group 8063" transform="translate(10.961 21.707)">
        <path id="Path_7482" data-name="Path 7482" d="M391.028,279.022h-1.993a4.3,4.3,0,0,0-4.3,4.3V377.7a4.3,4.3,0,0,0,4.3,4.3h55.714a7.441,7.441,0,0,0,5.381-2.3l13.8-14.471a7.435,7.435,0,0,0,2.055-5.133V283.32a4.3,4.3,0,0,0-4.3-4.3H459.7" transform="translate(-384.737 -279.022)" fill="none" stroke="#818181" stroke-linecap="round" stroke-linejoin="round" stroke-width="1"/>
        <path id="Path_7483" data-name="Path 7483" d="M428.022,358.681l.01-16.458a5.083,5.083,0,0,1,5.083-5.08h14.88" transform="translate(-367.911 -256.429)" fill="none" stroke="#818181" stroke-linecap="round" stroke-linejoin="round" stroke-width="1"/>
      </g>
    </g>
    <line id="Line_381" data-name="Line 381" y1="6.134" x2="6.373" transform="translate(480.424 261.829)" fill="none" stroke="#818181" stroke-linecap="round" stroke-linejoin="round" stroke-width="1"/>
    <line id="Line_382" data-name="Line 382" x1="7.509" y1="5.422" transform="translate(381.119 263.727)" fill="none" stroke="#818181" stroke-linecap="round" stroke-linejoin="round" stroke-width="1"/>
    <line id="Line_383" data-name="Line 383" y2="8.614" transform="translate(434.395 251.522)" fill="none" stroke="#818181" stroke-linecap="round" stroke-linejoin="round" stroke-width="1"/>
    <line id="Line_384" data-name="Line 384" x2="145.788" transform="translate(361.501 402.139)" fill="none" stroke="#818181" stroke-linecap="round" stroke-linejoin="round" stroke-width="1"/>
  </g>
</svg>
