<svg xmlns="http://www.w3.org/2000/svg" xmlns:xlink="http://www.w3.org/1999/xlink" width="24" height="24" viewBox="0 0 24 24">
  <defs>
    <clipPath id="clip-path">
      <rect id="Rectangle_4134" data-name="Rectangle 4134" width="24" height="24" transform="translate(840.893 538.333)" fill="#e64141"/>
    </clipPath>
  </defs>
  <g id="Group_7763" data-name="Group 7763" transform="translate(-840.893 -538.333)">
    <g id="Group_7759" data-name="Group 7759" clip-path="url(#clip-path)">
      <g id="Group_7758" data-name="Group 7758">
        <g id="Group_7757" data-name="Group 7757">
          <path id="Path_7268" data-name="Path 7268" d="M852.894,558.833a.5.5,0,0,1-.224-.052,11.182,11.182,0,0,1-6.215-10.055v-3.258a1.492,1.492,0,0,1,1.49-1.49h.255a2.887,2.887,0,0,0,2.129-1.01,3.465,3.465,0,0,1,5.129,0,2.885,2.885,0,0,0,2.129,1.01h.255a1.491,1.491,0,0,1,1.489,1.49v3.258a11.182,11.182,0,0,1-6.214,10.055A.5.5,0,0,1,852.894,558.833Zm-4.949-13.855a.491.491,0,0,0-.49.49v3.258a10.182,10.182,0,0,0,5.439,9.045,10.185,10.185,0,0,0,5.437-9.045v-3.258a.491.491,0,0,0-.489-.49h-.255a3.872,3.872,0,0,1-2.869-1.337,2.546,2.546,0,0,0-3.649,0,3.875,3.875,0,0,1-2.869,1.337Z" fill="#e64141"/>
        </g>
        <path id="Path_7269" data-name="Path 7269" d="M855.368,546.478l-2.475,2.475-2.475-2.475a.5.5,0,0,0-.707.707l2.475,2.475-2.475,2.475a.5.5,0,1,0,.707.707l2.475-2.475,2.475,2.475a.5.5,0,0,0,.707-.707L853.6,549.66l2.475-2.475a.5.5,0,0,0-.707-.707Z" fill="#e64141"/>
      </g>
    </g>
  </g>
</svg>
