<svg xmlns="http://www.w3.org/2000/svg" width="138.022" height="129.65" viewBox="0 0 138.022 129.65">
  <g id="Group_8579" data-name="Group 8579" transform="translate(-1143.829 -874.818)">
    <path id="Path_7239" data-name="Path 7239" d="M1145.532,904.362l3.13-19.981a7.6,7.6,0,0,1,8.669-6.351l105.145,16.242a7.6,7.6,0,0,1,6.35,8.671l-5.907,36.778" transform="translate(3.032 -2.613)" fill="none" stroke="#818181" stroke-linecap="round" stroke-linejoin="round" stroke-width="1"/>
    <line id="Line_288" data-name="Line 288" x2="37.455" transform="translate(1217.711 914.673)" fill="none" stroke="#818181" stroke-linecap="round" stroke-linejoin="round" stroke-width="1"/>
    <line id="Line_289" data-name="Line 289" x2="19.053" transform="translate(1217.407 944.329)" fill="none" stroke="#818181" stroke-linecap="round" stroke-linejoin="round" stroke-width="1"/>
    <line id="Line_440" data-name="Line 440" x2="12.053" transform="translate(1217.407 959.329)" fill="none" stroke="#818181" stroke-linecap="round" stroke-linejoin="round" stroke-width="1"/>
    <line id="Line_290" data-name="Line 290" x2="31.995" transform="translate(1218.171 929.501)" fill="none" stroke="#818181" stroke-linecap="round" stroke-linejoin="round" stroke-width="1"/>
    <line id="Line_293" data-name="Line 293" x2="55.311" transform="translate(1152.233 973.985)" fill="none" stroke="#818181" stroke-linecap="round" stroke-linejoin="round" stroke-width="1"/>
    <path id="Path_7240" data-name="Path 7240" d="M1152.059,950.015v-44.7a1.919,1.919,0,0,1,1.9-1.942h21.472a1.918,1.918,0,0,1,1.9,1.942v44.7" transform="translate(8.574 23.97)" fill="none" stroke="#818181" stroke-linecap="round" stroke-linejoin="round" stroke-width="1"/>
    <path id="Path_7241" data-name="Path 7241" d="M1159.562,909.522V898.793a1.92,1.92,0,0,1,1.9-1.943h19.53a1.92,1.92,0,0,1,1.9,1.943v57.369" transform="translate(15.646 17.823)" fill="none" stroke="#818181" stroke-linecap="round" stroke-linejoin="round" stroke-width="1"/>
    <rect id="Rectangle_4098" data-name="Rectangle 4098" width="5.827" height="5.827" transform="translate(1164.855 933.387)" stroke-width="1" stroke="#818181" stroke-linecap="round" stroke-linejoin="round" fill="none"/>
    <rect id="Rectangle_4099" data-name="Rectangle 4099" width="5.827" height="5.827" transform="translate(1175.522 933.387)" stroke-width="1" stroke="#818181" stroke-linecap="round" stroke-linejoin="round" fill="none"/>
    <rect id="Rectangle_4100" data-name="Rectangle 4100" width="5.827" height="5.827" transform="translate(1164.855 943.309)" stroke-width="1" stroke="#818181" stroke-linecap="round" stroke-linejoin="round" fill="none"/>
    <rect id="Rectangle_4101" data-name="Rectangle 4101" width="5.827" height="5.827" transform="translate(1175.522 943.309)" stroke-width="1" stroke="#818181" stroke-linecap="round" stroke-linejoin="round" fill="none"/>
    <rect id="Rectangle_4102" data-name="Rectangle 4102" width="5.827" height="5.827" transform="translate(1164.855 953.221)" stroke-width="1" stroke="#818181" stroke-linecap="round" stroke-linejoin="round" fill="none"/>
    <rect id="Rectangle_4103" data-name="Rectangle 4103" width="5.827" height="5.827" transform="translate(1175.522 953.221)" stroke-width="1" stroke="#818181" stroke-linecap="round" stroke-linejoin="round" fill="none"/>
    <rect id="Rectangle_4104" data-name="Rectangle 4104" width="5.827" height="5.827" transform="translate(1164.855 962.536)" stroke-width="1" stroke="#818181" stroke-linecap="round" stroke-linejoin="round" fill="none"/>
    <rect id="Rectangle_4105" data-name="Rectangle 4105" width="5.827" height="5.827" transform="translate(1175.522 962.536)" stroke-width="1" stroke="#818181" stroke-linecap="round" stroke-linejoin="round" fill="none"/>
    <rect id="Rectangle_4106" data-name="Rectangle 4106" width="5.827" height="5.827" transform="translate(1189.418 927.576)" stroke-width="1" stroke="#818181" stroke-linecap="round" stroke-linejoin="round" fill="none"/>
    <rect id="Rectangle_4107" data-name="Rectangle 4107" width="5.827" height="5.827" transform="translate(1189.418 918.078)" stroke-width="1" stroke="#818181" stroke-linecap="round" stroke-linejoin="round" fill="none"/>
    <rect id="Rectangle_4108" data-name="Rectangle 4108" width="5.827" height="5.827" transform="translate(1179.559 918.078)" stroke-width="1" stroke="#818181" stroke-linecap="round" stroke-linejoin="round" fill="none"/>
    <rect id="Rectangle_4109" data-name="Rectangle 4109" width="5.827" height="5.827" transform="translate(1189.418 937.074)" stroke-width="1" stroke="#818181" stroke-linecap="round" stroke-linejoin="round" fill="none"/>
    <rect id="Rectangle_4110" data-name="Rectangle 4110" width="5.827" height="5.827" transform="translate(1189.418 946.572)" stroke-width="1" stroke="#818181" stroke-linecap="round" stroke-linejoin="round" fill="none"/>
    <rect id="Rectangle_4111" data-name="Rectangle 4111" width="5.827" height="5.827" transform="translate(1189.418 956.07)" stroke-width="1" stroke="#818181" stroke-linecap="round" stroke-linejoin="round" fill="none"/>
    <rect id="Rectangle_4112" data-name="Rectangle 4112" width="5.827" height="5.827" transform="translate(1189.418 965.567)" stroke-width="1" stroke="#818181" stroke-linecap="round" stroke-linejoin="round" fill="none"/>
    <path id="Path_7625" data-name="Path 7625" d="M981.158,842.547H898.735a7.6,7.6,0,0,1-7.6-7.6v-72.2a7.6,7.6,0,0,1,7.6-7.6h106.394a7.6,7.6,0,0,1,7.6,7.6v31.5" transform="translate(253.194 145.894)" fill="none" stroke="#818181" stroke-linecap="round" stroke-linejoin="round" stroke-width="1"/>
    <g id="Group_8580" data-name="Group 8580" transform="translate(1234.19 940.431)">
      <path id="Path_7279" data-name="Path 7279" d="M984.936,866.565a13.49,13.49,0,0,1-9.925-4.662,11.774,11.774,0,0,0-17.427,0,13.5,13.5,0,0,1-9.927,4.662h-1.011a3.929,3.929,0,0,0-3.929,3.929v12.938a42.659,42.659,0,0,0,23.58,38.154,42.66,42.66,0,0,0,23.581-38.154V870.494a3.929,3.929,0,0,0-3.929-3.929Z" transform="translate(-942.718 -858.048)" fill="#ffe5ec" stroke="#e64141" stroke-linecap="round" stroke-linejoin="round" stroke-width="1"/>
      <line id="Line_309" data-name="Line 309" x2="17.441" y2="17.441" transform="translate(14.839 20.866)" fill="none" stroke="#e64141" stroke-linecap="round" stroke-linejoin="round" stroke-width="1"/>
      <line id="Line_310" data-name="Line 310" y1="17.441" x2="17.441" transform="translate(14.839 20.866)" fill="none" stroke="#e64141" stroke-linecap="round" stroke-linejoin="round" stroke-width="1"/>
    </g>
  </g>
</svg>
