<svg xmlns="http://www.w3.org/2000/svg" width="225.148" height="252.751" viewBox="0 0 225.148 252.751">
  <g id="Group_8117" data-name="Group 8117" transform="translate(-551.783 -556.062)">
    <g id="Group_8115" data-name="Group 8115" transform="translate(614.149 611.692)">
      <rect id="Rectangle_4311" data-name="Rectangle 4311" width="99.682" height="90.837" rx="18" transform="translate(0 50.22)" stroke-width="1" stroke="#396de0" stroke-linecap="round" stroke-linejoin="round" fill="transparent"/>
      <path id="Rectangle_4312" data-name="Rectangle 4312" d="M16,0H52.742a16,16,0,0,1,16,16V50.22a0,0,0,0,1,0,0H0a0,0,0,0,1,0,0V16A16,16,0,0,1,16,0Z" transform="translate(15.47)" fill="transparent" stroke="#396de0" stroke-linecap="round" stroke-linejoin="round" stroke-width="1"/>
      <rect id="Rectangle_4313" data-name="Rectangle 4313" width="14.922" height="14.922" rx="3.43" transform="translate(42.38 88.178)" stroke-width="1" stroke="#396de0" stroke-linecap="round" stroke-linejoin="round" fill="transparent"/>
    </g>
    <g id="Group_8116" data-name="Group 8116" transform="translate(552.283 556.769)">
      <path id="Path_7506" data-name="Path 7506" d="M636.763,805.627a112.01,112.01,0,0,1,43.593-215.184" transform="translate(-568.36 -575.773)" fill="none" stroke="#06ba61" stroke-linecap="round" stroke-linejoin="round" stroke-width="1"/>
      <path id="Path_7507" data-name="Path 7507" d="M579.157,588.093l14.538,14.538L579.61,616.715" transform="translate(-467.544 -588.093)" fill="none" stroke="#06ba61" stroke-linecap="round" stroke-linejoin="round" stroke-width="1"/>
      <path id="Path_7509" data-name="Path 7509" d="M0,0,14.538,14.538.453,28.622" transform="translate(116.528 251.337) rotate(180)" fill="none" stroke="#06ba61" stroke-linecap="round" stroke-linejoin="round" stroke-width="1"/>
      <path id="Path_7508" data-name="Path 7508" d="M622.8,591.1a112.011,112.011,0,0,1-43.594,215.184" transform="translate(-467.058 -569.6)" fill="none" stroke="#06ba61" stroke-linecap="round" stroke-linejoin="round" stroke-width="1"/>
    </g>
  </g>
</svg>
