<svg xmlns="http://www.w3.org/2000/svg" width="93.359" height="79.17" viewBox="0 0 93.359 79.17">
  <g id="Group_7691" data-name="Group 7691" transform="translate(-1142.461 -877.434)">
    <rect id="Rectangle_4097" data-name="Rectangle 4097" width="87.149" height="62.638" rx="4" transform="translate(1142.961 893.466)" stroke-width="1" stroke="#818181" stroke-linecap="round" stroke-linejoin="round" fill="none"/>
    <path id="Path_7239" data-name="Path 7239" d="M1146.178,893.571l1.78-11.014a5.446,5.446,0,0,1,6.213-4.552l75.362,11.641a5.447,5.447,0,0,1,4.551,6.215l-5.138,31.989" transform="translate(1.164)" fill="none" stroke="#818181" stroke-linecap="round" stroke-linejoin="round" stroke-width="1"/>
    <line id="Line_288" data-name="Line 288" x2="26.256" transform="translate(1195.362 903.691)" fill="none" stroke="#818181" stroke-linecap="round" stroke-linejoin="round" stroke-width="1"/>
    <line id="Line_289" data-name="Line 289" x2="18.057" transform="translate(1203.561 924.48)" fill="none" stroke="#818181" stroke-linecap="round" stroke-linejoin="round" stroke-width="1"/>
    <line id="Line_290" data-name="Line 290" x2="22.429" transform="translate(1199.189 914.085)" fill="none" stroke="#818181" stroke-linecap="round" stroke-linejoin="round" stroke-width="1"/>
    <line id="Line_291" data-name="Line 291" x2="9.923" transform="translate(1211.695 934.874)" fill="none" stroke="#818181" stroke-linecap="round" stroke-linejoin="round" stroke-width="1"/>
    <line id="Line_292" data-name="Line 292" x2="26.256" transform="translate(1195.362 945.269)" fill="none" stroke="#818181" stroke-linecap="round" stroke-linejoin="round" stroke-width="1"/>
    <line id="Line_293" data-name="Line 293" x2="38.774" transform="translate(1149.461 945.269)" fill="none" stroke="#396de0" stroke-linecap="round" stroke-linejoin="round" stroke-width="1"/>
    <path id="Path_7240" data-name="Path 7240" d="M1152.059,936.07V904.736a1.345,1.345,0,0,1,1.329-1.362h15.052a1.345,1.345,0,0,1,1.329,1.362V936.07" transform="translate(3.291 9.199)" fill="none" stroke="#396de0" stroke-linecap="round" stroke-linejoin="round" stroke-width="1"/>
    <path id="Path_7241" data-name="Path 7241" d="M1159.562,905.733v-7.521a1.346,1.346,0,0,1,1.329-1.362h13.691a1.346,1.346,0,0,1,1.329,1.362v40.217" transform="translate(6.005 6.84)" fill="none" stroke="#396de0" stroke-linecap="round" stroke-linejoin="round" stroke-width="1"/>
    <rect id="Rectangle_4098" data-name="Rectangle 4098" width="4.085" height="4.085" transform="translate(1158.309 916.809)" stroke-width="1" stroke="#396de0" stroke-linecap="round" stroke-linejoin="round" fill="none"/>
    <rect id="Rectangle_4099" data-name="Rectangle 4099" width="4.085" height="4.085" transform="translate(1165.787 916.809)" stroke-width="1" stroke="#396de0" stroke-linecap="round" stroke-linejoin="round" fill="none"/>
    <rect id="Rectangle_4100" data-name="Rectangle 4100" width="4.085" height="4.085" transform="translate(1158.309 923.765)" stroke-width="1" stroke="#396de0" stroke-linecap="round" stroke-linejoin="round" fill="none"/>
    <rect id="Rectangle_4101" data-name="Rectangle 4101" width="4.085" height="4.085" transform="translate(1165.787 923.765)" stroke-width="1" stroke="#396de0" stroke-linecap="round" stroke-linejoin="round" fill="none"/>
    <rect id="Rectangle_4102" data-name="Rectangle 4102" width="4.085" height="4.085" transform="translate(1158.309 930.713)" stroke-width="1" stroke="#396de0" stroke-linecap="round" stroke-linejoin="round" fill="none"/>
    <rect id="Rectangle_4103" data-name="Rectangle 4103" width="4.085" height="4.085" transform="translate(1165.787 930.713)" stroke-width="1" stroke="#396de0" stroke-linecap="round" stroke-linejoin="round" fill="none"/>
    <rect id="Rectangle_4104" data-name="Rectangle 4104" width="4.085" height="4.085" transform="translate(1158.309 937.243)" stroke-width="1" stroke="#396de0" stroke-linecap="round" stroke-linejoin="round" fill="none"/>
    <rect id="Rectangle_4105" data-name="Rectangle 4105" width="4.085" height="4.085" transform="translate(1165.787 937.243)" stroke-width="1" stroke="#396de0" stroke-linecap="round" stroke-linejoin="round" fill="none"/>
    <rect id="Rectangle_4106" data-name="Rectangle 4106" width="4.085" height="4.085" transform="translate(1175.528 912.736)" stroke-width="1" stroke="#396de0" stroke-linecap="round" stroke-linejoin="round" fill="none"/>
    <rect id="Rectangle_4107" data-name="Rectangle 4107" width="4.085" height="4.085" transform="translate(1175.528 906.078)" stroke-width="1" stroke="#396de0" stroke-linecap="round" stroke-linejoin="round" fill="none"/>
    <rect id="Rectangle_4108" data-name="Rectangle 4108" width="4.085" height="4.085" transform="translate(1168.616 906.078)" stroke-width="1" stroke="#396de0" stroke-linecap="round" stroke-linejoin="round" fill="none"/>
    <rect id="Rectangle_4109" data-name="Rectangle 4109" width="4.085" height="4.085" transform="translate(1175.528 919.394)" stroke-width="1" stroke="#396de0" stroke-linecap="round" stroke-linejoin="round" fill="none"/>
    <rect id="Rectangle_4110" data-name="Rectangle 4110" width="4.085" height="4.085" transform="translate(1175.528 926.052)" stroke-width="1" stroke="#396de0" stroke-linecap="round" stroke-linejoin="round" fill="none"/>
    <rect id="Rectangle_4111" data-name="Rectangle 4111" width="4.085" height="4.085" transform="translate(1175.528 932.71)" stroke-width="1" stroke="#396de0" stroke-linecap="round" stroke-linejoin="round" fill="none"/>
    <rect id="Rectangle_4112" data-name="Rectangle 4112" width="4.085" height="4.085" transform="translate(1175.528 939.368)" stroke-width="1" stroke="#396de0" stroke-linecap="round" stroke-linejoin="round" fill="none"/>
  </g>
</svg>
