<svg xmlns="http://www.w3.org/2000/svg" width="681.182" height="321.768" viewBox="0 0 681.182 321.768">
  <g id="Group_7582" data-name="Group 7582" transform="translate(0.5 0.5)">
    <g id="Group_7565" data-name="Group 7565" transform="translate(39.544 177)">
      <path id="Path_7156" data-name="Path 7156" d="M165.639,704.47H131.051a7.708,7.708,0,0,1-7.65-6.763l-5.833-47.2h61.593l-5.873,47.2A7.708,7.708,0,0,1,165.639,704.47Z" transform="translate(-109.821 -560.904)" fill="none" stroke="#818181" stroke-linecap="round" stroke-linejoin="round" stroke-width="1"/>
      <rect id="Rectangle_4046" data-name="Rectangle 4046" width="77.086" height="7.709" rx="3.854" transform="translate(0 81.897)" stroke-width="1" stroke="#818181" stroke-linecap="round" stroke-linejoin="round" fill="none"/>
      <line id="Line_209" data-name="Line 209" x2="2.999" y2="28.104" transform="translate(21.715 98.874)" fill="none" stroke="#818181" stroke-linecap="round" stroke-linejoin="round" stroke-width="1"/>
      <path id="Path_7157" data-name="Path 7157" d="M141.537,602.834v-35.1a6.827,6.827,0,0,1,6.827-6.827h0a6.827,6.827,0,0,1,6.827,6.827v52.006" transform="translate(-109.821 -560.904)" fill="none" stroke="#818181" stroke-linecap="round" stroke-linejoin="round" stroke-width="1"/>
      <path id="Path_7158" data-name="Path 7158" d="M155.191,628.931V642.8H141.537V612.534" transform="translate(-109.821 -560.904)" fill="none" stroke="#818181" stroke-linecap="round" stroke-linejoin="round" stroke-width="1"/>
      <path id="Path_7159" data-name="Path 7159" d="M155.191,628.932h14.085a13.653,13.653,0,0,0,13.653-13.653h0V590.407a6.826,6.826,0,0,0-6.827-6.827h0a6.826,6.826,0,0,0-6.826,6.827v19.2a5.674,5.674,0,0,1-5.675,5.674h-8.41" transform="translate(-109.821 -560.904)" fill="none" stroke="#818181" stroke-linecap="round" stroke-linejoin="round" stroke-width="1"/>
      <path id="Path_7160" data-name="Path 7160" d="M141.26,612.534H127.175a13.653,13.653,0,0,1-13.653-13.653h0V582.816a6.827,6.827,0,0,1,6.826-6.827h0a6.827,6.827,0,0,1,6.827,6.827v10.39a5.675,5.675,0,0,0,5.675,5.675h8.41" transform="translate(-109.821 -560.904)" fill="none" stroke="#818181" stroke-linecap="round" stroke-linejoin="round" stroke-width="1"/>
      <line id="Line_210" data-name="Line 210" y1="3.328" x2="2.651" transform="translate(73.426 41.057)" fill="none" stroke="#818181" stroke-linecap="round" stroke-linejoin="round" stroke-width="1"/>
      <line id="Line_211" data-name="Line 211" y1="3.328" x2="2.651" transform="translate(17.57 28.723)" fill="none" stroke="#818181" stroke-linecap="round" stroke-linejoin="round" stroke-width="1"/>
      <line id="Line_212" data-name="Line 212" y1="3.328" x2="2.651" transform="translate(66.17 30.387)" fill="none" stroke="#818181" stroke-linecap="round" stroke-linejoin="round" stroke-width="1"/>
      <line id="Line_213" data-name="Line 213" y1="3.328" x2="2.651" transform="translate(11.233 21.753)" fill="none" stroke="#818181" stroke-linecap="round" stroke-linejoin="round" stroke-width="1"/>
      <line id="Line_214" data-name="Line 214" y1="3.328" x2="2.651" transform="translate(67.496 19.348)" fill="none" stroke="#818181" stroke-linecap="round" stroke-linejoin="round" stroke-width="1"/>
      <line id="Line_215" data-name="Line 215" y1="3.328" x2="2.651" transform="translate(45.37 13.421)" fill="none" stroke="#818181" stroke-linecap="round" stroke-linejoin="round" stroke-width="1"/>
      <line id="Line_216" data-name="Line 216" y1="3.328" x2="2.651" transform="translate(37.217 26.089)" fill="none" stroke="#818181" stroke-linecap="round" stroke-linejoin="round" stroke-width="1"/>
      <line id="Line_217" data-name="Line 217" x1="2.651" y1="3.328" transform="translate(28.788 1.981)" fill="none" stroke="#818181" stroke-linecap="round" stroke-linejoin="round" stroke-width="1"/>
      <line id="Line_218" data-name="Line 218" x1="2.651" y1="3.328" transform="translate(34.566 46.013)" fill="none" stroke="#818181" stroke-linecap="round" stroke-linejoin="round" stroke-width="1"/>
      <line id="Line_219" data-name="Line 219" x1="2.651" y1="3.328" transform="translate(56.588 36.852)" fill="none" stroke="#818181" stroke-linecap="round" stroke-linejoin="round" stroke-width="1"/>
      <line id="Line_220" data-name="Line 220" x1="2.651" y1="3.328" transform="translate(2.739 14.063)" fill="none" stroke="#818181" stroke-linecap="round" stroke-linejoin="round" stroke-width="1"/>
      <line id="Line_221" data-name="Line 221" x1="2.651" y1="3.328" transform="translate(0.96 35.188)" fill="none" stroke="#818181" stroke-linecap="round" stroke-linejoin="round" stroke-width="1"/>
      <line id="Line_222" data-name="Line 222" x1="2.651" y1="3.328" transform="translate(14.918 42.024)" fill="none" stroke="#818181" stroke-linecap="round" stroke-linejoin="round" stroke-width="1"/>
      <line id="Line_223" data-name="Line 223" x1="2.651" y1="3.328" transform="translate(28.788 59.383)" fill="none" stroke="#818181" stroke-linecap="round" stroke-linejoin="round" stroke-width="1"/>
      <line id="Line_224" data-name="Line 224" y1="3.328" x2="2.651" transform="translate(59.239 58.833)" fill="none" stroke="#818181" stroke-linecap="round" stroke-linejoin="round" stroke-width="1"/>
      <line id="Line_225" data-name="Line 225" y1="3.328" x2="2.651" transform="translate(38.543 66.364)" fill="none" stroke="#818181" stroke-linecap="round" stroke-linejoin="round" stroke-width="1"/>
    </g>
    <g id="Group_7567" data-name="Group 7567" transform="translate(424.526 52.179)">
      <g id="Group_7566" data-name="Group 7566">
        <path id="Path_7161" data-name="Path 7161" d="M630.056,489.315l4.694-28.461a8,8,0,0,0-6.592-9.2l-93.8-15.468a8,8,0,0,0-9.2,6.591l-12.576,76.26" transform="translate(-494.803 -436.083)" fill="none" stroke="#818181" stroke-linecap="round" stroke-linejoin="round" stroke-width="1"/>
        <path id="Path_7162" data-name="Path 7162" d="M495.475,622.822l-.564,3.416a8,8,0,0,0,6.592,9.2L595.3,650.9a8,8,0,0,0,9.2-6.592l20.514-123.351" transform="translate(-494.803 -436.083)" fill="none" stroke="#818181" stroke-linecap="round" stroke-linejoin="round" stroke-width="1"/>
        <path id="Path_7163" data-name="Path 7163" d="M500.5,623.369a8,8,0,0,0,6.592,9.2l83.834,13.826a8,8,0,0,0,9.2-6.592L629.16,463.724a8,8,0,0,0-6.592-9.2L538.734,440.7a8,8,0,0,0-9.2,6.591L515.02,535.332" transform="translate(-494.803 -436.083)" fill="none" stroke="#818181" stroke-linecap="round" stroke-linejoin="round" stroke-width="1"/>
        <line id="Line_226" data-name="Line 226" x1="31.609" y1="5.213" transform="translate(39.659 193.169)" fill="none" stroke="#818181" stroke-linecap="round" stroke-linejoin="round" stroke-width="1"/>
      </g>
    </g>
    <path id="Path_7164" data-name="Path 7164" d="M602.857,704.131l-6.246-10.123c-4.229-6.855-8.716-13.862-15.6-18.331-5.923-3.844-12.191-7.273-18.152-11.107-10.851-6.979-23.2-13.766-32.425-22.905" transform="translate(-70.277 -383.904)" fill="none" stroke="#818181" stroke-linecap="round" stroke-linejoin="round" stroke-width="1"/>
    <path id="Path_7165" data-name="Path 7165" d="M620.345,584.73c2.716-4.463,4.111-44.709,4.412-48.03s-.98-28.043,4.648-46.173c0,0,7.054-14.566,16.172-10.493,0,0,1.181.3.818,2.5-.021.13-.049.258-.078.4a11.375,11.375,0,0,1-.522,1.631c-1.635,4.06-1.059,20.048.274,24.6,2.62,8.928,5.016,16.036,5.587,25.4a193.651,193.651,0,0,0,3.811,30.488c1.31,5.868,3.059,11.657,3.784,17.625s.411,12.033.672,18.051a141.324,141.324,0,0,0,3.4,23.686c2.028,9.379,4.616,18.767,8.889,27.4,4.327,8.739,10.975,15.778,16.846,23.441,8.841,11.54,12.083,17.831,21.113,29.222" transform="translate(-70.277 -383.904)" fill="none" stroke="#818181" stroke-linecap="round" stroke-linejoin="round" stroke-width="1"/>
    <path id="Path_7166" data-name="Path 7166" d="M488.828,580.354a17.257,17.257,0,0,0-5.525,17.284c1.206,5.357,4.2,10.113,7.14,14.749,1.394,2.2,2.731,4.43,4.138,6.614a5.432,5.432,0,0,0,3.842,2.789,4.721,4.721,0,0,0,2.49-.6c3.932-2.035,5.386-7.07,4.959-11.476-.488-5.036-3.437-10.8-4.227-15.746" transform="translate(-70.277 -383.904)" fill="none" stroke="#818181" stroke-linecap="round" stroke-linejoin="round" stroke-width="1"/>
    <path id="Path_7167" data-name="Path 7167" d="M497.283,618.388s4.113-4.228,5.824-5.188-5.279-18.074-10.432-14.7S491.832,611.9,497.283,618.388Z" transform="translate(-70.277 -383.904)" fill="none" stroke="#818181" stroke-linecap="round" stroke-linejoin="round" stroke-width="1"/>
    <path id="Path_7168" data-name="Path 7168" d="M488.718,540.806a21.18,21.18,0,0,0-7.555,14.435c-.718,6.564,1.486,12.654,4.487,18.379,1.95,3.721,3.868,7.463,6,11.085,1.529,2.6,4.009,8.433,7.2,9.271a6.584,6.584,0,0,0,3.46-.178,12.049,12.049,0,0,0,7.745-7c2.863-7.151-.882-15.891-2.987-22.77" transform="translate(-70.277 -383.904)" fill="none" stroke="#818181" stroke-linecap="round" stroke-linejoin="round" stroke-width="1"/>
    <path id="Path_7169" data-name="Path 7169" d="M498.093,590.2s5.314-5.463,7.524-6.7S498.8,560.145,492.14,564.5,491.05,581.816,498.093,590.2Z" transform="translate(-70.277 -383.904)" fill="none" stroke="#818181" stroke-linecap="round" stroke-linejoin="round" stroke-width="1"/>
    <path id="Path_7170" data-name="Path 7170" d="M496.04,508.366c-4.864,3.929-8.471,8.158-9.585,14.519-1.722,9.831,2.448,17.005,7.043,25.2,1.5,2.67,7.644,16.2,11.728,15.6,14.947-2.19,10.489-19.1,7.242-28.975a23.222,23.222,0,0,1-1.322-5.13c-.377-4.236,1.2-9,1.881-13.2" transform="translate(-70.277 -383.904)" fill="none" stroke="#818181" stroke-linecap="round" stroke-linejoin="round" stroke-width="1"/>
    <path id="Path_7171" data-name="Path 7171" d="M503.779,559.108s5.314-5.462,7.524-6.7-6.821-23.351-13.477-18.992S496.736,550.725,503.779,559.108Z" transform="translate(-70.277 -383.904)" fill="none" stroke="#818181" stroke-linecap="round" stroke-linejoin="round" stroke-width="1"/>
    <path id="Path_7172" data-name="Path 7172" d="M514.657,506.506c-18.266,6.135-23.352-.481-23.823-2" transform="translate(-70.277 -383.904)" fill="none" stroke="#818181" stroke-linecap="round" stroke-linejoin="round" stroke-width="1"/>
    <path id="Path_7173" data-name="Path 7173" d="M505.822,486.847c3-3.246,5.817-6.5,6.718-7.41a51.445,51.445,0,0,1,7.541-5.819" transform="translate(-70.277 -383.904)" fill="none" stroke="#818181" stroke-linecap="round" stroke-linejoin="round" stroke-width="1"/>
    <path id="Path_7174" data-name="Path 7174" d="M490.886,504.646s8.281-4.332,11.1-4.909,9.519-11.6,6.967-13.053C503.824,483.751,489.1,503.188,490.886,504.646Z" transform="translate(-70.277 -383.904)" fill="none" stroke="#818181" stroke-linecap="round" stroke-linejoin="round" stroke-width="1"/>
    <rect id="Rectangle_4047" data-name="Rectangle 4047" width="12.475" height="12.475" rx="2" transform="matrix(0.987, 0.163, -0.163, 0.987, 446.032, 176.259)" stroke-width="1" stroke="#818181" stroke-linecap="round" stroke-linejoin="round" fill="none"/>
    <rect id="Rectangle_4048" data-name="Rectangle 4048" width="12.475" height="12.475" rx="2" transform="matrix(0.987, 0.163, -0.163, 0.987, 461.501, 178.975)" stroke-width="1" stroke="#818181" stroke-linecap="round" stroke-linejoin="round" fill="none"/>
    <rect id="Rectangle_4049" data-name="Rectangle 4049" width="12.475" height="12.475" rx="2" transform="matrix(0.987, 0.163, -0.163, 0.987, 476.969, 181.69)" stroke-width="1" stroke="#818181" stroke-linecap="round" stroke-linejoin="round" fill="none"/>
    <rect id="Rectangle_4050" data-name="Rectangle 4050" width="12.475" height="12.475" rx="2" transform="matrix(0.987, 0.163, -0.163, 0.987, 492.438, 184.406)" stroke-width="1" stroke="#818181" stroke-linecap="round" stroke-linejoin="round" fill="none"/>
    <rect id="Rectangle_4051" data-name="Rectangle 4051" width="12.475" height="12.475" rx="2" transform="matrix(0.987, 0.163, -0.163, 0.987, 507.907, 187.122)" stroke-width="1" stroke="#818181" stroke-linecap="round" stroke-linejoin="round" fill="none"/>
    <rect id="Rectangle_4055" data-name="Rectangle 4055" width="12.475" height="12.475" rx="2" transform="matrix(0.987, 0.163, -0.163, 0.987, 523.029, 189.8)" stroke-width="1" stroke="#818181" stroke-linecap="round" stroke-linejoin="round" fill="none"/>
    <g id="Group_7568" data-name="Group 7568" transform="translate(480.924 127.775)">
      <path id="Path_7175" data-name="Path 7175" d="M578.879,523.166l1.769.291a1.29,1.29,0,1,0,.419-2.546L564.641,518.2a6.722,6.722,0,1,0-.42,2.546l10.226,1.687" transform="translate(-551.2 -511.679)" fill="none" stroke="#396de0" stroke-linecap="round" stroke-linejoin="round" stroke-width="1"/>
      <circle id="Ellipse_216" data-name="Ellipse 216" cx="3.385" cy="3.385" r="3.385" transform="translate(3.542 3.372)" stroke-width="1" stroke="#396de0" stroke-linecap="round" stroke-linejoin="round" fill="none"/>
      <path id="Path_7176" data-name="Path 7176" d="M578.879,523.166l-.339,2.055a.748.748,0,0,1-.86.617h0a.749.749,0,0,1-.617-.861h0a.551.551,0,0,0-.453-.632l-.393-.064a.55.55,0,0,0-.632.453h0a.748.748,0,0,1-.86.617h0a.75.75,0,0,1-.617-.861l.339-2.055" transform="translate(-551.2 -511.679)" fill="none" stroke="#396de0" stroke-linecap="round" stroke-linejoin="round" stroke-width="1"/>
    </g>
    <path id="Path_7177" data-name="Path 7177" d="M586.318,502.247a11.932,11.932,0,0,1-7.989-5.494,10.408,10.408,0,0,0-15.2-2.508,11.927,11.927,0,0,1-9.33,2.638l-.882-.145a3.476,3.476,0,0,0-3.995,2.863l-1.861,11.287a37.717,37.717,0,0,0,15.083,36.68A37.718,37.718,0,0,0,588.2,517.674l1.862-11.287a3.475,3.475,0,0,0-2.863-3.994Z" transform="translate(-70.277 -383.904)" fill="none" stroke="#818181" stroke-linecap="round" stroke-linejoin="round" stroke-width="1"/>
    <g id="Group_7569" data-name="Group 7569" transform="translate(448.678 180.934)">
      <line id="Line_227" data-name="Line 227" x1="0.823" y2="4.987" transform="translate(2.082)" fill="none" stroke="#396de0" stroke-linecap="round" stroke-linejoin="round" stroke-width="1"/>
      <line id="Line_228" data-name="Line 228" x2="4.987" y2="0.823" transform="translate(0 2.082)" fill="none" stroke="#396de0" stroke-linecap="round" stroke-linejoin="round" stroke-width="1"/>
      <line id="Line_229" data-name="Line 229" x2="2.945" y2="4.108" transform="translate(1.021 0.44)" fill="none" stroke="#396de0" stroke-linecap="round" stroke-linejoin="round" stroke-width="1"/>
      <line id="Line_230" data-name="Line 230" y1="2.945" x2="4.108" transform="translate(0.44 1.021)" fill="none" stroke="#396de0" stroke-linecap="round" stroke-linejoin="round" stroke-width="1"/>
    </g>
    <g id="Group_7570" data-name="Group 7570" transform="translate(464.147 183.65)">
      <line id="Line_231" data-name="Line 231" x1="0.823" y2="4.987" transform="translate(2.082)" fill="none" stroke="#396de0" stroke-linecap="round" stroke-linejoin="round" stroke-width="1"/>
      <line id="Line_232" data-name="Line 232" x2="4.987" y2="0.823" transform="translate(0 2.082)" fill="none" stroke="#396de0" stroke-linecap="round" stroke-linejoin="round" stroke-width="1"/>
      <line id="Line_233" data-name="Line 233" x2="2.945" y2="4.108" transform="translate(1.021 0.44)" fill="none" stroke="#396de0" stroke-linecap="round" stroke-linejoin="round" stroke-width="1"/>
      <line id="Line_234" data-name="Line 234" y1="2.945" x2="4.108" transform="translate(0.44 1.021)" fill="none" stroke="#396de0" stroke-linecap="round" stroke-linejoin="round" stroke-width="1"/>
    </g>
    <g id="Group_7571" data-name="Group 7571" transform="translate(479.615 186.366)">
      <line id="Line_235" data-name="Line 235" x1="0.823" y2="4.987" transform="translate(2.082)" fill="none" stroke="#396de0" stroke-linecap="round" stroke-linejoin="round" stroke-width="1"/>
      <line id="Line_236" data-name="Line 236" x2="4.987" y2="0.823" transform="translate(0 2.082)" fill="none" stroke="#396de0" stroke-linecap="round" stroke-linejoin="round" stroke-width="1"/>
      <line id="Line_237" data-name="Line 237" x2="2.945" y2="4.108" transform="translate(1.021 0.44)" fill="none" stroke="#396de0" stroke-linecap="round" stroke-linejoin="round" stroke-width="1"/>
      <line id="Line_238" data-name="Line 238" y1="2.945" x2="4.108" transform="translate(0.44 1.021)" fill="none" stroke="#396de0" stroke-linecap="round" stroke-linejoin="round" stroke-width="1"/>
    </g>
    <g id="Group_7572" data-name="Group 7572" transform="translate(494.9 189.014)">
      <line id="Line_239" data-name="Line 239" x1="0.823" y2="4.987" transform="translate(2.082)" fill="none" stroke="#396de0" stroke-linecap="round" stroke-linejoin="round" stroke-width="1"/>
      <line id="Line_240" data-name="Line 240" x2="4.987" y2="0.823" transform="translate(0 2.082)" fill="none" stroke="#396de0" stroke-linecap="round" stroke-linejoin="round" stroke-width="1"/>
      <line id="Line_241" data-name="Line 241" x2="2.945" y2="4.108" transform="translate(1.021 0.44)" fill="none" stroke="#396de0" stroke-linecap="round" stroke-linejoin="round" stroke-width="1"/>
      <line id="Line_242" data-name="Line 242" y1="2.945" x2="4.108" transform="translate(0.44 1.021)" fill="none" stroke="#396de0" stroke-linecap="round" stroke-linejoin="round" stroke-width="1"/>
    </g>
    <g id="Group_7573" data-name="Group 7573" transform="translate(510.553 191.798)">
      <line id="Line_243" data-name="Line 243" x1="0.823" y2="4.987" transform="translate(2.082)" fill="none" stroke="#396de0" stroke-linecap="round" stroke-linejoin="round" stroke-width="1"/>
      <line id="Line_244" data-name="Line 244" x2="4.987" y2="0.823" transform="translate(0 2.082)" fill="none" stroke="#396de0" stroke-linecap="round" stroke-linejoin="round" stroke-width="1"/>
      <line id="Line_245" data-name="Line 245" x2="2.945" y2="4.108" transform="translate(1.021 0.44)" fill="none" stroke="#396de0" stroke-linecap="round" stroke-linejoin="round" stroke-width="1"/>
      <line id="Line_246" data-name="Line 246" y1="2.945" x2="4.108" transform="translate(0.44 1.021)" fill="none" stroke="#396de0" stroke-linecap="round" stroke-linejoin="round" stroke-width="1"/>
    </g>
    <g id="Group_7583" data-name="Group 7583" transform="translate(525.675 194.476)">
      <line id="Line_243-2" data-name="Line 243" x1="0.823" y2="4.987" transform="translate(2.082)" fill="none" stroke="#396de0" stroke-linecap="round" stroke-linejoin="round" stroke-width="1"/>
      <line id="Line_244-2" data-name="Line 244" x2="4.987" y2="0.823" transform="translate(0 2.082)" fill="none" stroke="#396de0" stroke-linecap="round" stroke-linejoin="round" stroke-width="1"/>
      <line id="Line_245-2" data-name="Line 245" x2="2.945" y2="4.108" transform="translate(1.021 0.44)" fill="none" stroke="#396de0" stroke-linecap="round" stroke-linejoin="round" stroke-width="1"/>
      <line id="Line_246-2" data-name="Line 246" y1="2.945" x2="4.108" transform="translate(0.44 1.021)" fill="none" stroke="#396de0" stroke-linecap="round" stroke-linejoin="round" stroke-width="1"/>
    </g>
    <line id="Line_247" data-name="Line 247" x2="680.182" transform="translate(0 320.566)" fill="none" stroke="#818181" stroke-linecap="round" stroke-linejoin="round" stroke-width="1"/>
    <g id="Group_7574" data-name="Group 7574" transform="translate(133.6)">
      <path id="Path_7178" data-name="Path 7178" d="M534.462,656.115H215.877a12,12,0,0,1-12-12V395.9a12,12,0,0,1,12-12H552.664a12,12,0,0,1,12,12v40.179" transform="translate(-203.877 -383.904)" fill="none" stroke="#818181" stroke-linecap="round" stroke-linejoin="round" stroke-width="1"/>
      <path id="Path_7179" data-name="Path 7179" d="M482.823,615.409H218.053V396.538H550.487v37.912" transform="translate(-203.877 -383.904)" fill="none" stroke="#818181" stroke-linecap="round" stroke-linejoin="round" stroke-width="1"/>
      <path id="Path_7180" data-name="Path 7180" d="M421.5,665.679l.625-9.464h-75.7l.624,9.464c1.086,16.459-5.564,26.6-18.453,38.791H439.951C427.063,692.281,420.413,682.138,421.5,665.679Z" transform="translate(-203.877 -383.904)" fill="none" stroke="#818181" stroke-linecap="round" stroke-linejoin="round" stroke-width="1"/>
    </g>
    <g id="Group_7575" data-name="Group 7575" transform="translate(221.218 91.123)">
      <rect id="Rectangle_4052" data-name="Rectangle 4052" width="47.552" height="43.333" rx="6.134" transform="translate(0 23.957)" stroke-width="1" stroke="#818181" stroke-linecap="round" stroke-linejoin="round" fill="none"/>
      <path id="Rectangle_4053" data-name="Rectangle 4053" d="M12,0h8.792a12,12,0,0,1,12,12V23.957a0,0,0,0,1,0,0H0a0,0,0,0,1,0,0V12A12,12,0,0,1,12,0Z" transform="translate(7.38)" fill="none" stroke="#818181" stroke-linecap="round" stroke-linejoin="round" stroke-width="1"/>
      <rect id="Rectangle_4054" data-name="Rectangle 4054" width="7.118" height="7.118" rx="3.559" transform="translate(20.217 42.064)" stroke-width="1" stroke="#818181" stroke-linecap="round" stroke-linejoin="round" fill="none"/>
    </g>
    <g id="Group_7581" data-name="Group 7581" transform="translate(268.769 120.372)">
      <g id="Group_7576" data-name="Group 7576" transform="translate(10.794 10.372)">
        <line id="Line_248" data-name="Line 248" y2="12.622" transform="translate(6.311)" fill="none" stroke="#396de0" stroke-linecap="round" stroke-linejoin="round" stroke-width="1"/>
        <line id="Line_249" data-name="Line 249" x2="12.622" transform="translate(0 6.311)" fill="none" stroke="#396de0" stroke-linecap="round" stroke-linejoin="round" stroke-width="1"/>
        <line id="Line_250" data-name="Line 250" x2="8.925" y2="8.925" transform="translate(1.848 1.848)" fill="none" stroke="#396de0" stroke-linecap="round" stroke-linejoin="round" stroke-width="1"/>
        <line id="Line_251" data-name="Line 251" y1="8.925" x2="8.925" transform="translate(1.848 1.848)" fill="none" stroke="#396de0" stroke-linecap="round" stroke-linejoin="round" stroke-width="1"/>
      </g>
      <g id="Group_7577" data-name="Group 7577" transform="translate(28.879 10.372)">
        <line id="Line_252" data-name="Line 252" y2="12.622" transform="translate(6.311)" fill="none" stroke="#396de0" stroke-linecap="round" stroke-linejoin="round" stroke-width="1"/>
        <line id="Line_253" data-name="Line 253" x2="12.622" transform="translate(0 6.311)" fill="none" stroke="#396de0" stroke-linecap="round" stroke-linejoin="round" stroke-width="1"/>
        <line id="Line_254" data-name="Line 254" x2="8.925" y2="8.925" transform="translate(1.848 1.848)" fill="none" stroke="#396de0" stroke-linecap="round" stroke-linejoin="round" stroke-width="1"/>
        <line id="Line_255" data-name="Line 255" y1="8.925" x2="8.925" transform="translate(1.848 1.848)" fill="none" stroke="#396de0" stroke-linecap="round" stroke-linejoin="round" stroke-width="1"/>
      </g>
      <g id="Group_7578" data-name="Group 7578" transform="translate(46.964 10.372)">
        <line id="Line_256" data-name="Line 256" y2="12.622" transform="translate(6.311)" fill="none" stroke="#396de0" stroke-linecap="round" stroke-linejoin="round" stroke-width="1"/>
        <line id="Line_257" data-name="Line 257" x2="12.622" transform="translate(0 6.311)" fill="none" stroke="#396de0" stroke-linecap="round" stroke-linejoin="round" stroke-width="1"/>
        <line id="Line_258" data-name="Line 258" x2="8.925" y2="8.925" transform="translate(1.848 1.848)" fill="none" stroke="#396de0" stroke-linecap="round" stroke-linejoin="round" stroke-width="1"/>
        <line id="Line_259" data-name="Line 259" y1="8.925" x2="8.925" transform="translate(1.848 1.848)" fill="none" stroke="#396de0" stroke-linecap="round" stroke-linejoin="round" stroke-width="1"/>
      </g>
      <g id="Group_7579" data-name="Group 7579" transform="translate(65.05 10.372)">
        <line id="Line_260" data-name="Line 260" y2="12.622" transform="translate(6.311)" fill="none" stroke="#396de0" stroke-linecap="round" stroke-linejoin="round" stroke-width="1"/>
        <line id="Line_261" data-name="Line 261" x2="12.622" transform="translate(0 6.311)" fill="none" stroke="#396de0" stroke-linecap="round" stroke-linejoin="round" stroke-width="1"/>
        <line id="Line_262" data-name="Line 262" x2="8.925" y2="8.925" transform="translate(1.848 1.848)" fill="none" stroke="#396de0" stroke-linecap="round" stroke-linejoin="round" stroke-width="1"/>
        <line id="Line_263" data-name="Line 263" y1="8.925" x2="8.925" transform="translate(1.848 1.848)" fill="none" stroke="#396de0" stroke-linecap="round" stroke-linejoin="round" stroke-width="1"/>
      </g>
      <g id="Group_7580" data-name="Group 7580" transform="translate(83.135 10.372)">
        <line id="Line_264" data-name="Line 264" y2="12.622" transform="translate(6.311)" fill="none" stroke="#396de0" stroke-linecap="round" stroke-linejoin="round" stroke-width="1"/>
        <line id="Line_265" data-name="Line 265" x2="12.622" transform="translate(0 6.311)" fill="none" stroke="#396de0" stroke-linecap="round" stroke-linejoin="round" stroke-width="1"/>
        <line id="Line_266" data-name="Line 266" x2="8.925" y2="8.925" transform="translate(1.848 1.848)" fill="none" stroke="#396de0" stroke-linecap="round" stroke-linejoin="round" stroke-width="1"/>
        <line id="Line_267" data-name="Line 267" y1="8.925" x2="8.925" transform="translate(1.848 1.848)" fill="none" stroke="#396de0" stroke-linecap="round" stroke-linejoin="round" stroke-width="1"/>
      </g>
      <g id="Group_7584" data-name="Group 7584" transform="translate(101.135 10.372)">
        <line id="Line_264-2" data-name="Line 264" y2="12.622" transform="translate(6.311)" fill="none" stroke="#396de0" stroke-linecap="round" stroke-linejoin="round" stroke-width="1"/>
        <line id="Line_265-2" data-name="Line 265" x2="12.622" transform="translate(0 6.311)" fill="none" stroke="#396de0" stroke-linecap="round" stroke-linejoin="round" stroke-width="1"/>
        <line id="Line_266-2" data-name="Line 266" x2="8.925" y2="8.925" transform="translate(1.848 1.848)" fill="none" stroke="#396de0" stroke-linecap="round" stroke-linejoin="round" stroke-width="1"/>
        <line id="Line_267-2" data-name="Line 267" y1="8.925" x2="8.925" transform="translate(1.848 1.848)" fill="none" stroke="#396de0" stroke-linecap="round" stroke-linejoin="round" stroke-width="1"/>
      </g>
      <path id="Path_7181" data-name="Path 7181" d="M339.046,504.276H453.233a10.018,10.018,0,0,1,9.988,9.988v13.39a10.018,10.018,0,0,1-9.988,9.988H339.046" transform="translate(-339.046 -504.276)" fill="none" stroke="#818181" stroke-linecap="round" stroke-linejoin="round" stroke-width="1"/>
    </g>
  </g>
</svg>
