<svg xmlns="http://www.w3.org/2000/svg" width="523.847" height="240.365" viewBox="0 0 523.847 240.365">
  <g id="Group_8108" data-name="Group 8108" transform="translate(-667.404 -772.123)">
    <line id="Line_394" data-name="Line 394" x1="522.847" transform="translate(667.904 1011.982)" fill="none" stroke="#818181" stroke-linecap="round" stroke-linejoin="round" stroke-width="1"/>
    <path id="Rectangle_4299" data-name="Rectangle 4299" d="M4.772,0H321.106a4.772,4.772,0,0,1,4.772,4.772V220.725a0,0,0,0,1,0,0H0a0,0,0,0,1,0,0V4.772A4.772,4.772,0,0,1,4.772,0Z" transform="translate(734.639 772.623)" fill="none" stroke="#818181" stroke-linecap="round" stroke-linejoin="round" stroke-width="1"/>
    <rect id="Rectangle_4300" data-name="Rectangle 4300" width="297.932" height="194.661" transform="translate(748.612 784.01)" stroke-width="1" stroke="#818181" stroke-linecap="round" stroke-linejoin="round" fill="none"/>
    <path id="Rectangle_4301" data-name="Rectangle 4301" d="M0,0H386.726a0,0,0,0,1,0,0V12.453a6.18,6.18,0,0,1-6.18,6.18H6.18A6.18,6.18,0,0,1,0,12.453V0A0,0,0,0,1,0,0Z" transform="translate(704.215 993.349)" fill="none" stroke="#818181" stroke-linecap="round" stroke-linejoin="round" stroke-width="1"/>
    <path id="Rectangle_4302" data-name="Rectangle 4302" d="M0,0H53.917a0,0,0,0,1,0,0V5.3a2.63,2.63,0,0,1-2.63,2.63H2.63A2.63,2.63,0,0,1,0,5.3V0A0,0,0,0,1,0,0Z" transform="translate(870.62 993.349)" fill="none" stroke="#818181" stroke-linecap="round" stroke-linejoin="round" stroke-width="1"/>
    <g id="Group_8104" data-name="Group 8104" transform="translate(1092.539 880.973)">
      <path id="Path_7495" data-name="Path 7495" d="M814.5,848l-2.756-32.373h68.6L877.589,848" transform="translate(-808.705 -794.506)" fill="none" stroke="#818181" stroke-linecap="round" stroke-linejoin="round" stroke-width="1"/>
      <path id="Path_7496" data-name="Path 7496" d="M871.964,838.994l-3.881,34.114a6.889,6.889,0,0,1-6.983,6.154H824.115a6.894,6.894,0,0,1-6.986-6.154l-3.715-34.528" transform="translate(-805.346 -748.247)" fill="none" stroke="#818181" stroke-linecap="round" stroke-linejoin="round" stroke-width="1"/>
      <path id="Rectangle_4303" data-name="Rectangle 4303" d="M4.04,0h66.6a4.04,4.04,0,0,1,4.04,4.04V5.23a1.04,1.04,0,0,1-1.04,1.04H1.04A1.04,1.04,0,0,1,0,5.23V4.04A4.04,4.04,0,0,1,4.04,0Z" transform="translate(0 14.851)" fill="none" stroke="#818181" stroke-linecap="round" stroke-linejoin="round" stroke-width="1"/>
      <path id="Path_7497" data-name="Path 7497" d="M876.883,830.076h-7.918A27.546,27.546,0,0,1,856.618,827a24.031,24.031,0,0,0-21.5,0,27.545,27.545,0,0,1-12.348,3.072h-7.918a3.016,3.016,0,0,0-3,3.275l2.635,30.807a3.016,3.016,0,0,0,3.006,2.759h5.28a27.6,27.6,0,0,1,12.351,3.073,24.023,24.023,0,0,0,21.5,0,27.582,27.582,0,0,1,12.347-3.073h5.316a3.017,3.017,0,0,0,3.006-2.762l2.6-30.807A3.017,3.017,0,0,0,876.883,830.076Z" transform="translate(-808.526 -776.694)" fill="#f5fff5" stroke="#06ba61" stroke-linecap="round" stroke-linejoin="round" stroke-width="1"/>
      <path id="Path_7498" data-name="Path 7498" d="M811.812,819.276h68.211a4.221,4.221,0,0,0-3.89-4.206L820.385,810.7a8.573,8.573,0,0,0-8.573,8.572Z" transform="translate(-808.575 -804.426)" fill="none" stroke="#818181" stroke-linecap="round" stroke-linejoin="round" stroke-width="1"/>
      <path id="Path_7499" data-name="Path 7499" d="M827.676,816.039l-12.32-1.14v-3.051a3.226,3.226,0,0,1,3.226-3.226h5.868a3.226,3.226,0,0,1,3.226,3.226Z" transform="translate(-801.433 -808.622)" fill="none" stroke="#818181" stroke-linecap="round" stroke-linejoin="round" stroke-width="1"/>
    </g>
    <g id="Group_8107" data-name="Group 8107" transform="translate(806.029 818.957)">
      <g id="Group_8105" data-name="Group 8105" transform="translate(125.346 16.982)">
        <path id="Union_1" data-name="Union 1" d="M442.189,10362.236v-25.955H415.546a3.88,3.88,0,0,1,0-7.761h26.643v-25.956a3.88,3.88,0,1,1,7.76,0v25.956h25.271a3.88,3.88,0,1,1,0,7.761H449.949v25.955a3.88,3.88,0,1,1-7.76,0Z" transform="translate(-416.667 -10289.316)" fill="#f5fff5" stroke="#06ba61" stroke-linecap="round" stroke-linejoin="round" stroke-width="1"/>
      </g>
      <g id="Group_8106" data-name="Group 8106" transform="translate(16.847 19.433)">
        <circle id="Ellipse_268" data-name="Ellipse 268" cx="22.332" cy="22.332" r="22.332" transform="translate(21.167)" stroke-width="1" stroke="#06ba61" stroke-linecap="round" stroke-linejoin="round" fill="none"/>
        <path id="Path_7500" data-name="Path 7500" d="M807.638,833.371h0a20.154,20.154,0,0,0-20.154-20.154H740.8a20.156,20.156,0,0,0-20.157,20.154h0" transform="translate(-720.642 -756.584)" fill="none" stroke="#06ba61" stroke-linecap="round" stroke-linejoin="round" stroke-width="1"/>
      </g>
      <path id="Path_7501" data-name="Path 7501" d="M870.108,886.93V894.6a9.045,9.045,0,0,1-9.046,9.046h-136.3a9.045,9.045,0,0,1-9.046-9.046V797.036a9.045,9.045,0,0,1,9.046-9.046h136.3a9.045,9.045,0,0,1,9.046,9.046v11.042" transform="translate(-715.718 -787.99)" fill="none" stroke="#818181" stroke-linecap="round" stroke-linejoin="round" stroke-width="1"/>
    </g>
    <path id="Path_7502" data-name="Path 7502" d="M764.759,791.4" transform="translate(189.141 37.839)" fill="none" stroke="#818181" stroke-linecap="round" stroke-linejoin="round" stroke-width="1"/>
  </g>
</svg>
