<svg xmlns="http://www.w3.org/2000/svg" width="81.004" height="74" viewBox="0 0 81.004 74">
  <g id="Group_8168" data-name="Group 8168" transform="translate(0.502 0.5)">
    <path id="Path_7233" data-name="Path 7233" d="M1432.519,371h7a20.417,20.417,0,0,0,20.466-19.5A20.128,20.128,0,0,0,1440,330.531h-.035a19.97,19.97,0,0,0-39.93,0H1400a20.128,20.128,0,0,0-19.989,20.927A20.447,20.447,0,0,0,1400.524,371h7.571" transform="translate(-1380 -311)" fill="none" stroke="#396de0" stroke-linecap="round" stroke-linejoin="round" stroke-width="1"/>
    <g id="Group_7684" data-name="Group 7684" transform="translate(30.001 41)">
      <path id="Path_7234" data-name="Path 7234" d="M1410,362l10-10,10,10" transform="translate(-1410 -352)" fill="none" stroke="#396de0" stroke-linecap="round" stroke-linejoin="round" stroke-width="1"/>
      <line id="Line_277" data-name="Line 277" y1="32" transform="translate(10 0)" fill="none" stroke="#396de0" stroke-linecap="round" stroke-linejoin="round" stroke-width="1"/>
    </g>
  </g>
</svg>
